<?xml version="1.0" encoding="UTF-8"?>
<svg width="216px" height="256px" viewBox="0 0 216 256" version="1.1" xmlns="http://www.w3.org/2000/svg" xmlns:xlink="http://www.w3.org/1999/xlink">
    <!-- Generator: Sketch 52 (66869) - http://www.bohemiancoding.com/sketch -->
    <title>Group 69</title>
    <desc>Created with Sketch.</desc>
    <g id="Page-1" stroke="none" stroke-width="1" fill="none" fill-rule="evenodd">
        <g id="Desktop-HD-Copy" transform="translate(-1123.000000, -5206.000000)">
            <g id="Group-69" transform="translate(1123.000000, 5206.000000)">
                <path d="M133.2347,127.1131 L133.0607,14.2421 L84.1307,14.2421 L84.2867,126.6641 C84.2707,126.8121 84.2677,126.9621 84.2877,127.1121 L84.2877,127.1131 C84.3987,127.9691 85.0727,128.8481 86.2857,129.5491 L104.5417,140.0891 C106.9787,141.4961 110.6657,141.6481 112.7767,140.4301 L131.8277,129.4301 C132.8877,128.8191 133.3477,127.9771 133.2347,127.1131" id="Fill-1" fill="#F2F2F2"></path>
                <path d="M133.2347,127.1131 L133.0607,14.2421 L84.1307,14.2421 L84.2867,126.6641 C84.2707,126.8121 84.2677,126.9621 84.2877,127.1121 L84.2877,127.1131 C84.3987,127.9691 85.0727,128.8481 86.2857,129.5491 L104.5417,140.0891 C106.9787,141.4961 110.6657,141.6481 112.7767,140.4301 L131.8277,129.4301 C132.8877,128.8191 133.3477,127.9771 133.2347,127.1131 Z" id="Stroke-3" stroke="#2E2E2E" stroke-width="0.5"></path>
                <path d="M131.6839,16.7088 L112.6329,27.7078 C110.5219,28.9258 106.8349,28.7728 104.3979,27.3658 L86.1419,16.8258 C83.7049,15.4188 83.4399,13.2898 85.5509,12.0708 L104.6019,1.0718 C106.7119,-0.1462 110.3999,0.0068 112.8359,1.4138 L131.0929,11.9538 C133.5299,13.3608 133.7939,15.4888 131.6839,16.7088" id="Fill-5" fill="#F2F2F2"></path>
                <path d="M131.6839,16.7088 L112.6329,27.7078 C110.5219,28.9258 106.8349,28.7728 104.3979,27.3658 L86.1419,16.8258 C83.7049,15.4188 83.4399,13.2898 85.5509,12.0708 L104.6019,1.0718 C106.7119,-0.1462 110.3999,0.0068 112.8359,1.4138 L131.0929,11.9538 C133.5299,13.3608 133.7939,15.4888 131.6839,16.7088 Z" id="Stroke-7" stroke="#2E2E2E" stroke-width="0.5"></path>
                <polygon id="Fill-9" fill="#2E2E2E" points="108.7611 28.5301 108.6921 141.2531 111.7921 140.8641 132.1571 129.2191 133.2521 127.8231 133.0631 15.8281 111.4491 28.2041"></polygon>
                <polygon id="Fill-11" fill="#F2F2F2" points="215.5121 195.3748 142.3421 237.6198 69.1711 195.3748 142.3421 153.1298"></polygon>
                <polygon id="Stroke-13" stroke="#2E2E2E" stroke-width="0.5" stroke-linecap="round" stroke-linejoin="round" points="215.5121 195.3748 142.3421 237.6198 69.1711 195.3748 142.3421 153.1298"></polygon>
                <polygon id="Fill-15" fill="#F2F2F2" points="69.1712 195.3748 69.1712 212.5368 142.3422 254.7818 142.3422 237.6198"></polygon>
                <polygon id="Stroke-17" stroke="#2E2E2E" stroke-width="0.5" stroke-linecap="round" stroke-linejoin="round" points="69.1712 195.3748 69.1712 212.5368 142.3422 254.7818 142.3422 237.6198"></polygon>
                <polygon id="Fill-19" fill="#2E2E2E" points="215.5121 195.3748 215.5121 212.5368 142.3421 254.7818 142.3421 237.6198"></polygon>
                <polygon id="Stroke-21" stroke="#2E2E2E" stroke-width="0.5" stroke-linecap="round" stroke-linejoin="round" points="215.5121 195.3748 215.5121 212.5368 142.3421 254.7818 142.3421 237.6198"></polygon>
                <path d="M142.3421,153.1297 L96.2391,179.7467 L96.2381,179.7477 C83.7561,186.9547 73.3171,179.0917 73.3171,179.0917 C71.9701,192.5527 85.9471,204.0207 91.7941,208.1937 C92.4541,208.7237 93.1541,209.2217 93.9211,209.6647 L142.3421,237.6197 L215.5121,195.3747 L142.3421,153.1297 Z" id="Fill-23" fill="#F2F2F2"></path>
                <path d="M142.3421,153.1297 L96.2391,179.7467 L96.2381,179.7477 C83.7561,186.9547 73.3171,179.0917 73.3171,179.0917 C71.9701,192.5527 85.9471,204.0207 91.7941,208.1937 C92.4541,208.7237 93.1541,209.2217 93.9211,209.6647 L142.3421,237.6197 L215.5121,195.3747 L142.3421,153.1297 Z" id="Stroke-25" stroke="#2E2E2E" stroke-width="0.5" stroke-linecap="round" stroke-linejoin="round"></path>
                <path d="M162.8587,164.5711 L173.3927,158.4891 C174.6447,157.7651 175.3367,156.8671 175.3367,155.9601 C175.3367,155.0501 174.6447,154.1521 173.3927,153.4281 C170.4497,151.7311 165.4707,151.7291 162.5237,153.4281 L146.0267,162.9521 C145.1787,163.4411 144.6937,164.0541 144.6937,164.6331 C144.6917,165.2131 145.1787,165.8251 146.0267,166.3171 C148.1797,167.5541 151.8107,167.5541 153.9567,166.3171 L168.7387,157.7821" id="Stroke-27" stroke="#2E2E2E" stroke-width="0.5" stroke-linecap="round" stroke-linejoin="round"></path>
                <path d="M69.1712,201.5135 L142.9492,243.1375" id="Stroke-29" stroke="#2E2E2E" stroke-width="0.5"></path>
                <path d="M69.1712,206.7098 L142.8652,249.0668" id="Stroke-31" stroke="#2E2E2E" stroke-width="0.5"></path>
                <path d="M141.9574,185.1483 C136.8634,185.1483 131.7994,186.2043 127.9784,188.3363 C124.5834,190.2313 122.6944,192.6293 122.6614,195.0903 C122.6254,197.5523 124.4414,200.0033 127.7794,201.9953 C135.5564,206.6393 148.8014,206.8273 156.7024,202.4173 C160.0974,200.5213 161.9864,198.1233 162.0214,195.6633 C162.0584,193.2003 160.2384,190.7483 156.9004,188.7563 L156.9004,188.7543 C152.8844,186.3573 147.4054,185.1483 141.9574,185.1483 M142.7564,212.7103 C135.6734,212.7103 128.5644,211.0673 123.0904,207.8013 C117.4924,204.4593 114.4474,199.9033 114.5204,194.9723 C114.5914,190.0433 117.7644,185.5773 123.4604,182.3983 C134.2394,176.3773 150.9874,176.6203 161.5904,182.9523 L161.5904,182.9503 C167.1904,186.2943 170.2344,190.8493 170.1634,195.7803 C170.0924,200.7113 166.9164,205.1763 161.2214,208.3543 C156.0064,211.2663 149.3914,212.7103 142.7564,212.7103" id="Fill-33" fill="#F44336"></path>
                <path d="M141.9574,185.1483 C136.8634,185.1483 131.7994,186.2043 127.9784,188.3363 C124.5834,190.2313 122.6944,192.6293 122.6614,195.0903 C122.6254,197.5523 124.4414,200.0033 127.7794,201.9953 C135.5564,206.6393 148.8014,206.8273 156.7024,202.4173 C160.0974,200.5213 161.9864,198.1233 162.0214,195.6633 C162.0584,193.2003 160.2384,190.7483 156.9004,188.7563 L156.9004,188.7543 C152.8844,186.3573 147.4054,185.1483 141.9574,185.1483 Z M142.7564,212.7103 C135.6734,212.7103 128.5644,211.0673 123.0904,207.8013 C117.4924,204.4593 114.4474,199.9033 114.5204,194.9723 C114.5914,190.0433 117.7644,185.5773 123.4604,182.3983 C134.2394,176.3773 150.9874,176.6203 161.5904,182.9523 L161.5904,182.9503 C167.1904,186.2943 170.2344,190.8493 170.1634,195.7803 C170.0924,200.7113 166.9164,205.1763 161.2214,208.3543 C156.0064,211.2663 149.3914,212.7103 142.7564,212.7103 Z" id="Stroke-35" stroke="#2E2E2E" stroke-width="0.5"></path>
                <g id="Group-40" transform="translate(153.000000, 182.032000)">
                    <path d="M8.5902,0.92 L0.7752,5.201" id="Fill-37" fill="#2E2E2E"></path>
                    <path d="M8.5902,0.92 L0.7752,5.201" id="Stroke-39" stroke="#2E2E2E" stroke-width="0.5"></path>
                </g>
                <g id="Group-44" transform="translate(154.000000, 203.032000)">
                    <path d="M0.9808,0.0636 L8.6368,4.4316" id="Fill-41" fill="#2E2E2E"></path>
                    <path d="M0.9808,0.0636 L8.6368,4.4316" id="Stroke-43" stroke="#2E2E2E" stroke-width="0.5"></path>
                </g>
                <path d="M170.1634,195.7801 C170.2344,190.8491 167.1904,186.2941 161.5904,182.9501 L161.5904,182.9521 C161.5664,182.9371 161.5414,182.9261 161.5174,182.9121 L153.6424,187.1821 C154.8044,187.6331 155.8984,188.1561 156.9004,188.7551 L156.9004,188.7571 C160.2384,190.7481 162.0584,193.2001 162.0214,195.6621 C161.9864,198.1231 160.0974,200.5211 156.7024,202.4171 C156.2384,202.6761 155.7014,202.8661 155.2024,203.0921 L162.7544,207.4031 C167.4704,204.3131 170.0994,200.2431 170.1634,195.7801" id="Fill-45" fill="#F2F2F2"></path>
                <path d="M170.1634,195.7801 C170.2344,190.8491 167.1904,186.2941 161.5904,182.9501 L161.5904,182.9521 C161.5664,182.9371 161.5414,182.9261 161.5174,182.9121 L153.6424,187.1821 C154.8044,187.6331 155.8984,188.1561 156.9004,188.7551 L156.9004,188.7571 C160.2384,190.7481 162.0584,193.2001 162.0214,195.6621 C161.9864,198.1231 160.0974,200.5211 156.7024,202.4171 C156.2384,202.6761 155.7014,202.8661 155.2024,203.0921 L162.7544,207.4031 C167.4704,204.3131 170.0994,200.2431 170.1634,195.7801 Z" id="Stroke-47" stroke="#2E2E2E" stroke-width="0.5"></path>
                <path d="M90.4681,151.6756 L90.2941,77.2676 L41.3641,77.2676 L41.5191,151.2266 C41.5041,151.3746 41.5011,151.5246 41.5201,151.6746 L41.5201,151.6756 L41.5211,151.6756 C41.6321,152.5316 42.3061,153.4106 43.5191,154.1116 L61.7751,164.6516 C64.2121,166.0586 67.8991,166.2116 70.0101,164.9926 L89.0611,153.9936 C90.1211,153.3816 90.5811,152.5396 90.4681,151.6756" id="Fill-49" fill="#F2F2F2"></path>
                <path d="M90.4681,151.6756 L90.2941,77.2676 L41.3641,77.2676 L41.5191,151.2266 C41.5041,151.3746 41.5011,151.5246 41.5201,151.6746 L41.5201,151.6756 L41.5211,151.6756 C41.6321,152.5316 42.3061,153.4106 43.5191,154.1116 L61.7751,164.6516 C64.2121,166.0586 67.8991,166.2116 70.0101,164.9926 L89.0611,153.9936 C90.1211,153.3816 90.5811,152.5396 90.4681,151.6756 Z" id="Stroke-51" stroke="#2E2E2E" stroke-width="0.5"></path>
                <path d="M88.9173,79.7342 L69.8653,90.7332 C67.7553,91.9512 64.0683,91.7982 61.6313,90.3912 L43.3753,79.8512 C40.9383,78.4442 40.6733,76.3162 42.7833,75.0962 L61.8353,64.0972 C63.9453,62.8792 67.6333,63.0322 70.0693,64.4392 L88.3253,74.9792 C90.7633,76.3862 91.0273,78.5152 88.9173,79.7342" id="Fill-53" fill="#F2F2F2"></path>
                <path d="M88.9173,79.7342 L69.8653,90.7332 C67.7553,91.9512 64.0683,91.7982 61.6313,90.3912 L43.3753,79.8512 C40.9383,78.4442 40.6733,76.3162 42.7833,75.0962 L61.8353,64.0972 C63.9453,62.8792 67.6333,63.0322 70.0693,64.4392 L88.3253,74.9792 C90.7633,76.3862 91.0273,78.5152 88.9173,79.7342 Z" id="Stroke-55" stroke="#2E2E2E" stroke-width="0.5"></path>
                <polygon id="Fill-57" fill="#2E2E2E" points="65.9945 91.5555 65.9255 165.8155 69.1715 165.3765 72.9545 163.2925 89.4325 153.8735 90.4845 152.3855 90.4845 78.7415 68.9605 91.3125"></polygon>
                <path d="M49.3597,175.1317 L49.1847,136.1777 L0.2557,136.1777 L0.4107,174.6837 C0.3947,174.8317 0.3917,174.9807 0.4117,175.1317 C0.5237,175.9877 1.1977,176.8677 2.4107,177.5687 L20.6667,188.1087 C23.1037,189.5157 26.7907,189.6677 28.9007,188.4487 L47.9527,177.4497 C49.0117,176.8387 49.4717,175.9967 49.3597,175.1317" id="Fill-59" fill="#F2F2F2"></path>
                <path d="M49.3597,175.1317 L49.1847,136.1777 L0.2557,136.1777 L0.4107,174.6837 C0.3947,174.8317 0.3917,174.9807 0.4117,175.1317 C0.5237,175.9877 1.1977,176.8677 2.4107,177.5687 L20.6667,188.1087 C23.1037,189.5157 26.7907,189.6677 28.9007,188.4487 L47.9527,177.4497 C49.0117,176.8387 49.4717,175.9967 49.3597,175.1317 Z" id="Stroke-61" stroke="#2E2E2E" stroke-width="0.5"></path>
                <path d="M47.808,138.6444 L28.757,149.6434 C26.647,150.8624 22.959,150.7094 20.522,149.3024 L2.266,138.7624 C-0.171,137.3554 -0.436,135.2264 1.675,134.0074 L20.726,123.0084 C22.837,121.7904 26.524,121.9434 28.961,123.3504 L47.217,133.8904 C49.655,135.2974 49.919,137.4254 47.808,138.6444" id="Fill-63" fill="#F2F2F2"></path>
                <path d="M47.808,138.6444 L28.757,149.6434 C26.647,150.8624 22.959,150.7094 20.522,149.3024 L2.266,138.7624 C-0.171,137.3554 -0.436,135.2264 1.675,134.0074 L20.726,123.0084 C22.837,121.7904 26.524,121.9434 28.961,123.3504 L47.217,133.8904 C49.655,135.2974 49.919,137.4254 47.808,138.6444 Z" id="Stroke-65" stroke="#2E2E2E" stroke-width="0.5"></path>
                <polygon id="Fill-67" fill="#2E2E2E" points="24.8861 150.4666 24.8161 189.2726 28.0491 188.8386 31.8451 186.7496 48.5171 177.0536 49.3761 175.8416 49.1451 137.6606 27.6061 150.1316"></polygon>
            </g>
        </g>
    </g>
</svg>