<?xml version="1.0" standalone="no"?>
<!DOCTYPE svg PUBLIC "-//W3C//DTD SVG 1.1//EN" "http://www.w3.org/Graphics/SVG/1.1/DTD/svg11.dtd" >
<svg xmlns="http://www.w3.org/2000/svg" xmlns:xlink="http://www.w3.org/1999/xlink" version="1.1">
<metadata>
Created by FontForge 20170731 at Thu Jun 23 01:26:20 2016
 By Aleksey,,,
Copyright (c) 2015 Berton Hasebe, under exclusive license to Schwartzco Inc./ Commercial Type. All rights reserved.
</metadata>
<defs>
<font id="DrukTextWide-BoldItalic" horiz-adv-x="920" >
  <font-face 
    font-family="Druk Text Wide"
    font-weight="700"
    font-style="italic"
    font-stretch="expanded"
    units-per-em="1000"
    panose-1="0 0 0 0 0 0 0 0 0 0"
    ascent="813"
    descent="-187"
    x-height="557"
    cap-height="744"
    bbox="-106 -286 2291 1243"
    underline-thickness="91"
    underline-position="-200"
    slope="-11"
    unicode-range="U+000D-FB02"
  />
<missing-glyph horiz-adv-x="290" 
 />
    <glyph glyph-name="f_t" unicode="ft" horiz-adv-x="988" 
d="M395 403l-78 -403h-220l79 403h-115l30 154h114l8 37q8 41 18.5 68t31 50.5t54.5 34t84 10.5h176l-25 -128h-75q-21 0 -31 -9.5t-15 -32.5l-6 -30h228l34 168h219l-33 -168h119l-31 -154h-118l-34 -179q-7 -33 4 -46.5t44 -13.5h59l-32 -164h-177q-72 0 -110 40t-22 114
l49 249h-229z" />
    <glyph glyph-name="f_f_t" unicode="fft" horiz-adv-x="1435" 
d="M97 0l79 403h-115l30 154h114l8 37q8 41 18.5 68t31 50.5t54.5 34t84 10.5h181l-25 -128h-80q-21 0 -31 -9.5t-15 -32.5l-6 -30h228l8 37q8 41 18.5 68t31 50.5t54.5 34t84 10.5h176l-25 -128h-75q-21 0 -31 -9.5t-15 -32.5l-6 -30h228l33 168h220l-33 -168h118l-30 -154
h-118l-35 -179q-7 -32 4 -46t44 -14h59l-31 -164h-177q-72 0 -109.5 40t-23.5 114l49 249h-227l-79 -403h-220l79 403h-228l-79 -403h-220z" />
    <glyph glyph-name="f_f" unicode="ff" horiz-adv-x="974" 
d="M97 0l79 403h-115l30 154h114l8 37q8 41 18.5 68t31 50.5t54.5 34t84 10.5h181l-25 -128h-80q-21 0 -31 -9.5t-15 -32.5l-6 -30h228l8 37q8 41 18.5 68t31 50.5t54.5 34t84 10.5h181l-25 -128h-80q-21 0 -31 -9.5t-15 -32.5l-6 -30h118l-30 -154h-117l-79 -403h-220
l79 403h-228l-79 -403h-220z" />
    <glyph glyph-name="f_i" unicode="fi" horiz-adv-x="897" 
d="M886 613h-224l28 146h224zM766 0h-222l109 557h222zM554 629h-77q-21 0 -31 -9.5t-15 -32.5l-6 -30h115l-31 -154h-113l-79 -403h-220l79 403h-115l30 154h114l8 37q8 41 18.5 68t31 50.5t54.5 34t84 10.5h178z" />
    <glyph glyph-name="f_l" unicode="fl" horiz-adv-x="897" 
d="M554 629h-77q-21 0 -31 -9.5t-15 -32.5l-6 -30h115l-31 -154h-113l-79 -403h-220l79 403h-115l30 154h114l8 37q8 41 18.5 68t31 50.5t54.5 34t84 10.5h178zM766 0h-222l147 757h222z" />
    <glyph glyph-name="emdash.alt" unicode="&#x2014;&#x2014;" horiz-adv-x="2331" 
d="M2254 226h-2196l30 149h2195z" />
    <glyph glyph-name=".notdef" horiz-adv-x="290" 
 />
    <glyph glyph-name=".null" horiz-adv-x="0" 
 />
    <glyph glyph-name="nonmarkingreturn" horiz-adv-x="333" 
 />
    <glyph glyph-name="NULL" horiz-adv-x="0" 
 />
    <glyph glyph-name="NULL" horiz-adv-x="0" 
 />
    <glyph glyph-name="CR" unicode="&#xd;" horiz-adv-x="290" 
 />
    <glyph glyph-name="space" unicode=" " horiz-adv-x="290" 
 />
    <glyph glyph-name="exclam" unicode="!" horiz-adv-x="397" 
d="M425 744l-175 -484h-108l13 484h270zM271 0h-251l40 203h250z" />
    <glyph glyph-name="quotedbl" unicode="&#x22;" horiz-adv-x="615" 
d="M571 434h-185l61 310h183zM292 434h-185l61 310h184z" />
    <glyph glyph-name="numbersign" unicode="#" horiz-adv-x="812" 
d="M523 459h-135l-56 -140h135zM418 197h-136l-80 -197h-152l79 197h-120l49 122h120l56 140h-120l50 122h119l65 163h156l-66 -163h135l66 163h156l-66 -163h119l-49 -122h-120l-56 -140h120l-50 -122h-120l-80 -197h-154z" />
    <glyph glyph-name="dollar" unicode="$" horiz-adv-x="960" 
d="M354 533q0 -29 25 -45.5t91 -20.5l27 139q-85 -3 -114 -21.5t-29 -51.5zM654 226q0 36 -25.5 54.5t-95.5 22.5l-32 -162q153 6 153 85zM362 -89l15 78q-75 4 -134 18t-93.5 34.5t-59.5 46t-32.5 53t-12 55t1.5 52.5h250q0 -14 1 -24t7 -24.5t17 -24.5t33 -19t52 -13
l32 163h-17q-90 3 -153 20t-96.5 47t-47.5 65.5t-14 81.5q0 36 8.5 66t34.5 62.5t69 54.5t118.5 36.5t175.5 14.5h9l15 77h95l-16 -79q86 -4 148.5 -19t97 -37t55 -51t22 -60.5t-1.5 -64.5h-245q0 33 -20.5 55t-84.5 29l-27 -140h18q96 -3 160.5 -19.5t98 -47t47 -67
t13.5 -87.5q0 -256 -430 -256l-14 -76h-95z" />
    <glyph glyph-name="percent" unicode="%" horiz-adv-x="1387" 
d="M331 319q-130 0 -188.5 58t-58.5 142q0 38 12.5 75.5t40.5 74.5t84.5 60t134.5 23h20q129 0 187.5 -58.5t58.5 -141.5q0 -30 -7 -59.5t-26.5 -61.5t-48.5 -56.5t-78 -40t-111 -15.5h-20zM1195 744l-803 -744h-172l802 744h173zM341 442q61 0 89 31.5t28 77.5
q0 37 -23 59.5t-70 22.5q-61 0 -88.5 -31.5t-27.5 -78.5q0 -37 22.5 -59t69.5 -22zM1048 -8q-68 0 -117.5 17t-76.5 47t-39.5 63.5t-12.5 72.5q0 38 12.5 75t40.5 74.5t84.5 61t133.5 23.5h20q130 0 188.5 -58t58.5 -141q0 -30 -7 -59.5t-26 -62t-48 -57t-78.5 -40.5
t-112.5 -16h-20zM1059 115q60 0 88 32t28 78q0 36 -23.5 59t-69.5 23q-61 0 -88.5 -32t-27.5 -78q0 -37 23 -59.5t70 -22.5z" />
    <glyph glyph-name="ampersand" unicode="&#x26;" horiz-adv-x="1043" 
d="M911 -11q-138 0 -222 48q-107 -50 -247 -50q-214 0 -317 57t-103 152q0 166 262 201q-40 42 -59 78t-19 81q0 25 6 49t25.5 53t51.5 50t89.5 35t132.5 14h40q156 0 219.5 -48.5t63.5 -122.5q0 -156 -261 -205l158 -144q65 75 89 197h206q-30 -152 -153 -265q46 -9 135 -9
zM447 129q65 0 114 11l-203 186q-92 -33 -92 -96q0 -43 44.5 -72t136.5 -29zM430 558q0 -24 15 -47t51 -57q134 37 134 111q0 65 -99 65q-53 0 -77 -20.5t-24 -51.5z" />
    <glyph glyph-name="quotesingle" unicode="'" horiz-adv-x="339" 
d="M294 433h-187l61 311h186z" />
    <glyph glyph-name="parenleft" unicode="(" horiz-adv-x="381" 
d="M163 -131q-29 55 -46 92t-39.5 123.5t-22.5 170.5q0 98 26.5 188t71 158.5t90.5 118t97 88.5h125q-49 -60 -85 -115t-73 -130t-57 -164.5t-20 -187.5q0 -154 52 -342h-119z" />
    <glyph glyph-name="parenright" unicode=")" horiz-adv-x="381" 
d="M244 808q21 -40 32.5 -65.5t32.5 -80t31.5 -115.5t10.5 -125q0 -98 -26.5 -188t-71.5 -158.5t-90 -118t-96 -88.5h-125q48 60 84.5 115.5t73 131t56.5 164.5t20 186q0 154 -52 342h120z" />
    <glyph glyph-name="asterisk" unicode="*" horiz-adv-x="518" 
d="M344 334h-143l59 139l-123 -80l-44 113l154 34l-138 52l73 109l104 -95l-7 138h144l-58 -138l121 79l43 -113l-153 -32l137 -54l-73 -109l-101 96z" />
    <glyph glyph-name="plus" unicode="+" horiz-adv-x="664" 
d="M409 251l-38 -192h-161l37 192h-183l27 141h184l37 191h161l-37 -191h183l-28 -141h-182z" />
    <glyph glyph-name="comma" unicode="," horiz-adv-x="376" 
d="M39 -149q62 85 86 149h-115l40 208h251l-31 -160q-23 -110 -88 -197h-143z" />
    <glyph glyph-name="hyphen" unicode="-" horiz-adv-x="470" 
d="M425 391l-35 -182h-334l35 182h334z" />
    <glyph glyph-name="period" unicode="." horiz-adv-x="376" 
d="M260 0h-250l40 208h251z" />
    <glyph glyph-name="slash" unicode="/" horiz-adv-x="466" 
d="M79 -131h-167l473 939h168z" />
    <glyph glyph-name="zero" unicode="0" horiz-adv-x="1014" 
d="M570 756q94 0 166.5 -20t117.5 -53t74 -79t40 -93.5t11 -102.5q0 -61 -15 -119t-50 -113.5t-86.5 -96.5t-130 -66t-174.5 -25h-44q-93 0 -165 21t-116.5 55t-73 81.5t-39.5 96t-11 103.5q0 58 15 114.5t49.5 111t85.5 95t129 65.5t174 25h43zM316 348q0 -71 44.5 -122.5
t142.5 -51.5q65 0 112.5 20.5t73 55t37 71.5t11.5 77q0 73 -44 123.5t-143 50.5q-65 0 -112.5 -20.5t-73 -55t-37 -71.5t-11.5 -77z" />
    <glyph glyph-name="one" unicode="1" horiz-adv-x="544" 
d="M83 465l33 160q115 0 165.5 24t86.5 95h178l-144 -744h-232l90 465h-177z" />
    <glyph glyph-name="two" unicode="2" horiz-adv-x="909" 
d="M111 479q3 38 12 71t35 72t65.5 67t108 46.5t158.5 18.5h49q352 0 352 -226q0 -112 -83 -165t-255 -79q-107 -18 -135 -24q-173 -33 -180 -74h603l-36 -186h-800l23 119q7 40 16 67t32 61.5t58.5 59.5t97.5 52.5t147 49.5q62 16 131 30q83 19 110 37.5t27 47.5
q0 64 -133 64q-48 0 -82 -11.5t-50 -31t-23 -34.5t-9 -32h-239z" />
    <glyph glyph-name="three" unicode="3" horiz-adv-x="919" 
d="M284 258q0 -14 3 -25t15.5 -29t47.5 -28.5t88 -10.5q182 0 182 89q0 53 -84 53h-220l31 157h226q90 0 90 61q0 29 -32.5 45.5t-125.5 16.5q-157 0 -168 -76h-236q1 25 7.5 48.5t20.5 53t41.5 53.5t67 44.5t101 32t139.5 11.5h56q89 0 156 -11t106.5 -28.5t63.5 -43
t32.5 -50t8.5 -54.5q0 -37 -14.5 -65.5t-37.5 -45t-46 -25.5t-47 -12q44 -15 76 -54t32 -107q0 -35 -7.5 -67t-33 -70.5t-67.5 -66t-118.5 -46.5t-177.5 -19h-46q-73 0 -132 10t-97.5 26.5t-68.5 39t-43.5 47t-23.5 50.5t-8.5 50.5t1.5 45.5h242z" />
    <glyph glyph-name="four" unicode="4" horiz-adv-x="948" 
d="M53 296l480 453h309l-83 -426h162l-34 -171h-161l-29 -152h-230l30 152h-473zM584 601l-294 -278h240z" />
    <glyph glyph-name="five" unicode="5" horiz-adv-x="895" 
d="M302 226q11 -61 141 -61q167 0 167 97q0 38 -32.5 58t-109.5 20q-44 0 -76 -6.5t-48 -16t-22.5 -17t-9.5 -14.5h-231l89 458h716l-35 -175h-487l-24 -133q73 57 212 57h11q280 0 280 -227q0 -31 -6.5 -60t-21.5 -61.5t-44 -59.5t-69 -49t-101.5 -34.5t-137.5 -12.5h-40
q-99 0 -172 17t-110.5 42t-58.5 59t-24.5 62t0.5 57h244z" />
    <glyph glyph-name="six" unicode="6" horiz-adv-x="956" 
d="M539 587q-56 0 -98 -18t-65 -47.5t-34.5 -59t-14.5 -60.5q80 68 259 68h17q155 0 226 -58t71 -155q0 -40 -11 -76t-39 -72t-71.5 -62t-114 -42t-160.5 -16h-49q-379 0 -379 303q0 66 11.5 126t42.5 123t79 108.5t128.5 74.5t184.5 29h34q89 0 157.5 -14.5t108.5 -37.5
t64.5 -54.5t32.5 -61.5t5 -63h-238q-17 65 -147 65zM320 231q0 -32 36 -54t122 -22q179 0 179 95q0 73 -156 73q-55 0 -93.5 -9t-56 -24t-24.5 -29t-7 -30z" />
    <glyph glyph-name="seven" unicode="7" horiz-adv-x="879" 
d="M921 744q-8 -32 -11 -54q-10 -44 -22 -113q-131 -147 -196 -228q-83 -104 -112 -172.5t-43 -160.5l-3 -16h-256l14 71q17 96 54.5 160.5t144.5 160.5q16 14 41 36t39.5 35t34 30.5t31 28t22.5 21.5t16 17.5t6 9.5h-335l-24 -128h-229l58 302h770z" />
    <glyph glyph-name="eight" unicode="8" horiz-adv-x="937" 
d="M426 -12q-387 0 -387 212q0 83 58.5 129.5t143.5 60.5q-123 35 -123 140q0 221 384 221h42q373 0 373 -186q0 -76 -50 -120t-126 -55q59 -15 97 -54t38 -102q0 -246 -408 -246h-42zM508 463q55 0 90.5 7t50.5 19.5t19.5 23t4.5 24.5q0 59 -149 59q-53 0 -88.5 -7t-51 -19
t-20.5 -22.5t-5 -24.5q0 -27 31 -43.5t118 -16.5zM449 153q60 0 99.5 8t56.5 22.5t23 27.5t6 30q0 32 -35 50t-132 18q-61 0 -100.5 -8t-56 -22.5t-21.5 -26t-5 -27.5q0 -72 165 -72z" />
    <glyph glyph-name="nine" unicode="9" horiz-adv-x="957" 
d="M676 511q0 32 -37 54t-124 22q-176 0 -176 -95q0 -73 155 -73q45 0 79.5 6.5t53.5 16t30.5 22.5t15 24t3.5 23zM457 155q57 0 99 18t64.5 48t34 59t14.5 60q-81 -68 -246 -68h-17q-158 0 -234 58t-76 157q0 40 10.5 76t38 71.5t70.5 61t113.5 41.5t161.5 16h50
q380 0 380 -305q0 -69 -11 -129.5t-42 -122.5t-79 -106.5t-128.5 -72.5t-185.5 -28h-35q-87 0 -154.5 14.5t-108 37t-65.5 54t-33.5 62t-5.5 63.5h238q1 -9 7.5 -18.5t20.5 -21t45 -18.5t74 -7z" />
    <glyph glyph-name="colon" unicode=":" horiz-adv-x="389" 
d="M329 329h-250l40 208h251zM265 0h-250l40 208h251z" />
    <glyph glyph-name="semicolon" unicode=";" horiz-adv-x="389" 
d="M329 329h-250l40 208h251zM44 -149q62 85 86 149h-115l40 208h251l-31 -160q-23 -110 -88 -197h-143z" />
    <glyph glyph-name="less" unicode="&#x3c;" horiz-adv-x="595" 
d="M581 572l-32 -167l-308 -92l272 -92l-29 -148l-419 170l31 157z" />
    <glyph glyph-name="equal" unicode="=" horiz-adv-x="651" 
d="M622 495l-26 -132h-506l26 132h506zM581 282l-27 -132h-505l25 132h507z" />
    <glyph glyph-name="greater" unicode="&#x3e;" horiz-adv-x="595" 
d="M32 73l32 166l308 92l-272 93l29 148l419 -172l-31 -157z" />
    <glyph glyph-name="question" unicode="?" horiz-adv-x="828" 
d="M83 502q4 38 12 67t32 65.5t61 60.5t104 41t157 17h47q100 0 169.5 -15.5t106.5 -44t52.5 -62.5t15.5 -78q0 -76 -48 -129t-167 -81l-66 -15q-35 -9 -48.5 -22t-18.5 -40l-1 -5h-219l8 39q7 33 15 53.5t25.5 42t49 37t80.5 28.5l63 17q52 13 69 28t17 36q0 26 -26.5 39
t-100.5 13q-138 0 -150 -92h-239zM457 0h-251l39 203h251z" />
    <glyph glyph-name="at" unicode="@" horiz-adv-x="1256" 
d="M930 184q-10 -45 28 -45q51 0 95 71t44 194q0 44 -8 77t-33.5 66t-69.5 54t-119 34t-178 13h-10q-492 0 -492 -418q0 -295 403 -295h6q298 0 446 84l30 -99q-44 -31 -164 -58.5t-312 -27.5h-6q-538 0 -538 396q0 75 15.5 142.5t58.5 138.5t110.5 122t181 83.5t261.5 32.5
h10q133 0 231.5 -20t155.5 -51t91 -78.5t45 -92.5t11 -103q0 -164 -84 -265t-239 -101h-11q-134 0 -166 73q-73 -73 -177 -73h-11q-111 0 -171 64.5t-60 166.5q0 49 15.5 95.5t47.5 88t88 66.5t129 25h11q110 0 178 -61l10 51h215zM526 281q0 -44 22.5 -74.5t66.5 -30.5h7
q56 0 87.5 40t31.5 89q0 44 -23 73.5t-69 29.5h-7q-57 0 -86.5 -40t-29.5 -87z" />
    <glyph glyph-name="A" unicode="A" horiz-adv-x="986" 
d="M556 571l-172 -279h242zM667 130h-383l-81 -130h-246l470 744h308l202 -744h-237z" />
    <glyph glyph-name="B" unicode="B" horiz-adv-x="1006" 
d="M178 744h562q127 0 184.5 -47t57.5 -125q0 -75 -53.5 -114t-116.5 -47q58 -11 99.5 -53t41.5 -116q0 -36 -8 -67.5t-30.5 -64.5t-59 -56.5t-98.5 -38.5t-144 -15h-580zM379 579l-23 -120h288q85 0 85 66q0 54 -70 54h-280zM326 305l-26 -132h308q96 0 96 72q0 60 -80 60
h-298z" />
    <glyph glyph-name="C" unicode="C" horiz-adv-x="1018" 
d="M583 756q107 0 187 -18.5t125.5 -47.5t71.5 -70.5t32.5 -82t2.5 -87.5h-242q-1 12 -3 20.5t-8 25t-19.5 28t-34 23.5t-55 18.5t-79.5 6.5q-67 0 -117 -19.5t-77 -53.5t-40 -72.5t-13 -81.5q0 -74 47.5 -122.5t153.5 -48.5q51 0 91 11.5t61.5 26t36.5 34.5t19 30.5t7 21.5
h243q-3 -25 -8.5 -48t-19.5 -55.5t-33.5 -59.5t-53.5 -55t-77 -47.5t-106 -32t-138 -12.5h-45q-97 0 -172 20t-122 53t-77 80t-42 96t-12 105t14 110.5t48.5 110.5t86.5 98t135 68.5t187 26.5h45z" />
    <glyph glyph-name="D" unicode="D" horiz-adv-x="1016" 
d="M178 744h354q104 0 185 -19t130.5 -50t81.5 -75.5t44 -90.5t12 -100q0 -61 -13 -115.5t-48 -109.5t-90 -94.5t-144.5 -64.5t-205.5 -25h-451zM301 177h161q70 0 123 16.5t82 40t47 56.5t23 60t5 56q0 162 -232 162h-133z" />
    <glyph glyph-name="E" unicode="E" horiz-adv-x="857" 
d="M875 744l-33 -169h-465l-22 -111h451l-34 -174h-451l-23 -119h472l-33 -171h-704l145 744h697z" />
    <glyph glyph-name="F" unicode="F" horiz-adv-x="841" 
d="M870 744l-34 -173h-459l-24 -124h445l-35 -177h-445l-52 -270h-233l145 744h692z" />
    <glyph glyph-name="G" unicode="G" horiz-adv-x="1056" 
d="M515 170q100 0 152 36.5t62 70.5h-204l26 134h457l-80 -411h-170q0 65 -6 99q-97 -111 -272 -111h-15q-198 0 -296.5 98t-98.5 248q0 62 15.5 120t51.5 113.5t90 96.5t137.5 66t186.5 25h33q104 0 183 -16.5t126 -42.5t75 -62.5t37 -73t6 -77.5h-244q-24 90 -200 90
q-60 0 -107 -15.5t-74 -39.5t-44 -56t-23 -60.5t-6 -57.5q0 -74 48.5 -124t153.5 -50z" />
    <glyph glyph-name="H" unicode="H" horiz-adv-x="1026" 
d="M178 744h233l-52 -270h386l53 270h233l-144 -744h-234l57 291h-387l-57 -291h-233z" />
    <glyph glyph-name="I" unicode="I" horiz-adv-x="405" 
d="M266 0h-233l145 744h233z" />
    <glyph glyph-name="J" unicode="J" horiz-adv-x="881" 
d="M285 327q0 -16 -0.5 -35t7.5 -39t20 -36t37 -26.5t59 -10.5q80 0 118.5 45t54.5 126l76 393h233l-77 -399q-7 -37 -14 -64t-22 -67t-32.5 -68.5t-47.5 -60.5t-66.5 -51.5t-89.5 -32.5t-116 -13h-35q-76 0 -136 16t-96.5 42.5t-63 61t-35.5 72.5t-14 76t2 71h238z" />
    <glyph glyph-name="K" unicode="K" horiz-adv-x="934" 
d="M33 0l145 744h233l-58 -296l366 296h295l-442 -353l318 -391h-280l-277 343l-67 -343h-233z" />
    <glyph glyph-name="L" unicode="L" horiz-adv-x="807" 
d="M411 744l-107 -553h440l-38 -191h-673l145 744h233z" />
    <glyph glyph-name="M" unicode="M" horiz-adv-x="1221" 
d="M178 744h299l125 -467l307 467h317l-144 -744h-227l93 479l-313 -479h-161l-128 479l-92 -479h-221z" />
    <glyph glyph-name="N" unicode="N" horiz-adv-x="1046" 
d="M352 470l-91 -470h-228l145 744h239l318 -462l90 462h227l-145 -744h-225z" />
    <glyph glyph-name="O" unicode="O" horiz-adv-x="1058" 
d="M594 756q100 0 177.5 -20.5t124.5 -53.5t77 -79.5t41 -92.5t11 -98q0 -60 -14 -117t-48.5 -113.5t-87.5 -98.5t-137.5 -68.5t-190.5 -26.5h-44q-100 0 -178 21.5t-125 55.5t-77 81.5t-41 94t-11 99.5q0 58 13.5 113t48.5 111t87.5 97.5t137.5 68t192 26.5h44zM783 409
q0 31 -9.5 58t-31.5 51.5t-66 39t-105 14.5q-75 0 -128.5 -22t-80 -58t-37.5 -72.5t-11 -75.5q0 -32 9.5 -59.5t31.5 -54t65.5 -41.5t104.5 -15q68 0 118.5 19t76 45t41 61.5t19 60t3.5 49.5z" />
    <glyph glyph-name="P" unicode="P" horiz-adv-x="968" 
d="M311 231l-45 -231h-233l145 744h476q169 0 239.5 -61.5t70.5 -179.5q0 -43 -9.5 -81t-33.5 -74t-61.5 -61t-97 -40.5t-136.5 -15.5h-315zM346 407h265q110 0 110 92q0 69 -90 69h-255z" />
    <glyph glyph-name="Q" unicode="Q" horiz-adv-x="1059" 
d="M383 -4q-88 14 -152 50t-97.5 85.5t-48 100.5t-14.5 108q0 58 13.5 113t48.5 111t87.5 98t137.5 68t192 26h44q100 0 177.5 -20.5t124.5 -53.5t77 -79.5t41 -92.5t11 -98q0 -57 -12 -110.5t-42.5 -108t-76.5 -96.5t-120 -71t-167 -36l101 -145h-354zM783 409
q0 31 -9.5 58t-31.5 51.5t-66 39t-105 14.5q-75 0 -128.5 -22t-80 -58t-37.5 -72.5t-11 -75.5q0 -32 9.5 -59.5t31.5 -54t65.5 -41.5t104.5 -15q68 0 118.5 19t76 45t41 61.5t19 60t3.5 49.5z" />
    <glyph glyph-name="R" unicode="R" horiz-adv-x="1001" 
d="M349 424h281q58 0 81 23.5t23 56.5q0 65 -87 65h-270zM790 358q68 -18 105 -68t19 -141l-14 -73q-9 -47 1 -71l-1 -5h-241q-7 17 0 49l12 62q14 72 -13 102.5t-105 30.5h-239l-48 -244h-233l145 744h525q83 0 141.5 -17t88.5 -46t42.5 -60.5t12.5 -69.5q0 -86 -60 -134.5
t-138 -58.5z" />
    <glyph glyph-name="S" unicode="S" horiz-adv-x="936" 
d="M300 247q0 -17 3.5 -30t16.5 -31t45.5 -28t83.5 -10h7q170 0 170 82q0 31 -26.5 48.5t-97.5 19.5l-93 3q-167 6 -232.5 63t-65.5 154q0 236 394 236h37q73 0 131 -6.5t98 -19t69.5 -29.5t45 -37t25 -43.5t9 -48t-2.5 -50.5h-248q0 15 -4.5 26t-18 24t-45 20t-78.5 7h-9
q-66 0 -102 -10t-45.5 -23.5t-9.5 -34.5q0 -26 25.5 -41t93.5 -17l93 -3q92 -3 154 -19.5t95 -47t46 -67.5t13 -89q0 -258 -419 -258h-27q-414 0 -384 260h253z" />
    <glyph glyph-name="T" unicode="T" horiz-adv-x="896" 
d="M387 558h-287l36 186h806l-36 -186h-286l-109 -558h-232z" />
    <glyph glyph-name="U" unicode="U" horiz-adv-x="1032" 
d="M498 -11q-80 0 -144.5 14t-107.5 37.5t-74 56.5t-47.5 67.5t-23.5 73.5t-6 73t7 67l72 366h232l-70 -363q-3 -26 -4.5 -53.5t9.5 -53t29.5 -46t55.5 -32.5t88 -12h5q49 0 86.5 13t59.5 31.5t38.5 47.5t23 51.5t12.5 53.5l71 363h232l-71 -366q-8 -40 -14.5 -68.5
t-22.5 -72.5t-36 -74.5t-54 -66t-76.5 -57t-104 -36t-136.5 -14.5h-29z" />
    <glyph glyph-name="V" unicode="V" horiz-adv-x="988" 
d="M296 0l-205 744h260l125 -530l332 530h260l-475 -744h-297z" />
    <glyph glyph-name="W" unicode="W" horiz-adv-x="1354" 
d="M205 0l-110 744h241l55 -512l243 512h259l51 -513l247 513h238l-382 -744h-275l-57 492l-237 -492h-273z" />
    <glyph glyph-name="X" unicode="X" horiz-adv-x="955" 
d="M481 242l-242 -242h-290l385 387l-232 357h280l141 -223l222 223h282l-363 -366l236 -378h-265z" />
    <glyph glyph-name="Y" unicode="Y" horiz-adv-x="945" 
d="M361 269l-279 475h266l156 -280l264 280h275l-449 -476l-52 -268h-233z" />
    <glyph glyph-name="Z" unicode="Z" horiz-adv-x="914" 
d="M16 0l30 157l515 403h-433l36 184h769l-30 -156l-532 -402h459l-37 -186h-777z" />
    <glyph glyph-name="bracketleft" unicode="[" horiz-adv-x="413" 
d="M181 808h295l-24 -118h-123l-137 -703h124l-23 -118h-294z" />
    <glyph glyph-name="backslash" unicode="\" horiz-adv-x="466" 
d="M270 -131l-171 939h152l170 -939h-151z" />
    <glyph glyph-name="bracketright" unicode="]" horiz-adv-x="413" 
d="M-14 -13h124l137 703h-125l23 118h294l-182 -939h-294z" />
    <glyph glyph-name="asciicircum" unicode="^" horiz-adv-x="684" 
d="M415 599l-161 -208h-213l281 353h217l149 -353h-188z" />
    <glyph glyph-name="underscore" unicode="_" horiz-adv-x="708" 
d="M-37 -30h665l-29 -148h-665z" />
    <glyph glyph-name="grave" unicode="`" horiz-adv-x="700" 
d="M367 615l-100 154h241l74 -154h-215z" />
    <glyph glyph-name="a" unicode="a" horiz-adv-x="792" 
d="M326 119q66 0 105.5 34t46.5 74l7 35q-40 -12 -117 -22q-68 -9 -95 -24.5t-27 -43.5q0 -24 20.5 -38.5t59.5 -14.5zM81 380q2 24 8 45t27 49.5t53.5 48t92 33.5t138.5 14h33q69 0 122 -8.5t84.5 -23.5t52.5 -34.5t27 -42.5t8 -47t-5 -47l-32 -165q-4 -22 1.5 -30.5
t27.5 -8.5h25l-32 -163h-169q-40 0 -60 21.5t-23 51.5q-74 -84 -208 -84h-16q-103 0 -158 46t-55 117q0 82 57 130.5t209 57.5l173 12q49 4 49 39q0 46 -98 46h-1q-98 0 -108 -57h-223z" />
    <glyph glyph-name="b" unicode="b" horiz-adv-x="856" 
d="M169 757h222l-52 -267q23 25 77 51.5t128 26.5h11q127 0 191 -73.5t64 -191.5q0 -54 -17 -106.5t-52.5 -100.5t-101 -77.5t-151.5 -29.5h-12q-140 0 -224 84q-13 -27 -27 -73h-203zM425 146q43 0 75 15.5t48 40.5t23.5 49t7.5 48q0 48 -28.5 80.5t-92.5 32.5h-8
q-76 0 -115.5 -47t-39.5 -104q0 -48 30 -81.5t93 -33.5h7z" />
    <glyph glyph-name="c" unicode="c" horiz-adv-x="814" 
d="M758 225q-3 -28 -11 -55t-31.5 -62.5t-58.5 -61t-97.5 -43.5t-143.5 -18h-47q-95 0 -162 24t-100 66t-46.5 85.5t-13.5 95.5q0 41 9 81t34 83.5t64 76t105 54t150 21.5h42q89 0 154 -16.5t99 -40t53 -57t22.5 -61t0.5 -58.5h-232q0 10 -4 21t-14.5 25.5t-35.5 23.5t-60 9
h-9q-54 0 -89 -28t-46.5 -61.5t-11.5 -69.5q0 -51 26.5 -84.5t84.5 -33.5h9q98 0 128 84h232z" />
    <glyph glyph-name="d" unicode="d" horiz-adv-x="856" 
d="M278 267q0 -51 29.5 -86t92.5 -35h9q74 0 114 46t40 101q0 49 -30.5 84t-94.5 35h-9q-78 0 -114.5 -45.5t-36.5 -99.5zM383 568q141 0 218 -69l51 258h222l-148 -757h-214l12 69q-14 -16 -35.5 -32t-67 -32t-97.5 -16h-13q-126 0 -195.5 73t-69.5 190q0 59 19 114t57 101
t102.5 73.5t146.5 27.5h12z" />
    <glyph glyph-name="e" unicode="e" horiz-adv-x="827" 
d="M433 436q-114 0 -148 -93h274q3 37 -25 65t-101 28zM762 178q-3 -21 -11 -42t-31.5 -49.5t-58 -49.5t-97.5 -36t-144 -15h-40q-94 0 -162 21.5t-104.5 59t-53 81.5t-16.5 97q0 41 9 81.5t34 86t64.5 79t106 56t152.5 22.5h44q87 0 151.5 -17.5t99.5 -47t56 -69.5
t21.5 -85.5t-4.5 -94.5l-3 -21h-504q5 -106 135 -106q91 0 124 49h232z" />
    <glyph glyph-name="f" unicode="f" horiz-adv-x="526" 
d="M557 629h-80q-21 0 -31 -9.5t-15 -32.5l-6 -30h118l-30 -154h-117l-79 -403h-220l79 403h-115l30 154h114l8 37q8 41 18.5 68t31 50.5t54.5 34t84 10.5h181z" />
    <glyph glyph-name="g" unicode="g" horiz-adv-x="857" 
d="M432 415q-41 0 -71.5 -12.5t-46.5 -33.5t-23.5 -43.5t-7.5 -45.5q0 -45 29.5 -76.5t93.5 -31.5h9q43 0 74 14t46.5 36.5t22.5 44t7 43.5q0 42 -30.5 73.5t-93.5 31.5h-9zM265 -17q9 -38 102 -38h8q120 0 142 109l7 38q-83 -73 -200 -73h-15q-127 0 -193 71.5t-66 176.5
q0 41 9.5 81t33 80.5t59 71t93 49.5t128.5 19h11q63 0 114.5 -15t67 -25t37.5 -27l10 56h222l-96 -495q-13 -63 -34.5 -108t-61.5 -83t-105.5 -57t-157.5 -19h-30q-88 0 -152 13t-98 32t-53 46.5t-23 49.5t-2 47h243z" />
    <glyph glyph-name="h" unicode="h" horiz-adv-x="839" 
d="M542 275q12 57 -14 91t-88 34q-59 0 -94.5 -34t-47.5 -90l-54 -276h-222l147 757h222l-55 -285q88 99 224 99h9q114 0 169.5 -76t32.5 -189l-60 -306h-222z" />
    <glyph glyph-name="i" unicode="i" horiz-adv-x="375" 
d="M364 613h-224l28 146h224zM244 0h-222l109 557h222z" />
    <glyph glyph-name="j" unicode="j" horiz-adv-x="375" 
d="M364 613h-224l28 146h224zM-17 -36q20 0 27.5 9.5t13.5 34.5l107 549h222l-117 -597q-15 -75 -45 -112.5t-88 -37.5h-209l30 154h59z" />
    <glyph glyph-name="k" unicode="k" horiz-adv-x="744" 
d="M22 0l147 757h222l-80 -415l210 215h256l-268 -263l185 -294h-244l-157 252l-49 -252h-222z" />
    <glyph glyph-name="l" unicode="l" horiz-adv-x="375" 
d="M244 0h-222l147 757h222z" />
    <glyph glyph-name="m" unicode="m" horiz-adv-x="1261" 
d="M22 0l109 557h220l-17 -88q17 20 40 40t72 41t102 21h9q70 0 117 -31t68 -87q36 46 99.5 82t142.5 36h9q117 0 169.5 -75.5t31.5 -189.5l-60 -306h-222l53 275q11 55 -11.5 90t-80.5 35q-54 0 -86 -35t-44 -89l-54 -276h-222l54 275q11 54 -12 89.5t-80 35.5
q-54 0 -87 -35t-44 -89l-54 -276h-222z" />
    <glyph glyph-name="n" unicode="n" horiz-adv-x="839" 
d="M131 557h220l-17 -88q12 14 29 29t45.5 33t68 29t83.5 11h9q114 0 169.5 -76t32.5 -189l-60 -306h-222l53 275q12 57 -14 91t-88 34q-59 0 -94.5 -33.5t-47.5 -90.5l-54 -276h-222z" />
    <glyph glyph-name="o" unicode="o" horiz-adv-x="839" 
d="M383 -15q-339 0 -339 268q0 37 7.5 74t32 83t64 80.5t110.5 58t164 23.5h33q72 0 128 -11.5t92 -32.5t60.5 -46t37 -57t17 -60t4.5 -60q0 -40 -6.5 -76.5t-30 -83t-62.5 -80t-111.5 -57t-168.5 -23.5h-32zM275 258q0 -49 28 -82.5t96 -33.5h9q44 0 76.5 17t48.5 43
t23.5 51t7.5 49q0 48 -29 82t-95 34h-8q-44 0 -76.5 -16t-49 -42t-24 -51.5t-7.5 -50.5z" />
    <glyph glyph-name="p" unicode="p" horiz-adv-x="857" 
d="M426 146q43 0 75 15.5t48 40.5t23.5 49t7.5 48q0 48 -29 80.5t-93 32.5h-7q-76 0 -116 -46.5t-40 -104.5q0 -48 30.5 -81.5t92.5 -33.5h8zM338 488q22 26 77.5 53t128.5 27h11q128 0 192 -73.5t64 -191.5q0 -43 -10 -85t-34 -84t-60 -73.5t-92.5 -51.5t-126.5 -20h-12
q-139 0 -218 79l-51 -258h-221l145 747h221z" />
    <glyph glyph-name="q" unicode="q" horiz-adv-x="856" 
d="M383 568q150 0 228 -78q13 26 25 67h198l-145 -747h-221l49 252q-24 -27 -73 -50t-120 -23h-12q-125 0 -195.5 73.5t-70.5 189.5q0 59 19 113.5t56.5 101t102 74t147.5 27.5h12zM278 267q0 -51 29.5 -86t92.5 -35h9q74 0 114 46t40 101q0 49 -30.5 84t-94.5 35h-8
q-78 0 -115 -45.5t-37 -99.5z" />
    <glyph glyph-name="r" unicode="r" horiz-adv-x="718" 
d="M456 296q19 104 -59 104q-40 0 -62.5 -27.5t-32.5 -81.5l-58 -291h-222l109 557h220l-18 -91q9 13 21.5 27t36 33t58 31t73.5 12h8q82 0 123 -49.5t41 -129.5q0 -43 -18 -113h-224z" />
    <glyph glyph-name="s" unicode="s" horiz-adv-x="755" 
d="M262 175q0 -54 90 -54h2q102 0 102 49q0 21 -18.5 32.5t-71.5 15.5l-66 3q-228 11 -228 163q0 185 315 185h24q82 0 141.5 -10.5t92.5 -26t51 -40t22 -47.5t1 -52h-231q0 10 -6 20t-27.5 19.5t-56.5 9.5h-2q-98 0 -98 -45q0 -20 19 -30.5t68 -12.5l66 -3
q131 -6 185.5 -46t54.5 -121q0 -197 -326 -197h-25q-88 0 -150.5 13t-95 31.5t-50 46.5t-20.5 49t-1 48h239z" />
    <glyph glyph-name="t" unicode="t" horiz-adv-x="537" 
d="M433 0h-177q-72 0 -110 40t-22 114l49 249h-113l29 154h114l33 168h220l-34 -168h119l-30 -154h-118l-35 -179q-7 -33 4 -46.5t44 -13.5h59z" />
    <glyph glyph-name="u" unicode="u" horiz-adv-x="834" 
d="M704 0h-221l18 88q-18 -21 -41.5 -40.5t-74 -40.5t-106.5 -21h-9q-113 0 -168.5 76t-32.5 189l59 306h223l-54 -276q-12 -56 14 -90t87 -34q57 0 93 35t46 89l53 276h222z" />
    <glyph glyph-name="v" unicode="v" horiz-adv-x="778" 
d="M56 557h237l70 -382l211 382h240l-329 -557h-288z" />
    <glyph glyph-name="w" unicode="w" horiz-adv-x="1159" 
d="M166 0l-104 557h227l47 -365l171 365h243l48 -365l170 365h223l-284 -557h-263l-52 337l-161 -337h-265z" />
    <glyph glyph-name="x" unicode="x" horiz-adv-x="762" 
d="M366 162l-157 -162h-258l282 286l-178 271h250l97 -156l150 156h254l-272 -277l175 -280h-240z" />
    <glyph glyph-name="y" unicode="y" horiz-adv-x="762" 
d="M54 -40h125q27 0 27 24q0 14 -9 45l-135 528h233l67 -381l205 381h236l-362 -609q-42 -71 -85.5 -104.5t-110.5 -33.5h-220z" />
    <glyph glyph-name="z" unicode="z" horiz-adv-x="743" 
d="M4 0l28 147l374 252h-322l30 158h615l-28 -145l-384 -249h348l-32 -163h-629z" />
    <glyph glyph-name="braceleft" unicode="{" horiz-adv-x="410" 
d="M157 -131q-145 0 -145 106q0 37 32.5 94t65 108t32.5 76q0 17 -8 23.5t-27 6.5h-68l23 116h74q44 0 44 43q0 25 -14.5 109.5t-14.5 119.5q0 137 170 137h152l-22 -114h-87q-47 0 -47 -44q0 -16 9 -88t9 -100q0 -53 -26.5 -82.5t-85.5 -39.5q41 -8 59.5 -26.5t18.5 -49.5
q0 -38 -53 -132t-53 -115q0 -34 49 -34h69l-23 -114h-133z" />
    <glyph glyph-name="bar" unicode="|" horiz-adv-x="375" 
d="M287 -131h-159v939h159v-939z" />
    <glyph glyph-name="braceright" unicode="}" horiz-adv-x="410" 
d="M-37 -131l22 114h86q47 0 47 44q0 17 -8.5 91t-8.5 102q0 53 26.5 82.5t85.5 39.5q-41 8 -59.5 26.5t-18.5 49.5q0 38 52.5 130.5t52.5 111.5q0 34 -48 34h-70l23 114h133q146 0 146 -106q0 -36 -32.5 -92.5t-65 -107t-32.5 -73.5q0 -29 35 -29h68l-23 -117h-74
q-44 0 -44 -43q0 -26 14 -111.5t14 -122.5q0 -137 -170 -137h-151z" />
    <glyph glyph-name="asciitilde" unicode="~" horiz-adv-x="690" 
d="M502 222q-34 0 -64 11.5t-49 25.5t-54 44q-32 28 -46.5 38t-27.5 10q-22 0 -28 -35l-22 -114h-172l36 185q12 65 49 110t109 45q35 0 66 -12.5t47 -24.5t52 -43q55 -49 74 -49q20 0 27 34l23 120h172l-37 -189q-12 -64 -49 -110t-106 -46z" />
    <glyph glyph-name="exclamdown" unicode="&#xa1;" horiz-adv-x="402" 
d="M-21 -188l175 484h108l-13 -484h-270zM133 556h251l-40 -203h-250z" />
    <glyph glyph-name="cent" unicode="&#xa2;" horiz-adv-x="833" 
d="M275 259q0 -101 77 -122l56 290q-73 -9 -103 -57.5t-30 -110.5zM307 -95l16 82q-276 23 -276 272q0 40 9 79t34 83t65 76t108 53.5t156 21.5h17l16 80h90l-16 -82q63 -5 112 -18.5t77.5 -32t49 -41.5t26.5 -47t9.5 -47.5t-1.5 -43.5h-229q0 64 -72 82l-56 -288
q55 7 79.5 36t26.5 55h229q-3 -29 -11 -56t-32 -62t-59.5 -60.5t-100 -43.5t-147.5 -18h-14l-16 -80h-90z" />
    <glyph glyph-name="sterling" unicode="&#xa3;" horiz-adv-x="907" 
d="M794 0h-797l31 161h68q89 0 89 101q0 32 -4 63h-121l19 96h91q-2 38 -2 53q0 279 342 279h36q81 0 142 -12t96 -33t58.5 -48.5t29 -57.5t8 -61.5t-4.5 -60.5h-242q4 15 0.5 34t-10.5 36t-31.5 28.5t-63.5 11.5q-64 0 -92.5 -29.5t-35.5 -79.5q-2 -12 -4 -60h303l-19 -96
h-290q-2 -30 -5 -45q-6 -49 -31.5 -79.5t-59.5 -39.5h294l23 111h236z" />
    <glyph glyph-name="yen" unicode="&#xa5;" horiz-adv-x="863" 
d="M299 152h-216l17 86h216l11 58h-216l17 85h172l-213 363h260l127 -250l225 250h260l-344 -363h172l-16 -85h-216l-11 -58h215l-16 -86h-216l-30 -152h-227z" />
    <glyph glyph-name="brokenbar" unicode="&#xa6;" horiz-adv-x="375" 
d="M286 413h-159v395h159v-395zM286 -131h-159v432h159v-432z" />
    <glyph glyph-name="section" unicode="&#xa7;" horiz-adv-x="876" 
d="M525 205q29 -5 46 -10q36 25 36 63q0 27 -16 43.5t-62 24.5l-168 31q-17 3 -55 12q-35 -25 -35 -64q0 -26 18 -43.5t69 -26.5zM361 -208q-79 0 -139.5 10.5t-95.5 27.5t-59.5 40.5t-31.5 48.5t-11.5 51.5t0.5 50.5h230q-2 -15 0.5 -27.5t13 -29t38.5 -26t72 -9.5h7
q118 0 118 66q0 24 -18 38t-70 23l-154 25q-118 20 -167 62t-49 112q0 125 163 160q-61 49 -61 137q0 204 333 204h39q65 0 116.5 -7t85.5 -17.5t58.5 -28t37 -34.5t19 -40.5t7.5 -41.5t0 -43h-227q0 12 -1 19t-6.5 20t-17 20.5t-34.5 13.5t-55 6h-6q-72 0 -98 -14t-26 -41
q0 -22 18.5 -36t72.5 -23l155 -25q121 -20 169.5 -61t48.5 -115q0 -64 -45 -104.5t-113 -58.5q55 -49 55 -135q0 -41 -15.5 -77t-51 -69t-104 -52.5t-162.5 -19.5h-39z" />
    <glyph glyph-name="dieresis" unicode="&#xa8;" horiz-adv-x="700" 
d="M656 613h-213l28 146h213zM389 613h-213l28 146h213z" />
    <glyph glyph-name="copyright" unicode="&#xa9;" horiz-adv-x="1092" 
d="M1056 362q0 -60 -14 -112.5t-48 -101.5t-87.5 -83.5t-138 -55.5t-192.5 -21h-22q-108 0 -192.5 21t-138 55.5t-87.5 83.5t-48 101.5t-14 112.5v21q0 59 13.5 111t48 101t88 84t138 56t193.5 21h20q109 0 193.5 -21t138 -56t88 -84t48 -101t13.5 -111v-21zM573 78
q102 0 175.5 23t113.5 64.5t58 90.5t18 109v13q0 65 -17.5 114.5t-58 90t-113.5 62t-176 21.5h-16q-103 0 -176 -21.5t-113.5 -62t-58.5 -90.5t-18 -114v-13q0 -60 18 -109t58 -90.5t114 -64.5t176 -23h16zM562 152q-69 0 -121 14t-82 35.5t-48.5 51.5t-24.5 56.5t-6 56.5
v19q0 38 10.5 70.5t38.5 66.5t87.5 53.5t145.5 19.5h18q70 0 123 -13t80.5 -31.5t44.5 -44.5t21.5 -46t4.5 -42v-3h-178q-14 60 -108 60q-112 0 -112 -93v-8q0 -43 26 -72t87 -29q95 0 107 66h179v-4q0 -22 -5 -43t-22 -47.5t-45.5 -46t-80.5 -33t-122 -13.5h-18z" />
    <glyph glyph-name="ordfeminine" unicode="&#xaa;" horiz-adv-x="676" 
d="M129 609q15 147 251 147h34q56 0 99 -6t69.5 -17t44.5 -25.5t24 -31.5t8 -35t-4 -36l-26 -133q-6 -32 26 -32h17l-26 -136h-135q-59 0 -72 60q-17 -23 -60.5 -45.5t-109.5 -22.5h-7q-85 0 -130.5 37t-45.5 99q0 61 45 98t160 45l147 10q35 4 35 29q0 36 -73 36h-7
q-74 0 -83 -41h-181zM331 399q49 0 80.5 27t38.5 66l4 17l-113 -16q-40 -6 -55 -19t-15 -34q0 -18 15.5 -29.5t44.5 -11.5z" />
    <glyph glyph-name="guillemotleft" unicode="&#xab;" horiz-adv-x="628" 
d="M171 474h180l-146 -190l86 -180h-166l-89 184zM453 474h180l-160 -194l82 -176h-166l-85 180z" />
    <glyph glyph-name="registered" unicode="&#xae;" horiz-adv-x="836" 
d="M440 202q-82 0 -145.5 16.5t-101.5 42.5t-62 62.5t-33 71.5t-9 74v26q0 49 14.5 91t50.5 84t109 66.5t177 24.5h42q84 0 147.5 -17t100.5 -43t60 -63t31 -70.5t8 -70.5v-28q0 -38 -10.5 -73.5t-36 -71.5t-64 -62.5t-100 -43t-138.5 -16.5h-40zM182 480q0 -33 4 -57.5
t20 -54t44.5 -48.5t81.5 -32t127 -13h4q71 0 123.5 13.5t81 33t45 49t21 55t4.5 57.5v6q0 30 -4.5 54t-21 52.5t-44.5 47.5t-80.5 32t-123.5 13h-5q-74 0 -126.5 -12.5t-81 -30.5t-45 -47t-20.5 -54t-4 -59v-5zM491 505q32 0 32 27t-32 27h-83v-54h83zM408 341h-131v287h255
q119 0 119 -72v-3q0 -53 -63 -66q68 -11 68 -64v-48q0 -19 6 -29v-5h-132q-7 9 -7 24v29q0 19 -7.5 28t-27.5 9h-80v-90z" />
    <glyph glyph-name="macron" unicode="&#xaf;" horiz-adv-x="700" 
d="M247 751h386l-24 -126h-387z" />
    <glyph glyph-name="degree" unicode="&#xb0;" horiz-adv-x="530" 
d="M319 334q-100 0 -162 60t-62 152q0 91 62 150.5t162 59.5q97 0 159 -59.5t62 -150.5q0 -92 -62 -152t-159 -60zM318 456q40 0 65.5 24.5t25.5 65.5q0 39 -25.5 64t-65.5 25q-42 0 -66.5 -24.5t-24.5 -64.5q0 -41 24.5 -65.5t66.5 -24.5z" />
    <glyph glyph-name="acute" unicode="&#xb4;" horiz-adv-x="700" 
d="M364 769h246l-137 -154h-219z" />
    <glyph glyph-name="paragraph" unicode="&#xb6;" horiz-adv-x="819" 
d="M346 308h-11q-244 0 -244 179q0 32 4 60t20 66.5t43.5 65t80.5 46t125 19.5h520l-25 -127h-77l-120 -617h-146l120 617h-84l-120 -617h-145z" />
    <glyph glyph-name="periodcentered" unicode="&#xb7;" horiz-adv-x="376" 
d="M303 223h-250l40 208h251z" />
    <glyph glyph-name="cedilla" unicode="&#xb8;" horiz-adv-x="700" 
d="M96 -280l19 100h121q39 0 39 27q0 20 -34 20h-86l26 133h123l-10 -52q83 0 116.5 -25t33.5 -73q0 -130 -188 -130h-160z" />
    <glyph glyph-name="ordmasculine" unicode="&#xba;" horiz-adv-x="696" 
d="M369 296q-273 0 -273 213q0 28 6 56.5t26 64.5t51.5 62.5t89 45t132.5 18.5h25q273 0 273 -209q0 -31 -5.5 -59.5t-24.5 -65.5t-50 -63t-89 -44.5t-135 -18.5h-26zM295 511q0 -36 20.5 -61t67.5 -25h7q61 0 86.5 37.5t25.5 81.5q0 35 -20.5 60.5t-67.5 25.5h-6
q-42 0 -69 -21.5t-35.5 -46.5t-8.5 -51z" />
    <glyph glyph-name="guillemotright" unicode="&#xbb;" horiz-adv-x="628" 
d="M460 104h-179l149 190l-84 180h166l87 -184zM181 104h-180l158 195l-84 175h166l87 -180z" />
    <glyph glyph-name="onequarter" unicode="&#xbc;" horiz-adv-x="1207" 
d="M95 551l22 113q77 0 108 18t56 63h137l-83 -429h-171l45 235h-114zM1055 744l-817 -744h-167l815 744h169zM631 180l287 249h202l-46 -234h84l-23 -115h-83l-16 -80h-169l15 80h-271zM931 330l-154 -135h128z" />
    <glyph glyph-name="onehalf" unicode="&#xbd;" horiz-adv-x="1273" 
d="M1055 744l-817 -744h-167l815 744h169zM95 551l22 113q77 0 108 18t56 63h137l-83 -429h-171l45 235h-114zM726 282q13 154 249 154h21q136 0 187 -33.5t51 -94.5q0 -64 -54.5 -96t-194.5 -50q-142 -20 -147 -41h362l-24 -121h-511l12 61q6 33 16.5 56t38 51.5t84.5 50.5
t142 37q60 12 78.5 20.5t18.5 24.5q0 15 -15.5 22t-55.5 7q-74 0 -84 -48h-174z" />
    <glyph glyph-name="threequarters" unicode="&#xbe;" horiz-adv-x="1402" 
d="M1249 744l-817 -744h-167l815 744h169zM113 611q9 141 249 141h30q75 0 126 -9.5t74 -26.5t31 -33.5t8 -37.5q0 -36 -26 -56.5t-66 -26.5q73 -21 73 -95q0 -158 -262 -158h-29q-65 0 -113 12t-72.5 29t-38 40t-16.5 41t-1 36h176q0 -45 82 -45q92 0 92 43q0 26 -43 26
h-110l19 98h112q46 0 46 29t-80 29q-76 0 -89 -36h-172zM826 180l287 249h202l-46 -234h84l-23 -115h-83l-16 -80h-169l15 80h-271zM1126 330l-154 -135h128z" />
    <glyph glyph-name="questiondown" unicode="&#xbf;" horiz-adv-x="841" 
d="M764 54q-4 -38 -12 -67t-32 -65.5t-61 -60.5t-104 -41t-157 -17h-47q-100 0 -169.5 15.5t-106.5 44t-52.5 62.5t-15.5 78q0 76 48 129t167 81l66 15q35 9 48.5 22t18.5 40l1 5h219l-8 -39q-7 -33 -15 -53.5t-25.5 -42t-49 -37t-80.5 -28.5l-63 -17q-52 -13 -69 -28
t-17 -36q0 -26 26.5 -39t100.5 -13q139 0 150 92h239zM390 556h251l-39 -203h-251z" />
    <glyph glyph-name="Agrave" unicode="&#xc0;" horiz-adv-x="986" 
d="M556 571l-172 -279h242zM667 130h-383l-81 -130h-246l470 744h308l202 -744h-237zM373 954h246l74 -153h-223z" />
    <glyph glyph-name="Aacute" unicode="&#xc1;" horiz-adv-x="986" 
d="M556 571l-172 -279h242zM667 130h-383l-81 -130h-246l470 744h308l202 -744h-237zM472 801l111 153h248l-132 -153h-227z" />
    <glyph glyph-name="Acircumflex" unicode="&#xc2;" horiz-adv-x="986" 
d="M556 571l-172 -279h242zM667 130h-383l-81 -130h-246l470 744h308l202 -744h-237zM846 799h-203l-48 65l-72 -65h-214l167 155h259z" />
    <glyph glyph-name="Atilde" unicode="&#xc3;" horiz-adv-x="986" 
d="M556 571l-172 -279h242zM667 130h-383l-81 -130h-246l470 744h308l202 -744h-237zM828 990l-17 -85q-17 -101 -104 -101h-2q-45 0 -120 34q-45 21 -60 21q-14 0 -19 -25l-8 -37h-122l16 84q7 43 32 72.5t73 29.5h2q37 0 120 -34q45 -21 59 -21q15 0 20 24l7 38h123z" />
    <glyph glyph-name="Adieresis" unicode="&#xc4;" horiz-adv-x="986" 
d="M556 571l-172 -279h242zM667 130h-383l-81 -130h-246l470 744h308l202 -744h-237zM559 801h-216l28 146h216zM831 801h-216l28 146h216z" />
    <glyph glyph-name="Aring" unicode="&#xc5;" horiz-adv-x="986" 
d="M556 571l-172 -279h242zM667 130h-383l-81 -130h-246l470 744h308l202 -744h-237zM612 1058q89 0 128.5 -33t39.5 -86q0 -25 -7.5 -47.5t-26 -46.5t-58 -38.5t-96.5 -14.5q-89 0 -128.5 33t-39.5 86q0 25 7.5 48t26.5 46.5t58.5 38t95.5 14.5zM596 871q36 0 54 18.5
t18 44.5q0 45 -60 45q-36 0 -54 -18.5t-18 -44.5q0 -45 60 -45z" />
    <glyph glyph-name="AE" unicode="&#xc6;" horiz-adv-x="1302" 
d="M640 597l-242 -310h182zM550 131h-273l-102 -131h-246l587 744h805l-34 -169h-419l-21 -111h404l-34 -174h-405l-23 -119h427l-34 -171h-658z" />
    <glyph glyph-name="Ccedilla" unicode="&#xc7;" horiz-adv-x="1018" 
d="M608 -150q0 -130 -188 -130h-160l19 100h122q38 0 38 27q0 20 -34 20h-85l26 135q-78 15 -134 49.5t-86.5 82t-44.5 98.5t-14 110q0 56 14 110.5t48.5 110.5t86.5 98t135 68.5t187 26.5h45q107 0 187 -18.5t125.5 -47.5t71.5 -70.5t32.5 -82t2.5 -87.5h-242
q-1 12 -3 20.5t-8 25t-19.5 28t-34 23.5t-55 18.5t-79.5 6.5q-67 0 -117 -19.5t-77 -53.5t-40 -72.5t-13 -81.5q0 -74 47.5 -122.5t153.5 -48.5q51 0 91 11.5t61.5 26t36.5 34.5t19 30.5t7 21.5h243q-3 -25 -8.5 -48t-19.5 -55.5t-33.5 -59.5t-53.5 -55t-77 -47.5t-106 -32
t-138 -12.5h-71l-8 -40q83 0 116.5 -25.5t33.5 -72.5z" />
    <glyph glyph-name="Egrave" unicode="&#xc8;" horiz-adv-x="857" 
d="M329 954h246l74 -153h-223zM875 744l-33 -169h-465l-22 -111h451l-34 -174h-451l-23 -119h472l-33 -171h-704l145 744h697z" />
    <glyph glyph-name="Eacute" unicode="&#xc9;" horiz-adv-x="857" 
d="M416 801l111 153h248l-132 -153h-227zM875 744l-33 -169h-465l-22 -111h451l-34 -174h-451l-23 -119h472l-33 -171h-704l145 744h697z" />
    <glyph glyph-name="Ecircumflex" unicode="&#xca;" horiz-adv-x="857" 
d="M796 799h-203l-48 65l-72 -65h-214l167 155h259zM875 744l-33 -169h-465l-22 -111h451l-34 -174h-451l-23 -119h472l-33 -171h-704l145 744h697z" />
    <glyph glyph-name="Edieresis" unicode="&#xcb;" horiz-adv-x="857" 
d="M875 744l-33 -169h-465l-22 -111h451l-34 -174h-451l-23 -119h472l-33 -171h-704l145 744h697zM507 801h-216l28 146h216zM779 801h-216l28 146h216z" />
    <glyph glyph-name="Igrave" unicode="&#xcc;" horiz-adv-x="405" 
d="M266 0h-233l145 744h233zM92 954h246l74 -153h-223z" />
    <glyph glyph-name="Iacute" unicode="&#xcd;" horiz-adv-x="405" 
d="M266 0h-233l145 744h233zM190 801l111 153h248l-132 -153h-227z" />
    <glyph glyph-name="Icircumflex" unicode="&#xce;" horiz-adv-x="405" 
d="M266 0h-233l145 744h233zM562 799h-203l-48 65l-72 -65h-214l167 155h259z" />
    <glyph glyph-name="Idieresis" unicode="&#xcf;" horiz-adv-x="405" 
d="M266 0h-233l145 744h233zM272 801h-216l28 146h216zM544 801h-216l28 146h216z" />
    <glyph glyph-name="Eth" unicode="&#xd0;" horiz-adv-x="1042" 
d="M488 177q70 0 123 16.5t82 40t47 56.5t23 60t5 56q0 162 -232 162h-133l-24 -123h228l-26 -137h-228l-26 -131h161zM119 308h-96l26 137h97l58 299h354q104 0 185 -19t130.5 -50t81.5 -75.5t44 -90.5t12 -100q0 -61 -13 -115.5t-48 -109.5t-90 -94.5t-144.5 -64.5
t-205.5 -25h-451z" />
    <glyph glyph-name="Ntilde" unicode="&#xd1;" horiz-adv-x="1047" 
d="M867 990l-17 -85q-17 -101 -104 -101h-2q-45 0 -120 34q-45 21 -60 21q-14 0 -19 -25l-8 -37h-122l16 84q7 43 32 72.5t73 29.5h2q37 0 120 -34q45 -21 59 -21q15 0 20 24l7 38h123zM352 470l-91 -470h-228l145 744h239l318 -462l90 462h227l-145 -744h-225z" />
    <glyph glyph-name="Ograve" unicode="&#xd2;" horiz-adv-x="1058" 
d="M380 954h246l74 -153h-223zM594 756q100 0 177.5 -20.5t124.5 -53.5t77 -79.5t41 -92.5t11 -98q0 -60 -14 -117t-48.5 -113.5t-87.5 -98.5t-137.5 -68.5t-190.5 -26.5h-44q-100 0 -178 21.5t-125 55.5t-77 81.5t-41 94t-11 99.5q0 58 13.5 113t48.5 111t87.5 97.5
t137.5 68t192 26.5h44zM783 409q0 31 -9.5 58t-31.5 51.5t-66 39t-105 14.5q-75 0 -128.5 -22t-80 -58t-37.5 -72.5t-11 -75.5q0 -32 9.5 -59.5t31.5 -54t65.5 -41.5t104.5 -15q68 0 118.5 19t76 45t41 61.5t19 60t3.5 49.5z" />
    <glyph glyph-name="Oacute" unicode="&#xd3;" horiz-adv-x="1058" 
d="M476 801l111 153h248l-132 -153h-227zM594 756q100 0 177.5 -20.5t124.5 -53.5t77 -79.5t41 -92.5t11 -98q0 -60 -14 -117t-48.5 -113.5t-87.5 -98.5t-137.5 -68.5t-190.5 -26.5h-44q-100 0 -178 21.5t-125 55.5t-77 81.5t-41 94t-11 99.5q0 58 13.5 113t48.5 111
t87.5 97.5t137.5 68t192 26.5h44zM783 409q0 31 -9.5 58t-31.5 51.5t-66 39t-105 14.5q-75 0 -128.5 -22t-80 -58t-37.5 -72.5t-11 -75.5q0 -32 9.5 -59.5t31.5 -54t65.5 -41.5t104.5 -15q68 0 118.5 19t76 45t41 61.5t19 60t3.5 49.5z" />
    <glyph glyph-name="Ocircumflex" unicode="&#xd4;" horiz-adv-x="1058" 
d="M850 799h-203l-48 65l-72 -65h-214l167 155h259zM594 756q100 0 177.5 -20.5t124.5 -53.5t77 -79.5t41 -92.5t11 -98q0 -60 -14 -117t-48.5 -113.5t-87.5 -98.5t-137.5 -68.5t-190.5 -26.5h-44q-100 0 -178 21.5t-125 55.5t-77 81.5t-41 94t-11 99.5q0 58 13.5 113
t48.5 111t87.5 97.5t137.5 68t192 26.5h44zM783 409q0 31 -9.5 58t-31.5 51.5t-66 39t-105 14.5q-75 0 -128.5 -22t-80 -58t-37.5 -72.5t-11 -75.5q0 -32 9.5 -59.5t31.5 -54t65.5 -41.5t104.5 -15q68 0 118.5 19t76 45t41 61.5t19 60t3.5 49.5z" />
    <glyph glyph-name="Otilde" unicode="&#xd5;" horiz-adv-x="1058" 
d="M836 990l-17 -85q-17 -101 -104 -101h-2q-45 0 -120 34q-45 21 -60 21q-14 0 -19 -25l-8 -37h-122l16 84q7 43 32 72.5t73 29.5h2q37 0 120 -34q45 -21 59 -21q15 0 20 24l7 38h123zM594 756q100 0 177.5 -20.5t124.5 -53.5t77 -79.5t41 -92.5t11 -98q0 -60 -14 -117
t-48.5 -113.5t-87.5 -98.5t-137.5 -68.5t-190.5 -26.5h-44q-100 0 -178 21.5t-125 55.5t-77 81.5t-41 94t-11 99.5q0 58 13.5 113t48.5 111t87.5 97.5t137.5 68t192 26.5h44zM783 409q0 31 -9.5 58t-31.5 51.5t-66 39t-105 14.5q-75 0 -128.5 -22t-80 -58t-37.5 -72.5
t-11 -75.5q0 -32 9.5 -59.5t31.5 -54t65.5 -41.5t104.5 -15q68 0 118.5 19t76 45t41 61.5t19 60t3.5 49.5z" />
    <glyph glyph-name="Odieresis" unicode="&#xd6;" horiz-adv-x="1058" 
d="M560 801h-216l28 146h216zM832 801h-216l28 146h216zM594 756q100 0 177.5 -20.5t124.5 -53.5t77 -79.5t41 -92.5t11 -98q0 -60 -14 -117t-48.5 -113.5t-87.5 -98.5t-137.5 -68.5t-190.5 -26.5h-44q-100 0 -178 21.5t-125 55.5t-77 81.5t-41 94t-11 99.5q0 58 13.5 113
t48.5 111t87.5 97.5t137.5 68t192 26.5h44zM783 409q0 31 -9.5 58t-31.5 51.5t-66 39t-105 14.5q-75 0 -128.5 -22t-80 -58t-37.5 -72.5t-11 -75.5q0 -32 9.5 -59.5t31.5 -54t65.5 -41.5t104.5 -15q68 0 118.5 19t76 45t41 61.5t19 60t3.5 49.5z" />
    <glyph glyph-name="multiply" unicode="&#xd7;" horiz-adv-x="599" 
d="M293 209l-172 -145l-90 111l172 145l-117 142l120 101l115 -144l171 144l91 -111l-172 -145l116 -144l-115 -99z" />
    <glyph glyph-name="Oslash" unicode="&#xd8;" horiz-adv-x="1058" 
d="M504 -12q-172 0 -274 62l-66 -50h-194l169 130q-68 89 -68 215q0 59 15 115t51 110.5t89.5 95t137 65.5t186.5 25h44q164 0 272 -61l64 49h196l-166 -128q66 -86 66 -208q0 -78 -25 -149t-78 -133.5t-149.5 -100t-225.5 -37.5h-44zM306 349q0 -48 14 -82l377 294
q-52 18 -125 18q-61 0 -109 -14.5t-77 -37.5t-47.5 -54t-25.5 -61.5t-7 -62.5zM526 169q68 0 119.5 18.5t78.5 44t43.5 60.5t20.5 61t4 52q0 43 -12 75l-376 -293q51 -18 122 -18z" />
    <glyph glyph-name="Ugrave" unicode="&#xd9;" horiz-adv-x="1032" 
d="M399 954h246l74 -153h-223zM498 -11q-80 0 -144.5 14t-107.5 37.5t-74 56.5t-47.5 67.5t-23.5 73.5t-6 73t7 67l72 366h232l-70 -363q-3 -26 -4.5 -53.5t9.5 -53t29.5 -46t55.5 -32.5t88 -12h5q49 0 86.5 13t59.5 31.5t38.5 47.5t23 51.5t12.5 53.5l71 363h232l-71 -366
q-8 -40 -14.5 -68.5t-22.5 -72.5t-36 -74.5t-54 -66t-76.5 -57t-104 -36t-136.5 -14.5h-29z" />
    <glyph glyph-name="Uacute" unicode="&#xda;" horiz-adv-x="1032" 
d="M480 801l111 153h248l-132 -153h-227zM498 -11q-80 0 -144.5 14t-107.5 37.5t-74 56.5t-47.5 67.5t-23.5 73.5t-6 73t7 67l72 366h232l-70 -363q-3 -26 -4.5 -53.5t9.5 -53t29.5 -46t55.5 -32.5t88 -12h5q49 0 86.5 13t59.5 31.5t38.5 47.5t23 51.5t12.5 53.5l71 363h232
l-71 -366q-8 -40 -14.5 -68.5t-22.5 -72.5t-36 -74.5t-54 -66t-76.5 -57t-104 -36t-136.5 -14.5h-29z" />
    <glyph glyph-name="Ucircumflex" unicode="&#xdb;" horiz-adv-x="1032" 
d="M864 799h-203l-48 65l-72 -65h-214l167 155h259zM498 -11q-80 0 -144.5 14t-107.5 37.5t-74 56.5t-47.5 67.5t-23.5 73.5t-6 73t7 67l72 366h232l-70 -363q-3 -26 -4.5 -53.5t9.5 -53t29.5 -46t55.5 -32.5t88 -12h5q49 0 86.5 13t59.5 31.5t38.5 47.5t23 51.5t12.5 53.5
l71 363h232l-71 -366q-8 -40 -14.5 -68.5t-22.5 -72.5t-36 -74.5t-54 -66t-76.5 -57t-104 -36t-136.5 -14.5h-29z" />
    <glyph glyph-name="Udieresis" unicode="&#xdc;" horiz-adv-x="1032" 
d="M498 -11q-80 0 -144.5 14t-107.5 37.5t-74 56.5t-47.5 67.5t-23.5 73.5t-6 73t7 67l72 366h232l-70 -363q-3 -26 -4.5 -53.5t9.5 -53t29.5 -46t55.5 -32.5t88 -12h5q49 0 86.5 13t59.5 31.5t38.5 47.5t23 51.5t12.5 53.5l71 363h232l-71 -366q-8 -40 -14.5 -68.5
t-22.5 -72.5t-36 -74.5t-54 -66t-76.5 -57t-104 -36t-136.5 -14.5h-29zM576 801h-216l28 146h216zM848 801h-216l28 146h216z" />
    <glyph glyph-name="Yacute" unicode="&#xdd;" horiz-adv-x="945" 
d="M361 269l-279 475h266l156 -280l264 280h275l-449 -476l-52 -268h-233zM433 801l111 153h248l-132 -153h-227z" />
    <glyph glyph-name="Thorn" unicode="&#xde;" horiz-adv-x="957" 
d="M291 128l-25 -128h-233l145 744h233l-22 -111h234q170 0 240 -60.5t70 -177.5q0 -54 -16 -98.5t-52.5 -84t-105 -62t-163.5 -22.5h-305zM326 303h255q57 0 83.5 24.5t26.5 63.5q0 67 -91 67h-245z" />
    <glyph glyph-name="germandbls" unicode="&#xdf;" horiz-adv-x="849" 
d="M652 442q57 -12 101 -56.5t44 -127.5q0 -35 -6.5 -66t-27.5 -68t-55 -63t-95.5 -43.5t-143.5 -17.5h-163l31 158h116q113 0 113 99q0 65 -94 65h-103l31 157h92q53 0 74 25t21 54q0 28 -22 45t-84 17h-6q-66 0 -93.5 -25t-36.5 -73l-101 -522h-222l105 540q18 84 41 121
q72 111 302 111h16q97 0 163.5 -13.5t101 -39t48 -55t13.5 -67.5q0 -66 -49.5 -107t-110.5 -48z" />
    <glyph glyph-name="agrave" unicode="&#xe0;" horiz-adv-x="792" 
d="M326 119q66 0 105.5 34t46.5 74l7 35q-40 -12 -117 -22q-68 -9 -95 -24.5t-27 -43.5q0 -24 20.5 -38.5t59.5 -14.5zM81 380q2 24 8 45t27 49.5t53.5 48t92 33.5t138.5 14h33q69 0 122 -8.5t84.5 -23.5t52.5 -34.5t27 -42.5t8 -47t-5 -47l-32 -165q-4 -22 1.5 -30.5
t27.5 -8.5h25l-32 -163h-169q-40 0 -60 21.5t-23 51.5q-74 -84 -208 -84h-16q-103 0 -158 46t-55 117q0 82 57 130.5t209 57.5l173 12q49 4 49 39q0 46 -98 46h-1q-98 0 -108 -57h-223zM326 615l-100 154h241l74 -154h-215z" />
    <glyph glyph-name="aacute" unicode="&#xe1;" horiz-adv-x="792" 
d="M326 119q66 0 105.5 34t46.5 74l7 35q-40 -12 -117 -22q-68 -9 -95 -24.5t-27 -43.5q0 -24 20.5 -38.5t59.5 -14.5zM81 380q2 24 8 45t27 49.5t53.5 48t92 33.5t138.5 14h33q69 0 122 -8.5t84.5 -23.5t52.5 -34.5t27 -42.5t8 -47t-5 -47l-32 -165q-4 -22 1.5 -30.5
t27.5 -8.5h25l-32 -163h-169q-40 0 -60 21.5t-23 51.5q-74 -84 -208 -84h-16q-103 0 -158 46t-55 117q0 82 57 130.5t209 57.5l173 12q49 4 49 39q0 46 -98 46h-1q-98 0 -108 -57h-223zM435 769h246l-137 -154h-219z" />
    <glyph glyph-name="acircumflex" unicode="&#xe2;" horiz-adv-x="792" 
d="M326 119q66 0 105.5 34t46.5 74l7 35q-40 -12 -117 -22q-68 -9 -95 -24.5t-27 -43.5q0 -24 20.5 -38.5t59.5 -14.5zM81 380q2 24 8 45t27 49.5t53.5 48t92 33.5t138.5 14h33q69 0 122 -8.5t84.5 -23.5t52.5 -34.5t27 -42.5t8 -47t-5 -47l-32 -165q-4 -22 1.5 -30.5
t27.5 -8.5h25l-32 -163h-169q-40 0 -60 21.5t-23 51.5q-74 -84 -208 -84h-16q-103 0 -158 46t-55 117q0 82 57 130.5t209 57.5l173 12q49 4 49 39q0 46 -98 46h-1q-98 0 -108 -57h-223zM698 614h-204l-45 66l-68 -66h-215l162 155h261z" />
    <glyph glyph-name="atilde" unicode="&#xe3;" horiz-adv-x="792" 
d="M326 119q66 0 105.5 34t46.5 74l7 35q-40 -12 -117 -22q-68 -9 -95 -24.5t-27 -43.5q0 -24 20.5 -38.5t59.5 -14.5zM81 380q2 24 8 45t27 49.5t53.5 48t92 33.5t138.5 14h33q69 0 122 -8.5t84.5 -23.5t52.5 -34.5t27 -42.5t8 -47t-5 -47l-32 -165q-4 -22 1.5 -30.5
t27.5 -8.5h25l-32 -163h-169q-40 0 -60 21.5t-23 51.5q-74 -84 -208 -84h-16q-103 0 -158 46t-55 117q0 82 57 130.5t209 57.5l173 12q49 4 49 39q0 46 -98 46h-1q-98 0 -108 -57h-223zM674 805l-16 -84q-17 -104 -100 -104h-2q-44 0 -115 35q-41 21 -54 21t-18 -22l-8 -40
h-123l17 84q17 104 100 104h2q44 0 115 -35q39 -21 54 -21q12 0 18 22l8 40h122z" />
    <glyph glyph-name="adieresis" unicode="&#xe4;" horiz-adv-x="792" 
d="M326 119q66 0 105.5 34t46.5 74l7 35q-40 -12 -117 -22q-68 -9 -95 -24.5t-27 -43.5q0 -24 20.5 -38.5t59.5 -14.5zM81 380q2 24 8 45t27 49.5t53.5 48t92 33.5t138.5 14h33q69 0 122 -8.5t84.5 -23.5t52.5 -34.5t27 -42.5t8 -47t-5 -47l-32 -165q-4 -22 1.5 -30.5
t27.5 -8.5h25l-32 -163h-169q-40 0 -60 21.5t-23 51.5q-74 -84 -208 -84h-16q-103 0 -158 46t-55 117q0 82 57 130.5t209 57.5l173 12q49 4 49 39q0 46 -98 46h-1q-98 0 -108 -57h-223zM675 613h-213l28 146h213zM408 613h-213l28 146h213z" />
    <glyph glyph-name="aring" unicode="&#xe5;" horiz-adv-x="792" 
d="M326 119q66 0 105.5 34t46.5 74l7 35q-40 -12 -117 -22q-68 -9 -95 -24.5t-27 -43.5q0 -24 20.5 -38.5t59.5 -14.5zM81 380q2 24 8 45t27 49.5t53.5 48t92 33.5t138.5 14h33q69 0 122 -8.5t84.5 -23.5t52.5 -34.5t27 -42.5t8 -47t-5 -47l-32 -165q-4 -22 1.5 -30.5
t27.5 -8.5h25l-32 -163h-169q-40 0 -60 21.5t-23 51.5q-74 -84 -208 -84h-16q-103 0 -158 46t-55 117q0 82 57 130.5t209 57.5l173 12q49 4 49 39q0 46 -98 46h-1q-98 0 -108 -57h-223zM470 873q165 0 165 -120q0 -19 -4 -37t-16 -38.5t-31.5 -35.5t-54 -25t-79.5 -10
q-88 0 -126.5 33t-38.5 86q0 25 7.5 48t26 47t57.5 38t94 14zM453 686q36 0 53.5 18.5t17.5 44.5q0 45 -58 45q-34 0 -52 -18.5t-18 -44.5q0 -45 57 -45z" />
    <glyph glyph-name="ae" unicode="&#xe6;" horiz-adv-x="1255" 
d="M864 436q-112 0 -146 -93h271q0 93 -125 93zM327 119q65 0 101 33t43 75l8 35q-33 -9 -111 -22q-69 -12 -95.5 -26t-26.5 -42q0 -24 20.5 -38.5t60.5 -14.5zM1191 178q-3 -21 -11 -42t-31.5 -49.5t-58.5 -49.5t-98 -36t-145 -15h-39q-213 0 -286 110q-86 -107 -249 -107
h-16q-115 0 -174.5 45t-59.5 118q0 81 56.5 129t206.5 59l169 12q49 4 49 39q0 46 -94 46h-2q-95 0 -104 -57h-223q2 24 8 45t26.5 49.5t52.5 48t91 33.5t137 14h31q160 0 210 -59q72 59 205 59h43q86 0 150 -17.5t99 -47t56 -69.5t22 -85.5t-4 -94.5l-4 -21h-500
q5 -106 133 -106q89 0 122 49h232z" />
    <glyph glyph-name="ccedilla" unicode="&#xe7;" horiz-adv-x="814" 
d="M508 -150q0 -130 -188 -130h-160l19 100h121q39 0 39 27q0 20 -34 20h-85l26 131q-199 45 -199 258q0 41 9 81t34 83.5t64 76t105 54t150 21.5h42q89 0 154 -16.5t99 -40t53 -57t22.5 -61t0.5 -58.5h-232q0 10 -4 21t-14.5 25.5t-35.5 23.5t-60 9h-9q-54 0 -89 -28
t-46.5 -61.5t-11.5 -69.5q0 -51 26.5 -84.5t84.5 -33.5h9q98 0 128 84h232q-3 -28 -11 -55t-31.5 -62.5t-58.5 -61t-97.5 -43.5t-143.5 -18h-51l-7 -37q83 0 116.5 -25.5t33.5 -72.5z" />
    <glyph glyph-name="egrave" unicode="&#xe8;" horiz-adv-x="827" 
d="M433 436q-114 0 -148 -93h274q3 37 -25 65t-101 28zM762 178q-3 -21 -11 -42t-31.5 -49.5t-58 -49.5t-97.5 -36t-144 -15h-40q-94 0 -162 21.5t-104.5 59t-53 81.5t-16.5 97q0 41 9 81.5t34 86t64.5 79t106 56t152.5 22.5h44q87 0 151.5 -17.5t99.5 -47t56 -69.5
t21.5 -85.5t-4.5 -94.5l-3 -21h-504q5 -106 135 -106q91 0 124 49h232zM343 615l-100 154h241l74 -154h-215z" />
    <glyph glyph-name="eacute" unicode="&#xe9;" horiz-adv-x="827" 
d="M452 769h246l-137 -154h-219zM433 436q-114 0 -148 -93h274q3 37 -25 65t-101 28zM762 178q-3 -21 -11 -42t-31.5 -49.5t-58 -49.5t-97.5 -36t-144 -15h-40q-94 0 -162 21.5t-104.5 59t-53 81.5t-16.5 97q0 41 9 81.5t34 86t64.5 79t106 56t152.5 22.5h44
q87 0 151.5 -17.5t99.5 -47t56 -69.5t21.5 -85.5t-4.5 -94.5l-3 -21h-504q5 -106 135 -106q91 0 124 49h232z" />
    <glyph glyph-name="ecircumflex" unicode="&#xea;" horiz-adv-x="827" 
d="M716 614h-204l-45 66l-68 -66h-215l162 155h261zM433 436q-114 0 -148 -93h274q3 37 -25 65t-101 28zM762 178q-3 -21 -11 -42t-31.5 -49.5t-58 -49.5t-97.5 -36t-144 -15h-40q-94 0 -162 21.5t-104.5 59t-53 81.5t-16.5 97q0 41 9 81.5t34 86t64.5 79t106 56t152.5 22.5
h44q87 0 151.5 -17.5t99.5 -47t56 -69.5t21.5 -85.5t-4.5 -94.5l-3 -21h-504q5 -106 135 -106q91 0 124 49h232z" />
    <glyph glyph-name="edieresis" unicode="&#xeb;" horiz-adv-x="827" 
d="M692 613h-213l28 146h213zM425 613h-213l28 146h213zM433 436q-114 0 -148 -93h274q3 37 -25 65t-101 28zM762 178q-3 -21 -11 -42t-31.5 -49.5t-58 -49.5t-97.5 -36t-144 -15h-40q-94 0 -162 21.5t-104.5 59t-53 81.5t-16.5 97q0 41 9 81.5t34 86t64.5 79t106 56
t152.5 22.5h44q87 0 151.5 -17.5t99.5 -47t56 -69.5t21.5 -85.5t-4.5 -94.5l-3 -21h-504q5 -106 135 -106q91 0 124 49h232z" />
    <glyph glyph-name="igrave" unicode="&#xec;" horiz-adv-x="375" 
d="M356 615h-216l-90 154h236zM244 0h-222l109 557h222z" />
    <glyph glyph-name="iacute" unicode="&#xed;" horiz-adv-x="375" 
d="M249 769h238l-125 -154h-218zM244 0h-222l109 557h222z" />
    <glyph glyph-name="icircumflex" unicode="&#xee;" horiz-adv-x="375" 
d="M488 614h-190l-36 68l-58 -68h-200l142 155h256zM244 0h-222l109 557h222z" />
    <glyph glyph-name="idieresis" unicode="&#xef;" horiz-adv-x="375" 
d="M225 613h-184l28 146h184zM461 613h-184l28 146h184zM244 0h-222l109 557h222z" />
    <glyph glyph-name="eth" unicode="&#xf0;" horiz-adv-x="838" 
d="M385 -15q-95 0 -163.5 21.5t-106 60t-54.5 84.5t-17 102q0 43 9 83.5t31.5 80t55.5 68.5t85 47t116 18h11q112 0 185 -49l-92 108l-227 -26l15 76l154 17l-69 81h253l46 -55l197 22l-13 -75l-128 -14l8 -10q59 -70 88.5 -134.5t29.5 -142.5q0 -51 -7 -95.5t-31.5 -95.5
t-64.5 -87.5t-111.5 -60.5t-167.5 -24h-32zM275 257q0 -48 28.5 -81.5t94.5 -33.5h9q44 0 77 17t49 43.5t23 51.5t7 48q0 47 -28.5 81t-94.5 34h-8q-45 0 -78 -16t-49 -42t-23 -51t-7 -51z" />
    <glyph glyph-name="ntilde" unicode="&#xf1;" horiz-adv-x="839" 
d="M131 557h220l-17 -88q12 14 29 29t45.5 33t68 29t83.5 11h9q114 0 169.5 -76t32.5 -189l-60 -306h-222l53 275q12 57 -14 91t-88 34q-59 0 -94.5 -33.5t-47.5 -90.5l-54 -276h-222zM703 805l-16 -84q-17 -104 -100 -104h-2q-44 0 -115 35q-41 21 -54 21q-12 0 -18 -22
l-8 -40h-123l17 84q17 104 100 104h2q44 0 115 -35q39 -21 54 -21q12 0 18 22l8 40h122z" />
    <glyph glyph-name="ograve" unicode="&#xf2;" horiz-adv-x="839" 
d="M383 -15q-339 0 -339 268q0 37 7.5 74t32 83t64 80.5t110.5 58t164 23.5h33q72 0 128 -11.5t92 -32.5t60.5 -46t37 -57t17 -60t4.5 -60q0 -40 -6.5 -76.5t-30 -83t-62.5 -80t-111.5 -57t-168.5 -23.5h-32zM275 258q0 -49 28 -82.5t96 -33.5h9q44 0 76.5 17t48.5 43
t23.5 51t7.5 49q0 48 -29 82t-95 34h-8q-44 0 -76.5 -16t-49 -42t-24 -51.5t-7.5 -50.5zM352 615l-100 154h241l74 -154h-215z" />
    <glyph glyph-name="oacute" unicode="&#xf3;" horiz-adv-x="839" 
d="M460 769h246l-137 -154h-219zM383 -15q-339 0 -339 268q0 37 7.5 74t32 83t64 80.5t110.5 58t164 23.5h33q72 0 128 -11.5t92 -32.5t60.5 -46t37 -57t17 -60t4.5 -60q0 -40 -6.5 -76.5t-30 -83t-62.5 -80t-111.5 -57t-168.5 -23.5h-32zM275 258q0 -49 28 -82.5t96 -33.5
h9q44 0 76.5 17t48.5 43t23.5 51t7.5 49q0 48 -29 82t-95 34h-8q-44 0 -76.5 -16t-49 -42t-24 -51.5t-7.5 -50.5z" />
    <glyph glyph-name="ocircumflex" unicode="&#xf4;" horiz-adv-x="839" 
d="M724 614h-204l-45 66l-68 -66h-215l162 155h261zM383 -15q-339 0 -339 268q0 37 7.5 74t32 83t64 80.5t110.5 58t164 23.5h33q72 0 128 -11.5t92 -32.5t60.5 -46t37 -57t17 -60t4.5 -60q0 -40 -6.5 -76.5t-30 -83t-62.5 -80t-111.5 -57t-168.5 -23.5h-32zM275 258
q0 -49 28 -82.5t96 -33.5h9q44 0 76.5 17t48.5 43t23.5 51t7.5 49q0 48 -29 82t-95 34h-8q-44 0 -76.5 -16t-49 -42t-24 -51.5t-7.5 -50.5z" />
    <glyph glyph-name="otilde" unicode="&#xf5;" horiz-adv-x="839" 
d="M383 -15q-339 0 -339 268q0 37 7.5 74t32 83t64 80.5t110.5 58t164 23.5h33q72 0 128 -11.5t92 -32.5t60.5 -46t37 -57t17 -60t4.5 -60q0 -40 -6.5 -76.5t-30 -83t-62.5 -80t-111.5 -57t-168.5 -23.5h-32zM275 258q0 -49 28 -82.5t96 -33.5h9q44 0 76.5 17t48.5 43
t23.5 51t7.5 49q0 48 -29 82t-95 34h-8q-44 0 -76.5 -16t-49 -42t-24 -51.5t-7.5 -50.5zM696 805l-16 -84q-17 -104 -100 -104h-2q-44 0 -115 35q-41 21 -54 21t-18 -22l-8 -40h-123l17 84q17 104 100 104h2q44 0 115 -35q39 -21 54 -21q12 0 18 22l8 40h122z" />
    <glyph glyph-name="odieresis" unicode="&#xf6;" horiz-adv-x="839" 
d="M701 613h-213l28 146h213zM434 613h-213l28 146h213zM383 -15q-339 0 -339 268q0 37 7.5 74t32 83t64 80.5t110.5 58t164 23.5h33q72 0 128 -11.5t92 -32.5t60.5 -46t37 -57t17 -60t4.5 -60q0 -40 -6.5 -76.5t-30 -83t-62.5 -80t-111.5 -57t-168.5 -23.5h-32zM275 258
q0 -49 28 -82.5t96 -33.5h9q44 0 76.5 17t48.5 43t23.5 51t7.5 49q0 48 -29 82t-95 34h-8q-44 0 -76.5 -16t-49 -42t-24 -51.5t-7.5 -50.5z" />
    <glyph glyph-name="divide" unicode="&#xf7;" horiz-adv-x="660" 
d="M465 455h-199l31 163h200zM616 392l-28 -141h-524l27 141h525zM380 21h-199l32 164h199z" />
    <glyph glyph-name="oslash" unicode="&#xf8;" horiz-adv-x="838" 
d="M383 -15q-139 0 -223 50l-47 -35h-142l124 92q-51 67 -51 161q0 37 7.5 74t32 83t64 80.5t110.5 58t164 23.5h33q137 0 221 -48l45 33h144l-122 -89q50 -64 50 -163q0 -40 -6.5 -76.5t-30 -83t-62.5 -80t-111.5 -57t-168.5 -23.5h-31zM261 258q0 -23 4 -40l259 193
q-35 14 -84 14h-9q-49 0 -84.5 -16.5t-53 -43t-25 -53t-7.5 -54.5zM407 135q39 0 70 11.5t49 29.5t30 41t16 44t4 41q0 27 -3 40l-258 -193q31 -14 83 -14h9z" />
    <glyph glyph-name="ugrave" unicode="&#xf9;" horiz-adv-x="834" 
d="M704 0h-221l18 88q-18 -21 -41.5 -40.5t-74 -40.5t-106.5 -21h-9q-113 0 -168.5 76t-32.5 189l59 306h223l-54 -276q-12 -56 14 -90t87 -34q57 0 93 35t46 89l53 276h222zM367 615l-100 154h241l74 -154h-215z" />
    <glyph glyph-name="uacute" unicode="&#xfa;" horiz-adv-x="834" 
d="M466 769h246l-137 -154h-219zM704 0h-221l18 88q-18 -21 -41.5 -40.5t-74 -40.5t-106.5 -21h-9q-113 0 -168.5 76t-32.5 189l59 306h223l-54 -276q-12 -56 14 -90t87 -34q57 0 93 35t46 89l53 276h222z" />
    <glyph glyph-name="ucircumflex" unicode="&#xfb;" horiz-adv-x="834" 
d="M735 614h-204l-45 66l-68 -66h-215l162 155h261zM704 0h-221l18 88q-18 -21 -41.5 -40.5t-74 -40.5t-106.5 -21h-9q-113 0 -168.5 76t-32.5 189l59 306h223l-54 -276q-12 -56 14 -90t87 -34q57 0 93 35t46 89l53 276h222z" />
    <glyph glyph-name="udieresis" unicode="&#xfc;" horiz-adv-x="834" 
d="M711 613h-213l28 146h213zM444 613h-213l28 146h213zM704 0h-221l18 88q-18 -21 -41.5 -40.5t-74 -40.5t-106.5 -21h-9q-113 0 -168.5 76t-32.5 189l59 306h223l-54 -276q-12 -56 14 -90t87 -34q57 0 93 35t46 89l53 276h222z" />
    <glyph glyph-name="yacute" unicode="&#xfd;" horiz-adv-x="762" 
d="M54 -40h125q27 0 27 24q0 14 -9 45l-135 528h233l67 -381l205 381h236l-362 -609q-42 -71 -85.5 -104.5t-110.5 -33.5h-220zM425 769h246l-137 -154h-219z" />
    <glyph glyph-name="thorn" unicode="&#xfe;" horiz-adv-x="856" 
d="M425 148q43 0 75 15.5t48 40t23.5 49t7.5 47.5q0 48 -28.5 80.5t-92.5 32.5h-8q-76 0 -115.5 -47t-39.5 -104q0 -48 30 -81t93 -33h7zM476 -10q-139 0 -218 79l-51 -260h-221l185 955h222l-54 -273q23 26 77 52.5t127 26.5h11q128 0 192 -74t64 -192q0 -55 -17 -107
t-52 -100t-100.5 -77.5t-152.5 -29.5h-12z" />
    <glyph glyph-name="ydieresis" unicode="&#xff;" horiz-adv-x="762" 
d="M54 -40h125q27 0 27 24q0 14 -9 45l-135 528h233l67 -381l205 381h236l-362 -609q-42 -71 -85.5 -104.5t-110.5 -33.5h-220zM668 613h-213l28 146h213zM401 613h-213l28 146h213z" />
    <glyph glyph-name="Amacron" unicode="&#x100;" horiz-adv-x="986" 
d="M556 571l-172 -279h242zM667 130h-383l-81 -130h-246l470 744h308l202 -744h-237zM413 940h394l-25 -126h-393z" />
    <glyph glyph-name="amacron" unicode="&#x101;" horiz-adv-x="792" 
d="M326 119q66 0 105.5 34t46.5 74l7 35q-40 -12 -117 -22q-68 -9 -95 -24.5t-27 -43.5q0 -24 20.5 -38.5t59.5 -14.5zM81 380q2 24 8 45t27 49.5t53.5 48t92 33.5t138.5 14h33q69 0 122 -8.5t84.5 -23.5t52.5 -34.5t27 -42.5t8 -47t-5 -47l-32 -165q-4 -22 1.5 -30.5
t27.5 -8.5h25l-32 -163h-169q-40 0 -60 21.5t-23 51.5q-74 -84 -208 -84h-16q-103 0 -158 46t-55 117q0 82 57 130.5t209 57.5l173 12q49 4 49 39q0 46 -98 46h-1q-98 0 -108 -57h-223zM271 751h386l-24 -126h-387z" />
    <glyph glyph-name="Abreve" unicode="&#x102;" horiz-adv-x="986" 
d="M556 571l-172 -279h242zM667 130h-383l-81 -130h-246l470 744h308l202 -744h-237zM577 797q-51 0 -89 12.5t-58.5 30.5t-32 43t-14.5 45.5t-1 41.5h155q0 -55 52 -55h1q22 0 37 11t20 22t7 22h155q-2 -26 -13.5 -53t-34 -55.5t-64 -46.5t-95.5 -18h-25z" />
    <glyph glyph-name="abreve" unicode="&#x103;" horiz-adv-x="792" 
d="M326 119q66 0 105.5 34t46.5 74l7 35q-40 -12 -117 -22q-68 -9 -95 -24.5t-27 -43.5q0 -24 20.5 -38.5t59.5 -14.5zM81 380q2 24 8 45t27 49.5t53.5 48t92 33.5t138.5 14h33q69 0 122 -8.5t84.5 -23.5t52.5 -34.5t27 -42.5t8 -47t-5 -47l-32 -165q-4 -22 1.5 -30.5
t27.5 -8.5h25l-32 -163h-169q-40 0 -60 21.5t-23 51.5q-74 -84 -208 -84h-16q-103 0 -158 46t-55 117q0 82 57 130.5t209 57.5l173 12q49 4 49 39q0 46 -98 46h-1q-98 0 -108 -57h-223zM440 610q-63 0 -106 18t-60.5 47t-23.5 55.5t-4 53.5h156v-12.5t2.5 -13.5t7.5 -15.5
t15 -10t25 -4.5h1q49 0 60 56h156q-2 -26 -13.5 -53.5t-33.5 -56t-63 -46.5t-95 -18h-24z" />
    <glyph glyph-name="Aogonek" unicode="&#x104;" horiz-adv-x="986" 
d="M556 571l-172 -279h242zM667 130h-383l-81 -130h-246l470 744h308l202 -744h-237zM636 -123q0 42 45 69.5t160 53.5h95q-47 -26 -65.5 -40t-18.5 -28q0 -20 35 -20h39l-20 -102h-150q-120 0 -120 67z" />
    <glyph glyph-name="aogonek" unicode="&#x105;" horiz-adv-x="792" 
d="M326 119q66 0 105.5 34t46.5 74l7 35q-40 -12 -117 -22q-68 -9 -95 -24.5t-27 -43.5q0 -24 20.5 -38.5t59.5 -14.5zM81 380q2 24 8 45t27 49.5t53.5 48t92 33.5t138.5 14h33q69 0 122 -8.5t84.5 -23.5t52.5 -34.5t27 -42.5t8 -47t-5 -47l-32 -165q-4 -22 1.5 -30.5
t27.5 -8.5h25l-32 -163h-169q-40 0 -60 21.5t-23 51.5q-74 -84 -208 -84h-16q-103 0 -158 46t-55 117q0 82 57 130.5t209 57.5l173 12q49 4 49 39q0 46 -98 46h-1q-98 0 -108 -57h-223zM412 -123q0 42 45 69.5t160 53.5h95q-47 -26 -65.5 -40t-18.5 -28q0 -20 35 -20h39
l-20 -102h-150q-120 0 -120 67z" />
    <glyph glyph-name="Cacute" unicode="&#x106;" horiz-adv-x="1018" 
d="M583 756q107 0 187 -18.5t125.5 -47.5t71.5 -70.5t32.5 -82t2.5 -87.5h-242q-1 12 -3 20.5t-8 25t-19.5 28t-34 23.5t-55 18.5t-79.5 6.5q-67 0 -117 -19.5t-77 -53.5t-40 -72.5t-13 -81.5q0 -74 47.5 -122.5t153.5 -48.5q51 0 91 11.5t61.5 26t36.5 34.5t19 30.5t7 21.5
h243q-3 -25 -8.5 -48t-19.5 -55.5t-33.5 -59.5t-53.5 -55t-77 -47.5t-106 -32t-138 -12.5h-45q-97 0 -172 20t-122 53t-77 80t-42 96t-12 105t14 110.5t48.5 110.5t86.5 98t135 68.5t187 26.5h45zM467 801l111 153h248l-132 -153h-227z" />
    <glyph glyph-name="cacute" unicode="&#x107;" horiz-adv-x="814" 
d="M449 769h246l-137 -154h-219zM758 225q-3 -28 -11 -55t-31.5 -62.5t-58.5 -61t-97.5 -43.5t-143.5 -18h-47q-95 0 -162 24t-100 66t-46.5 85.5t-13.5 95.5q0 41 9 81t34 83.5t64 76t105 54t150 21.5h42q89 0 154 -16.5t99 -40t53 -57t22.5 -61t0.5 -58.5h-232q0 10 -4 21
t-14.5 25.5t-35.5 23.5t-60 9h-9q-54 0 -89 -28t-46.5 -61.5t-11.5 -69.5q0 -51 26.5 -84.5t84.5 -33.5h9q98 0 128 84h232z" />
    <glyph glyph-name="Ccircumflex" unicode="&#x108;" horiz-adv-x="1018" 
d="M841 799h-203l-48 65l-72 -65h-214l167 155h259zM583 756q107 0 187 -18.5t125.5 -47.5t71.5 -70.5t32.5 -82t2.5 -87.5h-242q-1 12 -3 20.5t-8 25t-19.5 28t-34 23.5t-55 18.5t-79.5 6.5q-67 0 -117 -19.5t-77 -53.5t-40 -72.5t-13 -81.5q0 -74 47.5 -122.5t153.5 -48.5
q51 0 91 11.5t61.5 26t36.5 34.5t19 30.5t7 21.5h243q-3 -25 -8.5 -48t-19.5 -55.5t-33.5 -59.5t-53.5 -55t-77 -47.5t-106 -32t-138 -12.5h-45q-97 0 -172 20t-122 53t-77 80t-42 96t-12 105t14 110.5t48.5 110.5t86.5 98t135 68.5t187 26.5h45z" />
    <glyph glyph-name="ccircumflex" unicode="&#x109;" horiz-adv-x="814" 
d="M712 614h-204l-45 66l-68 -66h-215l162 155h261zM758 225q-3 -28 -11 -55t-31.5 -62.5t-58.5 -61t-97.5 -43.5t-143.5 -18h-47q-95 0 -162 24t-100 66t-46.5 85.5t-13.5 95.5q0 41 9 81t34 83.5t64 76t105 54t150 21.5h42q89 0 154 -16.5t99 -40t53 -57t22.5 -61
t0.5 -58.5h-232q0 10 -4 21t-14.5 25.5t-35.5 23.5t-60 9h-9q-54 0 -89 -28t-46.5 -61.5t-11.5 -69.5q0 -51 26.5 -84.5t84.5 -33.5h9q98 0 128 84h232z" />
    <glyph glyph-name="Cdotaccent" unicode="&#x10a;" horiz-adv-x="1018" 
d="M583 756q107 0 187 -18.5t125.5 -47.5t71.5 -70.5t32.5 -82t2.5 -87.5h-242q-1 12 -3 20.5t-8 25t-19.5 28t-34 23.5t-55 18.5t-79.5 6.5q-67 0 -117 -19.5t-77 -53.5t-40 -72.5t-13 -81.5q0 -74 47.5 -122.5t153.5 -48.5q51 0 91 11.5t61.5 26t36.5 34.5t19 30.5t7 21.5
h243q-3 -25 -8.5 -48t-19.5 -55.5t-33.5 -59.5t-53.5 -55t-77 -47.5t-106 -32t-138 -12.5h-45q-97 0 -172 20t-122 53t-77 80t-42 96t-12 105t14 110.5t48.5 110.5t86.5 98t135 68.5t187 26.5h45zM698 801h-225l28 146h225z" />
    <glyph glyph-name="cdotaccent" unicode="&#x10b;" horiz-adv-x="814" 
d="M758 225q-3 -28 -11 -55t-31.5 -62.5t-58.5 -61t-97.5 -43.5t-143.5 -18h-47q-95 0 -162 24t-100 66t-46.5 85.5t-13.5 95.5q0 41 9 81t34 83.5t64 76t105 54t150 21.5h42q89 0 154 -16.5t99 -40t53 -57t22.5 -61t0.5 -58.5h-232q0 10 -4 21t-14.5 25.5t-35.5 23.5t-60 9
h-9q-54 0 -89 -28t-46.5 -61.5t-11.5 -69.5q0 -51 26.5 -84.5t84.5 -33.5h9q98 0 128 84h232zM567 613h-225l28 146h225z" />
    <glyph glyph-name="Ccaron" unicode="&#x10c;" horiz-adv-x="1018" 
d="M331 954h203l47 -64l73 64h215l-168 -153h-259zM583 756q107 0 187 -18.5t125.5 -47.5t71.5 -70.5t32.5 -82t2.5 -87.5h-242q-1 12 -3 20.5t-8 25t-19.5 28t-34 23.5t-55 18.5t-79.5 6.5q-67 0 -117 -19.5t-77 -53.5t-40 -72.5t-13 -81.5q0 -74 47.5 -122.5t153.5 -48.5
q51 0 91 11.5t61.5 26t36.5 34.5t19 30.5t7 21.5h243q-3 -25 -8.5 -48t-19.5 -55.5t-33.5 -59.5t-53.5 -55t-77 -47.5t-106 -32t-138 -12.5h-45q-97 0 -172 20t-122 53t-77 80t-42 96t-12 105t14 110.5t48.5 110.5t86.5 98t135 68.5t187 26.5h45z" />
    <glyph glyph-name="ccaron" unicode="&#x10d;" horiz-adv-x="814" 
d="M209 769h204l44 -65l69 65h215l-162 -154h-261zM758 225q-3 -28 -11 -55t-31.5 -62.5t-58.5 -61t-97.5 -43.5t-143.5 -18h-47q-95 0 -162 24t-100 66t-46.5 85.5t-13.5 95.5q0 41 9 81t34 83.5t64 76t105 54t150 21.5h42q89 0 154 -16.5t99 -40t53 -57t22.5 -61
t0.5 -58.5h-232q0 10 -4 21t-14.5 25.5t-35.5 23.5t-60 9h-9q-54 0 -89 -28t-46.5 -61.5t-11.5 -69.5q0 -51 26.5 -84.5t84.5 -33.5h9q98 0 128 84h232z" />
    <glyph glyph-name="Dcaron" unicode="&#x10e;" horiz-adv-x="1016" 
d="M284 954h203l47 -64l73 64h215l-168 -153h-259zM178 744h354q104 0 185 -19t130.5 -50t81.5 -75.5t44 -90.5t12 -100q0 -61 -13 -115.5t-48 -109.5t-90 -94.5t-144.5 -64.5t-205.5 -25h-451zM301 177h161q70 0 123 16.5t82 40t47 56.5t23 60t5 56q0 162 -232 162h-133z
" />
    <glyph glyph-name="dcaron" unicode="&#x10f;" horiz-adv-x="856" 
d="M938 765h182l-59 -162h-170zM278 267q0 -51 29.5 -86t92.5 -35h9q74 0 114 46t40 101q0 49 -30.5 84t-94.5 35h-9q-78 0 -114.5 -45.5t-36.5 -99.5zM383 568q141 0 218 -69l51 258h222l-148 -757h-214l12 69q-14 -16 -35.5 -32t-67 -32t-97.5 -16h-13q-126 0 -195.5 73
t-69.5 190q0 59 19 114t57 101t102.5 73.5t146.5 27.5h12z" />
    <glyph glyph-name="Dcroat" unicode="&#x110;" horiz-adv-x="1042" 
d="M488 177q70 0 123 16.5t82 40t47 56.5t23 60t5 56q0 162 -232 162h-133l-24 -123h228l-26 -137h-228l-26 -131h161zM119 308h-96l26 137h97l58 299h354q104 0 185 -19t130.5 -50t81.5 -75.5t44 -90.5t12 -100q0 -61 -13 -115.5t-48 -109.5t-90 -94.5t-144.5 -64.5
t-205.5 -25h-451z" />
    <glyph glyph-name="dcroat" unicode="&#x111;" horiz-adv-x="856" 
d="M374 705h576l-16 -88h-576zM278 267q0 -51 29.5 -86t92.5 -35h9q74 0 114 46t40 101q0 49 -30.5 84t-94.5 35h-9q-78 0 -114.5 -45.5t-36.5 -99.5zM383 568q141 0 218 -69l51 258h222l-148 -757h-214l12 69q-14 -16 -35.5 -32t-67 -32t-97.5 -16h-13q-126 0 -195.5 73
t-69.5 190q0 59 19 114t57 101t102.5 73.5t146.5 27.5h12z" />
    <glyph glyph-name="Emacron" unicode="&#x112;" horiz-adv-x="857" 
d="M875 744l-33 -169h-465l-22 -111h451l-34 -174h-451l-23 -119h472l-33 -171h-704l145 744h697zM370 940h394l-25 -126h-393z" />
    <glyph glyph-name="emacron" unicode="&#x113;" horiz-adv-x="827" 
d="M433 436q-114 0 -148 -93h274q3 37 -25 65t-101 28zM762 178q-3 -21 -11 -42t-31.5 -49.5t-58 -49.5t-97.5 -36t-144 -15h-40q-94 0 -162 21.5t-104.5 59t-53 81.5t-16.5 97q0 41 9 81.5t34 86t64.5 79t106 56t152.5 22.5h44q87 0 151.5 -17.5t99.5 -47t56 -69.5
t21.5 -85.5t-4.5 -94.5l-3 -21h-504q5 -106 135 -106q91 0 124 49h232zM291 751h386l-24 -126h-387z" />
    <glyph glyph-name="Ebreve" unicode="&#x114;" horiz-adv-x="857" 
d="M875 744l-33 -169h-465l-22 -111h451l-34 -174h-451l-23 -119h472l-33 -171h-704l145 744h697zM535 797q-51 0 -89 12.5t-58.5 30.5t-32 43t-14.5 45.5t-1 41.5h155q0 -55 52 -55h1q22 0 37 11t20 22t7 22h155q-2 -26 -13.5 -53t-34 -55.5t-64 -46.5t-95.5 -18h-25z" />
    <glyph glyph-name="ebreve" unicode="&#x115;" horiz-adv-x="827" 
d="M433 436q-114 0 -148 -93h274q3 37 -25 65t-101 28zM762 178q-3 -21 -11 -42t-31.5 -49.5t-58 -49.5t-97.5 -36t-144 -15h-40q-94 0 -162 21.5t-104.5 59t-53 81.5t-16.5 97q0 41 9 81.5t34 86t64.5 79t106 56t152.5 22.5h44q87 0 151.5 -17.5t99.5 -47t56 -69.5
t21.5 -85.5t-4.5 -94.5l-3 -21h-504q5 -106 135 -106q91 0 124 49h232zM456 610q-63 0 -106 18t-60.5 47t-23.5 55.5t-4 53.5h156v-12.5t2.5 -13.5t7.5 -15.5t15 -10t25 -4.5h1q49 0 60 56h156q-2 -26 -13.5 -53.5t-33.5 -56t-63 -46.5t-95 -18h-24z" />
    <glyph glyph-name="Edotaccent" unicode="&#x116;" horiz-adv-x="857" 
d="M653 801h-225l28 146h225zM875 744l-33 -169h-465l-22 -111h451l-34 -174h-451l-23 -119h472l-33 -171h-704l145 744h697z" />
    <glyph glyph-name="edotaccent" unicode="&#x117;" horiz-adv-x="827" 
d="M433 436q-114 0 -148 -93h274q3 37 -25 65t-101 28zM762 178q-3 -21 -11 -42t-31.5 -49.5t-58 -49.5t-97.5 -36t-144 -15h-40q-94 0 -162 21.5t-104.5 59t-53 81.5t-16.5 97q0 41 9 81.5t34 86t64.5 79t106 56t152.5 22.5h44q87 0 151.5 -17.5t99.5 -47t56 -69.5
t21.5 -85.5t-4.5 -94.5l-3 -21h-504q5 -106 135 -106q91 0 124 49h232zM570 613h-225l28 146h225z" />
    <glyph glyph-name="Eogonek" unicode="&#x118;" horiz-adv-x="857" 
d="M343 -123q0 42 45 69.5t160 53.5h95q-47 -26 -65.5 -40t-18.5 -28q0 -20 35 -20h39l-20 -102h-150q-120 0 -120 67zM875 744l-33 -169h-465l-22 -111h451l-34 -174h-451l-23 -119h472l-33 -171h-704l145 744h697z" />
    <glyph glyph-name="eogonek" unicode="&#x119;" horiz-adv-x="827" 
d="M433 438q-114 0 -148 -93h274q3 37 -25 65t-101 28zM572 -191h-151q-121 0 -121 68q0 37 38.5 63.5t133.5 49.5q-34 -2 -52 -2h-40q-94 0 -162 21.5t-104.5 59t-53 81.5t-16.5 97q0 41 9 81.5t34 86t64.5 79t106 56t152.5 22.5h44q87 0 151.5 -17.5t99.5 -47t56 -69.5
t21.5 -85.5t-4.5 -94.5l-3 -21h-504q5 -106 135 -106q91 0 124 49h232q-15 -102 -149 -172q-55 -28 -75 -43.5t-20 -31.5q0 -20 35 -20h39z" />
    <glyph glyph-name="Ecaron" unicode="&#x11a;" horiz-adv-x="857" 
d="M287 954h203l47 -64l73 64h215l-168 -153h-259zM875 744l-33 -169h-465l-22 -111h451l-34 -174h-451l-23 -119h472l-33 -171h-704l145 744h697z" />
    <glyph glyph-name="ecaron" unicode="&#x11b;" horiz-adv-x="827" 
d="M207 769h204l44 -65l69 65h215l-162 -154h-261zM433 436q-114 0 -148 -93h274q3 37 -25 65t-101 28zM762 178q-3 -21 -11 -42t-31.5 -49.5t-58 -49.5t-97.5 -36t-144 -15h-40q-94 0 -162 21.5t-104.5 59t-53 81.5t-16.5 97q0 41 9 81.5t34 86t64.5 79t106 56t152.5 22.5
h44q87 0 151.5 -17.5t99.5 -47t56 -69.5t21.5 -85.5t-4.5 -94.5l-3 -21h-504q5 -106 135 -106q91 0 124 49h232z" />
    <glyph glyph-name="Gcircumflex" unicode="&#x11c;" horiz-adv-x="1056" 
d="M851 799h-203l-48 65l-72 -65h-214l167 155h259zM515 170q100 0 152 36.5t62 70.5h-204l26 134h457l-80 -411h-170q0 65 -6 99q-97 -111 -272 -111h-15q-198 0 -296.5 98t-98.5 248q0 62 15.5 120t51.5 113.5t90 96.5t137.5 66t186.5 25h33q104 0 183 -16.5t126 -42.5
t75 -62.5t37 -73t6 -77.5h-244q-24 90 -200 90q-60 0 -107 -15.5t-74 -39.5t-44 -56t-23 -60.5t-6 -57.5q0 -74 48.5 -124t153.5 -50z" />
    <glyph glyph-name="gcircumflex" unicode="&#x11d;" horiz-adv-x="857" 
d="M725 614h-204l-45 66l-68 -66h-215l162 155h261zM432 415q-41 0 -71.5 -12.5t-46.5 -33.5t-23.5 -43.5t-7.5 -45.5q0 -45 29.5 -76.5t93.5 -31.5h9q43 0 74 14t46.5 36.5t22.5 44t7 43.5q0 42 -30.5 73.5t-93.5 31.5h-9zM265 -17q9 -38 102 -38h8q120 0 142 109l7 38
q-83 -73 -200 -73h-15q-127 0 -193 71.5t-66 176.5q0 41 9.5 81t33 80.5t59 71t93 49.5t128.5 19h11q63 0 114.5 -15t67 -25t37.5 -27l10 56h222l-96 -495q-13 -63 -34.5 -108t-61.5 -83t-105.5 -57t-157.5 -19h-30q-88 0 -152 13t-98 32t-53 46.5t-23 49.5t-2 47h243z" />
    <glyph glyph-name="Gbreve" unicode="&#x11e;" horiz-adv-x="1056" 
d="M594 797q-51 0 -89 12.5t-58.5 30.5t-32 43t-14.5 45.5t-1 41.5h155q0 -55 52 -55h1q22 0 37 11t20 22t7 22h155q-2 -26 -13.5 -53t-34 -55.5t-64 -46.5t-95.5 -18h-25zM515 170q100 0 152 36.5t62 70.5h-204l26 134h457l-80 -411h-170q0 65 -6 99q-97 -111 -272 -111
h-15q-198 0 -296.5 98t-98.5 248q0 62 15.5 120t51.5 113.5t90 96.5t137.5 66t186.5 25h33q104 0 183 -16.5t126 -42.5t75 -62.5t37 -73t6 -77.5h-244q-24 90 -200 90q-60 0 -107 -15.5t-74 -39.5t-44 -56t-23 -60.5t-6 -57.5q0 -74 48.5 -124t153.5 -50z" />
    <glyph glyph-name="gbreve" unicode="&#x11f;" horiz-adv-x="857" 
d="M432 415q-41 0 -71.5 -12.5t-46.5 -33.5t-23.5 -43.5t-7.5 -45.5q0 -45 29.5 -76.5t93.5 -31.5h9q43 0 74 14t46.5 36.5t22.5 44t7 43.5q0 42 -30.5 73.5t-93.5 31.5h-9zM265 -17q9 -38 102 -38h8q120 0 142 109l7 38q-83 -73 -200 -73h-15q-127 0 -193 71.5t-66 176.5
q0 41 9.5 81t33 80.5t59 71t93 49.5t128.5 19h11q63 0 114.5 -15t67 -25t37.5 -27l10 56h222l-96 -495q-13 -63 -34.5 -108t-61.5 -83t-105.5 -57t-157.5 -19h-30q-88 0 -152 13t-98 32t-53 46.5t-23 49.5t-2 47h243zM465 610q-63 0 -106 18t-60.5 47t-23.5 55.5t-4 53.5
h156v-12.5t2.5 -13.5t7.5 -15.5t15 -10t25 -4.5h1q21 0 35 11.5t18.5 22t6.5 22.5h156q-2 -26 -13.5 -53.5t-33.5 -56t-63 -46.5t-95 -18h-24z" />
    <glyph glyph-name="Gdotaccent" unicode="&#x120;" horiz-adv-x="1056" 
d="M708 801h-225l28 146h225zM515 170q100 0 152 36.5t62 70.5h-204l26 134h457l-80 -411h-170q0 65 -6 99q-97 -111 -272 -111h-15q-198 0 -296.5 98t-98.5 248q0 62 15.5 120t51.5 113.5t90 96.5t137.5 66t186.5 25h33q104 0 183 -16.5t126 -42.5t75 -62.5t37 -73t6 -77.5
h-244q-24 90 -200 90q-60 0 -107 -15.5t-74 -39.5t-44 -56t-23 -60.5t-6 -57.5q0 -74 48.5 -124t153.5 -50z" />
    <glyph glyph-name="gdotaccent" unicode="&#x121;" horiz-adv-x="857" 
d="M432 415q-41 0 -71.5 -12.5t-46.5 -33.5t-23.5 -43.5t-7.5 -45.5q0 -45 29.5 -76.5t93.5 -31.5h9q43 0 74 14t46.5 36.5t22.5 44t7 43.5q0 42 -30.5 73.5t-93.5 31.5h-9zM265 -17q9 -38 102 -38h8q120 0 142 109l7 38q-83 -73 -200 -73h-15q-127 0 -193 71.5t-66 176.5
q0 41 9.5 81t33 80.5t59 71t93 49.5t128.5 19h11q63 0 114.5 -15t67 -25t37.5 -27l10 56h222l-96 -495q-13 -63 -34.5 -108t-61.5 -83t-105.5 -57t-157.5 -19h-30q-88 0 -152 13t-98 32t-53 46.5t-23 49.5t-2 47h243zM578 613h-225l28 146h225z" />
    <glyph glyph-name="uni0122" unicode="&#x122;" horiz-adv-x="1056" 
d="M373 -286q34 49 47 84h-111l28 145h238l-21 -112q-11 -57 -52 -117h-129zM515 170q100 0 152 36.5t62 70.5h-204l26 134h457l-80 -411h-170q0 65 -6 99q-97 -111 -272 -111h-15q-198 0 -296.5 98t-98.5 248q0 62 15.5 120t51.5 113.5t90 96.5t137.5 66t186.5 25h33
q104 0 183 -16.5t126 -42.5t75 -62.5t37 -73t6 -77.5h-244q-24 90 -200 90q-60 0 -107 -15.5t-74 -39.5t-44 -56t-23 -60.5t-6 -57.5q0 -74 48.5 -124t153.5 -50z" />
    <glyph glyph-name="uni0123" unicode="&#x123;" horiz-adv-x="857" 
d="M548 843q-34 -48 -47 -85h111l-28 -145h-238l21 113q11 57 52 117h129zM432 415q-41 0 -71.5 -12.5t-46.5 -33.5t-23.5 -43.5t-7.5 -45.5q0 -45 29.5 -76.5t93.5 -31.5h9q43 0 74 14t46.5 36.5t22.5 44t7 43.5q0 42 -30.5 73.5t-93.5 31.5h-9zM265 -17q9 -38 102 -38h8
q120 0 142 109l7 38q-83 -73 -200 -73h-15q-127 0 -193 71.5t-66 176.5q0 41 9.5 81t33 80.5t59 71t93 49.5t128.5 19h11q63 0 114.5 -15t67 -25t37.5 -27l10 56h222l-96 -495q-13 -63 -34.5 -108t-61.5 -83t-105.5 -57t-157.5 -19h-30q-88 0 -152 13t-98 32t-53 46.5
t-23 49.5t-2 47h243z" />
    <glyph glyph-name="Hcircumflex" unicode="&#x124;" horiz-adv-x="1026" 
d="M178 744h233l-52 -270h386l53 270h233l-144 -744h-234l57 291h-387l-57 -291h-233zM870 799h-203l-48 65l-72 -65h-214l167 155h259z" />
    <glyph glyph-name="hcircumflex" unicode="&#x125;" horiz-adv-x="839" 
d="M718 820h-204l-45 66l-68 -66h-215l162 155h261zM542 275q12 57 -14 91t-88 34q-59 0 -94.5 -34t-47.5 -90l-54 -276h-222l147 757h222l-55 -285q88 99 224 99h9q114 0 169.5 -76t32.5 -189l-60 -306h-222z" />
    <glyph glyph-name="Hbar" unicode="&#x126;" horiz-adv-x="1035" 
d="M379 556l-16 -81h387l16 81h-387zM146 556h-84l20 107h85l16 81h233l-16 -81h387l16 81h233l-16 -81h84l-21 -107h-83l-109 -556h-233l56 291h-386l-57 -291h-233z" />
    <glyph glyph-name="hbar" unicode="&#x127;" horiz-adv-x="839" 
d="M644 704l-16 -87h-574l16 87h574zM542 275q12 57 -14 91t-88 34q-59 0 -94.5 -34t-47.5 -90l-54 -276h-222l147 757h222l-55 -285q88 99 224 99h9q114 0 169.5 -76t32.5 -189l-60 -306h-222z" />
    <glyph glyph-name="Itilde" unicode="&#x128;" horiz-adv-x="405" 
d="M266 0h-233l145 744h233zM548 990l-17 -85q-17 -101 -104 -101h-2q-45 0 -120 34q-45 21 -60 21q-14 0 -19 -25l-8 -37h-122l16 84q7 43 32 72.5t73 29.5h2q37 0 120 -34q45 -21 59 -21q15 0 20 24l7 38h123z" />
    <glyph glyph-name="itilde" unicode="&#x129;" horiz-adv-x="375" 
d="M480 805l-17 -84q-18 -104 -96 -104h-1q-38 0 -110 35q-39 21 -52 21q-11 0 -17 -21l-8 -41h-119l16 84q18 104 96 104h2q40 0 109 -35q39 -21 53 -21q11 0 17 21l8 41h119zM244 0h-222l109 557h222z" />
    <glyph glyph-name="Imacron" unicode="&#x12a;" horiz-adv-x="405" 
d="M266 0h-233l145 744h233zM136 940h394l-25 -126h-393z" />
    <glyph glyph-name="imacron" unicode="&#x12b;" horiz-adv-x="375" 
d="M98 751h355l-25 -126h-354zM244 0h-222l109 557h222z" />
    <glyph glyph-name="Ibreve" unicode="&#x12c;" horiz-adv-x="405" 
d="M266 0h-233l145 744h233zM308 797q-51 0 -89 12.5t-58.5 30.5t-32 43t-14.5 45.5t-1 41.5h155q0 -55 52 -55h1q22 0 37 11t20 22t7 22h155q-2 -26 -13.5 -53t-34 -55.5t-64 -46.5t-95.5 -18h-25z" />
    <glyph glyph-name="ibreve" unicode="&#x12d;" horiz-adv-x="375" 
d="M265 610q-61 0 -102 18t-58 47t-22.5 55t-3.5 53h152q0 -55 45 -55h1q28 0 41.5 18.5t15.5 36.5h151q-2 -26 -13 -53t-32.5 -55.5t-61 -46.5t-90.5 -18h-23zM244 0h-222l109 557h222z" />
    <glyph glyph-name="Iogonek" unicode="&#x12e;" horiz-adv-x="405" 
d="M266 0h-233l145 744h233zM-33 -123q0 42 45 69.5t160 53.5h95q-47 -26 -65.5 -40t-18.5 -28q0 -20 35 -20h39l-20 -102h-150q-120 0 -120 67z" />
    <glyph glyph-name="iogonek" unicode="&#x12f;" horiz-adv-x="375" 
d="M364 613h-224l28 146h224zM244 0h-222l109 557h222zM-55 -123q0 42 45 69.5t160 53.5h95q-47 -26 -65.5 -40t-18.5 -28q0 -20 35 -20h39l-20 -102h-150q-120 0 -120 67z" />
    <glyph glyph-name="Idotaccent" unicode="&#x130;" horiz-adv-x="405" 
d="M266 0h-233l145 744h233zM418 801h-225l28 146h225z" />
    <glyph glyph-name="dotlessi" unicode="&#x131;" horiz-adv-x="375" 
d="M244 0h-222l109 557h222z" />
    <glyph glyph-name="IJ" unicode="&#x132;" horiz-adv-x="1286" 
d="M266 0h-233l145 744h233zM690 327q0 -16 -0.5 -35t7.5 -39t20 -36t37 -26.5t59 -10.5q80 0 118.5 45t54.5 126l76 393h233l-77 -399q-7 -37 -14 -64t-22 -67t-32.5 -68.5t-47.5 -60.5t-66.5 -51.5t-89.5 -32.5t-116 -13h-35q-76 0 -136 16t-96.5 42.5t-63 61t-35.5 72.5
t-14 76t2 71h238z" />
    <glyph glyph-name="ij" unicode="&#x133;" horiz-adv-x="750" 
d="M364 613h-224l28 146h224zM244 0h-222l109 557h222zM738 613h-224l28 146h224zM357 -36q20 0 27.5 9.5t13.5 34.5l107 549h222l-117 -597q-15 -75 -45 -112.5t-88 -37.5h-209l30 154h59z" />
    <glyph glyph-name="Jcircumflex" unicode="&#x134;" horiz-adv-x="881" 
d="M1038 799h-203l-48 65l-72 -65h-214l167 155h259zM285 327q0 -16 -0.5 -35t7.5 -39t20 -36t37 -26.5t59 -10.5q80 0 118.5 45t54.5 126l76 393h233l-77 -399q-7 -37 -14 -64t-22 -67t-32.5 -68.5t-47.5 -60.5t-66.5 -51.5t-89.5 -32.5t-116 -13h-35q-76 0 -136 16
t-96.5 42.5t-63 61t-35.5 72.5t-14 76t2 71h238z" />
    <glyph glyph-name="jcircumflex" unicode="&#x135;" horiz-adv-x="375" 
d="M488 614h-190l-36 68l-58 -68h-200l142 155h256zM-17 -36q20 0 27.5 9.5t13.5 34.5l107 549h222l-117 -597q-15 -75 -45 -112.5t-88 -37.5h-209l30 154h59z" />
    <glyph glyph-name="uni0136" unicode="&#x136;" horiz-adv-x="934" 
d="M346 -286q34 49 47 84h-111l28 145h238l-21 -112q-11 -57 -52 -117h-129zM33 0l145 744h233l-58 -296l366 296h295l-442 -353l318 -391h-280l-277 343l-67 -343h-233z" />
    <glyph glyph-name="uni0137" unicode="&#x137;" horiz-adv-x="744" 
d="M258 -286q34 49 47 84h-111l28 145h238l-21 -112q-11 -57 -52 -117h-129zM22 0l147 757h222l-80 -415l210 215h256l-268 -263l185 -294h-244l-157 252l-49 -252h-222z" />
    <glyph glyph-name="Lacute" unicode="&#x139;" horiz-adv-x="807" 
d="M189 801l111 153h248l-132 -153h-227zM411 744l-107 -553h440l-38 -191h-673l145 744h233z" />
    <glyph glyph-name="lacute" unicode="&#x13a;" horiz-adv-x="375" 
d="M178 814l111 153h248l-132 -153h-227zM244 0h-222l147 757h222z" />
    <glyph glyph-name="uni013B" unicode="&#x13b;" horiz-adv-x="807" 
d="M294 -286q34 49 47 84h-111l28 145h238l-21 -112q-11 -57 -52 -117h-129zM411 744l-107 -553h440l-38 -191h-673l145 744h233z" />
    <glyph glyph-name="uni013C" unicode="&#x13c;" horiz-adv-x="375" 
d="M44 -286q34 49 47 84h-111l28 145h238l-21 -112q-11 -57 -52 -117h-129zM244 0h-222l147 757h222z" />
    <glyph glyph-name="Lcaron" unicode="&#x13d;" horiz-adv-x="807" 
d="M476 752h182l-59 -162h-170zM411 744l-107 -553h440l-38 -191h-673l145 744h233z" />
    <glyph glyph-name="lcaron" unicode="&#x13e;" horiz-adv-x="375" 
d="M456 765h182l-59 -162h-170zM244 0h-222l147 757h222z" />
    <glyph glyph-name="Ldot" unicode="&#x13f;" horiz-adv-x="809" 
d="M411 744l-107 -553h440l-38 -191h-673l145 744h233zM749 315h-250l40 208h251z" />
    <glyph glyph-name="ldot" unicode="&#x140;" horiz-adv-x="646" 
d="M244 0h-222l147 757h222zM636 268h-250l40 208h251z" />
    <glyph glyph-name="Lslash" unicode="&#x141;" horiz-adv-x="830" 
d="M433 744l-57 -296l278 101l-27 -140l-278 -97l-23 -121h440l-38 -191h-673l43 224l-103 -36l26 132l103 37l76 387h233z" />
    <glyph glyph-name="lslash" unicode="&#x142;" horiz-adv-x="422" 
d="M269 0h-222l56 290l-92 -37l25 128l92 38l66 338h222l-47 -239l94 38l-25 -130l-94 -38z" />
    <glyph glyph-name="Nacute" unicode="&#x143;" horiz-adv-x="1047" 
d="M496 801l111 153h248l-132 -153h-227zM352 470l-91 -470h-228l145 744h239l318 -462l90 462h227l-145 -744h-225z" />
    <glyph glyph-name="nacute" unicode="&#x144;" horiz-adv-x="839" 
d="M464 769h246l-137 -154h-219zM131 557h220l-17 -88q12 14 29 29t45.5 33t68 29t83.5 11h9q114 0 169.5 -76t32.5 -189l-60 -306h-222l53 275q12 57 -14 91t-88 34q-59 0 -94.5 -33.5t-47.5 -90.5l-54 -276h-222z" />
    <glyph glyph-name="uni0145" unicode="&#x145;" horiz-adv-x="1047" 
d="M380 -286q34 49 47 84h-111l28 145h238l-21 -112q-11 -57 -52 -117h-129zM352 470l-91 -470h-228l145 744h239l318 -462l90 462h227l-145 -744h-225z" />
    <glyph glyph-name="uni0146" unicode="&#x146;" horiz-adv-x="839" 
d="M276 -286q34 49 47 84h-111l28 145h238l-21 -112q-11 -57 -52 -117h-129zM131 557h220l-17 -88q12 14 29 29t45.5 33t68 29t83.5 11h9q114 0 169.5 -76t32.5 -189l-60 -306h-222l53 275q12 57 -14 91t-88 34q-59 0 -94.5 -33.5t-47.5 -90.5l-54 -276h-222z" />
    <glyph glyph-name="Ncaron" unicode="&#x147;" horiz-adv-x="1047" 
d="M371 954h203l47 -64l73 64h215l-168 -153h-259zM352 470l-91 -470h-228l145 744h239l318 -462l90 462h227l-145 -744h-225z" />
    <glyph glyph-name="ncaron" unicode="&#x148;" horiz-adv-x="839" 
d="M219 769h204l44 -65l69 65h215l-162 -154h-261zM131 557h220l-17 -88q12 14 29 29t45.5 33t68 29t83.5 11h9q114 0 169.5 -76t32.5 -189l-60 -306h-222l53 275q12 57 -14 91t-88 34q-59 0 -94.5 -33.5t-47.5 -90.5l-54 -276h-222z" />
    <glyph glyph-name="napostrophe" unicode="&#x149;" horiz-adv-x="1130" 
d="M123 422q51 75 77 144h-114l35 178h248l-27 -141q-9 -48 -32 -99t-45 -82h-142zM421 557h220l-17 -88q12 14 29 29t45.5 33t68 29t83.5 11h9q114 0 169.5 -76t32.5 -189l-60 -306h-222l53 275q12 57 -14 91t-88 34q-59 0 -94.5 -33.5t-47.5 -90.5l-54 -276h-222z" />
    <glyph glyph-name="Eng" unicode="&#x14a;" horiz-adv-x="1047" 
d="M527 -32h111q39 0 39 27q0 11 -9 25l-316 451l-91 -471h-228l145 744h239l319 -460l89 460h227l-147 -757q-18 -91 -55.5 -135t-112.5 -44h-242z" />
    <glyph glyph-name="eng" unicode="&#x14b;" horiz-adv-x="839" 
d="M450 -36q19 0 27 10t12 32l53 270q12 58 -14 91.5t-88 33.5q-59 0 -94.5 -33.5t-47.5 -90.5l-54 -276h-222l109 557h220l-17 -88q26 35 85.5 68.5t140.5 33.5h9q115 0 169 -75t33 -189l-68 -351q-16 -74 -45.5 -111t-88.5 -37h-210l30 155h61z" />
    <glyph glyph-name="Omacron" unicode="&#x14c;" horiz-adv-x="1058" 
d="M424 940h394l-25 -126h-393zM594 756q100 0 177.5 -20.5t124.5 -53.5t77 -79.5t41 -92.5t11 -98q0 -60 -14 -117t-48.5 -113.5t-87.5 -98.5t-137.5 -68.5t-190.5 -26.5h-44q-100 0 -178 21.5t-125 55.5t-77 81.5t-41 94t-11 99.5q0 58 13.5 113t48.5 111t87.5 97.5
t137.5 68t192 26.5h44zM783 409q0 31 -9.5 58t-31.5 51.5t-66 39t-105 14.5q-75 0 -128.5 -22t-80 -58t-37.5 -72.5t-11 -75.5q0 -32 9.5 -59.5t31.5 -54t65.5 -41.5t104.5 -15q68 0 118.5 19t76 45t41 61.5t19 60t3.5 49.5z" />
    <glyph glyph-name="omacron" unicode="&#x14d;" horiz-adv-x="839" 
d="M300 751h386l-24 -126h-387zM383 -15q-339 0 -339 268q0 37 7.5 74t32 83t64 80.5t110.5 58t164 23.5h33q72 0 128 -11.5t92 -32.5t60.5 -46t37 -57t17 -60t4.5 -60q0 -40 -6.5 -76.5t-30 -83t-62.5 -80t-111.5 -57t-168.5 -23.5h-32zM275 258q0 -49 28 -82.5t96 -33.5h9
q44 0 76.5 17t48.5 43t23.5 51t7.5 49q0 48 -29 82t-95 34h-8q-44 0 -76.5 -16t-49 -42t-24 -51.5t-7.5 -50.5z" />
    <glyph glyph-name="Obreve" unicode="&#x14e;" horiz-adv-x="1058" 
d="M590 797q-51 0 -89 12.5t-58.5 30.5t-32 43t-14.5 45.5t-1 41.5h155q0 -55 52 -55h1q22 0 37 11t20 22t7 22h155q-2 -26 -13.5 -53t-34 -55.5t-64 -46.5t-95.5 -18h-25zM594 756q100 0 177.5 -20.5t124.5 -53.5t77 -79.5t41 -92.5t11 -98q0 -60 -14 -117t-48.5 -113.5
t-87.5 -98.5t-137.5 -68.5t-190.5 -26.5h-44q-100 0 -178 21.5t-125 55.5t-77 81.5t-41 94t-11 99.5q0 58 13.5 113t48.5 111t87.5 97.5t137.5 68t192 26.5h44zM783 409q0 31 -9.5 58t-31.5 51.5t-66 39t-105 14.5q-75 0 -128.5 -22t-80 -58t-37.5 -72.5t-11 -75.5
q0 -32 9.5 -59.5t31.5 -54t65.5 -41.5t104.5 -15q68 0 118.5 19t76 45t41 61.5t19 60t3.5 49.5z" />
    <glyph glyph-name="obreve" unicode="&#x14f;" horiz-adv-x="839" 
d="M383 -15q-339 0 -339 268q0 37 7.5 74t32 83t64 80.5t110.5 58t164 23.5h33q72 0 128 -11.5t92 -32.5t60.5 -46t37 -57t17 -60t4.5 -60q0 -40 -6.5 -76.5t-30 -83t-62.5 -80t-111.5 -57t-168.5 -23.5h-32zM275 258q0 -49 28 -82.5t96 -33.5h9q44 0 76.5 17t48.5 43
t23.5 51t7.5 49q0 48 -29 82t-95 34h-8q-44 0 -76.5 -16t-49 -42t-24 -51.5t-7.5 -50.5zM465 610q-63 0 -106 18t-60.5 47t-23.5 55.5t-4 53.5h156v-12.5t2.5 -13.5t7.5 -15.5t15 -10t25 -4.5h1q21 0 35 11.5t18.5 22t6.5 22.5h156q-2 -26 -13.5 -53.5t-33.5 -56t-63 -46.5
t-95 -18h-24z" />
    <glyph glyph-name="Ohungarumlaut" unicode="&#x150;" horiz-adv-x="1058" 
d="M431 954h201l-87 -153h-198zM694 954h203l-95 -153h-198zM594 756q100 0 177.5 -20.5t124.5 -53.5t77 -79.5t41 -92.5t11 -98q0 -60 -14 -117t-48.5 -113.5t-87.5 -98.5t-137.5 -68.5t-190.5 -26.5h-44q-100 0 -178 21.5t-125 55.5t-77 81.5t-41 94t-11 99.5
q0 58 13.5 113t48.5 111t87.5 97.5t137.5 68t192 26.5h44zM783 409q0 31 -9.5 58t-31.5 51.5t-66 39t-105 14.5q-75 0 -128.5 -22t-80 -58t-37.5 -72.5t-11 -75.5q0 -32 9.5 -59.5t31.5 -54t65.5 -41.5t104.5 -15q68 0 118.5 19t76 45t41 61.5t19 60t3.5 49.5z" />
    <glyph glyph-name="ohungarumlaut" unicode="&#x151;" horiz-adv-x="839" 
d="M578 769h202l-97 -154h-197zM318 769h201l-91 -154h-197zM383 -15q-339 0 -339 268q0 37 7.5 74t32 83t64 80.5t110.5 58t164 23.5h33q72 0 128 -11.5t92 -32.5t60.5 -46t37 -57t17 -60t4.5 -60q0 -40 -6.5 -76.5t-30 -83t-62.5 -80t-111.5 -57t-168.5 -23.5h-32z
M275 258q0 -49 28 -82.5t96 -33.5h9q44 0 76.5 17t48.5 43t23.5 51t7.5 49q0 48 -29 82t-95 34h-8q-44 0 -76.5 -16t-49 -42t-24 -51.5t-7.5 -50.5z" />
    <glyph glyph-name="OE" unicode="&#x152;" horiz-adv-x="1372" 
d="M1356 575h-419l-21 -111h404l-34 -174h-405l-23 -119h427l-34 -171h-728q-105 0 -185 19t-130 50t-82 75.5t-44 91t-12 100.5q0 61 14 116t50 109.5t91 94t144 64t202 24.5h819zM595 575q-70 0 -123 -17t-82.5 -42t-48 -59t-24 -62t-5.5 -56q0 -168 231 -168h81l79 404
h-108z" />
    <glyph glyph-name="oe" unicode="&#x153;" horiz-adv-x="1332" 
d="M941 436q-112 0 -146 -93h271q0 93 -125 93zM275 258q0 -48 28 -82t92 -34h9q43 0 75 17t48 43t23 51t7 49q0 48 -28 82t-92 34h-9q-44 0 -75.5 -16t-47.5 -42t-23 -51.5t-7 -50.5zM373 -15q-329 0 -329 268q0 37 7.5 74t31.5 83t63 80.5t108.5 58t160.5 23.5h33
q163 0 237 -81q79 79 235 79h43q86 0 149.5 -17.5t99 -47t56.5 -69.5t21.5 -85.5t-5.5 -94.5l-3 -21h-500q5 -106 134 -106q90 0 120 47q1 1 1 2h233q-3 -21 -11 -42t-31 -49.5t-57.5 -49.5t-96 -36t-139.5 -15h-40q-170 0 -245 75q-90 -76 -243 -76h-33z" />
    <glyph glyph-name="Racute" unicode="&#x154;" horiz-adv-x="1001" 
d="M448 801l111 153h248l-132 -153h-227zM349 424h281q58 0 81 23.5t23 56.5q0 65 -87 65h-270zM790 358q68 -18 105 -68t19 -141l-14 -73q-9 -47 1 -71l-1 -5h-241q-7 17 0 49l12 62q14 72 -13 102.5t-105 30.5h-239l-48 -244h-233l145 744h525q83 0 141.5 -17t88.5 -46
t42.5 -60.5t12.5 -69.5q0 -86 -60 -134.5t-138 -58.5z" />
    <glyph glyph-name="racute" unicode="&#x155;" horiz-adv-x="718" 
d="M395 769h246l-137 -154h-219zM456 296q19 104 -59 104q-40 0 -62.5 -27.5t-32.5 -81.5l-58 -291h-222l109 557h220l-18 -91q9 13 21.5 27t36 33t58 31t73.5 12h8q82 0 123 -49.5t41 -129.5q0 -43 -18 -113h-224z" />
    <glyph glyph-name="uni0156" unicode="&#x156;" horiz-adv-x="1001" 
d="M365 -286q34 49 47 84h-111l28 145h238l-21 -112q-11 -57 -52 -117h-129zM349 424h281q58 0 81 23.5t23 56.5q0 65 -87 65h-270zM790 358q68 -18 105 -68t19 -141l-14 -73q-9 -47 1 -71l-1 -5h-241q-7 17 0 49l12 62q14 72 -13 102.5t-105 30.5h-239l-48 -244h-233
l145 744h525q83 0 141.5 -17t88.5 -46t42.5 -60.5t12.5 -69.5q0 -86 -60 -134.5t-138 -58.5z" />
    <glyph glyph-name="uni0157" unicode="&#x157;" horiz-adv-x="718" 
d="M44 -286q34 49 47 84h-111l28 145h238l-21 -112q-11 -57 -52 -117h-129zM456 296q19 104 -59 104q-40 0 -62.5 -27.5t-32.5 -81.5l-58 -291h-222l109 557h220l-18 -91q9 13 21.5 27t36 33t58 31t73.5 12h8q82 0 123 -49.5t41 -129.5q0 -43 -18 -113h-224z" />
    <glyph glyph-name="Rcaron" unicode="&#x158;" horiz-adv-x="1001" 
d="M319 954h203l47 -64l73 64h215l-168 -153h-259zM349 424h281q58 0 81 23.5t23 56.5q0 65 -87 65h-270zM790 358q68 -18 105 -68t19 -141l-14 -73q-9 -47 1 -71l-1 -5h-241q-7 17 0 49l12 62q14 72 -13 102.5t-105 30.5h-239l-48 -244h-233l145 744h525q83 0 141.5 -17
t88.5 -46t42.5 -60.5t12.5 -69.5q0 -86 -60 -134.5t-138 -58.5z" />
    <glyph glyph-name="rcaron" unicode="&#x159;" horiz-adv-x="718" 
d="M153 769h204l44 -65l69 65h215l-162 -154h-261zM456 296q19 104 -59 104q-40 0 -62.5 -27.5t-32.5 -81.5l-58 -291h-222l109 557h220l-18 -91q9 13 21.5 27t36 33t58 31t73.5 12h8q82 0 123 -49.5t41 -129.5q0 -43 -18 -113h-224z" />
    <glyph glyph-name="Sacute" unicode="&#x15a;" horiz-adv-x="936" 
d="M300 247q0 -17 3.5 -30t16.5 -31t45.5 -28t83.5 -10h7q170 0 170 82q0 31 -26.5 48.5t-97.5 19.5l-93 3q-167 6 -232.5 63t-65.5 154q0 236 394 236h37q73 0 131 -6.5t98 -19t69.5 -29.5t45 -37t25 -43.5t9 -48t-2.5 -50.5h-248q0 15 -4.5 26t-18 24t-45 20t-78.5 7h-9
q-66 0 -102 -10t-45.5 -23.5t-9.5 -34.5q0 -26 25.5 -41t93.5 -17l93 -3q92 -3 154 -19.5t95 -47t46 -67.5t13 -89q0 -258 -419 -258h-27q-414 0 -384 260h253zM435 801l111 153h248l-132 -153h-227z" />
    <glyph glyph-name="sacute" unicode="&#x15b;" horiz-adv-x="755" 
d="M417 769h246l-137 -154h-219zM262 175q0 -54 90 -54h2q102 0 102 49q0 21 -18.5 32.5t-71.5 15.5l-66 3q-228 11 -228 163q0 185 315 185h24q82 0 141.5 -10.5t92.5 -26t51 -40t22 -47.5t1 -52h-231q0 10 -6 20t-27.5 19.5t-56.5 9.5h-2q-98 0 -98 -45q0 -20 19 -30.5
t68 -12.5l66 -3q131 -6 185.5 -46t54.5 -121q0 -197 -326 -197h-25q-88 0 -150.5 13t-95 31.5t-50 46.5t-20.5 49t-1 48h239z" />
    <glyph glyph-name="Scircumflex" unicode="&#x15c;" horiz-adv-x="936" 
d="M809 799h-203l-48 65l-72 -65h-214l167 155h259zM300 247q0 -17 3.5 -30t16.5 -31t45.5 -28t83.5 -10h7q170 0 170 82q0 31 -26.5 48.5t-97.5 19.5l-93 3q-167 6 -232.5 63t-65.5 154q0 236 394 236h37q73 0 131 -6.5t98 -19t69.5 -29.5t45 -37t25 -43.5t9 -48
t-2.5 -50.5h-248q0 15 -4.5 26t-18 24t-45 20t-78.5 7h-9q-66 0 -102 -10t-45.5 -23.5t-9.5 -34.5q0 -26 25.5 -41t93.5 -17l93 -3q92 -3 154 -19.5t95 -47t46 -67.5t13 -89q0 -258 -419 -258h-27q-414 0 -384 260h253z" />
    <glyph glyph-name="scircumflex" unicode="&#x15d;" horiz-adv-x="755" 
d="M687 614h-204l-45 66l-68 -66h-215l162 155h261zM262 175q0 -54 90 -54h2q102 0 102 49q0 21 -18.5 32.5t-71.5 15.5l-66 3q-228 11 -228 163q0 185 315 185h24q82 0 141.5 -10.5t92.5 -26t51 -40t22 -47.5t1 -52h-231q0 10 -6 20t-27.5 19.5t-56.5 9.5h-2q-98 0 -98 -45
q0 -20 19 -30.5t68 -12.5l66 -3q131 -6 185.5 -46t54.5 -121q0 -197 -326 -197h-25q-88 0 -150.5 13t-95 31.5t-50 46.5t-20.5 49t-1 48h239z" />
    <glyph glyph-name="uni015E" unicode="&#x15e;" horiz-adv-x="936" 
d="M221 -280l19 100h122q38 0 38 27q0 20 -34 20h-85l25 127q-71 9 -123 29.5t-78.5 46.5t-42.5 57t-16 61t1 59h253q0 -17 3.5 -30t16.5 -31t45.5 -28t83.5 -10h7q170 0 170 82q0 31 -26.5 48.5t-97.5 19.5l-93 3q-167 6 -232.5 63t-65.5 154q0 236 394 236h37
q73 0 131 -6.5t98 -19t69.5 -29.5t45 -37t25 -43.5t9 -48t-2.5 -50.5h-248q0 15 -4.5 26t-18 24t-45 20t-78.5 7h-9q-66 0 -102 -10t-45.5 -23.5t-9.5 -34.5q0 -26 25.5 -41t93.5 -17l93 -3q92 -3 154 -19.5t95 -47t46 -67.5t13 -89q0 -258 -419 -258h-32l-7 -39
q83 0 116.5 -25.5t33.5 -72.5q0 -130 -188 -130h-160z" />
    <glyph glyph-name="uni015F" unicode="&#x15f;" horiz-adv-x="755" 
d="M130 -280l19 100h121q38 0 38 27q0 20 -34 20h-85l25 128q-53 8 -91 24t-57.5 33.5t-30 41.5t-12 41.5t-0.5 39.5h239q0 -54 90 -54h2q102 0 102 49q0 21 -18.5 32.5t-71.5 15.5l-66 3q-228 11 -228 163q0 185 315 185h24q82 0 141.5 -10.5t92.5 -26t51 -40t22 -47.5
t1 -52h-231q0 10 -6 20t-27.5 19.5t-56.5 9.5h-2q-98 0 -98 -45q0 -20 19 -30.5t68 -12.5l66 -3q131 -6 185.5 -46t54.5 -121q0 -197 -326 -197h-30l-7 -39q83 0 116.5 -25.5t33.5 -72.5q0 -130 -188 -130h-160z" />
    <glyph glyph-name="Scaron" unicode="&#x160;" horiz-adv-x="936" 
d="M294 954h203l47 -64l73 64h215l-168 -153h-259zM300 247q0 -17 3.5 -30t16.5 -31t45.5 -28t83.5 -10h7q170 0 170 82q0 31 -26.5 48.5t-97.5 19.5l-93 3q-167 6 -232.5 63t-65.5 154q0 236 394 236h37q73 0 131 -6.5t98 -19t69.5 -29.5t45 -37t25 -43.5t9 -48t-2.5 -50.5
h-248q0 15 -4.5 26t-18 24t-45 20t-78.5 7h-9q-66 0 -102 -10t-45.5 -23.5t-9.5 -34.5q0 -26 25.5 -41t93.5 -17l93 -3q92 -3 154 -19.5t95 -47t46 -67.5t13 -89q0 -258 -419 -258h-27q-414 0 -384 260h253z" />
    <glyph glyph-name="scaron" unicode="&#x161;" horiz-adv-x="755" 
d="M178 769h204l44 -65l69 65h215l-162 -154h-261zM262 175q0 -54 90 -54h2q102 0 102 49q0 21 -18.5 32.5t-71.5 15.5l-66 3q-228 11 -228 163q0 185 315 185h24q82 0 141.5 -10.5t92.5 -26t51 -40t22 -47.5t1 -52h-231q0 10 -6 20t-27.5 19.5t-56.5 9.5h-2q-98 0 -98 -45
q0 -20 19 -30.5t68 -12.5l66 -3q131 -6 185.5 -46t54.5 -121q0 -197 -326 -197h-25q-88 0 -150.5 13t-95 31.5t-50 46.5t-20.5 49t-1 48h239z" />
    <glyph glyph-name="Tcommaaccent" unicode="&#x162;" horiz-adv-x="896" 
d="M305 -286q34 49 47 84h-111l28 145h238l-21 -112q-11 -57 -52 -117h-129zM387 558h-287l36 186h806l-36 -186h-286l-109 -558h-232z" />
    <glyph glyph-name="tcommaaccent" unicode="&#x163;" horiz-adv-x="537" 
d="M194 -286q34 49 47 84h-111l28 145h238l-21 -112q-11 -57 -52 -117h-129zM433 0h-177q-72 0 -110 40t-22 114l49 249h-113l29 154h114l33 168h220l-34 -168h119l-30 -154h-118l-35 -179q-7 -33 4 -46.5t44 -13.5h59z" />
    <glyph glyph-name="Tcaron" unicode="&#x164;" horiz-adv-x="896" 
d="M296 954h203l47 -64l73 64h215l-168 -153h-259zM387 558h-287l36 186h806l-36 -186h-286l-109 -558h-232z" />
    <glyph glyph-name="tcaron" unicode="&#x165;" horiz-adv-x="537" 
d="M527 765h182l-59 -162h-170zM433 0h-177q-72 0 -110 40t-22 114l49 249h-113l29 154h114l33 168h220l-34 -168h119l-30 -154h-118l-35 -179q-7 -33 4 -46.5t44 -13.5h59z" />
    <glyph glyph-name="Tbar" unicode="&#x166;" horiz-adv-x="896" 
d="M124 281l25 129h650l-25 -129h-650zM387 558h-287l36 186h806l-36 -186h-286l-109 -558h-232z" />
    <glyph glyph-name="tbar" unicode="&#x167;" horiz-adv-x="546" 
d="M245 0q-68 0 -100 38t-18 111l20 98h-115l20 95h113l13 66h-113l29 149h113l33 169h220l-33 -169h118l-29 -149h-118l-13 -66h118l-18 -95h-118l-5 -28q-7 -33 2 -46.5t42 -13.5h62l-31 -159h-192z" />
    <glyph glyph-name="Utilde" unicode="&#x168;" horiz-adv-x="1032" 
d="M498 -11q-80 0 -144.5 14t-107.5 37.5t-74 56.5t-47.5 67.5t-23.5 73.5t-6 73t7 67l72 366h232l-70 -363q-3 -26 -4.5 -53.5t9.5 -53t29.5 -46t55.5 -32.5t88 -12h5q49 0 86.5 13t59.5 31.5t38.5 47.5t23 51.5t12.5 53.5l71 363h232l-71 -366q-8 -40 -14.5 -68.5
t-22.5 -72.5t-36 -74.5t-54 -66t-76.5 -57t-104 -36t-136.5 -14.5h-29zM851 990l-17 -85q-17 -101 -104 -101h-2q-45 0 -120 34q-45 21 -60 21q-14 0 -19 -25l-8 -37h-122l16 84q7 43 32 72.5t73 29.5h2q37 0 120 -34q45 -21 59 -21q15 0 20 24l7 38h123z" />
    <glyph glyph-name="utilde" unicode="&#x169;" horiz-adv-x="834" 
d="M704 0h-221l18 88q-18 -21 -41.5 -40.5t-74 -40.5t-106.5 -21h-9q-113 0 -168.5 76t-32.5 189l59 306h223l-54 -276q-12 -56 14 -90t87 -34q57 0 93 35t46 89l53 276h222zM710 805l-16 -84q-17 -104 -100 -104h-2q-44 0 -115 35q-41 21 -54 21t-18 -22l-8 -40h-123l17 84
q17 104 100 104h2q44 0 115 -35q39 -21 54 -21q12 0 18 22l8 40h122z" />
    <glyph glyph-name="Umacron" unicode="&#x16a;" horiz-adv-x="1032" 
d="M498 -11q-80 0 -144.5 14t-107.5 37.5t-74 56.5t-47.5 67.5t-23.5 73.5t-6 73t7 67l72 366h232l-70 -363q-3 -26 -4.5 -53.5t9.5 -53t29.5 -46t55.5 -32.5t88 -12h5q49 0 86.5 13t59.5 31.5t38.5 47.5t23 51.5t12.5 53.5l71 363h232l-71 -366q-8 -40 -14.5 -68.5
t-22.5 -72.5t-36 -74.5t-54 -66t-76.5 -57t-104 -36t-136.5 -14.5h-29zM441 940h394l-25 -126h-393z" />
    <glyph glyph-name="umacron" unicode="&#x16b;" horiz-adv-x="834" 
d="M704 0h-221l18 88q-18 -21 -41.5 -40.5t-74 -40.5t-106.5 -21h-9q-113 0 -168.5 76t-32.5 189l59 306h223l-54 -276q-12 -56 14 -90t87 -34q57 0 93 35t46 89l53 276h222zM307 751h386l-24 -126h-387z" />
    <glyph glyph-name="Ubreve" unicode="&#x16c;" horiz-adv-x="1032" 
d="M498 -11q-80 0 -144.5 14t-107.5 37.5t-74 56.5t-47.5 67.5t-23.5 73.5t-6 73t7 67l72 366h232l-70 -363q-3 -26 -4.5 -53.5t9.5 -53t29.5 -46t55.5 -32.5t88 -12h5q49 0 86.5 13t59.5 31.5t38.5 47.5t23 51.5t12.5 53.5l71 363h232l-71 -366q-8 -40 -14.5 -68.5
t-22.5 -72.5t-36 -74.5t-54 -66t-76.5 -57t-104 -36t-136.5 -14.5h-29zM604 797q-51 0 -89 12.5t-58.5 30.5t-32 43t-14.5 45.5t-1 41.5h155q0 -55 52 -55h1q22 0 37 11t20 22t7 22h155q-2 -26 -13.5 -53t-34 -55.5t-64 -46.5t-95.5 -18h-25z" />
    <glyph glyph-name="ubreve" unicode="&#x16d;" horiz-adv-x="834" 
d="M704 0h-221l18 88q-18 -21 -41.5 -40.5t-74 -40.5t-106.5 -21h-9q-113 0 -168.5 76t-32.5 189l59 306h223l-54 -276q-12 -56 14 -90t87 -34q57 0 93 35t46 89l53 276h222zM474 610q-63 0 -106 18t-60.5 47t-23.5 55.5t-4 53.5h156v-12.5t2.5 -13.5t7.5 -15.5t15 -10
t25 -4.5h1q49 0 60 56h156q-2 -26 -13.5 -53.5t-33.5 -56t-63 -46.5t-95 -18h-24z" />
    <glyph glyph-name="Uring" unicode="&#x16e;" horiz-adv-x="1032" 
d="M498 -11q-80 0 -144.5 14t-107.5 37.5t-74 56.5t-47.5 67.5t-23.5 73.5t-6 73t7 67l72 366h232l-70 -363q-3 -26 -4.5 -53.5t9.5 -53t29.5 -46t55.5 -32.5t88 -12h5q49 0 86.5 13t59.5 31.5t38.5 47.5t23 51.5t12.5 53.5l71 363h232l-71 -366q-8 -40 -14.5 -68.5
t-22.5 -72.5t-36 -74.5t-54 -66t-76.5 -57t-104 -36t-136.5 -14.5h-29zM625 1037q89 0 128.5 -33t39.5 -86q0 -25 -7.5 -47.5t-26 -46.5t-58 -38.5t-96.5 -14.5q-89 0 -128.5 33t-39.5 86q0 25 7.5 48t26.5 46.5t58.5 38t95.5 14.5zM609 850q36 0 54 18.5t18 44.5
q0 45 -60 45q-36 0 -54 -18.5t-18 -44.5q0 -45 60 -45z" />
    <glyph glyph-name="uring" unicode="&#x16f;" horiz-adv-x="834" 
d="M500 873q165 0 165 -120q0 -19 -4 -37t-16 -38.5t-31.5 -35.5t-54 -25t-79.5 -10q-88 0 -126.5 33t-38.5 86q0 25 7.5 48t26 47t57.5 38t94 14zM483 686q36 0 53.5 18.5t17.5 44.5q0 45 -58 45q-34 0 -52 -18.5t-18 -44.5q0 -45 57 -45zM704 0h-221l18 88
q-18 -21 -41.5 -40.5t-74 -40.5t-106.5 -21h-9q-113 0 -168.5 76t-32.5 189l59 306h223l-54 -276q-12 -56 14 -90t87 -34q57 0 93 35t46 89l53 276h222z" />
    <glyph glyph-name="Uhungarumlaut" unicode="&#x170;" horiz-adv-x="1032" 
d="M457 954h201l-87 -153h-198zM720 954h203l-95 -153h-198zM498 -11q-80 0 -144.5 14t-107.5 37.5t-74 56.5t-47.5 67.5t-23.5 73.5t-6 73t7 67l72 366h232l-70 -363q-3 -26 -4.5 -53.5t9.5 -53t29.5 -46t55.5 -32.5t88 -12h5q49 0 86.5 13t59.5 31.5t38.5 47.5t23 51.5
t12.5 53.5l71 363h232l-71 -366q-8 -40 -14.5 -68.5t-22.5 -72.5t-36 -74.5t-54 -66t-76.5 -57t-104 -36t-136.5 -14.5h-29z" />
    <glyph glyph-name="uhungarumlaut" unicode="&#x171;" horiz-adv-x="834" 
d="M704 0h-221l18 88q-18 -21 -41.5 -40.5t-74 -40.5t-106.5 -21h-9q-113 0 -168.5 76t-32.5 189l59 306h223l-54 -276q-12 -56 14 -90t87 -34q57 0 93 35t46 89l53 276h222zM591 769h202l-97 -154h-197zM331 769h201l-91 -154h-197z" />
    <glyph glyph-name="Uogonek" unicode="&#x172;" horiz-adv-x="1032" 
d="M499 -192q-120 0 -120 67q0 38 40 64.5t138 50.5q-9 -1 -30 -1h-29q-80 0 -144.5 14t-107.5 37.5t-74 56.5t-47.5 67.5t-23.5 73.5t-6 73t7 67l72 366h232l-70 -363q-3 -26 -4.5 -53.5t9.5 -53t29.5 -46t55.5 -32.5t88 -12h5q49 0 86.5 13t59.5 31.5t38.5 47.5t23 51.5
t12.5 53.5l71 363h232l-71 -366q-12 -67 -27.5 -114.5t-44 -98t-77 -89.5t-117.5 -68q-110 -46 -110 -77q0 -21 34 -21h39l-20 -102h-149z" />
    <glyph glyph-name="uogonek" unicode="&#x173;" horiz-adv-x="834" 
d="M403 -123q0 42 45 69.5t160 53.5h95q-47 -26 -65.5 -40t-18.5 -28q0 -20 35 -20h39l-20 -102h-150q-120 0 -120 67zM704 0h-221l18 88q-18 -21 -41.5 -40.5t-74 -40.5t-106.5 -21h-9q-113 0 -168.5 76t-32.5 189l59 306h223l-54 -276q-12 -56 14 -90t87 -34q57 0 93 35
t46 89l53 276h222z" />
    <glyph glyph-name="Wcircumflex" unicode="&#x174;" horiz-adv-x="1354" 
d="M1025 799h-203l-48 65l-72 -65h-214l167 155h259zM205 0l-110 744h241l55 -512l243 512h259l51 -513l247 513h238l-382 -744h-275l-57 492l-237 -492h-273z" />
    <glyph glyph-name="wcircumflex" unicode="&#x175;" horiz-adv-x="1159" 
d="M889 614h-204l-45 66l-68 -66h-215l162 155h261zM166 0l-104 557h227l47 -365l171 365h243l48 -365l170 365h223l-284 -557h-263l-52 337l-161 -337h-265z" />
    <glyph glyph-name="Ycircumflex" unicode="&#x176;" horiz-adv-x="945" 
d="M361 269l-279 475h266l156 -280l264 280h275l-449 -476l-52 -268h-233zM815 799h-203l-48 65l-72 -65h-214l167 155h259z" />
    <glyph glyph-name="ycircumflex" unicode="&#x177;" horiz-adv-x="762" 
d="M54 -40h125q27 0 27 24q0 14 -9 45l-135 528h233l67 -381l205 381h236l-362 -609q-42 -71 -85.5 -104.5t-110.5 -33.5h-220zM690 614h-204l-45 66l-68 -66h-215l162 155h261z" />
    <glyph glyph-name="Ydieresis" unicode="&#x178;" horiz-adv-x="945" 
d="M361 269l-279 475h266l156 -280l264 280h275l-449 -476l-52 -268h-233zM528 801h-216l28 146h216zM800 801h-216l28 146h216z" />
    <glyph glyph-name="Zacute" unicode="&#x179;" horiz-adv-x="914" 
d="M416 801l111 153h248l-132 -153h-227zM16 0l30 157l515 403h-433l36 184h769l-30 -156l-532 -402h459l-37 -186h-777z" />
    <glyph glyph-name="zacute" unicode="&#x17a;" horiz-adv-x="743" 
d="M413 769h246l-137 -154h-219zM4 0l28 147l374 252h-322l30 158h615l-28 -145l-384 -249h348l-32 -163h-629z" />
    <glyph glyph-name="Zdotaccent" unicode="&#x17b;" horiz-adv-x="914" 
d="M16 0l30 157l515 403h-433l36 184h769l-30 -156l-532 -402h459l-37 -186h-777zM660 801h-225l28 146h225z" />
    <glyph glyph-name="zdotaccent" unicode="&#x17c;" horiz-adv-x="743" 
d="M4 0l28 147l374 252h-322l30 158h615l-28 -145l-384 -249h348l-32 -163h-629zM536 613h-225l28 146h225z" />
    <glyph glyph-name="Zcaron" unicode="&#x17d;" horiz-adv-x="914" 
d="M298 954h203l47 -64l73 64h215l-168 -153h-259zM16 0l30 157l515 403h-433l36 184h769l-30 -156l-532 -402h459l-37 -186h-777z" />
    <glyph glyph-name="zcaron" unicode="&#x17e;" horiz-adv-x="743" 
d="M181 769h204l44 -65l69 65h215l-162 -154h-261zM4 0l28 147l374 252h-322l30 158h615l-28 -145l-384 -249h348l-32 -163h-629z" />
    <glyph glyph-name="uni0192" unicode="&#x192;" horiz-adv-x="567" 
d="M390 311l-122 -504h-215l121 504h-114l29 151h121l27 112q12 46 22.5 73t31.5 51.5t54.5 35t84.5 10.5h175l-30 -152h-78q-23 0 -33.5 -10t-16.5 -36l-20 -84h123l-29 -151h-131z" />
    <glyph glyph-name="Aringacute" unicode="&#x1fa;" horiz-adv-x="986" 
d="M556 571l-172 -279h242zM667 130h-383l-81 -130h-246l470 744h308l202 -744h-237zM508 1090l111 153h248l-132 -153h-227zM612 1058q89 0 128.5 -33t39.5 -86q0 -25 -7.5 -47.5t-26 -46.5t-58 -38.5t-96.5 -14.5q-89 0 -128.5 33t-39.5 86q0 25 7.5 48t26.5 46.5t58.5 38
t95.5 14.5zM596 871q36 0 54 18.5t18 44.5q0 45 -60 45q-36 0 -54 -18.5t-18 -44.5q0 -45 60 -45z" />
    <glyph glyph-name="aringacute" unicode="&#x1fb;" horiz-adv-x="792" 
d="M326 119q66 0 105.5 34t46.5 74l7 35q-40 -12 -117 -22q-68 -9 -95 -24.5t-27 -43.5q0 -24 20.5 -38.5t59.5 -14.5zM81 380q2 24 8 45t27 49.5t53.5 48t92 33.5t138.5 14h33q69 0 122 -8.5t84.5 -23.5t52.5 -34.5t27 -42.5t8 -47t-5 -47l-32 -165q-4 -22 1.5 -30.5
t27.5 -8.5h25l-32 -163h-169q-40 0 -60 21.5t-23 51.5q-74 -84 -208 -84h-16q-103 0 -158 46t-55 117q0 82 57 130.5t209 57.5l173 12q49 4 49 39q0 46 -98 46h-1q-98 0 -108 -57h-223zM478 1058h246l-137 -154h-219zM470 873q165 0 165 -120q0 -19 -4 -37t-16 -38.5
t-31.5 -35.5t-54 -25t-79.5 -10q-88 0 -126.5 33t-38.5 86q0 25 7.5 48t26 47t57.5 38t94 14zM453 686q36 0 53.5 18.5t17.5 44.5q0 45 -58 45q-34 0 -52 -18.5t-18 -44.5q0 -45 57 -45z" />
    <glyph glyph-name="AEacute" unicode="&#x1fc;" horiz-adv-x="1302" 
d="M795 801l111 153h248l-132 -153h-227zM640 597l-242 -310h182zM550 131h-273l-102 -131h-246l587 744h805l-34 -169h-419l-21 -111h404l-34 -174h-405l-23 -119h427l-34 -171h-658z" />
    <glyph glyph-name="aeacute" unicode="&#x1fd;" horiz-adv-x="1255" 
d="M646 769h246l-137 -154h-219zM864 436q-112 0 -146 -93h271q0 93 -125 93zM327 119q65 0 101 33t43 75l8 35q-33 -9 -111 -22q-69 -12 -95.5 -26t-26.5 -42q0 -24 20.5 -38.5t60.5 -14.5zM1191 178q-3 -21 -11 -42t-31.5 -49.5t-58.5 -49.5t-98 -36t-145 -15h-39
q-213 0 -286 110q-86 -107 -249 -107h-16q-115 0 -174.5 45t-59.5 118q0 81 56.5 129t206.5 59l169 12q49 4 49 39q0 46 -94 46h-2q-95 0 -104 -57h-223q2 24 8 45t26.5 49.5t52.5 48t91 33.5t137 14h31q160 0 210 -59q72 59 205 59h43q86 0 150 -17.5t99 -47t56 -69.5
t22 -85.5t-4 -94.5l-4 -21h-500q5 -106 133 -106q89 0 122 49h232z" />
    <glyph glyph-name="Oslashacute" unicode="&#x1fe;" horiz-adv-x="1054" 
d="M504 -12q-172 0 -274 62l-66 -50h-194l169 130q-68 89 -68 215q0 59 15 115t51 110.5t89.5 95t137 65.5t186.5 25h44q164 0 272 -61l64 49h196l-166 -128q66 -86 66 -208q0 -78 -25 -149t-78 -133.5t-149.5 -100t-225.5 -37.5h-44zM306 349q0 -48 14 -82l377 294
q-52 18 -125 18q-61 0 -109 -14.5t-77 -37.5t-47.5 -54t-25.5 -61.5t-7 -62.5zM526 169q68 0 119.5 18.5t78.5 44t43.5 60.5t20.5 61t4 52q0 43 -12 75l-376 -293q51 -18 122 -18zM468 801l111 153h248l-132 -153h-227z" />
    <glyph glyph-name="oslashacute" unicode="&#x1ff;" horiz-adv-x="838" 
d="M383 -15q-139 0 -223 50l-47 -35h-142l124 92q-51 67 -51 161q0 37 7.5 74t32 83t64 80.5t110.5 58t164 23.5h33q137 0 221 -48l45 33h144l-122 -89q50 -64 50 -163q0 -40 -6.5 -76.5t-30 -83t-62.5 -80t-111.5 -57t-168.5 -23.5h-31zM261 258q0 -23 4 -40l259 193
q-35 14 -84 14h-9q-49 0 -84.5 -16.5t-53 -43t-25 -53t-7.5 -54.5zM407 135q39 0 70 11.5t49 29.5t30 41t16 44t4 41q0 27 -3 40l-258 -193q31 -14 83 -14h9zM436 769h246l-137 -154h-219z" />
    <glyph glyph-name="uni0218" unicode="&#x218;" horiz-adv-x="936" 
d="M351 -286q34 49 47 84h-111l28 145h238l-21 -112q-11 -57 -52 -117h-129zM300 247q0 -17 3.5 -30t16.5 -31t45.5 -28t83.5 -10h7q170 0 170 82q0 31 -26.5 48.5t-97.5 19.5l-93 3q-167 6 -232.5 63t-65.5 154q0 236 394 236h37q73 0 131 -6.5t98 -19t69.5 -29.5t45 -37
t25 -43.5t9 -48t-2.5 -50.5h-248q0 15 -4.5 26t-18 24t-45 20t-78.5 7h-9q-66 0 -102 -10t-45.5 -23.5t-9.5 -34.5q0 -26 25.5 -41t93.5 -17l93 -3q92 -3 154 -19.5t95 -47t46 -67.5t13 -89q0 -258 -419 -258h-27q-414 0 -384 260h253z" />
    <glyph glyph-name="uni0219" unicode="&#x219;" horiz-adv-x="755" 
d="M260 -286q34 49 47 84h-111l28 145h238l-21 -112q-11 -57 -52 -117h-129zM262 175q0 -54 90 -54h2q102 0 102 49q0 21 -18.5 32.5t-71.5 15.5l-66 3q-228 11 -228 163q0 185 315 185h24q82 0 141.5 -10.5t92.5 -26t51 -40t22 -47.5t1 -52h-231q0 10 -6 20t-27.5 19.5
t-56.5 9.5h-2q-98 0 -98 -45q0 -20 19 -30.5t68 -12.5l66 -3q131 -6 185.5 -46t54.5 -121q0 -197 -326 -197h-25q-88 0 -150.5 13t-95 31.5t-50 46.5t-20.5 49t-1 48h239z" />
    <glyph glyph-name="uni021A" unicode="&#x21a;" horiz-adv-x="896" 
d="M305 -286q34 49 47 84h-111l28 145h238l-21 -112q-11 -57 -52 -117h-129zM387 558h-287l36 186h806l-36 -186h-286l-109 -558h-232z" />
    <glyph glyph-name="uni021B" unicode="&#x21b;" horiz-adv-x="537" 
d="M194 -286q34 49 47 84h-111l28 145h238l-21 -112q-11 -57 -52 -117h-129zM433 0h-177q-72 0 -110 40t-22 114l49 249h-113l29 154h114l33 168h220l-34 -168h119l-30 -154h-118l-35 -179q-7 -33 4 -46.5t44 -13.5h59z" />
    <glyph glyph-name="uni0237" unicode="&#x237;" horiz-adv-x="375" 
d="M-17 -36q20 0 27.5 9.5t13.5 34.5l107 549h222l-117 -597q-15 -75 -45 -112.5t-88 -37.5h-209l30 154h59z" />
    <glyph glyph-name="circumflex" unicode="&#x2c6;" horiz-adv-x="700" 
d="M681 614h-204l-45 66l-68 -66h-215l162 155h261z" />
    <glyph glyph-name="caron" unicode="&#x2c7;" horiz-adv-x="700" 
d="M176 769h204l44 -65l69 65h215l-162 -154h-261z" />
    <glyph glyph-name="breve" unicode="&#x2d8;" horiz-adv-x="700" 
d="M419 610q-63 0 -106 18t-60.5 47t-23.5 55.5t-4 53.5h156v-12.5t2.5 -13.5t7.5 -15.5t15 -10t25 -4.5h1q21 0 35 11.5t18.5 22t6.5 22.5h156q-2 -26 -13.5 -53.5t-33.5 -56t-63 -46.5t-95 -18h-24z" />
    <glyph glyph-name="dotaccent" unicode="&#x2d9;" horiz-adv-x="700" 
d="M522 613h-225l28 146h225z" />
    <glyph glyph-name="ring" unicode="&#x2da;" horiz-adv-x="700" 
d="M442 873q165 0 165 -120q0 -19 -4 -37t-16 -38.5t-31.5 -35.5t-54 -25t-79.5 -10q-88 0 -126.5 33t-38.5 86q0 25 7.5 48t26 47t57.5 38t94 14zM425 686q36 0 53.5 18.5t17.5 44.5q0 45 -58 45q-34 0 -52 -18.5t-18 -44.5q0 -45 57 -45z" />
    <glyph glyph-name="ogonek" unicode="&#x2db;" horiz-adv-x="700" 
d="M125 -123q0 42 45 69.5t160 53.5h95q-47 -26 -65.5 -40t-18.5 -28q0 -20 35 -20h39l-20 -102h-150q-120 0 -120 67z" />
    <glyph glyph-name="tilde" unicode="&#x2dc;" horiz-adv-x="700" 
d="M646 805l-16 -84q-17 -104 -100 -104h-2q-44 0 -115 35q-41 21 -54 21t-18 -22l-8 -40h-123l17 84q17 104 100 104h2q44 0 115 -35q39 -21 54 -21q12 0 18 22l8 40h122z" />
    <glyph glyph-name="hungarumlaut" unicode="&#x2dd;" horiz-adv-x="700" 
d="M501 769h202l-97 -154h-197zM241 769h201l-91 -154h-197z" />
    <glyph glyph-name="Wgrave" unicode="&#x1e80;" horiz-adv-x="1354" 
d="M554 954h246l74 -153h-223zM205 0l-110 744h241l55 -512l243 512h259l51 -513l247 513h238l-382 -744h-275l-57 492l-237 -492h-273z" />
    <glyph glyph-name="wgrave" unicode="&#x1e81;" horiz-adv-x="1159" 
d="M166 0l-104 557h227l47 -365l171 365h243l48 -365l170 365h223l-284 -557h-263l-52 337l-161 -337h-265zM516 615l-100 154h241l74 -154h-215z" />
    <glyph glyph-name="Wacute" unicode="&#x1e82;" horiz-adv-x="1354" 
d="M651 801l111 153h248l-132 -153h-227zM205 0l-110 744h241l55 -512l243 512h259l51 -513l247 513h238l-382 -744h-275l-57 492l-237 -492h-273z" />
    <glyph glyph-name="wacute" unicode="&#x1e83;" horiz-adv-x="1159" 
d="M629 769h246l-137 -154h-219zM166 0l-104 557h227l47 -365l171 365h243l48 -365l170 365h223l-284 -557h-263l-52 337l-161 -337h-265z" />
    <glyph glyph-name="Wdieresis" unicode="&#x1e84;" horiz-adv-x="1354" 
d="M737 801h-216l28 146h216zM1009 801h-216l28 146h216zM205 0l-110 744h241l55 -512l243 512h259l51 -513l247 513h238l-382 -744h-275l-57 492l-237 -492h-273z" />
    <glyph glyph-name="wdieresis" unicode="&#x1e85;" horiz-adv-x="1159" 
d="M867 613h-213l28 146h213zM600 613h-213l28 146h213zM166 0l-104 557h227l47 -365l171 365h243l48 -365l170 365h223l-284 -557h-263l-52 337l-161 -337h-265z" />
    <glyph glyph-name="Ygrave" unicode="&#x1ef2;" horiz-adv-x="945" 
d="M361 269l-279 475h266l156 -280l264 280h275l-449 -476l-52 -268h-233zM346 954h246l74 -153h-223z" />
    <glyph glyph-name="ygrave" unicode="&#x1ef3;" horiz-adv-x="762" 
d="M54 -40h125q27 0 27 24q0 14 -9 45l-135 528h233l67 -381l205 381h236l-362 -609q-42 -71 -85.5 -104.5t-110.5 -33.5h-220zM321 615l-100 154h241l74 -154h-215z" />
    <glyph glyph-name="uni2009" unicode="&#x2009;" horiz-adv-x="70" 
 />
    <glyph glyph-name="endash" unicode="&#x2013;" horiz-adv-x="816" 
d="M768 375l-30 -149h-680l30 149h680z" />
    <glyph glyph-name="emdash" unicode="&#x2014;" horiz-adv-x="1234" 
d="M1186 375l-30 -149h-1098l30 149h1098z" />
    <glyph glyph-name="quoteleft" unicode="&#x2018;" horiz-adv-x="368" 
d="M341 744q-52 -72 -79 -144h113l-35 -178h-248l27 141q18 93 80 181h142z" />
    <glyph glyph-name="quoteright" unicode="&#x2019;" horiz-adv-x="368" 
d="M150 422q51 75 77 144h-114l35 178h248l-27 -141q-9 -48 -32 -99t-45 -82h-142z" />
    <glyph glyph-name="quotesinglbase" unicode="&#x201a;" horiz-adv-x="368" 
d="M46 -143q51 75 77 144h-114l35 178h248l-27 -141q-9 -48 -32 -99t-45 -82h-142z" />
    <glyph glyph-name="quotedblleft" unicode="&#x201c;" horiz-adv-x="695" 
d="M665 744q-51 -75 -77 -144h114l-35 -178h-248l27 141q19 99 77 181h142zM339 744q-55 -83 -78 -144h114l-35 -178h-248l27 141q19 98 77 181h143z" />
    <glyph glyph-name="quotedblright" unicode="&#x201d;" horiz-adv-x="695" 
d="M476 422q55 83 78 144h-114l34 178h249l-27 -141q-9 -48 -32 -99t-45 -82h-143zM150 422q51 75 77 144h-114l35 178h248l-27 -141q-9 -48 -32 -99t-45 -82h-142z" />
    <glyph glyph-name="quotedblbase" unicode="&#x201e;" horiz-adv-x="695" 
d="M372 -143q55 83 78 144h-114l34 178h249l-27 -141q-9 -48 -32 -99t-45 -82h-143zM46 -143q51 75 77 144h-114l35 178h248l-27 -141q-9 -48 -32 -99t-45 -82h-142z" />
    <glyph glyph-name="dagger" unicode="&#x2020;" horiz-adv-x="558" 
d="M205 424h-140l33 165h140l30 155h206l-30 -155h140l-32 -165h-140l-83 -424h-206z" />
    <glyph glyph-name="daggerdbl" unicode="&#x2021;" horiz-adv-x="570" 
d="M391 301h140l-31 -156h-139l-29 -145h-200l27 145h-140l31 156h140l28 144h-140l31 157h140l27 142h201l-28 -142h141l-31 -157h-140z" />
    <glyph glyph-name="bullet" unicode="&#x2022;" horiz-adv-x="482" 
d="M444 327q0 -82 -54 -134.5t-140 -52.5t-139 52.5t-53 134.5q0 83 53 135.5t139 52.5t140 -53t54 -135z" />
    <glyph glyph-name="ellipsis" unicode="&#x2026;" horiz-adv-x="1128" 
d="M1012 0h-250l40 208h251zM636 0h-250l40 208h251zM260 0h-250l40 208h251z" />
    <glyph glyph-name="perthousand" unicode="&#x2030;" horiz-adv-x="1983" 
d="M1645 -8q-130 0 -188.5 58t-58.5 142q0 38 12.5 75t40.5 74.5t84.5 61t134.5 23.5h20q130 0 188.5 -58t58.5 -141q0 -30 -7 -59.5t-26 -62t-48 -57t-78.5 -40.5t-112.5 -16h-20zM1656 115q60 0 88 32t28 78q0 36 -23.5 59t-69.5 23q-61 0 -88.5 -32t-27.5 -78
q0 -82 93 -82zM331 319q-130 0 -188.5 58t-58.5 142q0 38 12.5 75.5t40.5 74.5t84.5 60t134.5 23h20q129 0 187.5 -58.5t58.5 -141.5q0 -30 -7 -59.5t-26.5 -61.5t-48.5 -56.5t-78 -40t-111 -15.5h-20zM1195 744l-803 -744h-172l802 744h173zM341 442q61 0 89 31.5t28 77.5
q0 37 -23 59.5t-70 22.5q-61 0 -88.5 -31.5t-27.5 -78.5q0 -37 22.5 -59t69.5 -22zM1048 -8q-68 0 -117.5 17t-76.5 47t-39.5 63.5t-12.5 72.5q0 38 12.5 75t40.5 74.5t84.5 61t133.5 23.5h20q130 0 188.5 -58t58.5 -141q0 -30 -7 -59.5t-26 -62t-48 -57t-78.5 -40.5
t-112.5 -16h-20zM1059 115q60 0 88 32t28 78q0 36 -23.5 59t-69.5 23q-61 0 -88.5 -32t-27.5 -78q0 -37 23 -59.5t70 -22.5z" />
    <glyph glyph-name="uni2032" unicode="&#x2032;" horiz-adv-x="328" 
d="M260 433h-180l109 311h181z" />
    <glyph glyph-name="uni2033" unicode="&#x2033;" horiz-adv-x="598" 
d="M259 433h-179l110 311h180zM527 433h-179l113 311h180z" />
    <glyph glyph-name="guilsinglleft" unicode="&#x2039;" horiz-adv-x="376" 
d="M193 474h189l-169 -188l99 -182h-174l-102 186z" />
    <glyph glyph-name="guilsinglright" unicode="&#x203a;" horiz-adv-x="376" 
d="M190 104h-189l169 191l-99 179h174l102 -184z" />
    <glyph glyph-name="fraction" unicode="&#x2044;" horiz-adv-x="874" 
d="M949 744l-817 -744h-167l815 744h169z" />
    <glyph glyph-name="Euro" unicode="&#x20ac;" horiz-adv-x="1043" 
d="M999 298q-3 -25 -8.5 -48t-19 -55.5t-32.5 -59.5t-52 -55t-74 -47.5t-101.5 -32t-132.5 -12.5h-45q-186 0 -281.5 76t-118.5 199h-105l17 85h81q2 38 5 59h-75l17 84h79q43 116 147.5 190.5t279.5 74.5h45q102 0 178.5 -18.5t120.5 -47.5t69 -71t32 -82t3 -87h-242
q-1 16 -3.5 28t-14 32t-29.5 33.5t-53.5 24t-83.5 10.5q-132 0 -191 -87h254l-17 -84h-271q-6 -30 -6 -59h266l-17 -85h-234q41 -95 170 -95q46 0 82.5 11.5t57 26.5t34.5 35t19 33t7 24h243z" />
    <glyph glyph-name="trademark" unicode="&#x2122;" horiz-adv-x="1150" 
d="M388 628l-51 -264h-157l52 264h-133l23 116h419l-23 -116h-130zM605 744h207l35 -196l109 196h214l-73 -380h-134l50 253l-149 -253h-100l-51 253l-49 -253h-133z" />
    <glyph glyph-name="onethird" unicode="&#x2153;" horiz-adv-x="1299" 
d="M95 551l22 113q77 0 108 18t56 63h137l-83 -429h-171l45 235h-114zM1055 744l-817 -744h-167l815 744h169zM734 295q9 141 249 141h30q75 0 126 -9.5t74 -26.5t31 -33.5t8 -37.5q0 -36 -26 -56.5t-66 -26.5q73 -21 73 -95q0 -158 -262 -158h-29q-65 0 -113 12t-72.5 29
t-38 40t-16.5 41t-1 36h176q0 -45 82 -45q92 0 92 43q0 26 -43 26h-110l19 98h112q46 0 46 29t-80 29q-75 0 -89 -36h-172z" />
    <glyph glyph-name="twothirds" unicode="&#x2154;" horiz-adv-x="1524" 
d="M119 598q13 154 249 154h21q136 0 187 -33.5t51 -94.5q0 -64 -54.5 -96t-194.5 -50q-142 -20 -147 -41h362l-24 -121h-511l12 61q6 33 16.5 56t38 51.5t84.5 50.5t142 37q60 12 78.5 20.5t18.5 24.5q0 15 -15.5 22t-55.5 7q-74 0 -84 -48h-174zM1280 744l-817 -744h-167
l815 744h169zM960 295q9 141 249 141h30q75 0 126 -9.5t74 -26.5t31 -33.5t8 -37.5q0 -36 -26 -56.5t-66 -26.5q73 -21 73 -95q0 -158 -262 -158h-29q-65 0 -113 12t-72.5 29t-38 40t-16.5 41t-1 36h176q0 -45 82 -45q92 0 92 43q0 26 -43 26h-110l19 98h112q46 0 46 29
t-80 29q-75 0 -89 -36h-172z" />
    <glyph glyph-name="oneeighth" unicode="&#x215b;" horiz-adv-x="1306" 
d="M97 551l22 113q77 0 108 18t56 63h137l-83 -429h-171l45 235h-114zM1053 744l-817 -744h-167l815 744h169zM1019 436q77 0 128.5 -10t74.5 -28t31 -35t8 -38q0 -44 -30 -68.5t-81 -30.5q84 -19 84 -94q0 -139 -260 -139h-26q-244 0 -244 122q0 45 34 73.5t89 37.5
q-32 6 -54 28t-22 55q0 18 3.5 32t17.5 33t38.5 31.5t71.5 21.5t111 9h26zM924 302q0 -16 15.5 -24.5t59.5 -8.5q83 0 83 41q0 33 -75 33q-83 0 -83 -41zM883 132q0 -38 82 -38q92 0 92 46q0 37 -81 37q-56 0 -74.5 -12.5t-18.5 -32.5z" />
    <glyph glyph-name="threeeighths" unicode="&#x215c;" horiz-adv-x="1495" 
d="M1249 744l-817 -744h-167l815 744h169zM113 611q9 141 249 141h30q75 0 126 -9.5t74 -26.5t31 -33.5t8 -37.5q0 -36 -26 -56.5t-66 -26.5q73 -21 73 -95q0 -158 -262 -158h-29q-65 0 -113 12t-72.5 29t-38 40t-16.5 41t-1 36h176q0 -45 82 -45q92 0 92 43q0 26 -43 26
h-110l19 98h112q46 0 46 29t-80 29q-76 0 -89 -36h-172zM1207 436q77 0 128.5 -10t74.5 -28t31 -35t8 -38q0 -44 -30 -68.5t-81 -30.5q84 -19 84 -94q0 -139 -260 -139h-26q-244 0 -244 122q0 45 34 73.5t89 37.5q-32 6 -54 28t-22 55q0 18 3.5 32t17.5 33t38.5 31.5
t71.5 21.5t111 9h26zM1112 302q0 -16 15.5 -24.5t59.5 -8.5q83 0 83 41q0 33 -75 33q-83 0 -83 -41zM1071 132q0 -38 82 -38q92 0 92 46q0 37 -81 37q-56 0 -74.5 -12.5t-18.5 -32.5z" />
    <glyph glyph-name="fiveeighths" unicode="&#x215d;" horiz-adv-x="1480" 
d="M1236 744l-817 -744h-167l815 744h169zM267 442q0 -4 3.5 -9.5t21.5 -11.5t49 -6q81 0 81 52q0 42 -70 42q-62 0 -78 -27h-167l51 262h465l-20 -107h-298l-14 -71q7 6 20 12.5t43 14t65 7.5h4q97 0 136 -32.5t39 -89.5q0 -169 -243 -169h-32q-64 0 -110 10t-69.5 24
t-36 33.5t-15 34t-1.5 31.5h176zM1193 436q77 0 128.5 -10t74.5 -28t31 -35t8 -38q0 -44 -30 -68.5t-81 -30.5q84 -19 84 -94q0 -139 -260 -139h-26q-244 0 -244 122q0 45 34 73.5t89 37.5q-32 6 -54 28t-22 55q0 18 3.5 32t17.5 33t38.5 31.5t71.5 21.5t111 9h26zM1098 302
q0 -16 15.5 -24.5t59.5 -8.5q83 0 83 41q0 33 -75 33q-83 0 -83 -41zM1057 132q0 -38 82 -38q92 0 92 46q0 37 -81 37q-56 0 -74.5 -12.5t-18.5 -32.5z" />
    <glyph glyph-name="seveneighths" unicode="&#x215e;" horiz-adv-x="1398" 
d="M237 316l10 51q10 50 35 86.5t86 86.5q98 80 101 92h-178l-16 -80h-165l37 192h497l-8 -36l-13 -70q-2 -3 -23 -24.5t-42 -46t-41 -49.5q-31 -39 -48.5 -75t-23 -59.5t-12.5 -67.5h-196zM1153 744l-817 -744h-167l815 744h169zM1111 436q77 0 128.5 -10t74.5 -28t31 -35
t8 -38q0 -44 -30 -68.5t-81 -30.5q84 -19 84 -94q0 -139 -260 -139h-26q-244 0 -244 122q0 45 34 73.5t89 37.5q-32 6 -54 28t-22 55q0 18 3.5 32t17.5 33t38.5 31.5t71.5 21.5t111 9h26zM1016 302q0 -16 15.5 -24.5t59.5 -8.5q83 0 83 41q0 33 -75 33q-83 0 -83 -41z
M975 132q0 -38 82 -38q92 0 92 46q0 37 -81 37q-56 0 -74.5 -12.5t-18.5 -32.5z" />
    <glyph glyph-name="minus" unicode="&#x2212;" horiz-adv-x="643" 
d="M599 394l-29 -145h-507l29 145h507z" />
    <glyph glyph-name="uni24C5" unicode="&#x24c5;" horiz-adv-x="1092" 
d="M1056 362q0 -60 -14 -112.5t-48 -101.5t-87.5 -83.5t-138 -55.5t-192.5 -21h-22q-108 0 -192.5 21t-138 55.5t-87.5 83.5t-48 101.5t-14 112.5v21q0 59 13.5 111t48 101t88 84t138 56t193.5 21h20q109 0 193.5 -21t138 -56t88 -84t48 -101t13.5 -111v-21zM573 78
q102 0 175.5 23t113.5 64.5t58 90.5t18 109v13q0 65 -17.5 114.5t-58 90t-113.5 62t-176 21.5h-16q-103 0 -176 -21.5t-113.5 -62t-58.5 -90.5t-18 -114v-13q0 -60 18 -109t58 -90.5t114 -64.5t176 -23h16zM501 279v-117h-166v423h313q104 0 148 -39.5t44 -110.5v-6
q0 -72 -44 -111t-148 -39h-147zM501 386h110q59 0 59 45v3q0 44 -59 44h-110v-92z" />
    <glyph glyph-name="cent.tab" unicode="&#xe459;" 
d="M305 259q0 -107 90 -123l56 291q-81 -9 -113.5 -57t-32.5 -111zM350 -95l16 82q-289 23 -289 272q0 40 9 79t35 83t67 76t112 53.5t162 21.5h18l15 80h91l-16 -82q79 -5 136 -23t86.5 -41.5t45.5 -55t18.5 -56.5t-0.5 -54h-229q0 66 -86 84l-56 -291q103 12 120 92h229
q-3 -29 -11 -56t-32.5 -62t-62 -60.5t-104.5 -43.5t-154 -18h-14l-15 -80h-91z" />
    <glyph glyph-name="J.alt" unicode="&#xe489;" horiz-adv-x="587" 
d="M32 192h127q58 0 81.5 27.5t36.5 97.5l83 427h233l-93 -481q-28 -143 -81.5 -203t-175.5 -60h-249z" />
    <glyph glyph-name="a.alt" unicode="&#xe4c0;" horiz-adv-x="779" 
d="M326 119q66 0 105.5 34t46.5 74l7 35q-46 -12 -118 -22q-68 -10 -94.5 -25t-26.5 -43q0 -24 20.5 -38.5t59.5 -14.5zM81 380q2 24 8 45t27 49.5t53.5 48t92 33.5t138.5 14h33q69 0 122 -8.5t84.5 -23.5t52.5 -35t27 -43t8 -47.5t-5 -48.5l-33 -169q-23 -114 -11 -195
h-215q-7 37 -2 74q-14 -18 -35.5 -34.5t-69 -33.5t-104.5 -17h-16q-102 0 -157.5 46t-55.5 117q0 82 57 130.5t209 57.5l170 11q52 4 52 40q0 23 -20.5 35t-77.5 12h-1q-99 0 -108 -58h-223z" />
    <glyph glyph-name="r.alt" unicode="&#xe4d1;" horiz-adv-x="554" 
d="M131 557h220l-22 -113q34 56 87.5 90.5t148.5 34.5h9l-44 -229q-22 6 -78 6q-76 0 -113 -26t-47 -80l-48 -240h-222z" />
    <glyph glyph-name="idotaccent" horiz-adv-x="375" 
d="M364 613h-224l28 146h224zM244 0h-222l109 557h222z" />
    <glyph glyph-name="space_uni0326" horiz-adv-x="700" 
d="M207 -286q34 49 47 84h-111l28 145h238l-21 -112q-11 -57 -52 -117h-129z" />
    <glyph glyph-name="zero.num" horiz-adv-x="657" 
d="M352 309q-63 0 -110.5 13.5t-74.5 33.5t-43.5 48.5t-21.5 53.5t-5 54q0 28 5.5 55.5t24 62.5t48 60.5t83.5 43.5t125 18h23q254 0 254 -203q0 -28 -5 -55.5t-23 -62.5t-47 -60.5t-83.5 -43.5t-126.5 -18h-23zM371 433q56 0 80 36.5t24 79.5q0 33 -19.5 57t-61.5 24h-4
q-58 0 -82.5 -35.5t-24.5 -80.5q0 -33 19.5 -57t62.5 -24h6z" />
    <glyph glyph-name="one.num" horiz-adv-x="396" 
d="M88 551l22 113q77 0 108 18t56 63h137l-83 -429h-171l45 235h-114z" />
    <glyph glyph-name="two.num" horiz-adv-x="611" 
d="M120 598q13 154 249 154h21q136 0 187 -33.5t51 -94.5q0 -64 -54.5 -96t-194.5 -50q-142 -20 -147 -41h362l-24 -121h-511l12 61q6 33 16.5 56t38 51.5t84.5 50.5t142 37q60 12 78.5 20.5t18.5 24.5q0 15 -15.5 22t-55.5 7q-74 0 -84 -48h-174z" />
    <glyph glyph-name="three.num" horiz-adv-x="620" 
d="M111 611q9 141 249 141h30q75 0 126 -9.5t74 -26.5t31 -33.5t8 -37.5q0 -36 -26 -56.5t-66 -26.5q73 -21 73 -95q0 -158 -262 -158h-29q-65 0 -113 12t-72.5 29t-38 40t-16.5 41t-1 36h176q0 -45 82 -45q92 0 92 43q0 26 -43 26h-110l19 98h112q46 0 46 29t-80 29
q-76 0 -89 -36h-172z" />
    <glyph glyph-name="four.num" horiz-adv-x="604" 
d="M85 496l287 249h202l-46 -234h84l-23 -115h-83l-16 -80h-169l15 80h-271zM385 646l-154 -135h128z" />
    <glyph glyph-name="five.num" horiz-adv-x="608" 
d="M267 442q0 -4 3.5 -9.5t21.5 -11.5t49 -6q81 0 81 52q0 42 -70 42q-62 0 -78 -27h-167l51 262h465l-20 -107h-298l-14 -71q7 6 20 12.5t43 14t65 7.5h4q97 0 136 -32.5t39 -89.5q0 -169 -243 -169h-32q-64 0 -110 10t-69.5 24t-36 33.5t-15 34t-1.5 31.5h176z" />
    <glyph glyph-name="six.num" horiz-adv-x="629" 
d="M387 645q-57 0 -83.5 -28t-29.5 -64q49 36 152 36h5q195 0 195 -124q0 -156 -253 -156h-33q-243 0 -243 196q0 30 5 58.5t22.5 64.5t46 62t81 44t121.5 18h28q75 0 126 -12.5t73.5 -34.5t30.5 -43t7 -45h-170q-20 28 -81 28zM270 453q0 -38 86 -38q94 0 94 47
q0 37 -84 37q-96 0 -96 -46z" />
    <glyph glyph-name="seven.num" horiz-adv-x="598" 
d="M233 316l10 51q10 50 35 86.5t86 86.5q98 80 101 92h-178l-16 -80h-165l37 192h497l-8 -36l-13 -70q-2 -3 -23 -24.5t-42 -46t-41 -49.5q-31 -39 -48.5 -75t-23 -59.5t-12.5 -67.5h-196z" />
    <glyph glyph-name="eight.num" horiz-adv-x="626" 
d="M396 752q77 0 128.5 -10t74.5 -28t31 -35t8 -38q0 -44 -30 -68.5t-81 -30.5q84 -19 84 -94q0 -139 -260 -139h-26q-244 0 -244 122q0 45 34 73.5t89 37.5q-32 6 -54 28t-22 55q0 18 3.5 32t17.5 33t38.5 31.5t71.5 21.5t111 9h26zM301 618q0 -16 15.5 -24.5t59.5 -8.5
q83 0 83 41q0 33 -75 33q-83 0 -83 -41zM260 448q0 -38 82 -38q92 0 92 46q0 37 -81 37q-56 0 -74.5 -12.5t-18.5 -32.5z" />
    <glyph glyph-name="nine.num" horiz-adv-x="634" 
d="M465 607q0 38 -86 38q-94 0 -94 -47q0 -37 84 -37q96 0 96 46zM348 415q56 0 82.5 28t29.5 65q-45 -36 -146 -36h-5q-201 0 -201 125q0 155 253 155h33q244 0 244 -196q0 -31 -4.5 -59.5t-22 -64.5t-45.5 -61.5t-80.5 -43.5t-122.5 -18h-28q-75 0 -126 12.5t-74 34
t-31.5 42.5t-7.5 45h170q20 -28 82 -28z" />
    <glyph glyph-name="zero.den" horiz-adv-x="657" 
d="M298 -7q-63 0 -110.5 13.5t-74.5 33.5t-43.5 48.5t-21.5 53.5t-5 54q0 28 5.5 55.5t24 62.5t48 60.5t83.5 43.5t125 18h23q254 0 254 -203q0 -28 -5 -55.5t-23 -62.5t-47 -60.5t-83.5 -43.5t-126.5 -18h-23zM317 117q56 0 80 36.5t24 79.5q0 33 -19.5 57t-61.5 24h-4
q-58 0 -82.5 -35.5t-24.5 -80.5q0 -33 19.5 -57t62.5 -24h6z" />
    <glyph glyph-name="one.den" horiz-adv-x="396" 
d="M34 235l22 113q77 0 108 18t56 63h137l-83 -429h-171l45 235h-114z" />
    <glyph glyph-name="two.den" horiz-adv-x="611" 
d="M65 282q13 154 249 154h21q136 0 187 -33.5t51 -94.5q0 -64 -54.5 -96t-194.5 -50q-142 -20 -147 -41h362l-24 -121h-511l12 61q6 33 16.5 56t38 51.5t84.5 50.5t142 37q60 12 78.5 20.5t18.5 24.5q0 15 -15.5 22t-55.5 7q-74 0 -84 -48h-174z" />
    <glyph glyph-name="three.den" horiz-adv-x="620" 
d="M56 295q9 141 249 141h30q75 0 126 -9.5t74 -26.5t31 -33.5t8 -37.5q0 -36 -26 -56.5t-66 -26.5q73 -21 73 -95q0 -158 -262 -158h-29q-65 0 -113 12t-72.5 29t-38 40t-16.5 41t-1 36h176q0 -45 82 -45q92 0 92 43q0 26 -43 26h-110l19 98h112q46 0 46 29t-80 29
q-75 0 -89 -36h-172z" />
    <glyph glyph-name="four.den" horiz-adv-x="604" 
d="M30 180l287 249h202l-46 -234h84l-23 -115h-83l-16 -80h-169l15 80h-271zM330 330l-154 -135h128z" />
    <glyph glyph-name="five.den" horiz-adv-x="608" 
d="M213 126q0 -4 3.5 -9.5t21.5 -11.5t49 -6q81 0 81 52q0 42 -70 42q-62 0 -78 -27h-167l51 262h465l-20 -107h-298l-14 -71q7 6 20 12.5t43 14t65 7.5h4q97 0 136 -32.5t39 -89.5q0 -169 -243 -169h-32q-64 0 -110 10t-69.5 24t-36 33.5t-15 34t-1.5 31.5h176z" />
    <glyph glyph-name="six.den" horiz-adv-x="629" 
d="M333 329q-57 0 -83.5 -28t-29.5 -64q50 36 152 36h5q195 0 195 -124q0 -156 -253 -156h-33q-243 0 -243 196q0 30 5 58.5t22.5 64.5t46 62t81 44t121.5 18h28q75 0 126 -12.5t73.5 -34.5t30.5 -43t7 -45h-170q-20 28 -81 28zM216 137q0 -38 86 -38q94 0 94 47
q0 37 -84 37q-96 0 -96 -46z" />
    <glyph glyph-name="seven.den" horiz-adv-x="598" 
d="M179 0l10 51q10 50 35 86.5t86 86.5q98 80 101 92h-178l-16 -80h-165l37 192h497l-8 -36l-13 -70q-2 -3 -23 -24.5t-42 -46t-41 -49.5q-31 -39 -48.5 -75t-23 -59.5t-12.5 -67.5h-196z" />
    <glyph glyph-name="eight.den" horiz-adv-x="626" 
d="M341 436q77 0 128.5 -10t74.5 -28t31 -35t8 -38q0 -44 -30 -68.5t-81 -30.5q84 -19 84 -94q0 -139 -260 -139h-26q-244 0 -244 122q0 45 34 73.5t89 37.5q-32 6 -54 28t-22 55q0 18 3.5 32t17.5 33t38.5 31.5t71.5 21.5t111 9h26zM246 302q0 -16 15.5 -24.5t59.5 -8.5
q83 0 83 41q0 33 -75 33q-83 0 -83 -41zM205 132q0 -38 82 -38q92 0 92 46q0 37 -81 37q-56 0 -74.5 -12.5t-18.5 -32.5z" />
    <glyph glyph-name="nine.den" horiz-adv-x="634" 
d="M411 291q0 38 -86 38q-94 0 -94 -47q0 -37 84 -37q96 0 96 46zM294 99q56 0 82.5 28t29.5 65q-45 -36 -146 -36h-5q-201 0 -201 125q0 155 253 155h33q244 0 244 -196q0 -31 -4.5 -59.5t-22 -64.5t-45.5 -61.5t-80.5 -43.5t-122.5 -18h-28q-75 0 -126 12.5t-74 34
t-31.5 42.5t-7.5 45h170q20 -28 82 -28z" />
    <glyph glyph-name="zero.sub" horiz-adv-x="723" 
d="M296 -169q-281 0 -281 224q0 31 6 61.5t26.5 68.5t53 66.5t92 48t137.5 19.5h25q280 0 280 -223q0 -32 -5.5 -62t-25 -68.5t-52 -67t-92 -48t-139.5 -19.5h-25zM317 -34q43 0 70 22.5t36 49.5t9 57q0 37 -21.5 63t-68.5 26h-4q-64 0 -91 -39.5t-27 -89.5q0 -38 21 -63.5
t70 -25.5h6z" />
    <glyph glyph-name="one.sub" horiz-adv-x="436" 
d="M6 98l23 125q58 0 94 10.5t53.5 28t33.5 49.5h151l-91 -472h-189l50 259h-125z" />
    <glyph glyph-name="two.sub" horiz-adv-x="672" 
d="M41 149q13 169 273 169h24q150 0 205.5 -36.5t55.5 -104.5q0 -69 -61 -105.5t-212 -54.5q-156 -20 -162 -45h398l-26 -133h-563l13 67q6 29 13 49t27 47t51 46t87 39t132 34q65 11 86 21.5t21 27.5t-17 24.5t-61 7.5q-84 0 -93 -53h-191z" />
    <glyph glyph-name="three.sub" horiz-adv-x="682" 
d="M31 164q9 155 274 155h33q67 0 116.5 -7.5t77 -18.5t43.5 -27.5t21 -31.5t5 -33q0 -39 -29 -62t-72 -29q80 -20 80 -105q0 -173 -288 -173h-32q-72 0 -124.5 13t-79.5 31.5t-42.5 44t-18.5 45t-1 39.5h194q0 -49 91 -49q101 0 101 47q0 29 -48 29h-121l21 108h123
q51 0 51 31q0 16 -18 24t-70 8q-87 0 -98 -39h-189z" />
    <glyph glyph-name="four.sub" horiz-adv-x="665" 
d="M2 38l315 273h223l-50 -257h92l-25 -127h-92l-17 -88h-186l17 88h-299zM332 202l-168 -148h139z" />
    <glyph glyph-name="five.sub" horiz-adv-x="670" 
d="M202 -22q0 -5 4 -10.5t24 -12t54 -6.5q89 0 89 56q0 47 -77 47q-15 0 -27.5 -1.5t-21 -4t-15 -5t-10.5 -6t-6.5 -5.5t-3.5 -4l-2 -3h-183l56 288h512l-23 -118h-328l-16 -79q12 12 49 25t93 13h5q106 0 149 -35.5t43 -98.5q0 -187 -268 -187h-35q-70 0 -120.5 11
t-76 26.5t-40 37.5t-17 38t-1.5 34h193z" />
    <glyph glyph-name="six.sub" horiz-adv-x="693" 
d="M334 201q-62 0 -91.5 -30.5t-32.5 -71.5q52 40 168 40h6q214 0 214 -136q0 -172 -279 -172h-36q-268 0 -268 215q0 34 5.5 65.5t24.5 71t50.5 68t89.5 48.5t134 20h31q67 0 117 -10t77.5 -24.5t43.5 -35.5t20 -39t3 -39h-187q-19 30 -90 30zM206 -10q0 -42 94 -42
q104 0 104 52q0 41 -93 41q-105 0 -105 -51z" />
    <glyph glyph-name="seven.sub" horiz-adv-x="658" 
d="M165 -161l11 56q10 54 37.5 94.5t95.5 96.5q107 85 111 101h-196l-17 -87h-182l41 210h547l-8 -40q-10 -47 -15 -77q-60 -60 -117 -131q-49 -62 -66 -108t-27 -115h-215z" />
    <glyph glyph-name="eight.sub" horiz-adv-x="689" 
d="M344 319q69 0 119.5 -8t78 -20t43.5 -29.5t20.5 -32t4.5 -32.5q0 -91 -122 -110q42 -10 67.5 -35.5t25.5 -66.5q0 -154 -286 -154h-29q-269 0 -269 135q0 50 37.5 81t97.5 40q-35 9 -58.5 32.5t-23.5 59.5q0 13 1.5 24t8 26t17 27t30.5 24t47.5 20.5t68.5 13.5t93 5h28z
M240 171q0 -36 83 -36q91 0 91 45q0 36 -83 36q-91 0 -91 -45zM195 -15q0 -20 19 -31t71 -11q101 0 101 50q0 20 -19 30.5t-70 10.5q-102 0 -102 -49z" />
    <glyph glyph-name="nine.sub" horiz-adv-x="698" 
d="M421 160q0 41 -94 41q-104 0 -104 -51q0 -41 93 -41q105 0 105 51zM293 -52q62 0 91 30.5t32 71.5q-54 -39 -161 -39h-5q-123 0 -172 37t-49 101q0 170 278 170h36q269 0 269 -216q0 -34 -5 -65t-24 -70.5t-50 -68t-89 -48.5t-135 -20h-31q-67 0 -116.5 10t-77 24.5
t-44 35.5t-21 39t-3.5 39h187q19 -31 90 -31z" />
    <glyph glyph-name="zero.sup" horiz-adv-x="723" 
d="M385 277q-281 0 -281 224q0 31 6 61.5t26.5 68.5t53 66.5t92 48t137.5 19.5h25q280 0 280 -223q0 -32 -5.5 -62t-25 -68.5t-52 -67t-92 -48t-139.5 -19.5h-25zM406 412q43 0 70 22.5t36 49.5t9 57q0 37 -21.5 63t-68.5 26h-4q-64 0 -91 -39.5t-27 -89.5q0 -38 21 -63.5
t70 -25.5h6z" />
    <glyph glyph-name="one.sup" horiz-adv-x="436" 
d="M95 544l23 125q58 0 94 10.5t53.5 28t33.5 49.5h151l-91 -472h-189l50 259h-125z" />
    <glyph glyph-name="two.sup" horiz-adv-x="672" 
d="M130 595q13 169 273 169h24q150 0 205.5 -36.5t55.5 -104.5q0 -69 -61 -105.5t-212 -54.5q-156 -20 -162 -45h398l-26 -133h-563l13 67q6 29 13 49t27 47t51 46t87 39t132 34q65 11 86 21.5t21 27.5t-17 24.5t-61 7.5q-84 0 -93 -53h-191z" />
    <glyph glyph-name="three.sup" horiz-adv-x="682" 
d="M120 610q9 155 274 155h33q67 0 116.5 -7.5t77 -18.5t43.5 -27.5t21 -31.5t5 -33q0 -39 -29 -62t-72 -29q80 -20 80 -105q0 -173 -288 -173h-32q-72 0 -124.5 13t-79.5 31.5t-42.5 44t-18.5 45t-1 39.5h194q0 -49 91 -49q101 0 101 47q0 29 -48 29h-121l21 108h123
q51 0 51 31q0 16 -18 24t-70 8q-87 0 -98 -39h-189z" />
    <glyph glyph-name="four.sup" horiz-adv-x="665" 
d="M91 484l315 273h223l-50 -257h92l-25 -127h-92l-17 -88h-186l17 88h-299zM421 648l-168 -148h139z" />
    <glyph glyph-name="five.sup" horiz-adv-x="670" 
d="M291 424q0 -5 4 -10.5t24 -12t54 -6.5q89 0 89 56q0 47 -77 47q-15 0 -27.5 -1.5t-21 -4t-15 -5t-10.5 -6t-6.5 -5.5t-4.5 -4l-1 -3h-183l56 288h512l-23 -118h-328l-16 -79q12 12 49 25t93 13h5q106 0 149 -35.5t43 -98.5q0 -187 -268 -187h-35q-70 0 -120.5 11
t-76 26.5t-40 37.5t-17 38t-1.5 34h193z" />
    <glyph glyph-name="six.sup" horiz-adv-x="693" 
d="M423 647q-62 0 -91.5 -30.5t-32.5 -71.5q52 40 168 40h6q214 0 214 -136q0 -172 -279 -172h-36q-268 0 -268 215q0 34 5.5 65.5t24.5 71t50.5 68t89.5 48.5t134 20h31q67 0 117 -10t77.5 -24.5t43.5 -35.5t20 -39t3 -39h-187q-19 30 -90 30zM295 436q0 -42 94 -42
q104 0 104 52q0 41 -93 41q-105 0 -105 -51z" />
    <glyph glyph-name="seven.sup" horiz-adv-x="658" 
d="M254 285l11 56q10 54 37.5 94.5t95.5 96.5q107 85 111 101h-196l-17 -87h-182l41 210h547l-8 -40q-10 -47 -15 -77q-60 -60 -117 -131q-49 -62 -66 -108t-27 -115h-215z" />
    <glyph glyph-name="eight.sup" horiz-adv-x="689" 
d="M433 765q69 0 119.5 -8t78 -20t43.5 -29.5t20.5 -32t4.5 -32.5q0 -91 -122 -110q42 -10 67.5 -35.5t25.5 -66.5q0 -154 -286 -154h-29q-269 0 -269 135q0 50 37.5 81t97.5 40q-35 9 -58.5 32.5t-23.5 59.5q0 13 1.5 24t8 26t17 27t30.5 24t47.5 20.5t68.5 13.5t93 5h28z
M329 617q0 -36 83 -36q91 0 91 45q0 36 -83 36q-91 0 -91 -45zM284 431q0 -20 19 -31t71 -11q101 0 101 50q0 20 -19 30.5t-70 10.5q-102 0 -102 -49z" />
    <glyph glyph-name="nine.sup" horiz-adv-x="698" 
d="M510 606q0 41 -94 41q-104 0 -104 -51q0 -41 93 -41q105 0 105 51zM382 394q62 0 91 30.5t32 71.5q-54 -39 -161 -39h-5q-123 0 -172 37t-49 101q0 170 278 170h36q269 0 269 -216q0 -34 -5 -65t-24 -70.5t-50 -68t-89 -48.5t-135 -20h-31q-67 0 -116.5 10t-77 24.5
t-44 35.5t-21 39t-3.5 39h187q19 -31 90 -31z" />
    <glyph glyph-name="space.tab" horiz-adv-x="460" 
 />
    <glyph glyph-name="comma.tab" horiz-adv-x="460" 
d="M79 -149q62 85 86 149h-115l40 208h251l-31 -160q-23 -110 -88 -197h-143z" />
    <glyph glyph-name="period.tab" horiz-adv-x="460" 
d="M300 0h-250l40 208h251z" />
    <glyph glyph-name="colon.tab" horiz-adv-x="460" 
d="M364 329h-250l40 208h251zM300 0h-250l40 208h251z" />
    <glyph glyph-name="semicolon.tab" horiz-adv-x="460" 
d="M364 329h-250l40 208h251zM79 -149q62 85 86 149h-115l40 208h251l-31 -160q-23 -110 -88 -197h-143z" />
    <glyph glyph-name="zero.lintab" 
d="M524 756q99 0 173 -28t116.5 -76.5t63 -106.5t20.5 -125q0 -81 -24 -155t-72.5 -137.5t-132 -101.5t-191.5 -38h-36q-80 0 -144.5 19t-106.5 50.5t-70.5 75.5t-41 91.5t-12.5 99.5q0 63 14.5 123.5t47.5 117t80.5 98.5t119.5 67.5t159 25.5h37zM660 412q0 68 -36.5 114
t-120.5 46q-99 0 -149.5 -72.5t-50.5 -165.5q0 -71 38 -116t119 -45q54 0 95 23.5t63 61t32 76.5t10 78z" />
    <glyph glyph-name="one.lintab" 
d="M64 0l34 173h264l59 304h-212l31 154q131 0 189.5 23.5t96.5 89.5h185l-111 -571h250l-35 -173h-751z" />
    <glyph glyph-name="two.lintab" 
d="M112 479q3 36 13.5 70t37.5 72.5t68 67t110 47t158 18.5h48q358 0 358 -226q0 -107 -77.5 -159t-226.5 -79l-176 -30q-177 -33 -185 -74h613l-35 -186h-812l23 119q9 50 24.5 84.5t52 74t105.5 72t173 59.5q13 4 135 31q83 17 112.5 36t29.5 48q0 64 -138 64
q-48 0 -83 -11.5t-52.5 -30.5t-25.5 -35t-10 -32h-240z" />
    <glyph glyph-name="three.lintab" 
d="M280 258q0 -13 4.5 -25.5t18 -29.5t48.5 -27.5t86 -10.5q187 0 187 88q0 28 -18 41t-66 13h-242l31 157h248q90 0 90 61q0 29 -35 45.5t-128 16.5q-40 0 -72 -6.5t-49.5 -15t-29 -20t-15.5 -19.5t-5 -15h-236q3 31 12 59.5t34.5 63.5t65 60t109 42.5t160.5 17.5h55
q372 0 372 -187q0 -38 -15 -67t-40 -45t-47.5 -24t-45.5 -12q111 -39 111 -161q0 -34 -8.5 -66.5t-35 -71t-69.5 -66t-119 -46.5t-176 -19h-46q-99 0 -172.5 19t-113 47.5t-62 66.5t-27 70.5t-0.5 65.5h241z" />
    <glyph glyph-name="four.lintab" 
d="M58 296l470 453h305l-82 -425h142l-34 -172h-143l-29 -152h-235l29 152h-452zM569 602l-287 -278h234z" />
    <glyph glyph-name="five.lintab" 
d="M308 226q11 -61 152 -61q178 0 178 97q0 40 -34 59t-119 19q-38 0 -68 -4.5t-46.5 -11t-29 -15t-16.5 -13.5t-6 -10h-231l89 458h736l-34 -175h-509l-25 -134q66 58 224 58h11q86 0 146 -19t90 -53t42 -71t12 -84q0 -37 -8.5 -72t-35 -73.5t-67.5 -66.5t-113 -46.5
t-166 -18.5h-40q-65 0 -119.5 7t-92 18.5t-67.5 27.5t-47 34.5t-30 38.5t-16 39.5t-5 38t2 33.5h243z" />
    <glyph glyph-name="six.lintab" 
d="M515 586q-53 0 -92.5 -17.5t-61 -48t-32 -58.5t-15.5 -60q15 13 39 26t82.5 27.5t129.5 14.5h17q150 0 219.5 -58t69.5 -154q0 -41 -11.5 -78.5t-40 -73t-72.5 -61t-113.5 -41t-157.5 -15.5h-40q-196 0 -284.5 81.5t-88.5 218.5q0 71 12.5 134.5t44.5 125t81 106
t126.5 71.5t175.5 27h29q87 0 154 -15t106 -38t63 -55t32 -61.5t6 -61.5h-240q-18 64 -138 64zM308 232q0 -32 34 -54t114 -22q96 0 133.5 28.5t37.5 65.5q0 72 -148 72q-95 0 -133 -27.5t-38 -62.5z" />
    <glyph glyph-name="seven.lintab" 
d="M962 744q-8 -43 -15 -74l-18 -93q-22 -25 -92.5 -106t-107.5 -124q-83 -98 -117 -170t-50 -161l-3 -16h-257l13 71q19 93 60.5 158t153.5 161q191 165 194 182h-369l-24 -130h-227l59 302h800z" />
    <glyph glyph-name="eight.lintab" 
d="M418 -12q-384 0 -384 211q0 85 59 131t147 60q-127 36 -127 142q0 32 8.5 60t33.5 58.5t65.5 51.5t111 35t162.5 14h42q370 0 370 -186q0 -76 -53 -121t-126 -54q60 -15 99 -54t39 -104q0 -34 -8 -64.5t-34 -64.5t-68.5 -58.5t-118.5 -40.5t-176 -16h-42zM662 537
q0 59 -146 59q-162 0 -162 -73q0 -60 146 -60q162 0 162 74zM623 240q0 69 -163 69q-181 0 -181 -85q0 -71 163 -71q181 0 181 87z" />
    <glyph glyph-name="nine.lintab" 
d="M653 510q0 32 -34 54t-114 22q-96 0 -133.5 -28.5t-37.5 -65.5q0 -72 148 -72q94 0 132.5 27.5t38.5 62.5zM446 156q53 0 92.5 17.5t61 48t32 58.5t15.5 60q-93 -68 -250 -68h-17q-149 0 -219.5 58.5t-70.5 153.5q0 52 19.5 97.5t62.5 85.5t122.5 63t188.5 23h40
q197 0 286 -82t89 -220q0 -71 -12.5 -135t-44.5 -125t-80.5 -105t-125 -70.5t-174.5 -26.5h-29q-108 0 -185 22t-114 58t-52 73t-13 78h240q18 -64 138 -64z" />
    <glyph glyph-name="Euro.lintab" 
d="M874 296q-4 -41 -18 -81t-43 -82t-70.5 -73t-106.5 -51t-144 -20h-40q-82 0 -146 22.5t-103.5 62.5t-61.5 87t-30 102h-105l17 86h85q2 38 5 58h-79l17 85h82q36 116 128.5 189.5t248.5 73.5h40q83 0 148 -18t105 -47.5t64.5 -69.5t32.5 -81t4 -85h-227q1 17 -4 36
t-19 40.5t-46.5 35.5t-78.5 14q-109 0 -160 -88h225l-18 -85h-236q-6 -33 -7 -58h232l-16 -86h-210q25 -93 134 -93q44 0 78 13t52.5 35t28 40t14.5 38h228z" />
    <glyph glyph-name="yen.lintab" 
d="M327 150h-238l17 86h238l11 58h-238l17 85h191l-238 365h270l152 -257l255 257h254l-369 -365h191l-17 -85h-237l-12 -58h238l-17 -86h-237l-29 -150h-230z" />
    <glyph glyph-name="sterling.lintab" 
d="M826 0h-838l31 161h81q89 0 89 101q0 32 -4 63h-134l19 96h104q-2 38 -2 58q0 37 6.5 70t29 72t59 66.5t102.5 46.5t153 19h36q70 0 125.5 -9.5t92 -24.5t61.5 -38t38 -45.5t18.5 -51.5t5 -52.5t-4.5 -51.5h-237q5 15 1.5 34t-11.5 36t-36 28.5t-72 11.5
q-73 0 -103.5 -28.5t-37.5 -80.5l-5 -60h306l-20 -96h-291l-5 -45q-6 -48 -32 -79t-59 -40h332l23 111h232z" />
    <glyph glyph-name="dollar.lintab" 
d="M340 533q0 -28 24 -45.5t85 -20.5l27 139q-80 -3 -108 -21.5t-28 -51.5zM625 226q0 36 -24 54.5t-89 22.5l-31 -162q144 6 144 85zM451 -13l-15 -76h-95l15 78q-70 5 -125 19t-87.5 34.5t-55.5 46t-30 52.5t-11 54.5t1 52.5h235q0 -17 2.5 -30t11.5 -29.5t31.5 -28
t57.5 -16.5l32 162h-15q-293 10 -293 213q0 235 389 235h6l15 77h95l-15 -79q81 -4 139.5 -19t90 -37t50 -51t20 -60.5t-0.5 -64.5h-231q0 33 -19 55t-78 29l-27 -140l14 -1q90 -3 150.5 -19.5t93 -46.5t45.5 -66.5t13 -87.5q0 -38 -10 -71.5t-37.5 -68.5t-71.5 -59.5
t-118 -40.5t-171 -16h-1z" />
    <glyph glyph-name="greater.lintab" 
d="M171 78l32 166l394 118l-350 116l29 148l497 -194l-31 -157z" />
    <glyph glyph-name="less.lintab" 
d="M787 626l-32 -166l-395 -118l351 -116l-29 -148l-497 194l30 157z" />
    <glyph glyph-name="plus.lintab" 
d="M545 283l-43 -227h-165l44 227h-227l28 141h226l43 225h165l-44 -225h225l-28 -141h-224z" />
    <glyph glyph-name="minus.lintab" 
d="M792 426l-28 -145h-604l28 145h604z" />
    <glyph glyph-name="multiply.lintab" 
d="M461 238l-203 -168l-90 112l201 166l-139 167l119 99l138 -167l202 167l91 -111l-201 -167l138 -168l-115 -98z" />
    <glyph glyph-name="divide.lintab" 
d="M610 520h-204l32 163h204zM798 424l-28 -141h-616l28 141h616zM513 20h-204l32 164h204z" />
    <glyph glyph-name="equal.lintab" 
d="M784 527l-26 -132h-545l26 132h545zM736 281l-27 -132h-544l26 132h545z" />
    <glyph glyph-name="percent.lintab" 
d="M249 399q-102 0 -147.5 47.5t-45.5 115.5q0 32 10.5 63t33.5 61t66.5 48.5t101.5 18.5h17q102 0 148 -48t46 -115q0 -32 -11 -63t-34 -61t-66.5 -48.5t-101.5 -18.5h-17zM940 744l-774 -744h-148l774 744h148zM258 503q42 0 63 25t21 61q0 63 -65 63q-42 0 -62.5 -25
t-20.5 -61q0 -63 64 -63zM677 -8q-102 0 -147.5 47.5t-45.5 115.5q0 32 10.5 63t33.5 61t66.5 48.5t101.5 18.5h17q102 0 148 -48t46 -115q0 -32 -11 -63t-34 -61t-66.5 -48.5t-101.5 -18.5h-17zM686 96q42 0 63 25t21 61q0 63 -65 63q-42 0 -62.5 -25t-20.5 -61
q0 -63 64 -63z" />
    <glyph glyph-name="perthousand.lintab" 
d="M236 454q-84 0 -124 39.5t-40 95.5q0 70 47.5 117t137.5 47h14q84 0 124 -39.5t40 -95.5q0 -70 -47.5 -117t-136.5 -47h-15zM247 543q32 0 48.5 20t16.5 49q0 52 -51 52q-33 0 -49.5 -20t-16.5 -49q0 -52 52 -52zM770 478l-752 -232l18 97l754 232zM686 -9
q-84 0 -124 39.5t-40 95.5q0 70 47 117t138 47h14q84 0 123.5 -39.5t39.5 -95.5q0 -70 -47 -117t-137 -47h-14zM298 -9q-84 0 -124 39.5t-40 95.5q0 70 47 117t137 47h14q84 0 124 -39.5t40 -95.5q0 -70 -47 -117t-137 -47h-14zM696 80q33 0 49.5 20t16.5 50q0 51 -51 51
q-33 0 -49.5 -20.5t-16.5 -48.5q0 -52 51 -52zM308 80q33 0 49.5 20t16.5 50q0 51 -52 51q-31 0 -48 -20.5t-17 -48.5q0 -52 51 -52z" />
    <glyph glyph-name="IJ.alt" horiz-adv-x="992" 
d="M266 0h-233l145 744h233zM437 192h127q58 0 81.5 27.5t36.5 97.5l83 427h233l-93 -481q-28 -143 -81.5 -203t-175.5 -60h-249z" />
    <glyph glyph-name="a.alt2" horiz-adv-x="839" 
d="M278 267q0 -51 28 -86t86 -35h9q70 0 108 46t38 101q0 49 -28.5 84t-88.5 35h-9q-73 0 -108 -45.5t-35 -99.5zM378 568q133 0 205 -72l12 61h222l-108 -557h-214l13 69q-72 -80 -192 -80h-12q-124 0 -191 74t-67 189q0 57 18.5 111t55.5 101t100.5 75.5t145.5 28.5h12z
" />
    <glyph glyph-name="Jcircumflex.alt" horiz-adv-x="587" 
d="M741 799h-203l-48 65l-72 -65h-214l167 155h259zM32 192h127q58 0 81.5 27.5t36.5 97.5l83 427h233l-93 -481q-28 -143 -81.5 -203t-175.5 -60h-249z" />
    <glyph glyph-name="aacute.alt" horiz-adv-x="779" 
d="M435 769h246l-137 -154h-219zM326 119q66 0 105.5 34t46.5 74l7 35q-46 -12 -118 -22q-68 -10 -94.5 -25t-26.5 -43q0 -24 20.5 -38.5t59.5 -14.5zM81 380q2 24 8 45t27 49.5t53.5 48t92 33.5t138.5 14h33q69 0 122 -8.5t84.5 -23.5t52.5 -35t27 -43t8 -47.5t-5 -48.5
l-33 -169q-23 -114 -11 -195h-215q-7 37 -2 74q-14 -18 -35.5 -34.5t-69 -33.5t-104.5 -17h-16q-102 0 -157.5 46t-55.5 117q0 82 57 130.5t209 57.5l170 11q52 4 52 40q0 23 -20.5 35t-77.5 12h-1q-99 0 -108 -58h-223z" />
    <glyph glyph-name="aacute.alt2" horiz-adv-x="839" 
d="M460 769h246l-137 -154h-219zM278 267q0 -51 28 -86t86 -35h9q70 0 108 46t38 101q0 49 -28.5 84t-88.5 35h-9q-73 0 -108 -45.5t-35 -99.5zM378 568q133 0 205 -72l12 61h222l-108 -557h-214l13 69q-72 -80 -192 -80h-12q-124 0 -191 74t-67 189q0 57 18.5 111t55.5 101
t100.5 75.5t145.5 28.5h12z" />
    <glyph glyph-name="abreve.alt" horiz-adv-x="779" 
d="M326 119q66 0 105.5 34t46.5 74l7 35q-46 -12 -118 -22q-68 -10 -94.5 -25t-26.5 -43q0 -24 20.5 -38.5t59.5 -14.5zM81 380q2 24 8 45t27 49.5t53.5 48t92 33.5t138.5 14h33q69 0 122 -8.5t84.5 -23.5t52.5 -35t27 -43t8 -47.5t-5 -48.5l-33 -169q-23 -114 -11 -195
h-215q-7 37 -2 74q-14 -18 -35.5 -34.5t-69 -33.5t-104.5 -17h-16q-102 0 -157.5 46t-55.5 117q0 82 57 130.5t209 57.5l170 11q52 4 52 40q0 23 -20.5 35t-77.5 12h-1q-99 0 -108 -58h-223zM440 610q-63 0 -106 18t-60.5 47t-23.5 55.5t-4 53.5h156v-12.5t2.5 -13.5
t7.5 -15.5t15 -10t25 -4.5h1q49 0 60 56h156q-2 -26 -13.5 -53.5t-33.5 -56t-63 -46.5t-95 -18h-24z" />
    <glyph glyph-name="abreve.alt2" horiz-adv-x="839" 
d="M278 267q0 -51 28 -86t86 -35h9q70 0 108 46t38 101q0 49 -28.5 84t-88.5 35h-9q-73 0 -108 -45.5t-35 -99.5zM378 568q133 0 205 -72l12 61h222l-108 -557h-214l13 69q-72 -80 -192 -80h-12q-124 0 -191 74t-67 189q0 57 18.5 111t55.5 101t100.5 75.5t145.5 28.5h12z
M465 610q-63 0 -106 18t-60.5 47t-23.5 55.5t-4 53.5h156v-12.5t2.5 -13.5t7.5 -15.5t15 -10t25 -4.5h1q21 0 35 11.5t18.5 22t6.5 22.5h156q-2 -26 -13.5 -53.5t-33.5 -56t-63 -46.5t-95 -18h-24z" />
    <glyph glyph-name="acircumflex.alt" horiz-adv-x="779" 
d="M698 614h-204l-45 66l-68 -66h-215l162 155h261zM326 119q66 0 105.5 34t46.5 74l7 35q-46 -12 -118 -22q-68 -10 -94.5 -25t-26.5 -43q0 -24 20.5 -38.5t59.5 -14.5zM81 380q2 24 8 45t27 49.5t53.5 48t92 33.5t138.5 14h33q69 0 122 -8.5t84.5 -23.5t52.5 -35t27 -43
t8 -47.5t-5 -48.5l-33 -169q-23 -114 -11 -195h-215q-7 37 -2 74q-14 -18 -35.5 -34.5t-69 -33.5t-104.5 -17h-16q-102 0 -157.5 46t-55.5 117q0 82 57 130.5t209 57.5l170 11q52 4 52 40q0 23 -20.5 35t-77.5 12h-1q-99 0 -108 -58h-223z" />
    <glyph glyph-name="acircumflex.alt2" horiz-adv-x="839" 
d="M724 614h-204l-45 66l-68 -66h-215l162 155h261zM278 267q0 -51 28 -86t86 -35h9q70 0 108 46t38 101q0 49 -28.5 84t-88.5 35h-9q-73 0 -108 -45.5t-35 -99.5zM378 568q133 0 205 -72l12 61h222l-108 -557h-214l13 69q-72 -80 -192 -80h-12q-124 0 -191 74t-67 189
q0 57 18.5 111t55.5 101t100.5 75.5t145.5 28.5h12z" />
    <glyph glyph-name="adieresis.alt" horiz-adv-x="779" 
d="M675 613h-213l28 146h213zM408 613h-213l28 146h213zM326 119q66 0 105.5 34t46.5 74l7 35q-46 -12 -118 -22q-68 -10 -94.5 -25t-26.5 -43q0 -24 20.5 -38.5t59.5 -14.5zM81 380q2 24 8 45t27 49.5t53.5 48t92 33.5t138.5 14h33q69 0 122 -8.5t84.5 -23.5t52.5 -35
t27 -43t8 -47.5t-5 -48.5l-33 -169q-23 -114 -11 -195h-215q-7 37 -2 74q-14 -18 -35.5 -34.5t-69 -33.5t-104.5 -17h-16q-102 0 -157.5 46t-55.5 117q0 82 57 130.5t209 57.5l170 11q52 4 52 40q0 23 -20.5 35t-77.5 12h-1q-99 0 -108 -58h-223z" />
    <glyph glyph-name="adieresis.alt2" horiz-adv-x="839" 
d="M701 613h-213l28 146h213zM434 613h-213l28 146h213zM278 267q0 -51 28 -86t86 -35h9q70 0 108 46t38 101q0 49 -28.5 84t-88.5 35h-9q-73 0 -108 -45.5t-35 -99.5zM378 568q133 0 205 -72l12 61h222l-108 -557h-214l13 69q-72 -80 -192 -80h-12q-124 0 -191 74t-67 189
q0 57 18.5 111t55.5 101t100.5 75.5t145.5 28.5h12z" />
    <glyph glyph-name="agrave.alt" horiz-adv-x="779" 
d="M326 119q66 0 105.5 34t46.5 74l7 35q-46 -12 -118 -22q-68 -10 -94.5 -25t-26.5 -43q0 -24 20.5 -38.5t59.5 -14.5zM81 380q2 24 8 45t27 49.5t53.5 48t92 33.5t138.5 14h33q69 0 122 -8.5t84.5 -23.5t52.5 -35t27 -43t8 -47.5t-5 -48.5l-33 -169q-23 -114 -11 -195
h-215q-7 37 -2 74q-14 -18 -35.5 -34.5t-69 -33.5t-104.5 -17h-16q-102 0 -157.5 46t-55.5 117q0 82 57 130.5t209 57.5l170 11q52 4 52 40q0 23 -20.5 35t-77.5 12h-1q-99 0 -108 -58h-223zM326 615l-100 154h241l74 -154h-215z" />
    <glyph glyph-name="agrave.alt2" horiz-adv-x="839" 
d="M278 267q0 -51 28 -86t86 -35h9q70 0 108 46t38 101q0 49 -28.5 84t-88.5 35h-9q-73 0 -108 -45.5t-35 -99.5zM378 568q133 0 205 -72l12 61h222l-108 -557h-214l13 69q-72 -80 -192 -80h-12q-124 0 -191 74t-67 189q0 57 18.5 111t55.5 101t100.5 75.5t145.5 28.5h12z
M353 615l-100 154h241l74 -154h-215z" />
    <glyph glyph-name="amacron.alt" horiz-adv-x="779" 
d="M326 119q66 0 105.5 34t46.5 74l7 35q-46 -12 -118 -22q-68 -10 -94.5 -25t-26.5 -43q0 -24 20.5 -38.5t59.5 -14.5zM81 380q2 24 8 45t27 49.5t53.5 48t92 33.5t138.5 14h33q69 0 122 -8.5t84.5 -23.5t52.5 -35t27 -43t8 -47.5t-5 -48.5l-33 -169q-23 -114 -11 -195
h-215q-7 37 -2 74q-14 -18 -35.5 -34.5t-69 -33.5t-104.5 -17h-16q-102 0 -157.5 46t-55.5 117q0 82 57 130.5t209 57.5l170 11q52 4 52 40q0 23 -20.5 35t-77.5 12h-1q-99 0 -108 -58h-223zM271 751h386l-24 -126h-387z" />
    <glyph glyph-name="amacron.alt2" horiz-adv-x="839" 
d="M299 751h386l-24 -126h-387zM278 267q0 -51 28 -86t86 -35h9q70 0 108 46t38 101q0 49 -28.5 84t-88.5 35h-9q-73 0 -108 -45.5t-35 -99.5zM378 568q133 0 205 -72l12 61h222l-108 -557h-214l13 69q-72 -80 -192 -80h-12q-124 0 -191 74t-67 189q0 57 18.5 111t55.5 101
t100.5 75.5t145.5 28.5h12z" />
    <glyph glyph-name="aogonek.alt" horiz-adv-x="779" 
d="M326 119q66 0 105.5 34t46.5 74l7 35q-46 -12 -118 -22q-68 -10 -94.5 -25t-26.5 -43q0 -24 20.5 -38.5t59.5 -14.5zM81 380q2 24 8 45t27 49.5t53.5 48t92 33.5t138.5 14h33q69 0 122 -8.5t84.5 -23.5t52.5 -35t27 -43t8 -47.5t-5 -48.5l-33 -169q-23 -114 -11 -195
h-215q-7 37 -2 74q-14 -18 -35.5 -34.5t-69 -33.5t-104.5 -17h-16q-102 0 -157.5 46t-55.5 117q0 82 57 130.5t209 57.5l170 11q52 4 52 40q0 23 -20.5 35t-77.5 12h-1q-99 0 -108 -58h-223zM377 -123q0 42 45 69.5t160 53.5h95q-47 -26 -65.5 -40t-18.5 -28q0 -20 35 -20
h39l-20 -102h-150q-120 0 -120 67z" />
    <glyph glyph-name="aogonek.alt2" horiz-adv-x="839" 
d="M408 -123q0 42 45 69.5t160 53.5h95q-47 -26 -65.5 -40t-18.5 -28q0 -20 35 -20h39l-20 -102h-150q-120 0 -120 67zM278 267q0 -51 28 -86t86 -35h9q70 0 108 46t38 101q0 49 -28.5 84t-88.5 35h-9q-73 0 -108 -45.5t-35 -99.5zM378 568q133 0 205 -72l12 61h222
l-108 -557h-214l13 69q-72 -80 -192 -80h-12q-124 0 -191 74t-67 189q0 57 18.5 111t55.5 101t100.5 75.5t145.5 28.5h12z" />
    <glyph glyph-name="aring.alt" horiz-adv-x="779" 
d="M470 873q165 0 165 -120q0 -19 -4 -37t-16 -38.5t-31.5 -35.5t-54 -25t-79.5 -10q-88 0 -126.5 33t-38.5 86q0 25 7.5 48t26 47t57.5 38t94 14zM453 686q36 0 53.5 18.5t17.5 44.5q0 45 -58 45q-34 0 -52 -18.5t-18 -44.5q0 -45 57 -45zM326 119q66 0 105.5 34t46.5 74
l7 35q-46 -12 -118 -22q-68 -10 -94.5 -25t-26.5 -43q0 -24 20.5 -38.5t59.5 -14.5zM81 380q2 24 8 45t27 49.5t53.5 48t92 33.5t138.5 14h33q69 0 122 -8.5t84.5 -23.5t52.5 -35t27 -43t8 -47.5t-5 -48.5l-33 -169q-23 -114 -11 -195h-215q-7 37 -2 74q-14 -18 -35.5 -34.5
t-69 -33.5t-104.5 -17h-16q-102 0 -157.5 46t-55.5 117q0 82 57 130.5t209 57.5l170 11q52 4 52 40q0 23 -20.5 35t-77.5 12h-1q-99 0 -108 -58h-223z" />
    <glyph glyph-name="aring.alt2" horiz-adv-x="839" 
d="M495 873q165 0 165 -120q0 -19 -4 -37t-16 -38.5t-31.5 -35.5t-54 -25t-79.5 -10q-88 0 -126.5 33t-38.5 86q0 25 7.5 48t26 47t57.5 38t94 14zM478 686q36 0 53.5 18.5t17.5 44.5q0 45 -58 45q-34 0 -52 -18.5t-18 -44.5q0 -45 57 -45zM278 267q0 -51 28 -86t86 -35h9
q70 0 108 46t38 101q0 49 -28.5 84t-88.5 35h-9q-73 0 -108 -45.5t-35 -99.5zM378 568q133 0 205 -72l12 61h222l-108 -557h-214l13 69q-72 -80 -192 -80h-12q-124 0 -191 74t-67 189q0 57 18.5 111t55.5 101t100.5 75.5t145.5 28.5h12z" />
    <glyph glyph-name="aringacute.alt" horiz-adv-x="779" 
d="M478 1058h246l-137 -154h-219zM470 873q165 0 165 -120q0 -19 -4 -37t-16 -38.5t-31.5 -35.5t-54 -25t-79.5 -10q-88 0 -126.5 33t-38.5 86q0 25 7.5 48t26 47t57.5 38t94 14zM453 686q36 0 53.5 18.5t17.5 44.5q0 45 -58 45q-34 0 -52 -18.5t-18 -44.5q0 -45 57 -45z
M326 119q66 0 105.5 34t46.5 74l7 35q-46 -12 -118 -22q-68 -10 -94.5 -25t-26.5 -43q0 -24 20.5 -38.5t59.5 -14.5zM81 380q2 24 8 45t27 49.5t53.5 48t92 33.5t138.5 14h33q69 0 122 -8.5t84.5 -23.5t52.5 -35t27 -43t8 -47.5t-5 -48.5l-33 -169q-23 -114 -11 -195h-215
q-7 37 -2 74q-14 -18 -35.5 -34.5t-69 -33.5t-104.5 -17h-16q-102 0 -157.5 46t-55.5 117q0 82 57 130.5t209 57.5l170 11q52 4 52 40q0 23 -20.5 35t-77.5 12h-1q-99 0 -108 -58h-223z" />
    <glyph glyph-name="aringacute.alt2" horiz-adv-x="839" 
d="M503 1058h246l-137 -154h-219zM495 873q165 0 165 -120q0 -19 -4 -37t-16 -38.5t-31.5 -35.5t-54 -25t-79.5 -10q-88 0 -126.5 33t-38.5 86q0 25 7.5 48t26 47t57.5 38t94 14zM478 686q36 0 53.5 18.5t17.5 44.5q0 45 -58 45q-34 0 -52 -18.5t-18 -44.5q0 -45 57 -45z
M278 267q0 -51 28 -86t86 -35h9q70 0 108 46t38 101q0 49 -28.5 84t-88.5 35h-9q-73 0 -108 -45.5t-35 -99.5zM378 568q133 0 205 -72l12 61h222l-108 -557h-214l13 69q-72 -80 -192 -80h-12q-124 0 -191 74t-67 189q0 57 18.5 111t55.5 101t100.5 75.5t145.5 28.5h12z" />
    <glyph glyph-name="atilde.alt" horiz-adv-x="779" 
d="M326 119q66 0 105.5 34t46.5 74l7 35q-46 -12 -118 -22q-68 -10 -94.5 -25t-26.5 -43q0 -24 20.5 -38.5t59.5 -14.5zM81 380q2 24 8 45t27 49.5t53.5 48t92 33.5t138.5 14h33q69 0 122 -8.5t84.5 -23.5t52.5 -35t27 -43t8 -47.5t-5 -48.5l-33 -169q-23 -114 -11 -195
h-215q-7 37 -2 74q-14 -18 -35.5 -34.5t-69 -33.5t-104.5 -17h-16q-102 0 -157.5 46t-55.5 117q0 82 57 130.5t209 57.5l170 11q52 4 52 40q0 23 -20.5 35t-77.5 12h-1q-99 0 -108 -58h-223zM674 805l-16 -84q-17 -104 -100 -104h-2q-44 0 -115 35q-41 21 -54 21t-18 -22
l-8 -40h-123l17 84q17 104 100 104h2q44 0 115 -35q39 -21 54 -21q12 0 18 22l8 40h122z" />
    <glyph glyph-name="atilde.alt2" horiz-adv-x="839" 
d="M278 267q0 -51 28 -86t86 -35h9q70 0 108 46t38 101q0 49 -28.5 84t-88.5 35h-9q-73 0 -108 -45.5t-35 -99.5zM378 568q133 0 205 -72l12 61h222l-108 -557h-214l13 69q-72 -80 -192 -80h-12q-124 0 -191 74t-67 189q0 57 18.5 111t55.5 101t100.5 75.5t145.5 28.5h12z
M698 805l-16 -84q-17 -104 -100 -104h-2q-44 0 -115 35q-41 21 -54 21t-18 -22l-8 -40h-123l17 84q17 104 100 104h2q44 0 115 -35q39 -21 54 -21q12 0 18 22l8 40h122z" />
    <glyph glyph-name="racute.alt" horiz-adv-x="554" 
d="M357 769h246l-137 -154h-219zM131 557h220l-22 -113q34 56 87.5 90.5t148.5 34.5h9l-44 -229q-22 6 -78 6q-76 0 -113 -26t-47 -80l-48 -240h-222z" />
    <glyph glyph-name="rcaron.alt" horiz-adv-x="554" 
d="M123 769h204l44 -65l69 65h215l-162 -154h-261zM131 557h220l-22 -113q34 56 87.5 90.5t148.5 34.5h9l-44 -229q-22 6 -78 6q-76 0 -113 -26t-47 -80l-48 -240h-222z" />
    <glyph glyph-name="rcommaaccent.alt" horiz-adv-x="554" 
d="M44 -286q34 49 47 84h-111l28 145h238l-21 -112q-11 -57 -52 -117h-129zM131 557h220l-22 -113q34 56 87.5 90.5t148.5 34.5h9l-44 -229q-22 6 -78 6q-76 0 -113 -26t-47 -80l-48 -240h-222z" />
    <glyph glyph-name="space_uni0326.alt" horiz-adv-x="700" 
d="M497 843q-34 -48 -47 -85h111l-28 -145h-238l21 113q11 57 52 117h129z" />
    <glyph glyph-name="ordfeminine.alt" horiz-adv-x="671" 
d="M438 364q-14 -22 -58.5 -45t-110.5 -23h-7q-85 0 -130.5 37t-45.5 99q0 61 45 98t160 45l147 10q35 4 35 29q0 36 -73 36h-7q-74 0 -83 -41h-181q15 147 251 147h34q56 0 99 -6t69.5 -17t44.5 -25.5t24 -31.5t8 -35t-4 -36l-29 -151q-17 -80 -10 -150h-177q-6 21 -1 60z
M331 399q49 0 80.5 27t38.5 66l4 17l-113 -16q-40 -6 -55 -19t-15 -34q0 -18 15.5 -29.5t44.5 -11.5z" />
    <glyph glyph-name="ordfeminine.alt2" horiz-adv-x="711" 
d="M297 517q0 -39 20.5 -66.5t61.5 -27.5h5q51 0 79 36t28 81q0 38 -19.5 64.5t-62.5 26.5h-6q-52 0 -79 -35.5t-27 -78.5zM364 759q105 0 161 -56l9 45h187l-85 -444h-186l11 55q-53 -63 -152 -63h-10q-96 0 -149 59t-53 151q0 45 14.5 88t44 81t81 61t117.5 23h10z" />
    <glyph glyph-name="caron.alt" horiz-adv-x="700" 
d="M358 765h182l-59 -162h-170z" />
    <glyph glyph-name="plus.uc" horiz-adv-x="664" 
d="M417 290l-38 -192h-161l37 192h-183l27 141h184l37 191h161l-37 -191h183l-28 -141h-182z" />
    <glyph glyph-name="minus.uc" horiz-adv-x="643" 
d="M607 433l-29 -145h-507l29 145h507z" />
    <glyph glyph-name="multiply.uc" horiz-adv-x="599" 
d="M301 248l-172 -145l-90 111l172 145l-117 142l120 101l115 -144l171 144l91 -111l-172 -145l116 -144l-115 -99z" />
    <glyph glyph-name="divide.uc" horiz-adv-x="660" 
d="M473 494h-199l31 163h200zM624 431l-28 -141h-524l27 141h525zM388 60h-199l32 164h199z" />
    <glyph glyph-name="equal.uc" horiz-adv-x="651" 
d="M630 534l-26 -132h-506l26 132h506zM589 321l-27 -132h-505l25 132h507z" />
    <glyph glyph-name="less.uc" horiz-adv-x="595" 
d="M589 611l-32 -167l-308 -92l272 -92l-29 -148l-419 170l31 157z" />
    <glyph glyph-name="greater.uc" horiz-adv-x="595" 
d="M40 112l32 166l308 92l-272 93l29 148l419 -172l-31 -157z" />
    <glyph glyph-name="questiondown.uc" horiz-adv-x="828" 
d="M781 242q-4 -38 -12 -67t-32 -65.5t-61 -60.5t-104 -41t-157 -17h-47q-100 0 -169.5 15.5t-106.5 44t-52.5 62.5t-15.5 78q0 76 48 129t167 81l66 15q35 9 48.5 22t18.5 40l1 5h219l-8 -39q-7 -33 -15 -53.5t-25.5 -42t-49 -37t-80.5 -28.5l-63 -17q-52 -13 -69 -28
t-17 -36q0 -26 26.5 -39t100.5 -13q138 0 150 92h239zM407 744h251l-39 -203h-251z" />
    <glyph glyph-name="exclamdown.uc" horiz-adv-x="397" 
d="M7 0l175 484h108l-13 -484h-270zM161 744h251l-40 -203h-250z" />
    <glyph glyph-name="hyphen.uc" horiz-adv-x="470" 
d="M433 431l-35 -182h-334l35 182h334z" />
    <glyph glyph-name="endash.uc" horiz-adv-x="816" 
d="M776 415l-30 -149h-680l30 149h680z" />
    <glyph glyph-name="emdash.uc" horiz-adv-x="1234" 
d="M1194 415l-30 -149h-1098l30 149h1098z" />
    <glyph glyph-name="guilsinglleft.uc" horiz-adv-x="376" 
d="M195 506h189l-169 -188l99 -182h-174l-102 186z" />
    <glyph glyph-name="guilsinglright.uc" horiz-adv-x="376" 
d="M192 136h-189l169 191l-99 179h174l102 -184z" />
    <glyph glyph-name="guillemotleft.uc" horiz-adv-x="628" 
d="M173 506h180l-146 -190l86 -180h-166l-89 184zM455 506h180l-160 -194l82 -176h-166l-85 180z" />
    <glyph glyph-name="guillemotright.uc" horiz-adv-x="628" 
d="M462 137h-179l149 190l-84 180h166l87 -184zM183 137h-180l158 195l-84 175h166l87 -180z" />
    <glyph glyph-name="parenleft.uc" horiz-adv-x="380" 
d="M164 -81q-108 189 -108 364q0 76 19 148.5t47.5 128.5t68 107t75.5 85.5t75 63.5h125q-48 -60 -83 -112t-73 -125.5t-58 -159.5t-20 -179q0 -142 52 -321h-120z" />
    <glyph glyph-name="parenright.uc" horiz-adv-x="380" 
d="M249 816q107 -187 107 -364q0 -94 -27 -181t-73 -153.5t-90.5 -113.5t-94.5 -85h-125q49 61 83 112t72.5 125t59 160t20.5 179q0 134 -52 321h120z" />
    <glyph glyph-name="bracketleft.uc" horiz-adv-x="412" 
d="M183 817h295l-24 -118h-123l-129 -662h124l-23 -118h-294z" />
    <glyph glyph-name="bracketright.uc" horiz-adv-x="412" 
d="M-4 37h125l128 662h-125l24 118h294l-175 -898h-294z" />
    <glyph glyph-name="braceleft.uc" horiz-adv-x="410" 
d="M167 -80q-145 0 -145 106q0 33 31.5 86t63 101t31.5 67q0 29 -35 29h-68l23 117h74q24 0 34 10t10 32q0 21 -16.5 101t-16.5 112q0 136 170 136h151l-22 -114h-86q-47 0 -47 -44q0 -13 11 -80t11 -90q0 -53 -26.5 -83t-85.5 -39q78 -15 78 -77q0 -34 -51 -120t-51 -103
q0 -33 48 -33h70l-23 -114h-133z" />
    <glyph glyph-name="braceright.uc" horiz-adv-x="410" 
d="M-26 -80l22 114h86q47 0 47 44q0 13 -11 80.5t-11 91.5q0 53 26.5 82.5t85.5 39.5q-41 8 -59.5 26.5t-18.5 49.5q0 34 51 120t51 102q0 33 -48 33h-70l23 114h133q145 0 145 -105q0 -33 -31.5 -86t-63 -100.5t-31.5 -66.5q0 -17 8 -23.5t27 -6.5h68l-23 -116h-74
q-44 0 -44 -43q0 -21 16.5 -101t16.5 -112q0 -137 -170 -137h-151z" />
    <glyph glyph-name="slash.uc" horiz-adv-x="466" 
d="M105 -81h-168l452 897h168z" />
    <glyph glyph-name="backslash.uc" horiz-adv-x="466" 
d="M261 -81l-164 897h152l163 -897h-151z" />
    <glyph glyph-name="bar.uc" horiz-adv-x="375" 
d="M287 -81h-159v897h159v-897z" />
    <glyph glyph-name="at.uc" horiz-adv-x="1256" 
d="M938 233q-10 -45 28 -45q51 0 95 71t44 194q0 44 -8 77t-33.5 66t-69.5 54t-119 34t-178 13h-10q-492 0 -492 -418q0 -295 403 -295h6q298 0 446 84l30 -99q-44 -31 -164 -58.5t-312 -27.5h-6q-538 0 -538 396q0 75 15.5 142.5t58.5 138.5t110.5 122t181 83.5t261.5 32.5
h10q133 0 231.5 -20t155.5 -51t91 -78.5t45 -92.5t11 -103q0 -164 -84 -265t-239 -101h-11q-134 0 -166 73q-73 -73 -177 -73h-11q-111 0 -171 64.5t-60 166.5q0 49 15.5 95.5t47.5 88t88 66.5t129 25h11q110 0 178 -61l10 51h215zM534 330q0 -44 22.5 -74.5t66.5 -30.5h7
q56 0 87.5 40t31.5 89q0 44 -23 73.5t-69 29.5h-7q-57 0 -86.5 -40t-29.5 -87z" />
    <glyph glyph-name="grave.uc" horiz-adv-x="700" 
d="M247 954h246l74 -153h-223z" />
    <glyph glyph-name="dieresis.uc" horiz-adv-x="700" 
d="M417 801h-216l28 146h216zM689 801h-216l28 146h216z" />
    <glyph glyph-name="macron.uc" horiz-adv-x="700" 
d="M269 940h394l-25 -126h-393z" />
    <glyph glyph-name="acute.uc" horiz-adv-x="700" 
d="M305 801l111 153h248l-132 -153h-227z" />
    <glyph glyph-name="circumflex.uc" horiz-adv-x="700" 
d="M713 799h-203l-48 65l-72 -65h-214l167 155h259z" />
    <glyph glyph-name="caron.uc" horiz-adv-x="700" 
d="M199 954h203l47 -64l73 64h215l-168 -153h-259z" />
    <glyph glyph-name="breve.uc" horiz-adv-x="700" 
d="M437 797q-51 0 -89 12.5t-58.5 30.5t-32 43t-14.5 45.5t-1 41.5h155q0 -55 52 -55h1q22 0 37 11t20 22t7 22h155q-2 -26 -13.5 -53t-34 -55.5t-64 -46.5t-95.5 -18h-25z" />
    <glyph glyph-name="dotaccent.uc" horiz-adv-x="700" 
d="M547 801h-225l28 146h225z" />
    <glyph glyph-name="ring.uc" horiz-adv-x="700" 
d="M460 1058q89 0 128.5 -33t39.5 -86q0 -25 -7.5 -47.5t-26 -46.5t-58 -38.5t-96.5 -14.5q-89 0 -128.5 33t-39.5 86q0 25 7.5 48t26.5 46.5t58.5 38t95.5 14.5zM444 871q36 0 54 18.5t18 44.5q0 45 -60 45q-36 0 -54 -18.5t-18 -44.5q0 -45 60 -45z" />
    <glyph glyph-name="tilde.uc" horiz-adv-x="700" 
d="M686 990l-17 -85q-17 -101 -104 -101h-2q-45 0 -120 34q-45 21 -60 21q-14 0 -19 -25l-8 -37h-122l16 84q7 43 32 72.5t73 29.5h2q37 0 120 -34q45 -21 59 -21q15 0 20 24l7 38h123z" />
    <glyph glyph-name="hungarumlaut.uc" horiz-adv-x="700" 
d="M291 954h201l-87 -153h-198zM554 954h203l-95 -153h-198z" />
    <glyph glyph-name="emdash.altuc" horiz-adv-x="2331" 
d="M2262 266h-2196l30 149h2195z" />
    <glyph glyph-name="f.short" horiz-adv-x="522" 
d="M554 629h-77q-21 0 -31 -9.5t-15 -32.5l-6 -30h115l-31 -154h-113l-79 -403h-220l79 403h-115l30 154h114l8 37q8 41 18.5 68t31 50.5t54.5 34t84 10.5h178z" />
    <glyph glyph-name="f_f.short" horiz-adv-x="970" 
d="M97 0l79 403h-115l30 154h114l8 37q8 41 18.5 68t31 50.5t54.5 34t84 10.5h181l-25 -128h-80q-21 0 -31 -9.5t-15 -32.5l-6 -30h228l8 37q8 41 18.5 68t31 50.5t54.5 34t84 10.5h178l-25 -128h-77q-21 0 -31 -9.5t-15 -32.5l-6 -30h115l-31 -154h-113l-79 -403h-220
l79 403h-228l-79 -403h-220z" />
    <glyph glyph-name="j.short" horiz-adv-x="375" 
d="M364 613h-224l28 146h224zM-17 -36q20 0 27.5 9.5t13.5 34.5l107 549h222l-117 -597q-15 -75 -45 -112.5t-88 -37.5h-197l29 154h48z" />
    <glyph glyph-name="divide.uctab" 
d="M611 527h-204l32 163h204zM799 431l-28 -141h-616l28 141h616zM514 27h-204l32 164h204z" />
    <glyph glyph-name="equal.uctab" 
d="M785 534l-26 -132h-545l26 132h545zM737 288l-27 -132h-544l26 132h545z" />
    <glyph glyph-name="florin.tab" 
d="M551 311l-131 -501h-216l130 501h-215l29 151h225l27 105q24 94 65 135.5t138 41.5h288l-30 -152h-187q-30 0 -42.5 -11.5t-21.5 -42.5l-20 -76h246l-30 -151h-255z" />
    <glyph glyph-name="greater.uctab" 
d="M172 85l32 166l394 118l-350 116l29 148l497 -194l-31 -157z" />
    <glyph glyph-name="less.uctab" 
d="M788 633l-32 -166l-395 -118l351 -116l-29 -148l-497 194l30 157z" />
    <glyph glyph-name="minus.uctab" 
d="M792 433l-28 -145h-604l28 145h604z" />
    <glyph glyph-name="multiply.uctab" 
d="M462 245l-203 -168l-90 112l201 166l-139 167l119 99l138 -167l202 167l91 -111l-201 -167l138 -168l-115 -98z" />
    <glyph glyph-name="plus.uctab" 
d="M546 290l-43 -227h-165l44 227h-227l28 141h226l43 225h165l-44 -225h225l-28 -141h-224z" />
    </font>
</defs>
</svg>
