<?xml version="1.0" standalone="no"?>
<!DOCTYPE svg PUBLIC "-//W3C//DTD SVG 1.1//EN" "http://www.w3.org/Graphics/SVG/1.1/DTD/svg11.dtd" >
<svg xmlns="http://www.w3.org/2000/svg" xmlns:xlink="http://www.w3.org/1999/xlink" version="1.1">
<metadata>
Created by FontForge 20170731 at Thu Jun 23 01:33:30 2016
 By Aleksey,,,
Copyright (c) 2015 Berton Hasebe, under exclusive license to Schwartzco Inc./ Commercial Type. All rights reserved.
</metadata>
<defs>
<font id="DrukTextWide-Bold" horiz-adv-x="920" >
  <font-face 
    font-family="Druk Text Wide"
    font-weight="700"
    font-stretch="expanded"
    units-per-em="1000"
    panose-1="0 0 0 0 0 0 0 0 0 0"
    ascent="813"
    descent="-187"
    x-height="557"
    cap-height="744"
    bbox="-65 -286 2315 1243"
    underline-thickness="91"
    underline-position="-200"
    unicode-range="U+000D-FB02"
  />
<missing-glyph horiz-adv-x="296" 
 />
    <glyph glyph-name="f_t" unicode="ft" horiz-adv-x="1012" 
d="M380 403v-403h-224v403h-119v154h119v36q0 84 38.5 124t140.5 40h160v-129h-73q-22 0 -32 -10t-10 -33v-28h234v168h225v-168h121v-154h-121v-179q0 -33 11.5 -46t44.5 -13h65v-165h-198q-69 0 -108.5 38t-39.5 111v254h-234z" />
    <glyph glyph-name="f_f_t" unicode="fft" horiz-adv-x="1470" 
d="M380 403v-403h-224v403h-119v154h119v36q0 84 38.5 124t140.5 40h165v-129h-78q-22 0 -32 -10t-10 -33v-28h234v36q0 83 39 123.5t141 40.5h160v-129h-74q-22 0 -31.5 -10t-9.5 -33v-28h234v168h224v-168h121v-154h-121v-179q0 -33 11.5 -46t45.5 -13h64v-165h-197
q-69 0 -108.5 38t-39.5 111v254h-234v-403h-225v403h-234z" />
    <glyph glyph-name="f_f" unicode="ff" horiz-adv-x="997" 
d="M156 0v403h-119v154h119v36q0 84 38.5 124t140.5 40h165v-129h-78q-22 0 -32 -10t-10 -33v-28h234v36q0 83 39 123.5t141 40.5h165v-129h-79q-22 0 -31.5 -10t-9.5 -33v-28h120v-154h-120v-403h-225v403h-234v-403h-224z" />
    <glyph glyph-name="f_i" unicode="fi" horiz-adv-x="919" 
d="M841 613h-229v146h229v-146zM840 0h-227v557h227v-557zM498 628h-76q-22 0 -32 -10t-10 -33v-28h118v-154h-118v-403h-224v403h-119v154h119v36q0 84 38.5 124t140.5 40h163v-129z" />
    <glyph glyph-name="f_l" unicode="fl" horiz-adv-x="919" 
d="M498 628h-76q-22 0 -32 -10t-10 -33v-28h118v-154h-118v-403h-224v403h-119v154h119v36q0 84 38.5 124t140.5 40h163v-129zM840 0h-227v757h227v-757z" />
    <glyph glyph-name="emdash.alt" unicode="&#x2014;&#x2014;" horiz-adv-x="2384" 
d="M2315 225h-2246v150h2246v-150z" />
    <glyph glyph-name=".notdef" horiz-adv-x="296" 
 />
    <glyph glyph-name=".null" horiz-adv-x="0" 
 />
    <glyph glyph-name="nonmarkingreturn" horiz-adv-x="333" 
 />
    <glyph glyph-name="NULL" horiz-adv-x="0" 
 />
    <glyph glyph-name="NULL" horiz-adv-x="0" 
 />
    <glyph glyph-name="CR" unicode="&#xd;" horiz-adv-x="296" 
 />
    <glyph glyph-name="space" unicode=" " horiz-adv-x="296" 
 />
    <glyph glyph-name="exclam" unicode="!" horiz-adv-x="406" 
d="M341 744l-83 -488h-110l-84 488h277zM326 0h-245v196h245v-196z" />
    <glyph glyph-name="quotedbl" unicode="&#x22;" horiz-adv-x="629" 
d="M551 434h-188v310h188v-310zM266 434h-188v310h188v-310z" />
    <glyph glyph-name="numbersign" unicode="#" horiz-adv-x="830" 
d="M499 458h-138l-32 -138h139zM440 197h-139l-46 -197h-155l44 197h-120l29 123h119l31 138h-119l28 123h119l37 163h159l-37 -163h138l37 163h160l-38 -163h119l-29 -123h-118l-32 -138h118l-29 -123h-118l-45 -197h-158z" />
    <glyph glyph-name="dollar" unicode="$" horiz-adv-x="975" 
d="M308 539q0 -30 26.5 -48.5t103.5 -21.5v134q-78 -4 -104 -18.5t-26 -44.5v-1zM672 229q0 33 -28 51t-109 21v-157q83 5 110 27t27 57v1zM438 -89v77q-382 12 -382 251v9h251q2 -16 5.5 -27.5t15.5 -29t40 -29.5t70 -17v159h-32q-99 3 -168 21.5t-106 51t-52.5 70
t-15.5 86.5v9q0 45 16 80t55.5 65t116 47t186.5 19v78h97v-78q93 -2 162 -17t108 -36t62 -51.5t30 -58t7 -61.5v-8h-246q-3 15 -7.5 24.5t-16.5 22.5t-37 21.5t-62 12.5v-136l35 -1q103 -3 173 -20t107.5 -48.5t52.5 -69.5t15 -91v-12q0 -37 -8 -67t-32.5 -62t-65 -54
t-111.5 -37t-166 -16v-77h-97z" />
    <glyph glyph-name="percent" unicode="%" horiz-adv-x="1389" 
d="M300 319q-77 0 -131.5 21t-80.5 55t-37 66.5t-11 67.5v17q0 27 6 52.5t23.5 54.5t45 50t75.5 35t110 14h20q77 0 132 -20t81 -53.5t37 -65.5t11 -67v-17q0 -27 -6 -53t-23.5 -55.5t-45 -51t-75.5 -36t-111 -14.5h-20zM1135 744l-697 -744h-186l697 744h186zM416 541
q0 39 -26.5 64t-79.5 25t-78.5 -24.5t-25.5 -64.5v-5q0 -39 26 -65t78 -26q53 0 79.5 26t26.5 64v6zM1068 -8q-77 0 -132 21t-81 55.5t-37 67.5t-11 68v16q0 27 6 52t23.5 54t45 50.5t75.5 35.5t111 14h19q63 0 111.5 -14t76 -35.5t45 -50.5t23.5 -54t6 -52v-16
q0 -27 -6 -53t-23.5 -56t-45 -52t-76 -36.5t-111.5 -14.5h-19zM1077 303q-53 0 -78.5 -24t-25.5 -64v-5q0 -39 26 -65.5t78 -26.5q53 0 79.5 26t26.5 65v6q0 39 -26 63.5t-80 24.5z" />
    <glyph glyph-name="ampersand" unicode="&#x26;" horiz-adv-x="1066" 
d="M388 566q0 -25 20 -48t70 -61q114 36 114 99q0 71 -106 71q-98 0 -98 -61zM464 132q74 0 127 12l-254 186q-57 -34 -57 -85v-3q0 -46 46 -78t138 -32zM988 -11q-157 0 -253 54q-115 -56 -280 -56q-114 0 -197.5 16.5t-130.5 46.5t-68.5 67t-21.5 82v10q0 145 220 185
q-51 44 -74.5 84t-23.5 89v7q0 35 14 65t46.5 58t95.5 44t151 16h40q292 0 292 -181v-5q0 -66 -57 -113.5t-176 -68.5l182 -137q50 80 52 182h213q-5 -143 -111 -261q49 -10 148 -10z" />
    <glyph glyph-name="quotesingle" unicode="'" horiz-adv-x="346" 
d="M269 433h-191v311h191v-311z" />
    <glyph glyph-name="parenleft" unicode="(" horiz-adv-x="389" 
d="M235 341q0 -131 38 -253.5t96 -218.5h-125q-191 217 -191 472q0 258 191 467h125q-59 -92 -96.5 -213.5t-37.5 -253.5z" />
    <glyph glyph-name="parenright" unicode=")" horiz-adv-x="390" 
d="M154 341q0 132 -37.5 253.5t-96.5 213.5h126q191 -209 191 -467q0 -255 -191 -472h-126q134 222 134 472z" />
    <glyph glyph-name="asterisk" unicode="*" horiz-adv-x="530" 
d="M339 334h-147l34 139l-119 -89l-57 113l149 42l-149 42l57 113l119 -88l-34 138h147l-33 -138l119 88l55 -113l-149 -42l149 -42l-55 -113l-119 89z" />
    <glyph glyph-name="plus" unicode="+" horiz-adv-x="679" 
d="M422 250v-191h-165v191h-188v143h188v190h165v-190h187v-143h-187z" />
    <glyph glyph-name="comma" unicode="," horiz-adv-x="386" 
d="M118 -149q49 79 63 149h-117v209h258v-161q0 -91 -59 -197h-145z" />
    <glyph glyph-name="hyphen" unicode="-" horiz-adv-x="481" 
d="M412 391v-182h-343v182h343z" />
    <glyph glyph-name="period" unicode="." horiz-adv-x="386" 
d="M322 0h-258v209h258v-209z" />
    <glyph glyph-name="slash" unicode="/" horiz-adv-x="476" 
d="M146 -131h-164l320 939h166z" />
    <glyph glyph-name="zero" unicode="0" horiz-adv-x="1038" 
d="M541 756q106 0 187.5 -25.5t128 -63.5t75.5 -89.5t38.5 -96.5t9.5 -92v-30q0 -46 -9.5 -91t-39 -97.5t-76 -91.5t-127.5 -65t-187 -26h-44q-106 0 -187 26t-127.5 65t-76 91.5t-39 97.5t-9.5 91v30q0 33 5 65t18 69t33.5 69.5t55 63t79 52.5t108.5 35t140 13h44zM731 382
q0 22 -4 44t-18 49.5t-36 47.5t-62 33.5t-92 13.5q-53 0 -93.5 -14t-62.5 -33.5t-35 -47t-17 -49t-4 -44.5v-13q0 -23 4.5 -45.5t18 -50t36 -48.5t62.5 -35t92 -14t92 14t62 34.5t35.5 48.5t17.5 50.5t4 45.5v13z" />
    <glyph glyph-name="one" unicode="1" horiz-adv-x="557" 
d="M49 462v163q115 0 164.5 25t72.5 94h180v-744h-237v462h-180z" />
    <glyph glyph-name="two" unicode="2" horiz-adv-x="931" 
d="M59 0v119q0 48 9 82t39 73.5t95.5 73t168.5 62.5l113 31q77 19 102.5 36t25.5 42v1q0 31 -30 48t-111 17q-49 0 -82 -11t-47 -30.5t-18 -32.5t-6 -32h-246v7q0 35 7 67t30.5 70t62 65.5t108.5 46.5t163 19h50q105 0 179 -17.5t114.5 -50.5t58.5 -73.5t18 -92.5v-8
q0 -98 -71 -148t-242 -81q-96 -19 -117 -24q-169 -35 -169 -70h615v-189h-820z" />
    <glyph glyph-name="three" unicode="3" horiz-adv-x="941" 
d="M435 -11q-97 0 -171 19.5t-114 47.5t-65 66t-32 67t-7 58v11h248q13 -89 169 -89q175 0 175 78v1q0 57 -92 57h-229v160h228q83 0 83 52q0 19 -8.5 31.5t-48 23.5t-111.5 11q-44 0 -76 -6.5t-47 -13.5t-25 -20t-11 -18t-3 -14h-242v12q0 17 2.5 34t12 41t25 44.5t44 41.5
t65.5 36t93.5 24.5t124.5 9.5h58q384 0 384 -190v-7q0 -55 -33 -88.5t-84 -47.5q59 -14 100 -56.5t41 -114.5v-6q0 -38 -9 -70.5t-36 -67.5t-70 -60t-118 -41t-174 -16h-47z" />
    <glyph glyph-name="four" unicode="4" horiz-adv-x="970" 
d="M49 296l414 453h304v-424h164v-174h-164v-151h-236v151h-482v145zM531 595l-245 -270h245v270z" />
    <glyph glyph-name="five" unicode="5" horiz-adv-x="916" 
d="M447 -11q-96 0 -168.5 17.5t-111 42t-62 58t-30 58t-6.5 48.5v13h250q1 -6 4 -12t13.5 -15t25.5 -15.5t43 -11t65 -4.5q157 0 157 84v5q0 80 -157 80q-58 0 -94.5 -11t-46.5 -20.5t-12 -19.5h-237v458h733v-178h-497v-130q80 58 219 58h11q75 0 133 -14t92.5 -36.5
t56 -53.5t29.5 -62t8 -66v-12q0 -36 -8.5 -69t-34 -69t-65.5 -62.5t-109.5 -43.5t-159.5 -17h-41z" />
    <glyph glyph-name="six" unicode="6" horiz-adv-x="979" 
d="M476 -11q-105 0 -184 26.5t-122 65t-70 91.5t-34.5 95.5t-7.5 88.5v24q0 42 8 84.5t34.5 96.5t69.5 95t121 69t181 28h35q95 0 167 -15t114 -38t68 -55t34.5 -61t8.5 -61v-1h-244q-19 62 -159 62q-49 0 -85.5 -13t-56.5 -31t-32 -43.5t-15.5 -45.5t-3.5 -41v-7
q79 67 261 67h18q182 0 263 -59t81 -150v-17q0 -35 -8.5 -66.5t-34.5 -67.5t-68 -61.5t-116 -42.5t-172 -17h-51zM327 240q0 -82 176 -82q177 0 177 81v4q0 78 -177 78q-176 0 -176 -78v-3z" />
    <glyph glyph-name="seven" unicode="7" horiz-adv-x="900" 
d="M850 744v-167q-105 -150 -156 -228q-68 -106 -86.5 -174.5t-18.5 -158.5v-16h-260v70q0 95 26 158t123 163q15 15 36 37t34 35.5t29.5 30t26 27t18.5 21t13 16.5t4 9h-341v-125h-235v302h787z" />
    <glyph glyph-name="eight" unicode="8" horiz-adv-x="964" 
d="M460 -12q-408 0 -408 224v11q0 66 49.5 110t122.5 57q-64 10 -108.5 50.5t-44.5 99.5v10q0 28 5.5 50.5t28.5 52.5t62.5 50t115 34t177.5 14h43q102 0 177.5 -14t115 -34t63 -49.5t29 -52.5t5.5 -51v-10q0 -59 -44 -99.5t-108 -50.5q75 -13 122.5 -56.5t47.5 -110.5v-11
q0 -24 -5 -45.5t-19 -48.5t-43 -49t-72 -41t-112 -29.5t-157 -10.5h-43zM641 530q0 63 -160 63t-160 -63v-3q0 -62 160 -62q66 0 103.5 10t47 22.5t9.5 29.5v3zM660 234q0 21 -11 35t-52.5 26t-115.5 12t-115.5 -12t-52 -26t-10.5 -35v-2q0 -75 178 -75q179 0 179 75v2z" />
    <glyph glyph-name="nine" unicode="9" horiz-adv-x="979" 
d="M652 502q0 82 -177 82q-176 0 -176 -81v-4q0 -78 176 -78q177 0 177 78v3zM472 -11q-95 0 -167.5 15.5t-113.5 39t-67 56t-34.5 60.5t-8.5 58v1h243q1 -6 4 -11.5t13.5 -15.5t26 -16.5t46 -12t69.5 -5.5q49 0 85.5 12.5t56.5 31t32 43.5t15.5 45t3.5 42v7
q-14 -10 -19 -13.5t-30.5 -16t-49.5 -19t-68 -12.5t-94 -6h-18q-182 0 -263 60t-81 156v16q0 28 6 54t21 55.5t44.5 53.5t71.5 44t106.5 31t145.5 11h58q104 0 182 -26t121 -64t69.5 -91t34.5 -95.5t8 -88.5v-23q0 -44 -7.5 -87.5t-33.5 -98t-68 -94.5t-119.5 -68
t-180.5 -28h-40z" />
    <glyph glyph-name="colon" unicode=":" horiz-adv-x="396" 
d="M327 0h-258v209h258v-209zM327 331h-258v209h258v-209z" />
    <glyph glyph-name="semicolon" unicode=";" horiz-adv-x="396" 
d="M123 -149q49 79 63 149h-117v209h258v-161q0 -91 -59 -197h-145zM327 331h-258v209h258v-209z" />
    <glyph glyph-name="less" unicode="&#x3c;" horiz-adv-x="608" 
d="M73 243v157l462 172v-158l-296 -93l296 -92v-156z" />
    <glyph glyph-name="equal" unicode="=" horiz-adv-x="666" 
d="M592 496v-134h-518v134h518zM592 283v-134h-518v134h518z" />
    <glyph glyph-name="greater" unicode="&#x3e;" horiz-adv-x="608" 
d="M73 229l295 92l-295 93v158l462 -172v-157l-462 -170v156z" />
    <glyph glyph-name="question" unicode="?" horiz-adv-x="847" 
d="M281 256v44q0 63 29.5 98t118.5 64l53 17q46 15 62 27.5t16 31.5q0 25 -28 39t-108 14q-46 0 -76 -9t-42 -24t-16.5 -26.5t-5.5 -25.5v-4h-245v13q0 32 5 59t26.5 62t57.5 59t105 41t163 17h49q359 0 359 -210v-9q0 -71 -44.5 -117.5t-146.5 -75.5l-50 -15
q-34 -10 -46 -22.5t-12 -38.5v-9h-224zM516 0h-245v196h245v-196z" />
    <glyph glyph-name="at" unicode="@" horiz-adv-x="1285" 
d="M640 -166q-119 0 -213 18t-156.5 52t-106 76t-67 96t-33 105.5t-9.5 111.5v12q0 75 16.5 137.5t58.5 120.5t107.5 98t169 64t237.5 24h10q113 0 203.5 -14.5t150 -37t102.5 -57t65.5 -67t35.5 -75t16 -72.5t3 -69v-9q0 -47 -9 -89t-31 -83.5t-56 -71t-88 -48t-123 -18.5
h-11q-138 0 -173 77q-11 -15 -29.5 -29.5t-63 -31t-99.5 -16.5h-10q-62 0 -108.5 21.5t-72 57t-36.5 78t-8 88.5q0 4 2 28t2 28q9 87 66.5 145.5t163.5 58.5h12q124 0 197 -73l7 64h223l-38 -351q-5 -42 32 -42q54 0 88.5 58t34.5 151v4q0 26 -1 43t-5 44t-12 44.5t-24 41
t-38 39t-56.5 31.5t-77.5 26t-102.5 16t-131.5 6h-10q-106 0 -186.5 -17.5t-130.5 -47.5t-80.5 -75t-42.5 -93.5t-12 -108.5v-12q0 -57 10 -104t39.5 -94.5t78 -80.5t130 -53.5t190.5 -20.5q136 0 243.5 17t149.5 32.5t68 32.5l33 -105q-26 -17 -71.5 -32.5t-160 -32
t-262.5 -16.5zM739 303q2 47 -21 74t-73 27h-1q-51 0 -77 -28.5t-28 -75.5l-1 -14q-4 -45 17 -77t70 -32h1q55 0 82.5 32t29.5 83z" />
    <glyph glyph-name="A" unicode="A" horiz-adv-x="1008" 
d="M494 571l-122 -278h247zM692 129h-393l-57 -129h-239l338 744h315l349 -744h-255z" />
    <glyph glyph-name="B" unicode="B" horiz-adv-x="1029" 
d="M88 744h583q147 0 209.5 -49.5t62.5 -125.5v-9q0 -66 -44.5 -104t-96.5 -45q33 -5 62.5 -17t57.5 -32.5t44 -55t16 -79.5v-10q0 -45 -15 -81.5t-48.5 -68.5t-96 -49.5t-149.5 -17.5h-585v744zM327 579v-120h290q78 0 78 59v2q0 59 -78 59h-290zM327 305v-132h309
q88 0 88 67v4q0 61 -88 61h-309z" />
    <glyph glyph-name="C" unicode="C" horiz-adv-x="1041" 
d="M503 -12q-104 0 -185.5 24.5t-129.5 62.5t-79.5 89.5t-42.5 98.5t-11 96v30q0 50 11 97t42 97.5t79.5 87.5t129.5 61t186 24h46q101 0 180 -18.5t127 -48.5t78.5 -70.5t42 -80.5t11.5 -83v-5h-246q-2 10 -5 20t-17.5 29.5t-35.5 33.5t-62.5 25t-95.5 11
q-63 0 -108.5 -16.5t-69 -45t-34 -59.5t-10.5 -66v-13q0 -33 10.5 -64.5t34.5 -61.5t69.5 -48t108.5 -18q54 0 95 11t62.5 25.5t35.5 34t17 30t5 20.5h246v-6q0 -41 -11 -80t-42 -81t-78 -72.5t-126.5 -50.5t-181.5 -20h-46z" />
    <glyph glyph-name="D" unicode="D" horiz-adv-x="1038" 
d="M88 744h410q115 0 203 -21.5t140.5 -55t86 -81t45.5 -93.5t12 -98v-30q0 -365 -486 -365h-411v744zM327 179h150q68 0 117.5 13t76 31.5t42 46.5t19.5 50.5t4 51.5v6q0 27 -4 49.5t-19.5 49.5t-42.5 45.5t-76.5 31t-116.5 12.5h-150v-387z" />
    <glyph glyph-name="E" unicode="E" horiz-adv-x="877" 
d="M801 744v-171h-476v-108h461v-177h-461v-115h482v-173h-719v744h713z" />
    <glyph glyph-name="F" unicode="F" horiz-adv-x="860" 
d="M795 744v-175h-469v-121h455v-179h-455v-269h-238v744h707z" />
    <glyph glyph-name="G" unicode="G" horiz-adv-x="1079" 
d="M491 -11q-97 0 -173.5 23t-125 60t-80 87t-44.5 100.5t-13 103.5v24q0 52 12.5 100.5t45 98.5t82.5 86.5t131.5 59.5t185.5 23h34q127 0 219 -25.5t139.5 -67t68.5 -85.5t21 -91v-3h-249q-39 88 -215 88q-122 0 -174.5 -54t-52.5 -135v-12q0 -37 12 -70t37 -62.5t72 -47
t110 -17.5q59 0 102.5 12t65 30.5t30.5 33t12 26.5h-208v136h467v-411h-178q-5 42 -30 99q-96 -110 -287 -110h-17z" />
    <glyph glyph-name="H" unicode="H" horiz-adv-x="1049" 
d="M88 744h239v-269h395v269h239v-744h-239v290h-395v-290h-239v744z" />
    <glyph glyph-name="I" unicode="I" horiz-adv-x="415" 
d="M327 0h-239v744h239v-744z" />
    <glyph glyph-name="J" unicode="J" horiz-adv-x="900" 
d="M407 -12q-89 0 -157 22.5t-107.5 57t-64 81t-33 88t-8.5 85.5v5h243q1 -22 7 -43t19.5 -46t43.5 -40.5t72 -15.5h4q152 0 152 169v393h239v-399q0 -47 -8 -91t-32.5 -94.5t-64 -87t-109 -60.5t-160.5 -24h-36z" />
    <glyph glyph-name="K" unicode="K" horiz-adv-x="956" 
d="M88 0v744h238v-297l327 297h290l-377 -338l398 -406h-306l-332 341v-341h-238z" />
    <glyph glyph-name="L" unicode="L" horiz-adv-x="826" 
d="M327 744v-550h450v-194h-689v744h239z" />
    <glyph glyph-name="M" unicode="M" horiz-adv-x="1251" 
d="M88 744h324l219 -463l224 463h308v-744h-234v475l-223 -475h-166l-222 475v-475h-230v744z" />
    <glyph glyph-name="N" unicode="N" horiz-adv-x="1070" 
d="M321 454v-454h-233v744h244l418 -446v446h232v-744h-231z" />
    <glyph glyph-name="O" unicode="O" horiz-adv-x="1081" 
d="M563 756q107 0 190.5 -23.5t133.5 -60t82.5 -86.5t44.5 -98t12 -99v-30q0 -51 -12 -99t-44 -98.5t-82 -88t-134 -61.5t-191 -24h-45q-107 0 -190.5 24t-133.5 61.5t-82.5 88t-44.5 98.5t-12 99v30q0 51 12 99t44.5 98t82.5 86.5t133.5 60t190.5 23.5h45zM777 381
q0 35 -9.5 64.5t-33.5 59.5t-73.5 47.5t-119.5 17.5q-71 0 -120.5 -17.5t-73.5 -47.5t-33.5 -59.5t-9.5 -64.5v-13q0 -34 10 -64.5t34.5 -61t74 -48.5t118.5 -18q70 0 119.5 18t73.5 48.5t33.5 60.5t9.5 65v13z" />
    <glyph glyph-name="P" unicode="P" horiz-adv-x="990" 
d="M327 230v-230h-239v744h524q93 0 159 -18t102 -52.5t52 -77.5t16 -101v-12q0 -119 -75 -186t-254 -67h-285zM327 408h265q101 0 101 78v3q0 76 -101 76h-265v-157z" />
    <glyph glyph-name="Q" unicode="Q" horiz-adv-x="1082" 
d="M447 -9q-92 8 -163 35.5t-113 65t-69.5 85.5t-37 92t-9.5 90v30q0 50 11 97t42.5 97.5t81 87.5t134.5 61t195 24h44q110 0 195 -24t134.5 -61t81 -87.5t42.5 -97.5t11 -97v-30q0 -44 -8.5 -85.5t-32.5 -88t-61.5 -83t-100.5 -66t-144 -40.5l123 -151h-356v146zM778 381
q0 34 -9.5 63.5t-33 59.5t-73.5 48t-121 18t-121 -17.5t-74 -47.5t-33.5 -59.5t-9.5 -64.5v-13q0 -34 10 -64.5t34.5 -61t74 -49t119.5 -18.5q57 0 100.5 12.5t69 32t41 46.5t21 51t5.5 51v13z" />
    <glyph glyph-name="R" unicode="R" horiz-adv-x="1024" 
d="M327 425h281q96 0 96 71v2q0 68 -96 68h-281v-141zM791 358q168 -32 168 -185v-97q0 -52 12 -71v-5h-247q-6 10 -6 49v62q0 72 -31 101.5t-109 29.5h-251v-242h-239v744h552q80 0 139 -13t91.5 -32t52 -47.5t25 -53t5.5 -55.5v-9q0 -70 -45.5 -115.5t-116.5 -60.5z" />
    <glyph glyph-name="S" unicode="S" horiz-adv-x="957" 
d="M469 -13q-413 0 -413 251v9h258q9 -97 164 -97h6q98 0 131 21.5t33 56.5q0 33 -30 50t-116 19l-102 3q-335 10 -335 222v9q0 50 17 87.5t58 69.5t120 49t194 17h38q99 0 172.5 -14t115.5 -35t67 -52.5t32.5 -60.5t7.5 -64v-8h-254q-12 76 -157 76h-9q-89 0 -121 -15.5
t-32 -45.5q0 -29 29.5 -45.5t108.5 -18.5l105 -3q101 -3 170 -19.5t106 -47t52 -67.5t15 -87v-12q0 -39 -8 -70.5t-33.5 -66t-68 -58t-117.5 -38.5t-177 -15h-27z" />
    <glyph glyph-name="T" unicode="T" horiz-adv-x="916" 
d="M339 556h-293v188h824v-188h-293v-556h-238v556z" />
    <glyph glyph-name="U" unicode="U" horiz-adv-x="1055" 
d="M515 -11q-82 0 -148.5 14t-110.5 37t-76.5 56.5t-50.5 66.5t-28.5 74t-13.5 72.5t-3 68.5v366h238v-363q0 -195 205 -195h5q64 0 106.5 17.5t62 49.5t26.5 61.5t7 66.5v363h238v-366q0 -36 -3.5 -68.5t-15 -73t-30 -74t-51.5 -66.5t-76.5 -56t-108 -37t-143.5 -14h-29z
" />
    <glyph glyph-name="V" unicode="V" horiz-adv-x="1011" 
d="M361 0l-355 744h277l234 -530l234 530h254l-340 -744h-304z" />
    <glyph glyph-name="W" unicode="W" horiz-adv-x="1384" 
d="M265 0l-255 744h256l154 -512l151 512h264l150 -513l154 513h235l-248 -744h-282l-151 492l-150 -492h-278z" />
    <glyph glyph-name="X" unicode="X" horiz-adv-x="976" 
d="M486 240l-203 -240h-281l315 382l-306 362h299l187 -225l187 225h273l-299 -361l316 -383h-287z" />
    <glyph glyph-name="Y" unicode="Y" horiz-adv-x="966" 
d="M370 269l-379 475h293l214 -279l215 279h262l-367 -476v-268h-238v269z" />
    <glyph glyph-name="Z" unicode="Z" horiz-adv-x="935" 
d="M71 0v157l444 400h-441v187h787v-156l-463 -399h467v-189h-794z" />
    <glyph glyph-name="bracketleft" unicode="[" horiz-adv-x="422" 
d="M79 808h301v-119h-127v-701h127v-119h-301v939z" />
    <glyph glyph-name="backslash" unicode="\" horiz-adv-x="476" 
d="M330 -131l-322 939h166l320 -939h-164z" />
    <glyph glyph-name="bracketright" unicode="]" horiz-adv-x="422" 
d="M42 -12h128v701h-128v119h301v-939h-301v119z" />
    <glyph glyph-name="asciicircum" unicode="^" horiz-adv-x="699" 
d="M350 599l-126 -208h-206l220 353h223l220 -353h-206z" />
    <glyph glyph-name="underscore" unicode="_" horiz-adv-x="724" 
d="M23 -30h679v-149h-679v149z" />
    <glyph glyph-name="grave" unicode="`" horiz-adv-x="700" 
d="M521 615h-222l-121 154h250z" />
    <glyph glyph-name="a" unicode="a" horiz-adv-x="811" 
d="M359 120q69 0 104.5 33.5t35.5 72.5v35q-35 -9 -112 -22q-67 -11 -90 -24t-23 -39v-2q0 -54 85 -54zM505 73q-74 -84 -215 -84h-17q-111 0 -168 49.5t-57 128.5v4q0 78 56.5 118t198.5 52l155 12q23 2 32 10t9 23v1q0 23 -20.5 36t-83.5 13h-3q-102 0 -102 -56h-228v1
q0 189 314 189h32q83 0 143.5 -12.5t92.5 -30.5t50 -46t22.5 -50t4.5 -51v-178q0 -22 7 -30.5t29 -8.5h26v-163h-184q-69 0 -94 73z" />
    <glyph glyph-name="b" unicode="b" horiz-adv-x="875" 
d="M520 -11q-140 0 -222 82q-9 -26 -15 -71h-205v757h227v-267q78 78 224 78h12q77 0 134 -24t88.5 -64.5t46.5 -88t15 -101.5v-16q0 -52 -15 -99.5t-47 -90.5t-91.5 -69t-139.5 -26h-12zM588 282q0 50 -31.5 89.5t-104.5 39.5h-9q-73 0 -106.5 -39t-33.5 -90v-4
q0 -51 33.5 -91t106.5 -40h9q73 0 104.5 40t31.5 91v4z" />
    <glyph glyph-name="c" unicode="c" horiz-adv-x="832" 
d="M784 225q0 -30 -6.5 -58t-28 -62.5t-56.5 -59.5t-99 -42.5t-148 -17.5h-49q-85 0 -150 20t-101.5 49.5t-59.5 70.5t-30 76t-7 73v14q0 37 7.5 72t30 75t59 69t101 48.5t149.5 19.5h43q87 0 152.5 -17t101 -41.5t57.5 -58.5t28 -60.5t6 -54.5v-1h-237q-2 9 -7 19.5t-17 25
t-38 24t-62 9.5h-9q-69 0 -99 -39t-30 -95v-1q0 -57 31 -98.5t100 -41.5h9q36 0 62.5 10.5t38 25.5t16.5 27t5 20h237z" />
    <glyph glyph-name="d" unicode="d" horiz-adv-x="875" 
d="M423 411q-74 0 -105.5 -39t-31.5 -91v-3q0 -50 32 -90.5t105 -40.5h10q71 0 104.5 39.5t33.5 91.5v3q0 52 -33.5 91t-104.5 39h-10zM797 757v-757h-227v69q-14 -16 -34.5 -31.5t-69.5 -32t-108 -16.5h-12q-148 0 -221.5 82t-73.5 197v20q0 53 16 101t49 89t91.5 65.5
t136.5 24.5h12q128 0 214 -65v254h227z" />
    <glyph glyph-name="e" unicode="e" horiz-adv-x="845" 
d="M421 435q-65 0 -96 -23.5t-40 -67.5h270q0 91 -134 91zM795 178q-2 -21 -8 -42t-28 -49.5t-57 -49.5t-100.5 -36t-151.5 -15h-41q-84 0 -149.5 17.5t-104.5 45.5t-63.5 66.5t-33.5 76t-9 79.5v14q0 42 8.5 79.5t32.5 76t61.5 66.5t100 45.5t144.5 17.5h44q88 0 153.5 -18
t103.5 -47t61.5 -72t31 -84.5t7.5 -93.5v-20h-515q9 -51 44.5 -78t110.5 -27q97 0 121 48h237z" />
    <glyph glyph-name="f" unicode="f" horiz-adv-x="538" 
d="M500 628h-78q-22 0 -32 -10t-10 -33v-28h120v-154h-120v-403h-224v403h-119v154h119v36q0 84 38.5 124t140.5 40h165v-129z" />
    <glyph glyph-name="g" unicode="g" horiz-adv-x="875" 
d="M425 414q-75 0 -107 -35.5t-32 -83.5v-2q0 -47 33 -83.5t106 -36.5h10q71 0 104.5 35.5t33.5 82.5v4q0 47 -34 83t-105 36h-9zM422 -205q-339 0 -339 184v4h246q14 -37 108 -37h10q125 0 125 108v39q-74 -74 -211 -74h-14q-81 0 -140.5 23.5t-92.5 63.5t-48 85t-15 95v17
q0 52 15.5 97t48.5 84t91 61.5t136 22.5h11q135 0 218 -66v55h226v-494q0 -268 -343 -268h-32z" />
    <glyph glyph-name="h" unicode="h" horiz-adv-x="858" 
d="M78 757h227v-286q18 21 42 40.5t76 39.5t112 20h10q115 0 176 -63t61 -148v-360h-227v284q0 50 -30 82.5t-92 32.5q-61 0 -94.5 -35.5t-33.5 -87.5v-276h-227v757z" />
    <glyph glyph-name="i" unicode="i" horiz-adv-x="383" 
d="M306 613h-229v146h229v-146zM305 0h-227v557h227v-557z" />
    <glyph glyph-name="j" unicode="j" horiz-adv-x="383" 
d="M306 613h-229v146h229v-146zM41 -35q21 0 29 9.5t8 31.5v551h227v-599q0 -71 -32.5 -109.5t-95.5 -38.5h-192v155h56z" />
    <glyph glyph-name="k" unicode="k" horiz-adv-x="761" 
d="M78 0v757h227v-416l180 216h254l-219 -250l244 -307h-262l-197 250v-250h-227z" />
    <glyph glyph-name="l" unicode="l" horiz-adv-x="383" 
d="M305 0h-227v757h227v-757z" />
    <glyph glyph-name="m" unicode="m" horiz-adv-x="1290" 
d="M78 0v557h225v-89q11 15 27.5 30t43 33t65 29t82.5 11h7q146 0 205 -112q91 112 239 112h8q121 0 177.5 -65.5t56.5 -155.5v-350h-227v288q0 47 -27 79t-85 32q-56 0 -86 -35t-30 -86v-278h-226v288q0 47 -27 79t-85 32q-57 0 -86.5 -34t-29.5 -87v-278h-227z" />
    <glyph glyph-name="n" unicode="n" horiz-adv-x="858" 
d="M78 557h225v-88q19 22 43 41.5t76.5 40t112.5 20.5h10q115 0 176 -63t61 -148v-360h-227v284q0 50 -30 82.5t-92 32.5q-61 0 -94.5 -35.5t-33.5 -87.5v-276h-227v557z" />
    <glyph glyph-name="o" unicode="o" horiz-adv-x="857" 
d="M413 -15q-92 0 -161 20.5t-106.5 50t-61 70.5t-30 74t-6.5 69v14q0 35 6.5 68.5t29.5 75t60.5 72.5t106.5 52t161 21h34q95 0 165 -21.5t106.5 -51.5t58.5 -72.5t27.5 -74.5t5.5 -68v-16q0 -25 -2.5 -47.5t-12 -52t-24.5 -54t-43 -49t-65 -42t-93 -28t-124 -10.5h-32z
M433 142q75 0 107.5 43t32.5 96q0 24 -6.5 46.5t-21 43.5t-43.5 33.5t-69 12.5h-9q-78 0 -109 -40t-31 -96q0 -24 6 -46t20 -44.5t43.5 -35.5t70.5 -13h9z" />
    <glyph glyph-name="p" unicode="p" horiz-adv-x="875" 
d="M589 281q0 51 -31.5 90.5t-105.5 39.5h-8q-73 0 -106.5 -39.5t-33.5 -90.5v-5q0 -51 33.5 -90t106.5 -39h8q74 0 105.5 39.5t31.5 90.5v4zM78 557h226v-70q27 29 84 55t140 26h10q79 0 137 -24t89.5 -65t46 -88.5t14.5 -101.5v-17q0 -40 -9 -78t-30.5 -75.5t-54 -66
t-84 -46t-115.5 -17.5h-11q-128 0 -216 77v-256h-227v747z" />
    <glyph glyph-name="q" unicode="q" horiz-adv-x="875" 
d="M352 568q149 0 228 -79q11 35 15 68h202v-747h-227v258q-14 -15 -34 -30t-69.5 -32t-108.5 -17h-13q-78 0 -136.5 24.5t-92 66.5t-49.5 90t-16 102v17q0 52 16 99.5t48.5 89t90.5 66t135 24.5h11zM424 411q-73 0 -105 -39t-32 -91v-3q0 -52 31.5 -91.5t105.5 -39.5h9
q73 0 105.5 38.5t32.5 91.5v5q0 52 -32.5 90.5t-105.5 38.5h-9z" />
    <glyph glyph-name="r" unicode="r" horiz-adv-x="735" 
d="M78 0v557h225v-91q8 14 20 28t34.5 33t57.5 30.5t77 11.5h7q102 0 148 -60t46 -160q0 -26 -2 -72h-229v17q0 53 -16.5 79t-57.5 26q-83 0 -83 -108v-291h-227z" />
    <glyph glyph-name="s" unicode="s" horiz-adv-x="772" 
d="M365 -13q-61 0 -111 7.5t-82.5 19t-57 28.5t-37.5 33t-20.5 35.5t-9.5 32.5t-2 28v4h243q9 -53 100 -53h2q97 0 97 46q0 23 -19.5 33t-79.5 14l-83 6q-253 14 -253 172v6q0 38 13.5 66.5t46.5 53t96.5 37.5t154.5 13h25q101 0 169 -15t100 -42.5t43.5 -54.5t11.5 -62v-2
h-236q-4 14 -8.5 22t-27 17.5t-61.5 9.5h-4q-94 0 -94 -42q0 -22 20.5 -33t73.5 -13l81 -3q77 -3 130 -16t82.5 -35.5t41.5 -50t12 -65.5v-9q0 -31 -6.5 -55.5t-27 -50.5t-55.5 -43t-96.5 -28t-144.5 -11h-27z" />
    <glyph glyph-name="t" unicode="t" horiz-adv-x="552" 
d="M500 0h-197q-69 0 -109 38t-40 111v254h-117v154h117v168h225v-168h121v-154h-121v-179q0 -33 11.5 -46t44.5 -13h65v-165z" />
    <glyph glyph-name="u" unicode="u" horiz-adv-x="852" 
d="M774 0h-225v88q-27 -36 -86 -69t-143 -33h-10q-115 0 -174.5 62t-59.5 148v361h227v-284q0 -50 29 -82.5t90 -32.5q60 0 92.5 35t32.5 88v276h227v-557z" />
    <glyph glyph-name="v" unicode="v" horiz-adv-x="796" 
d="M11 557h252l144 -383l144 383h234l-235 -557h-292z" />
    <glyph glyph-name="w" unicode="w" horiz-adv-x="1186" 
d="M223 0l-208 557h241l114 -367l110 367h248l115 -366l108 366h219l-190 -557h-272l-112 336l-105 -336h-268z" />
    <glyph glyph-name="x" unicode="x" horiz-adv-x="779" 
d="M388 160l-132 -160h-252l233 282l-237 275h268l128 -155l125 155h247l-223 -273l235 -284h-258z" />
    <glyph glyph-name="y" unicode="y" horiz-adv-x="779" 
d="M116 -39h126q26 0 26 20q0 14 -17 49l-241 527h250l143 -381l135 381h230l-250 -608q-30 -72 -75 -105.5t-118 -33.5h-209v151z" />
    <glyph glyph-name="z" unicode="z" horiz-adv-x="759" 
d="M59 0v147l337 252h-334v158h628v-145l-348 -249h360v-163h-643z" />
    <glyph glyph-name="braceleft" unicode="{" horiz-adv-x="419" 
d="M232 -131q-160 0 -160 114q0 44 39.5 141t39.5 118q0 39 -40 39h-72v119h72q40 0 40 32q0 24 -39.5 118t-39.5 137q0 121 160 121h145v-116h-86q-42 0 -42 -35q0 -20 30.5 -100.5t30.5 -113.5q0 -44 -23 -68t-75 -33q51 -8 74.5 -29.5t23.5 -58.5q0 -36 -30.5 -121
t-30.5 -103q0 -45 55 -45h73v-116h-145z" />
    <glyph glyph-name="bar" unicode="|" horiz-adv-x="375" 
d="M267 -131h-159v939h159v-939z" />
    <glyph glyph-name="braceright" unicode="}" horiz-adv-x="419" 
d="M42 -131v116h73q55 0 55 45q0 18 -30.5 103t-30.5 121q0 72 98 88q-52 9 -75 33t-23 68q0 33 30.5 113t30.5 101q0 35 -42 35h-86v116h145q160 0 160 -121q0 -43 -39.5 -137t-39.5 -118q0 -32 40 -32h73v-119h-73q-40 0 -40 -39q0 -21 39.5 -118t39.5 -141
q0 -114 -160 -114h-145z" />
    <glyph glyph-name="asciitilde" unicode="~" horiz-adv-x="705" 
d="M511 222q-49 0 -82.5 16t-92.5 58q-10 7 -24.5 18t-20 15t-14 8.5t-13.5 6t-12 1.5q-23 0 -23 -33v-110h-175v185q0 62 34.5 108.5t110.5 46.5q51 0 87.5 -17.5t89.5 -58.5q61 -48 77 -48q23 0 23 33v116h175v-193q0 -61 -37.5 -106.5t-102.5 -45.5z" />
    <glyph glyph-name="exclamdown" unicode="&#xa1;" horiz-adv-x="406" 
d="M64 -188l83 488h110l84 -488h-277zM79 556h245v-196h-245v196z" />
    <glyph glyph-name="cent" unicode="&#xa2;" horiz-adv-x="847" 
d="M383 -95v81q-83 2 -145.5 23t-97.5 50.5t-57 69.5t-28.5 74t-6.5 71v14q0 36 7 69.5t29 73t57 68.5t97.5 50t144.5 23v80h92v-80q82 -2 143.5 -20.5t95 -42.5t54 -57t26.5 -58.5t6 -51.5v-1h-233q-13 67 -92 81v-284q79 14 92 88h233q0 -28 -5.5 -54.5t-26 -60.5
t-54 -59.5t-95.5 -44.5t-144 -21v-81h-92zM281 283q0 -125 102 -145v284q-102 -19 -102 -138v-1z" />
    <glyph glyph-name="sterling" unicode="&#xa3;" horiz-adv-x="927" 
d="M866 0h-815v164h60q79 0 79 72v3q0 28 -16 85h-123v98h96q-13 58 -13 91v8q0 44 14.5 81.5t49.5 73t103.5 56.5t165.5 21h37q93 0 160 -18.5t102.5 -44.5t56 -66t25.5 -71t5 -70v-3h-248q0 107 -116 107q-68 0 -93 -29t-25 -75q0 -23 5 -61h309v-98h-297q2 -9 2 -38
q0 -47 -20 -79t-47 -43h302v108h241v-272z" />
    <glyph glyph-name="yen" unicode="&#xa5;" horiz-adv-x="883" 
d="M330 151h-221v87h221v58h-221v86h176l-290 362h281l178 -250l182 250h251l-279 -362h175v-86h-220v-58h220v-87h-220v-151h-233v151z" />
    <glyph glyph-name="brokenbar" unicode="&#xa6;" horiz-adv-x="375" 
d="M267 413h-159v395h159v-395zM267 -131h-159v432h159v-432z" />
    <glyph glyph-name="section" unicode="&#xa7;" horiz-adv-x="895" 
d="M586 197q38 18 38 56q0 28 -18.5 46t-70.5 27q-214 37 -228 40q-37 -14 -37 -54q0 -28 19.5 -46.5t71.5 -27.5q198 -35 225 -41zM430 -208q-79 0 -140.5 11t-98.5 30.5t-62 41.5t-36 50t-15 48.5t-4 44.5v3h236q0 -14 4.5 -27t17 -29t43 -25.5t75.5 -9.5h6q114 0 114 57
v2q0 24 -19.5 39.5t-80.5 24.5l-171 26q-137 21 -194 69t-57 122v9q0 102 132 133q-82 49 -82 147v10q0 61 29 100.5t104.5 63t200.5 23.5h40q89 0 153 -13.5t98.5 -32.5t54.5 -49.5t25 -55.5t5 -58l-1 -3h-231q-2 13 -5.5 22.5t-15 23.5t-38.5 22t-68 8h-6q-72 0 -96 -12.5
t-24 -35.5v-2q0 -22 20.5 -36.5t80.5 -23.5l173 -26q99 -14 155.5 -40t76 -60t19.5 -85v-9q0 -57 -37.5 -90.5t-89.5 -48.5q79 -47 79 -144v-9q0 -206 -330 -206h-40z" />
    <glyph glyph-name="dieresis" unicode="&#xa8;" horiz-adv-x="700" 
d="M322 613h-217v146h217v-146zM595 613h-217v146h217v-146z" />
    <glyph glyph-name="copyright" unicode="&#xa9;" horiz-adv-x="1092" 
d="M1037 362q0 -60 -14 -112.5t-48 -101.5t-87.5 -83.5t-138 -55.5t-192.5 -21h-22q-108 0 -192.5 21t-138 55.5t-87.5 83.5t-48 101.5t-14 112.5v21q0 59 13.5 111t48 101t88 84t138 56t193.5 21h20q109 0 193.5 -21t138 -56t88 -84t48 -101t13.5 -111v-21zM554 78
q102 0 175.5 23t113.5 64.5t58 90.5t18 109v13q0 65 -17.5 114.5t-58 90t-113.5 62t-176 21.5h-16q-103 0 -176 -21.5t-113.5 -62t-58.5 -90.5t-18 -114v-13q0 -60 18 -109t58 -90.5t114 -64.5t176 -23h16zM543 152q-69 0 -121 14t-82 35.5t-48.5 51.5t-24.5 56.5t-6 56.5
v19q0 38 10.5 70.5t38.5 66.5t87.5 53.5t145.5 19.5h18q70 0 123 -13t80.5 -31.5t44.5 -44.5t21.5 -46t4.5 -42v-3h-178q-14 60 -108 60q-112 0 -112 -93v-8q0 -43 26 -72t87 -29q95 0 107 66h179v-4q0 -22 -5 -43t-22 -47.5t-45.5 -46t-80.5 -33t-122 -13.5h-18z" />
    <glyph glyph-name="ordfeminine" unicode="&#xaa;" horiz-adv-x="691" 
d="M422 364q-18 -24 -61.5 -46t-114.5 -22h-7q-92 0 -138 40.5t-46 103.5v3q0 63 45 93.5t143 38.5l145 12q29 1 29 24q0 36 -80 36h-7q-80 0 -80 -38h-185v1q0 146 250 146h34q68 0 116.5 -9t75 -22.5t41.5 -34.5t18.5 -38t3.5 -40v-140q0 -18 6 -25t23 -7h21v-136h-155
q-56 0 -77 60zM308 401q51 0 80 27t29 64v17l-110 -18q-34 -5 -48.5 -15.5t-14.5 -30.5t16.5 -32t47.5 -12z" />
    <glyph glyph-name="guillemotleft" unicode="&#xab;" horiz-adv-x="659" 
d="M443 104l-124 186l125 184h178l-127 -184l123 -186h-175zM164 104l-126 186l124 184h179l-125 -184l125 -186h-177z" />
    <glyph glyph-name="registered" unicode="&#xae;" horiz-adv-x="847" 
d="M404 202q-82 0 -145.5 16.5t-101 42.5t-62 62.5t-33 71.5t-8.5 74v26q0 38 8 72t31.5 71t61 63t101.5 43t148 17h43q83 0 147 -17t100.5 -43t59.5 -63t31 -70.5t8 -70.5v-28q0 -48 -18 -92.5t-55.5 -85t-108.5 -65t-166 -24.5h-41zM146 480q0 -33 4 -57.5t20.5 -54
t44.5 -48.5t81.5 -32t126.5 -13h5q71 0 123.5 13.5t81 33t45 49t21 55t4.5 57.5v6q0 30 -4.5 54t-21 52.5t-44.5 47.5t-80.5 32t-123.5 13h-6q-73 0 -126 -12.5t-81.5 -30.5t-45 -47t-20.5 -54t-4 -59v-5zM456 505q31 0 31 27t-31 27h-83v-54h83zM373 341h-131v287h255
q119 0 119 -72v-3q0 -53 -64 -66q68 -11 68 -64v-48q0 -19 7 -29v-5h-132q-8 10 -8 24v29q0 20 -7.5 28.5t-26.5 8.5h-80v-90z" />
    <glyph glyph-name="macron" unicode="&#xaf;" horiz-adv-x="700" 
d="M152 751h395v-126h-395v126z" />
    <glyph glyph-name="degree" unicode="&#xb0;" horiz-adv-x="542" 
d="M273 334q-101 0 -163 60t-62 152q0 91 62 150.5t163 59.5q97 0 158.5 -59.5t61.5 -150.5q0 -92 -61.5 -152t-158.5 -60zM272 456q40 0 65 24.5t25 65.5q0 39 -25 64t-65 25q-42 0 -67 -25t-25 -64q0 -41 25 -65.5t67 -24.5z" />
    <glyph glyph-name="acute" unicode="&#xb4;" horiz-adv-x="700" 
d="M272 769h250l-121 -154h-222z" />
    <glyph glyph-name="paragraph" unicode="&#xb6;" horiz-adv-x="838" 
d="M347 308h-36q-132 0 -198 57.5t-66 150.5v17q0 98 60 154.5t205 56.5h498v-129h-79v-615h-149v615h-86v-615h-149v308z" />
    <glyph glyph-name="periodcentered" unicode="&#xb7;" horiz-adv-x="384" 
d="M320 223h-256v208h256v-208z" />
    <glyph glyph-name="cedilla" unicode="&#xb8;" horiz-adv-x="701" 
d="M184 -280v100h120q22 0 29.5 6t7.5 18q0 23 -37 23h-88v133h125v-52h4q99 0 134.5 -28t35.5 -82v-4q0 -25 -7 -43.5t-25.5 -35.5t-56.5 -26t-93 -9h-149z" />
    <glyph glyph-name="ordmasculine" unicode="&#xba;" horiz-adv-x="712" 
d="M374 756q70 0 123 -15t83 -37t48 -53.5t24 -59.5t6 -59v-12q0 -31 -5.5 -59t-24 -59.5t-48.5 -53.5t-83 -37t-123 -15h-35q-68 0 -120 15t-83 37.5t-50 53.5t-26 60t-7 59v11q0 30 7 58.5t26 59.5t50 54t83 37.5t120 14.5h35zM460 528q0 44 -24 73t-79 29h-1
q-54 0 -78 -29t-24 -73q0 -43 24 -72.5t78 -29.5h1q55 0 79 30t24 72z" />
    <glyph glyph-name="guillemotright" unicode="&#xbb;" horiz-adv-x="659" 
d="M41 104l123 186l-127 184h178l126 -184l-124 -186h-176zM319 104l124 186l-124 184h178l124 -184l-126 -186h-176z" />
    <glyph glyph-name="onequarter" unicode="&#xbc;" horiz-adv-x="1221" 
d="M44 551v113q78 0 108.5 18.5t45.5 62.5h138v-429h-175v235h-117zM998 744l-712 -744h-182l713 744h181zM641 180l40 39l87 85l126 125h198v-234h86v-115h-86v-80h-173v80h-278v100zM790 195h129v129z" />
    <glyph glyph-name="onehalf" unicode="&#xbd;" horiz-adv-x="1285" 
d="M998 744l-712 -744h-182l713 744h181zM44 551v113q78 0 108.5 18.5t45.5 62.5h138v-429h-175v235h-117zM711 0v61q0 32 7.5 55t31.5 51t78.5 50.5t138.5 39.5q50 10 66.5 18t16.5 23q0 16 -15.5 23.5t-58.5 7.5q-45 0 -62.5 -15t-17.5 -32h-178v4q0 150 246 150h22
q75 0 126 -10.5t76 -30.5t35 -42t10 -53v-4q0 -61 -54 -90.5t-180 -45.5q-135 -19 -135 -38h370v-122h-523z" />
    <glyph glyph-name="threequarters" unicode="&#xbe;" horiz-adv-x="1417" 
d="M1194 744l-712 -744h-182l713 744h181zM295 309q-65 0 -113 11.5t-74 28t-41.5 39t-19.5 39.5t-4 35v5h180q2 -8 4 -12t10.5 -13.5t27.5 -14.5t48 -5q89 0 89 38v2q0 29 -48 29h-115v98h113q44 0 44 25v1q0 32 -86 32q-22 0 -39 -3t-25.5 -7t-14 -9.5t-6.5 -9.5t-1 -7
h-176v6q0 16 3.5 31t18.5 35t39.5 34.5t72 24.5t110.5 10h30q65 0 113 -7.5t73.5 -18.5t40.5 -27t19 -29.5t4 -29.5v-3q0 -29 -21 -49t-57 -26q41 -7 67.5 -33t26.5 -69v-3q0 -148 -263 -148h-30zM837 180l40 39l87 85l126 125h198v-234h86v-115h-86v-80h-173v80h-278v100z
M986 195h129v129z" />
    <glyph glyph-name="questiondown" unicode="&#xbf;" horiz-adv-x="845" 
d="M566 300v-44q0 -63 -29.5 -98t-118.5 -64l-53 -17q-46 -15 -62 -27.5t-16 -31.5q0 -25 28 -39t108 -14q46 0 76 9t42 24t16.5 26.5t5.5 25.5v4h245v-13q0 -32 -5 -59t-26.5 -62t-57.5 -59t-105 -41t-163 -17h-49q-359 0 -359 210v9q0 71 44.5 117.5t146.5 75.5l50 15
q34 10 46 22.5t12 38.5v9h224zM331 556h245v-196h-245v196z" />
    <glyph glyph-name="Agrave" unicode="&#xc0;" horiz-adv-x="1008" 
d="M494 571l-122 -278h247zM692 129h-393l-57 -129h-239l338 744h315l349 -744h-255zM267 954h253l94 -153h-231z" />
    <glyph glyph-name="Aacute" unicode="&#xc1;" horiz-adv-x="1008" 
d="M494 571l-122 -278h247zM692 129h-393l-57 -129h-239l338 744h315l349 -744h-255zM382 801l94 153h253l-117 -153h-230z" />
    <glyph glyph-name="Acircumflex" unicode="&#xc2;" horiz-adv-x="1008" 
d="M494 571l-122 -278h247zM692 129h-393l-57 -129h-239l338 744h315l349 -744h-255zM774 799h-215l-61 65l-62 -65h-211l142 155h264z" />
    <glyph glyph-name="Atilde" unicode="&#xc3;" horiz-adv-x="1008" 
d="M494 571l-122 -278h247zM692 129h-393l-57 -129h-239l338 744h315l349 -744h-255zM411 797h-125v84q0 42 22 72t71 30h2q40 0 132 -37q47 -19 57 -19q14 0 14 22v39h125v-84q0 -42 -22 -72t-71 -30h-2q-40 0 -132 37q-47 19 -57 19q-14 0 -14 -22v-39z" />
    <glyph glyph-name="Adieresis" unicode="&#xc4;" horiz-adv-x="1008" 
d="M494 571l-122 -278h247zM692 129h-393l-57 -129h-239l338 744h315l349 -744h-255zM469 801h-220v146h220v-146zM747 801h-220v146h220v-146z" />
    <glyph glyph-name="Aring" unicode="&#xc5;" horiz-adv-x="1008" 
d="M494 571l-122 -278h247zM692 129h-393l-57 -129h-239l338 744h315l349 -744h-255zM318 926q0 58 42 95t137 37q97 0 138.5 -37t41.5 -95t-41.5 -96t-138.5 -38t-138 38t-41 96zM564 926q0 23 -16.5 38t-50.5 15q-33 0 -49.5 -15t-16.5 -38q0 -24 16.5 -40t49.5 -16
q34 0 50.5 16t16.5 40z" />
    <glyph glyph-name="AE" unicode="&#xc6;" horiz-adv-x="1332" 
d="M590 591l-183 -303h183v303zM590 130h-279l-78 -130h-251l464 744h809v-171h-428v-108h413v-177h-413v-115h435v-173h-672v130z" />
    <glyph glyph-name="Ccedilla" unicode="&#xc7;" horiz-adv-x="1041" 
d="M710 -166q0 -53 -37.5 -83.5t-143.5 -30.5h-149v100h120q36 0 36 24q0 23 -36 23h-88v126q-83 10 -147 38.5t-103 65.5t-64 84t-34 90t-9 88v30q0 50 11 97t42 97.5t79.5 87.5t129.5 61t186 24h46q101 0 180 -18.5t127 -48.5t78.5 -70.5t42 -80.5t11.5 -83v-5h-246
q-2 10 -5 20t-17.5 29.5t-35.5 33.5t-62.5 25t-95.5 11q-63 0 -108.5 -16.5t-69 -45t-34 -59.5t-10.5 -66v-13q0 -33 10.5 -64.5t34.5 -61.5t69.5 -48t108.5 -18q54 0 95 11t62.5 25.5t35.5 34t17 30t5 20.5h246v-6q0 -41 -11 -80t-42 -81t-78 -72.5t-126.5 -50.5
t-181.5 -20h-12v-40h4q98 0 133.5 -28t35.5 -82v-4z" />
    <glyph glyph-name="Egrave" unicode="&#xc8;" horiz-adv-x="877" 
d="M230 954h253l94 -153h-231zM801 744v-171h-476v-108h461v-177h-461v-115h482v-173h-719v744h713z" />
    <glyph glyph-name="Eacute" unicode="&#xc9;" horiz-adv-x="877" 
d="M330 801l94 153h253l-117 -153h-230zM801 744v-171h-476v-108h461v-177h-461v-115h482v-173h-719v744h713z" />
    <glyph glyph-name="Ecircumflex" unicode="&#xca;" horiz-adv-x="877" 
d="M721 799h-215l-61 65l-62 -65h-211l142 155h264zM801 744v-171h-476v-108h461v-177h-461v-115h482v-173h-719v744h713z" />
    <glyph glyph-name="Edieresis" unicode="&#xcb;" horiz-adv-x="877" 
d="M801 744v-171h-476v-108h461v-177h-461v-115h482v-173h-719v744h713zM416 801h-220v146h220v-146zM694 801h-220v146h220v-146z" />
    <glyph glyph-name="Igrave" unicode="&#xcc;" horiz-adv-x="415" 
d="M327 0h-239v744h239v-744zM-23 954h253l94 -153h-231z" />
    <glyph glyph-name="Iacute" unicode="&#xcd;" horiz-adv-x="415" 
d="M327 0h-239v744h239v-744zM92 801l94 153h253l-117 -153h-230z" />
    <glyph glyph-name="Icircumflex" unicode="&#xce;" horiz-adv-x="415" 
d="M327 0h-239v744h239v-744zM484 799h-215l-61 65l-62 -65h-211l142 155h264z" />
    <glyph glyph-name="Idieresis" unicode="&#xcf;" horiz-adv-x="415" 
d="M327 0h-239v744h239v-744zM179 801h-220v146h220v-146zM457 801h-220v146h220v-146z" />
    <glyph glyph-name="Eth" unicode="&#xd0;" horiz-adv-x="1065" 
d="M504 179q68 0 117.5 13t76 31.5t42 46.5t19.5 50.5t4 51.5v6q0 27 -4 49.5t-19.5 49.5t-42.5 45.5t-76.5 31t-116.5 12.5h-150v-121h233v-138h-233v-128h150zM115 307h-99v138h99v299h410q115 0 203 -21.5t140.5 -55t86 -81t45.5 -93.5t12 -98v-30q0 -365 -486 -365h-411
v307z" />
    <glyph glyph-name="Ntilde" unicode="&#xd1;" horiz-adv-x="1070" 
d="M455 797h-125v84q0 42 22 72t71 30h2q40 0 132 -37q47 -19 57 -19q14 0 14 22v39h125v-84q0 -42 -22 -72t-71 -30h-2q-40 0 -132 37q-47 19 -57 19q-14 0 -14 -22v-39zM321 454v-454h-233v744h244l418 -446v446h232v-744h-231z" />
    <glyph glyph-name="Ograve" unicode="&#xd2;" horiz-adv-x="1081" 
d="M309 954h253l94 -153h-231zM563 756q107 0 190.5 -23.5t133.5 -60t82.5 -86.5t44.5 -98t12 -99v-30q0 -51 -12 -99t-44 -98.5t-82 -88t-134 -61.5t-191 -24h-45q-107 0 -190.5 24t-133.5 61.5t-82.5 88t-44.5 98.5t-12 99v30q0 51 12 99t44.5 98t82.5 86.5t133.5 60
t190.5 23.5h45zM777 381q0 35 -9.5 64.5t-33.5 59.5t-73.5 47.5t-119.5 17.5q-71 0 -120.5 -17.5t-73.5 -47.5t-33.5 -59.5t-9.5 -64.5v-13q0 -34 10 -64.5t34.5 -61t74 -48.5t118.5 -18q70 0 119.5 18t73.5 48.5t33.5 60.5t9.5 65v13z" />
    <glyph glyph-name="Oacute" unicode="&#xd3;" horiz-adv-x="1081" 
d="M425 801l94 153h253l-117 -153h-230zM563 756q107 0 190.5 -23.5t133.5 -60t82.5 -86.5t44.5 -98t12 -99v-30q0 -51 -12 -99t-44 -98.5t-82 -88t-134 -61.5t-191 -24h-45q-107 0 -190.5 24t-133.5 61.5t-82.5 88t-44.5 98.5t-12 99v30q0 51 12 99t44.5 98t82.5 86.5
t133.5 60t190.5 23.5h45zM777 381q0 35 -9.5 64.5t-33.5 59.5t-73.5 47.5t-119.5 17.5q-71 0 -120.5 -17.5t-73.5 -47.5t-33.5 -59.5t-9.5 -64.5v-13q0 -34 10 -64.5t34.5 -61t74 -48.5t118.5 -18q70 0 119.5 18t73.5 48.5t33.5 60.5t9.5 65v13z" />
    <glyph glyph-name="Ocircumflex" unicode="&#xd4;" horiz-adv-x="1081" 
d="M816 799h-215l-61 65l-62 -65h-211l142 155h264zM563 756q107 0 190.5 -23.5t133.5 -60t82.5 -86.5t44.5 -98t12 -99v-30q0 -51 -12 -99t-44 -98.5t-82 -88t-134 -61.5t-191 -24h-45q-107 0 -190.5 24t-133.5 61.5t-82.5 88t-44.5 98.5t-12 99v30q0 51 12 99t44.5 98
t82.5 86.5t133.5 60t190.5 23.5h45zM777 381q0 35 -9.5 64.5t-33.5 59.5t-73.5 47.5t-119.5 17.5q-71 0 -120.5 -17.5t-73.5 -47.5t-33.5 -59.5t-9.5 -64.5v-13q0 -34 10 -64.5t34.5 -61t74 -48.5t118.5 -18q70 0 119.5 18t73.5 48.5t33.5 60.5t9.5 65v13z" />
    <glyph glyph-name="Otilde" unicode="&#xd5;" horiz-adv-x="1081" 
d="M454 797h-125v84q0 42 22 72t71 30h2q40 0 132 -37q47 -19 57 -19q14 0 14 22v39h125v-84q0 -42 -22 -72t-71 -30h-2q-40 0 -132 37q-47 19 -57 19q-14 0 -14 -22v-39zM563 756q107 0 190.5 -23.5t133.5 -60t82.5 -86.5t44.5 -98t12 -99v-30q0 -51 -12 -99t-44 -98.5
t-82 -88t-134 -61.5t-191 -24h-45q-107 0 -190.5 24t-133.5 61.5t-82.5 88t-44.5 98.5t-12 99v30q0 51 12 99t44.5 98t82.5 86.5t133.5 60t190.5 23.5h45zM777 381q0 35 -9.5 64.5t-33.5 59.5t-73.5 47.5t-119.5 17.5q-71 0 -120.5 -17.5t-73.5 -47.5t-33.5 -59.5
t-9.5 -64.5v-13q0 -34 10 -64.5t34.5 -61t74 -48.5t118.5 -18q70 0 119.5 18t73.5 48.5t33.5 60.5t9.5 65v13z" />
    <glyph glyph-name="Odieresis" unicode="&#xd6;" horiz-adv-x="1081" 
d="M511 801h-220v146h220v-146zM789 801h-220v146h220v-146zM563 756q107 0 190.5 -23.5t133.5 -60t82.5 -86.5t44.5 -98t12 -99v-30q0 -51 -12 -99t-44 -98.5t-82 -88t-134 -61.5t-191 -24h-45q-107 0 -190.5 24t-133.5 61.5t-82.5 88t-44.5 98.5t-12 99v30q0 51 12 99
t44.5 98t82.5 86.5t133.5 60t190.5 23.5h45zM777 381q0 35 -9.5 64.5t-33.5 59.5t-73.5 47.5t-119.5 17.5q-71 0 -120.5 -17.5t-73.5 -47.5t-33.5 -59.5t-9.5 -64.5v-13q0 -34 10 -64.5t34.5 -61t74 -48.5t118.5 -18q70 0 119.5 18t73.5 48.5t33.5 60.5t9.5 65v13z" />
    <glyph glyph-name="multiply" unicode="&#xd7;" horiz-adv-x="612" 
d="M305 209l-148 -145l-104 103l146 144l-147 143l110 109l146 -144l147 144l105 -103l-148 -145l148 -144l-106 -107z" />
    <glyph glyph-name="Oslash" unicode="&#xd8;" horiz-adv-x="1075" 
d="M517 -12q-154 0 -257 49l-29 -26l-13 -11h-201l41 37q14 13 47 42.5t41 36.5q-91 99 -91 243v30q0 50 10.5 96.5t41.5 97.5t80.5 88t134 61t195.5 24h41q154 0 258 -47q17 14 28 25l12 10h202l-40 -36l-88 -77q91 -98 91 -242v-30q0 -40 -8 -78.5t-26 -82t-53 -80
t-84 -66.5t-124 -47t-168 -17h-41zM293 370q0 -58 25 -107l337 300q-53 12 -117 12q-59 0 -103.5 -12.5t-71 -31t-43 -45.5t-22 -51.5t-5.5 -52.5v-12zM539 173q71 0 122 18.5t75.5 49.5t35 62t10.5 67v12q0 59 -22 102l-337 -300q46 -11 116 -11z" />
    <glyph glyph-name="Ugrave" unicode="&#xd9;" horiz-adv-x="1055" 
d="M297 954h253l94 -153h-231zM515 -11q-82 0 -148.5 14t-110.5 37t-76.5 56.5t-50.5 66.5t-28.5 74t-13.5 72.5t-3 68.5v366h238v-363q0 -195 205 -195h5q64 0 106.5 17.5t62 49.5t26.5 61.5t7 66.5v363h238v-366q0 -36 -3.5 -68.5t-15 -73t-30 -74t-51.5 -66.5t-76.5 -56
t-108 -37t-143.5 -14h-29z" />
    <glyph glyph-name="Uacute" unicode="&#xda;" horiz-adv-x="1055" 
d="M412 801l94 153h253l-117 -153h-230zM515 -11q-82 0 -148.5 14t-110.5 37t-76.5 56.5t-50.5 66.5t-28.5 74t-13.5 72.5t-3 68.5v366h238v-363q0 -195 205 -195h5q64 0 106.5 17.5t62 49.5t26.5 61.5t7 66.5v363h238v-366q0 -36 -3.5 -68.5t-15 -73t-30 -74t-51.5 -66.5
t-76.5 -56t-108 -37t-143.5 -14h-29z" />
    <glyph glyph-name="Ucircumflex" unicode="&#xdb;" horiz-adv-x="1055" 
d="M804 799h-215l-61 65l-62 -65h-211l142 155h264zM515 -11q-82 0 -148.5 14t-110.5 37t-76.5 56.5t-50.5 66.5t-28.5 74t-13.5 72.5t-3 68.5v366h238v-363q0 -195 205 -195h5q64 0 106.5 17.5t62 49.5t26.5 61.5t7 66.5v363h238v-366q0 -36 -3.5 -68.5t-15 -73t-30 -74
t-51.5 -66.5t-76.5 -56t-108 -37t-143.5 -14h-29z" />
    <glyph glyph-name="Udieresis" unicode="&#xdc;" horiz-adv-x="1055" 
d="M515 -11q-82 0 -148.5 14t-110.5 37t-76.5 56.5t-50.5 66.5t-28.5 74t-13.5 72.5t-3 68.5v366h238v-363q0 -195 205 -195h5q64 0 106.5 17.5t62 49.5t26.5 61.5t7 66.5v363h238v-366q0 -36 -3.5 -68.5t-15 -73t-30 -74t-51.5 -66.5t-76.5 -56t-108 -37t-143.5 -14h-29z
M499 801h-220v146h220v-146zM777 801h-220v146h220v-146z" />
    <glyph glyph-name="Yacute" unicode="&#xdd;" horiz-adv-x="966" 
d="M370 269l-379 475h293l214 -279l215 279h262l-367 -476v-268h-238v269zM382 801l94 153h253l-117 -153h-230z" />
    <glyph glyph-name="Thorn" unicode="&#xde;" horiz-adv-x="978" 
d="M327 128v-128h-239v744h239v-111h280q93 0 158 -18t100.5 -52.5t50.5 -76.5t15 -97v-13q0 -248 -324 -248h-280zM327 303h260q50 0 73 21.5t23 55.5v3q0 75 -96 75h-260v-155z" />
    <glyph glyph-name="germandbls" unicode="&#xdf;" horiz-adv-x="868" 
d="M633 442q31 -5 60 -16.5t59.5 -33t49 -60t18.5 -88.5v-11q0 -233 -320 -233h-132v158h112q61 0 83 23t22 61v1q0 36 -22 58t-83 22h-112v157h90q88 0 88 70v1q0 69 -116 69h-6q-69 0 -94 -24.5t-25 -73.5v-522h-227v540q0 35 5 62t25 61t55 56t101.5 37.5t157.5 15.5h17
q330 0 330 -180v-5q0 -59 -39.5 -96t-96.5 -49z" />
    <glyph glyph-name="agrave" unicode="&#xe0;" horiz-adv-x="811" 
d="M359 120q69 0 104.5 33.5t35.5 72.5v35q-35 -9 -112 -22q-67 -11 -90 -24t-23 -39v-2q0 -54 85 -54zM505 73q-74 -84 -215 -84h-17q-111 0 -168 49.5t-57 128.5v4q0 78 56.5 118t198.5 52l155 12q23 2 32 10t9 23v1q0 23 -20.5 36t-83.5 13h-3q-102 0 -102 -56h-228v1
q0 189 314 189h32q83 0 143.5 -12.5t92.5 -30.5t50 -46t22.5 -50t4.5 -51v-178q0 -22 7 -30.5t29 -8.5h26v-163h-184q-69 0 -94 73zM505 615h-222l-121 154h250z" />
    <glyph glyph-name="aacute" unicode="&#xe1;" horiz-adv-x="811" 
d="M359 120q69 0 104.5 33.5t35.5 72.5v35q-35 -9 -112 -22q-67 -11 -90 -24t-23 -39v-2q0 -54 85 -54zM505 73q-74 -84 -215 -84h-17q-111 0 -168 49.5t-57 128.5v4q0 78 56.5 118t198.5 52l155 12q23 2 32 10t9 23v1q0 23 -20.5 36t-83.5 13h-3q-102 0 -102 -56h-228v1
q0 189 314 189h32q83 0 143.5 -12.5t92.5 -30.5t50 -46t22.5 -50t4.5 -51v-178q0 -22 7 -30.5t29 -8.5h26v-163h-184q-69 0 -94 73zM372 769h250l-121 -154h-222z" />
    <glyph glyph-name="acircumflex" unicode="&#xe2;" horiz-adv-x="811" 
d="M359 120q69 0 104.5 33.5t35.5 72.5v35q-35 -9 -112 -22q-67 -11 -90 -24t-23 -39v-2q0 -54 85 -54zM505 73q-74 -84 -215 -84h-17q-111 0 -168 49.5t-57 128.5v4q0 78 56.5 118t198.5 52l155 12q23 2 32 10t9 23v1q0 23 -20.5 36t-83.5 13h-3q-102 0 -102 -56h-228v1
q0 189 314 189h32q83 0 143.5 -12.5t92.5 -30.5t50 -46t22.5 -50t4.5 -51v-178q0 -22 7 -30.5t29 -8.5h26v-163h-184q-69 0 -94 73zM666 614h-216l-58 66l-58 -66h-212l137 155h268z" />
    <glyph glyph-name="atilde" unicode="&#xe3;" horiz-adv-x="811" 
d="M359 120q69 0 104.5 33.5t35.5 72.5v35q-35 -9 -112 -22q-67 -11 -90 -24t-23 -39v-2q0 -54 85 -54zM505 73q-74 -84 -215 -84h-17q-111 0 -168 49.5t-57 128.5v4q0 78 56.5 118t198.5 52l155 12q23 2 32 10t9 23v1q0 23 -20.5 36t-83.5 13h-3q-102 0 -102 -56h-228v1
q0 189 314 189h32q83 0 143.5 -12.5t92.5 -30.5t50 -46t22.5 -50t4.5 -51v-178q0 -22 7 -30.5t29 -8.5h26v-163h-184q-69 0 -94 73zM596 718q0 -41 -22 -71.5t-70 -30.5h-2q-43 0 -122 36q-41 21 -52 21q-15 0 -15 -22v-40h-124v86q0 41 21 71.5t70 30.5h3q43 0 121 -37
q41 -20 52 -20q15 0 15 21v41h125v-86z" />
    <glyph glyph-name="adieresis" unicode="&#xe4;" horiz-adv-x="811" 
d="M359 120q69 0 104.5 33.5t35.5 72.5v35q-35 -9 -112 -22q-67 -11 -90 -24t-23 -39v-2q0 -54 85 -54zM505 73q-74 -84 -215 -84h-17q-111 0 -168 49.5t-57 128.5v4q0 78 56.5 118t198.5 52l155 12q23 2 32 10t9 23v1q0 23 -20.5 36t-83.5 13h-3q-102 0 -102 -56h-228v1
q0 189 314 189h32q83 0 143.5 -12.5t92.5 -30.5t50 -46t22.5 -50t4.5 -51v-178q0 -22 7 -30.5t29 -8.5h26v-163h-184q-69 0 -94 73zM364 613h-217v146h217v-146zM637 613h-217v146h217v-146z" />
    <glyph glyph-name="aring" unicode="&#xe5;" horiz-adv-x="811" 
d="M359 120q69 0 104.5 33.5t35.5 72.5v35q-35 -9 -112 -22q-67 -11 -90 -24t-23 -39v-2q0 -54 85 -54zM505 73q-74 -84 -215 -84h-17q-111 0 -168 49.5t-57 128.5v4q0 78 56.5 118t198.5 52l155 12q23 2 32 10t9 23v1q0 23 -20.5 36t-83.5 13h-3q-102 0 -102 -56h-228v1
q0 189 314 189h32q83 0 143.5 -12.5t92.5 -30.5t50 -46t22.5 -50t4.5 -51v-178q0 -22 7 -30.5t29 -8.5h26v-163h-184q-69 0 -94 73zM215 741q0 58 41 95t136 37q96 0 137.5 -37t41.5 -95q0 -59 -41 -96.5t-138 -37.5q-96 0 -136.5 38t-40.5 96zM328 741q0 -24 16 -39.5
t48 -15.5q33 0 49 15.5t16 39.5q0 53 -65 53q-32 0 -48 -15t-16 -38z" />
    <glyph glyph-name="ae" unicode="&#xe6;" horiz-adv-x="1283" 
d="M862 436q-64 0 -94.5 -24t-39.5 -70h266q0 94 -132 94zM355 120q67 0 101.5 33.5t34.5 72.5v35q-39 -10 -108 -22q-64 -11 -86.5 -24t-22.5 -39v-2q0 -54 81 -54zM1233 174q0 -19 -6.5 -40t-29 -48.5t-57.5 -48.5t-100 -36t-150 -15h-40q-211 0 -293 108
q-75 -105 -251 -105h-17q-122 0 -181.5 49t-59.5 129v4q0 78 56.5 118t195.5 52l150 12q23 2 32 10t9 23q0 23 -19.5 36t-81.5 13h-2q-99 0 -99 -56h-227v2q0 188 310 188h33q160 0 225 -58q69 59 207 59h44q87 0 151.5 -18t102.5 -47t61 -72t31 -84.5t8 -93.5v-20h-509
q15 -105 151 -105q97 0 119 44h237z" />
    <glyph glyph-name="ccedilla" unicode="&#xe7;" horiz-adv-x="832" 
d="M602 -166q0 -53 -37.5 -83.5t-143.5 -30.5h-149v100h120q22 0 29.5 6t7.5 18q0 23 -37 23h-88v125q-62 9 -109 32.5t-74 52.5t-44 66t-22.5 68t-5.5 63v14q0 37 7.5 72t30 75t59 69t101 48.5t149.5 19.5h43q87 0 152.5 -17t101 -41.5t57.5 -58.5t28 -60.5t6 -54.5v-1
h-237q-2 9 -7 19.5t-17 25t-38 24t-62 9.5h-9q-69 0 -99 -39t-30 -95v-1q0 -57 31 -98.5t100 -41.5h9q36 0 62.5 10.5t38 25.5t16.5 27t5 20h237q0 -30 -6.5 -58t-28 -62.5t-56.5 -59.5t-99 -42.5t-148 -17.5h-17v-37h4q98 0 133.5 -28t35.5 -82v-4z" />
    <glyph glyph-name="egrave" unicode="&#xe8;" horiz-adv-x="845" 
d="M421 435q-65 0 -96 -23.5t-40 -67.5h270q0 91 -134 91zM795 178q-2 -21 -8 -42t-28 -49.5t-57 -49.5t-100.5 -36t-151.5 -15h-41q-84 0 -149.5 17.5t-104.5 45.5t-63.5 66.5t-33.5 76t-9 79.5v14q0 42 8.5 79.5t32.5 76t61.5 66.5t100 45.5t144.5 17.5h44q88 0 153.5 -18
t103.5 -47t61.5 -72t31 -84.5t7.5 -93.5v-20h-515q9 -51 44.5 -78t110.5 -27q97 0 121 48h237zM531 615h-222l-121 154h250z" />
    <glyph glyph-name="eacute" unicode="&#xe9;" horiz-adv-x="845" 
d="M401 769h250l-121 -154h-222zM421 435q-65 0 -96 -23.5t-40 -67.5h270q0 91 -134 91zM795 178q-2 -21 -8 -42t-28 -49.5t-57 -49.5t-100.5 -36t-151.5 -15h-41q-84 0 -149.5 17.5t-104.5 45.5t-63.5 66.5t-33.5 76t-9 79.5v14q0 42 8.5 79.5t32.5 76t61.5 66.5t100 45.5
t144.5 17.5h44q88 0 153.5 -18t103.5 -47t61.5 -72t31 -84.5t7.5 -93.5v-20h-515q9 -51 44.5 -78t110.5 -27q97 0 121 48h237z" />
    <glyph glyph-name="ecircumflex" unicode="&#xea;" horiz-adv-x="845" 
d="M693 614h-216l-58 66l-58 -66h-212l137 155h268zM421 435q-65 0 -96 -23.5t-40 -67.5h270q0 91 -134 91zM795 178q-2 -21 -8 -42t-28 -49.5t-57 -49.5t-100.5 -36t-151.5 -15h-41q-84 0 -149.5 17.5t-104.5 45.5t-63.5 66.5t-33.5 76t-9 79.5v14q0 42 8.5 79.5t32.5 76
t61.5 66.5t100 45.5t144.5 17.5h44q88 0 153.5 -18t103.5 -47t61.5 -72t31 -84.5t7.5 -93.5v-20h-515q9 -51 44.5 -78t110.5 -27q97 0 121 48h237z" />
    <glyph glyph-name="edieresis" unicode="&#xeb;" horiz-adv-x="845" 
d="M391 613h-217v146h217v-146zM664 613h-217v146h217v-146zM421 435q-65 0 -96 -23.5t-40 -67.5h270q0 91 -134 91zM795 178q-2 -21 -8 -42t-28 -49.5t-57 -49.5t-100.5 -36t-151.5 -15h-41q-84 0 -149.5 17.5t-104.5 45.5t-63.5 66.5t-33.5 76t-9 79.5v14q0 42 8.5 79.5
t32.5 76t61.5 66.5t100 45.5t144.5 17.5h44q88 0 153.5 -18t103.5 -47t61.5 -72t31 -84.5t7.5 -93.5v-20h-515q9 -51 44.5 -78t110.5 -27q97 0 121 48h237z" />
    <glyph glyph-name="igrave" unicode="&#xec;" horiz-adv-x="383" 
d="M301 615h-222l-110 154h242zM305 0h-227v557h227v-557z" />
    <glyph glyph-name="iacute" unicode="&#xed;" horiz-adv-x="383" 
d="M171 769h242l-109 -154h-221zM305 0h-227v557h227v-557z" />
    <glyph glyph-name="icircumflex" unicode="&#xee;" horiz-adv-x="383" 
d="M441 614h-201l-49 68l-48 -68h-198l116 155h263zM305 0h-227v557h227v-557z" />
    <glyph glyph-name="idieresis" unicode="&#xef;" horiz-adv-x="383" 
d="M165 613h-188v146h188v-146zM406 613h-188v146h188v-146zM305 0h-227v557h227v-557z" />
    <glyph glyph-name="eth" unicode="&#xf0;" horiz-adv-x="857" 
d="M411 -15q-101 0 -174.5 24t-113 65t-57.5 88t-18 102v16q0 119 68.5 194t205.5 75h11q97 0 169 -39l-112 96l-227 -29v81l145 18l-94 81h274l61 -51l195 24v-79l-113 -15l11 -8q90 -76 128.5 -152.5t38.5 -174.5v-16q0 -300 -365 -300h-33zM574 281q0 23 -6 44.5
t-20 43.5t-43.5 35t-70.5 13h-9q-41 0 -70.5 -13t-43.5 -35t-20 -43t-6 -45v-1q0 -23 6 -44.5t20 -44t43.5 -36t70.5 -13.5h9q41 0 70.5 14t43.5 36.5t20 44t6 43.5v1z" />
    <glyph glyph-name="ntilde" unicode="&#xf1;" horiz-adv-x="858" 
d="M78 557h225v-88q19 22 43 41.5t76.5 40t112.5 20.5h10q115 0 176 -63t61 -148v-360h-227v284q0 50 -30 82.5t-92 32.5q-61 0 -94.5 -35.5t-33.5 -87.5v-276h-227v557zM634 718q0 -41 -22 -71.5t-70 -30.5h-2q-43 0 -122 36q-41 21 -52 21q-15 0 -15 -22v-40h-124v86
q0 41 21 71.5t70 30.5h3q43 0 121 -37q41 -20 52 -20q15 0 15 21v41h125v-86z" />
    <glyph glyph-name="ograve" unicode="&#xf2;" horiz-adv-x="857" 
d="M413 -15q-92 0 -161 20.5t-106.5 50t-61 70.5t-30 74t-6.5 69v14q0 35 6.5 68.5t29.5 75t60.5 72.5t106.5 52t161 21h34q95 0 165 -21.5t106.5 -51.5t58.5 -72.5t27.5 -74.5t5.5 -68v-16q0 -25 -2.5 -47.5t-12 -52t-24.5 -54t-43 -49t-65 -42t-93 -28t-124 -10.5h-32z
M433 142q75 0 107.5 43t32.5 96q0 24 -6.5 46.5t-21 43.5t-43.5 33.5t-69 12.5h-9q-78 0 -109 -40t-31 -96q0 -24 6 -46t20 -44.5t43.5 -35.5t70.5 -13h9zM540 615h-222l-121 154h250z" />
    <glyph glyph-name="oacute" unicode="&#xf3;" horiz-adv-x="857" 
d="M410 769h250l-121 -154h-222zM413 -15q-92 0 -161 20.5t-106.5 50t-61 70.5t-30 74t-6.5 69v14q0 35 6.5 68.5t29.5 75t60.5 72.5t106.5 52t161 21h34q95 0 165 -21.5t106.5 -51.5t58.5 -72.5t27.5 -74.5t5.5 -68v-16q0 -25 -2.5 -47.5t-12 -52t-24.5 -54t-43 -49
t-65 -42t-93 -28t-124 -10.5h-32zM433 142q75 0 107.5 43t32.5 96q0 24 -6.5 46.5t-21 43.5t-43.5 33.5t-69 12.5h-9q-78 0 -109 -40t-31 -96q0 -24 6 -46t20 -44.5t43.5 -35.5t70.5 -13h9z" />
    <glyph glyph-name="ocircumflex" unicode="&#xf4;" horiz-adv-x="857" 
d="M702 614h-216l-58 66l-58 -66h-212l137 155h268zM413 -15q-92 0 -161 20.5t-106.5 50t-61 70.5t-30 74t-6.5 69v14q0 35 6.5 68.5t29.5 75t60.5 72.5t106.5 52t161 21h34q95 0 165 -21.5t106.5 -51.5t58.5 -72.5t27.5 -74.5t5.5 -68v-16q0 -25 -2.5 -47.5t-12 -52
t-24.5 -54t-43 -49t-65 -42t-93 -28t-124 -10.5h-32zM433 142q75 0 107.5 43t32.5 96q0 24 -6.5 46.5t-21 43.5t-43.5 33.5t-69 12.5h-9q-78 0 -109 -40t-31 -96q0 -24 6 -46t20 -44.5t43.5 -35.5t70.5 -13h9z" />
    <glyph glyph-name="otilde" unicode="&#xf5;" horiz-adv-x="857" 
d="M413 -15q-92 0 -161 20.5t-106.5 50t-61 70.5t-30 74t-6.5 69v14q0 35 6.5 68.5t29.5 75t60.5 72.5t106.5 52t161 21h34q95 0 165 -21.5t106.5 -51.5t58.5 -72.5t27.5 -74.5t5.5 -68v-16q0 -25 -2.5 -47.5t-12 -52t-24.5 -54t-43 -49t-65 -42t-93 -28t-124 -10.5h-32z
M433 142q75 0 107.5 43t32.5 96q0 24 -6.5 46.5t-21 43.5t-43.5 33.5t-69 12.5h-9q-78 0 -109 -40t-31 -96q0 -24 6 -46t20 -44.5t43.5 -35.5t70.5 -13h9zM632 718q0 -41 -22 -71.5t-70 -30.5h-2q-43 0 -122 36q-41 21 -52 21q-15 0 -15 -22v-40h-124v86q0 41 21 71.5
t70 30.5h3q43 0 121 -37q41 -20 52 -20q15 0 15 21v41h125v-86z" />
    <glyph glyph-name="odieresis" unicode="&#xf6;" horiz-adv-x="857" 
d="M400 613h-217v146h217v-146zM673 613h-217v146h217v-146zM413 -15q-92 0 -161 20.5t-106.5 50t-61 70.5t-30 74t-6.5 69v14q0 35 6.5 68.5t29.5 75t60.5 72.5t106.5 52t161 21h34q95 0 165 -21.5t106.5 -51.5t58.5 -72.5t27.5 -74.5t5.5 -68v-16q0 -25 -2.5 -47.5
t-12 -52t-24.5 -54t-43 -49t-65 -42t-93 -28t-124 -10.5h-32zM433 142q75 0 107.5 43t32.5 96q0 24 -6.5 46.5t-21 43.5t-43.5 33.5t-69 12.5h-9q-78 0 -109 -40t-31 -96q0 -24 6 -46t20 -44.5t43.5 -35.5t70.5 -13h9z" />
    <glyph glyph-name="divide" unicode="&#xf7;" horiz-adv-x="675" 
d="M439 455h-203v163h203v-163zM606 393v-143h-537v143h537zM439 21h-203v164h203v-164z" />
    <glyph glyph-name="oslash" unicode="&#xf8;" horiz-adv-x="854" 
d="M411 -15q-129 0 -208 42l-33 -27h-152l102 86q-72 71 -72 183v14q0 35 6 67t28 75t59 73.5t106.5 52t162.5 21.5h34q130 0 207 -41l31 26h152l-100 -84q71 -67 71 -189v-16q0 -25 -2 -46.5t-11 -51.5t-23.5 -54t-42 -49.5t-64.5 -42.5t-93.5 -28t-125.5 -11h-32zM266 280
q0 -30 9 -64l237 199q-38 10 -80 10h-10q-46 0 -78.5 -13t-48.5 -35.5t-22.5 -45.5t-6.5 -50v-1zM432 136q86 0 121.5 42.5t35.5 99.5v2q0 40 -8 64l-238 -199q34 -9 79 -9h10z" />
    <glyph glyph-name="ugrave" unicode="&#xf9;" horiz-adv-x="852" 
d="M774 0h-225v88q-27 -36 -86 -69t-143 -33h-10q-115 0 -174.5 62t-59.5 148v361h227v-284q0 -50 29 -82.5t90 -32.5q60 0 92.5 35t32.5 88v276h227v-557zM537 615h-222l-121 154h250z" />
    <glyph glyph-name="uacute" unicode="&#xfa;" horiz-adv-x="852" 
d="M406 769h250l-121 -154h-222zM774 0h-225v88q-27 -36 -86 -69t-143 -33h-10q-115 0 -174.5 62t-59.5 148v361h227v-284q0 -50 29 -82.5t90 -32.5q60 0 92.5 35t32.5 88v276h227v-557z" />
    <glyph glyph-name="ucircumflex" unicode="&#xfb;" horiz-adv-x="852" 
d="M699 614h-216l-58 66l-58 -66h-212l137 155h268zM774 0h-225v88q-27 -36 -86 -69t-143 -33h-10q-115 0 -174.5 62t-59.5 148v361h227v-284q0 -50 29 -82.5t90 -32.5q60 0 92.5 35t32.5 88v276h227v-557z" />
    <glyph glyph-name="udieresis" unicode="&#xfc;" horiz-adv-x="852" 
d="M397 613h-217v146h217v-146zM670 613h-217v146h217v-146zM774 0h-225v88q-27 -36 -86 -69t-143 -33h-10q-115 0 -174.5 62t-59.5 148v361h227v-284q0 -50 29 -82.5t90 -32.5q60 0 92.5 35t32.5 88v276h227v-557z" />
    <glyph glyph-name="yacute" unicode="&#xfd;" horiz-adv-x="779" 
d="M116 -39h126q26 0 26 20q0 14 -17 49l-241 527h250l143 -381l135 381h230l-250 -608q-30 -72 -75 -105.5t-118 -33.5h-209v151zM381 769h250l-121 -154h-222z" />
    <glyph glyph-name="thorn" unicode="&#xfe;" horiz-adv-x="871" 
d="M584 281q0 52 -31 91t-105 39h-8q-73 0 -106 -39.5t-33 -90.5v-5q0 -52 32.5 -90t106.5 -38h8q74 0 105 38.5t31 90.5v4zM78 757h223v-273q15 17 37 33.5t71 33.5t106 17h10q85 0 145.5 -23.5t92 -65t45 -88t13.5 -102.5v-17q0 -40 -8.5 -77.5t-30 -75.5t-54.5 -66
t-87 -46t-123 -18h-11q-79 0 -131.5 25t-74.5 50v-254h-223v947z" />
    <glyph glyph-name="ydieresis" unicode="&#xff;" horiz-adv-x="779" 
d="M116 -39h126q26 0 26 20q0 14 -17 49l-241 527h250l143 -381l135 381h230l-250 -608q-30 -72 -75 -105.5t-118 -33.5h-209v151zM371 613h-217v146h217v-146zM644 613h-217v146h217v-146z" />
    <glyph glyph-name="Amacron" unicode="&#x100;" horiz-adv-x="1008" 
d="M494 571l-122 -278h247zM692 129h-393l-57 -129h-239l338 744h315l349 -744h-255zM297 940h402v-126h-402v126z" />
    <glyph glyph-name="amacron" unicode="&#x101;" horiz-adv-x="811" 
d="M359 120q69 0 104.5 33.5t35.5 72.5v35q-35 -9 -112 -22q-67 -11 -90 -24t-23 -39v-2q0 -54 85 -54zM505 73q-74 -84 -215 -84h-17q-111 0 -168 49.5t-57 128.5v4q0 78 56.5 118t198.5 52l155 12q23 2 32 10t9 23v1q0 23 -20.5 36t-83.5 13h-3q-102 0 -102 -56h-228v1
q0 189 314 189h32q83 0 143.5 -12.5t92.5 -30.5t50 -46t22.5 -50t4.5 -51v-178q0 -22 7 -30.5t29 -8.5h26v-163h-184q-69 0 -94 73zM196 751h395v-126h-395v126z" />
    <glyph glyph-name="Abreve" unicode="&#x102;" horiz-adv-x="1008" 
d="M494 571l-122 -278h247zM692 129h-393l-57 -129h-239l338 744h315l349 -744h-255zM484 796q-50 0 -88.5 12.5t-60 30.5t-35 42.5t-18 45t-4.5 40.5v2h159q2 -10 4 -17t8 -17t18.5 -15.5t30.5 -5.5h1q22 0 35.5 11t17 20.5t5.5 23.5h158v-2q0 -25 -10 -52t-31.5 -55
t-64 -46t-99.5 -18h-26z" />
    <glyph glyph-name="abreve" unicode="&#x103;" horiz-adv-x="811" 
d="M359 120q69 0 104.5 33.5t35.5 72.5v35q-35 -9 -112 -22q-67 -11 -90 -24t-23 -39v-2q0 -54 85 -54zM505 73q-74 -84 -215 -84h-17q-111 0 -168 49.5t-57 128.5v4q0 78 56.5 118t198.5 52l155 12q23 2 32 10t9 23v1q0 23 -20.5 36t-83.5 13h-3q-102 0 -102 -56h-228v1
q0 189 314 189h32q83 0 143.5 -12.5t92.5 -30.5t50 -46t22.5 -50t4.5 -51v-178q0 -22 7 -30.5t29 -8.5h26v-163h-184q-69 0 -94 73zM382 610q-61 0 -104 18t-63.5 46.5t-28.5 55t-8 52.5v2h160q0 -11 3.5 -22t17 -22.5t36.5 -11.5h1q31 0 43 18.5t12 37.5h159v-2
q0 -25 -9.5 -52t-30 -55.5t-63 -46.5t-100.5 -18h-25z" />
    <glyph glyph-name="Aogonek" unicode="&#x104;" horiz-adv-x="1008" 
d="M494 571l-122 -278h247zM692 129h-393l-57 -129h-239l338 744h315l349 -744h-255zM851 -191q-129 0 -129 74v2q0 40 44 65t143 50h96q-27 -16 -40 -24.5t-22.5 -19.5t-9.5 -21q0 -24 38 -24h41v-102h-161z" />
    <glyph glyph-name="aogonek" unicode="&#x105;" horiz-adv-x="811" 
d="M359 120q69 0 104.5 33.5t35.5 72.5v35q-35 -9 -112 -22q-67 -11 -90 -24t-23 -39v-2q0 -54 85 -54zM505 73q-74 -84 -215 -84h-17q-111 0 -168 49.5t-57 128.5v4q0 78 56.5 118t198.5 52l155 12q23 2 32 10t9 23v1q0 23 -20.5 36t-83.5 13h-3q-102 0 -102 -56h-228v1
q0 189 314 189h32q83 0 143.5 -12.5t92.5 -30.5t50 -46t22.5 -50t4.5 -51v-178q0 -22 7 -30.5t29 -8.5h26v-163h-184q-69 0 -94 73zM629 -191q-129 0 -129 74v2q0 40 44 65t143 50h96q-27 -16 -40 -24.5t-22.5 -19.5t-9.5 -21q0 -24 38 -24h41v-102h-161z" />
    <glyph glyph-name="Cacute" unicode="&#x106;" horiz-adv-x="1041" 
d="M503 -12q-104 0 -185.5 24.5t-129.5 62.5t-79.5 89.5t-42.5 98.5t-11 96v30q0 50 11 97t42 97.5t79.5 87.5t129.5 61t186 24h46q101 0 180 -18.5t127 -48.5t78.5 -70.5t42 -80.5t11.5 -83v-5h-246q-2 10 -5 20t-17.5 29.5t-35.5 33.5t-62.5 25t-95.5 11
q-63 0 -108.5 -16.5t-69 -45t-34 -59.5t-10.5 -66v-13q0 -33 10.5 -64.5t34.5 -61.5t69.5 -48t108.5 -18q54 0 95 11t62.5 25.5t35.5 34t17 30t5 20.5h246v-6q0 -41 -11 -80t-42 -81t-78 -72.5t-126.5 -50.5t-181.5 -20h-46zM410 801l94 153h253l-117 -153h-230z" />
    <glyph glyph-name="cacute" unicode="&#x107;" horiz-adv-x="832" 
d="M399 769h250l-121 -154h-222zM784 225q0 -30 -6.5 -58t-28 -62.5t-56.5 -59.5t-99 -42.5t-148 -17.5h-49q-85 0 -150 20t-101.5 49.5t-59.5 70.5t-30 76t-7 73v14q0 37 7.5 72t30 75t59 69t101 48.5t149.5 19.5h43q87 0 152.5 -17t101 -41.5t57.5 -58.5t28 -60.5t6 -54.5
v-1h-237q-2 9 -7 19.5t-17 25t-38 24t-62 9.5h-9q-69 0 -99 -39t-30 -95v-1q0 -57 31 -98.5t100 -41.5h9q36 0 62.5 10.5t38 25.5t16.5 27t5 20h237z" />
    <glyph glyph-name="Ccircumflex" unicode="&#x108;" horiz-adv-x="1041" 
d="M802 799h-215l-61 65l-62 -65h-211l142 155h264zM503 -12q-104 0 -185.5 24.5t-129.5 62.5t-79.5 89.5t-42.5 98.5t-11 96v30q0 50 11 97t42 97.5t79.5 87.5t129.5 61t186 24h46q101 0 180 -18.5t127 -48.5t78.5 -70.5t42 -80.5t11.5 -83v-5h-246q-2 10 -5 20t-17.5 29.5
t-35.5 33.5t-62.5 25t-95.5 11q-63 0 -108.5 -16.5t-69 -45t-34 -59.5t-10.5 -66v-13q0 -33 10.5 -64.5t34.5 -61.5t69.5 -48t108.5 -18q54 0 95 11t62.5 25.5t35.5 34t17 30t5 20.5h246v-6q0 -41 -11 -80t-42 -81t-78 -72.5t-126.5 -50.5t-181.5 -20h-46z" />
    <glyph glyph-name="ccircumflex" unicode="&#x109;" horiz-adv-x="832" 
d="M691 614h-216l-58 66l-58 -66h-212l137 155h268zM784 225q0 -30 -6.5 -58t-28 -62.5t-56.5 -59.5t-99 -42.5t-148 -17.5h-49q-85 0 -150 20t-101.5 49.5t-59.5 70.5t-30 76t-7 73v14q0 37 7.5 72t30 75t59 69t101 48.5t149.5 19.5h43q87 0 152.5 -17t101 -41.5
t57.5 -58.5t28 -60.5t6 -54.5v-1h-237q-2 9 -7 19.5t-17 25t-38 24t-62 9.5h-9q-69 0 -99 -39t-30 -95v-1q0 -57 31 -98.5t100 -41.5h9q36 0 62.5 10.5t38 25.5t16.5 27t5 20h237z" />
    <glyph glyph-name="Cdotaccent" unicode="&#x10a;" horiz-adv-x="1041" 
d="M503 -12q-104 0 -185.5 24.5t-129.5 62.5t-79.5 89.5t-42.5 98.5t-11 96v30q0 50 11 97t42 97.5t79.5 87.5t129.5 61t186 24h46q101 0 180 -18.5t127 -48.5t78.5 -70.5t42 -80.5t11.5 -83v-5h-246q-2 10 -5 20t-17.5 29.5t-35.5 33.5t-62.5 25t-95.5 11
q-63 0 -108.5 -16.5t-69 -45t-34 -59.5t-10.5 -66v-13q0 -33 10.5 -64.5t34.5 -61.5t69.5 -48t108.5 -18q54 0 95 11t62.5 25.5t35.5 34t17 30t5 20.5h246v-6q0 -41 -11 -80t-42 -81t-78 -72.5t-126.5 -50.5t-181.5 -20h-46zM642 801h-230v146h230v-146z" />
    <glyph glyph-name="cdotaccent" unicode="&#x10b;" horiz-adv-x="832" 
d="M784 225q0 -30 -6.5 -58t-28 -62.5t-56.5 -59.5t-99 -42.5t-148 -17.5h-49q-85 0 -150 20t-101.5 49.5t-59.5 70.5t-30 76t-7 73v14q0 37 7.5 72t30 75t59 69t101 48.5t149.5 19.5h43q87 0 152.5 -17t101 -41.5t57.5 -58.5t28 -60.5t6 -54.5v-1h-237q-2 9 -7 19.5t-17 25
t-38 24t-62 9.5h-9q-69 0 -99 -39t-30 -95v-1q0 -57 31 -98.5t100 -41.5h9q36 0 62.5 10.5t38 25.5t16.5 27t5 20h237zM533 613h-230v146h230v-146z" />
    <glyph glyph-name="Ccaron" unicode="&#x10c;" horiz-adv-x="1041" 
d="M250 954h216l61 -65l62 65h212l-142 -153h-266zM503 -12q-104 0 -185.5 24.5t-129.5 62.5t-79.5 89.5t-42.5 98.5t-11 96v30q0 50 11 97t42 97.5t79.5 87.5t129.5 61t186 24h46q101 0 180 -18.5t127 -48.5t78.5 -70.5t42 -80.5t11.5 -83v-5h-246q-2 10 -5 20t-17.5 29.5
t-35.5 33.5t-62.5 25t-95.5 11q-63 0 -108.5 -16.5t-69 -45t-34 -59.5t-10.5 -66v-13q0 -33 10.5 -64.5t34.5 -61.5t69.5 -48t108.5 -18q54 0 95 11t62.5 25.5t35.5 34t17 30t5 20.5h246v-6q0 -41 -11 -80t-42 -81t-78 -72.5t-126.5 -50.5t-181.5 -20h-46z" />
    <glyph glyph-name="ccaron" unicode="&#x10d;" horiz-adv-x="832" 
d="M143 769h216l58 -65l58 65h212l-137 -154h-268zM784 225q0 -30 -6.5 -58t-28 -62.5t-56.5 -59.5t-99 -42.5t-148 -17.5h-49q-85 0 -150 20t-101.5 49.5t-59.5 70.5t-30 76t-7 73v14q0 37 7.5 72t30 75t59 69t101 48.5t149.5 19.5h43q87 0 152.5 -17t101 -41.5t57.5 -58.5
t28 -60.5t6 -54.5v-1h-237q-2 9 -7 19.5t-17 25t-38 24t-62 9.5h-9q-69 0 -99 -39t-30 -95v-1q0 -57 31 -98.5t100 -41.5h9q36 0 62.5 10.5t38 25.5t16.5 27t5 20h237z" />
    <glyph glyph-name="Dcaron" unicode="&#x10e;" horiz-adv-x="1038" 
d="M156 954h216l61 -65l62 65h212l-142 -153h-266zM88 744h410q115 0 203 -21.5t140.5 -55t86 -81t45.5 -93.5t12 -98v-30q0 -365 -486 -365h-411v744zM327 179h150q68 0 117.5 13t76 31.5t42 46.5t19.5 50.5t4 51.5v6q0 27 -4 49.5t-19.5 49.5t-42.5 45.5t-76.5 31
t-116.5 12.5h-150v-387z" />
    <glyph glyph-name="dcaron" unicode="&#x10f;" horiz-adv-x="875" 
d="M861 765h187l-32 -152h-175zM423 411q-74 0 -105.5 -39t-31.5 -91v-3q0 -50 32 -90.5t105 -40.5h10q71 0 104.5 39.5t33.5 91.5v3q0 52 -33.5 91t-104.5 39h-10zM797 757v-757h-227v69q-14 -16 -34.5 -31.5t-69.5 -32t-108 -16.5h-12q-148 0 -221.5 82t-73.5 197v20
q0 53 16 101t49 89t91.5 65.5t136.5 24.5h12q128 0 214 -65v254h227z" />
    <glyph glyph-name="Dcroat" unicode="&#x110;" horiz-adv-x="1065" 
d="M504 179q68 0 117.5 13t76 31.5t42 46.5t19.5 50.5t4 51.5v6q0 27 -4 49.5t-19.5 49.5t-42.5 45.5t-76.5 31t-116.5 12.5h-150v-121h233v-138h-233v-128h150zM115 307h-99v138h99v299h410q115 0 203 -21.5t140.5 -55t86 -81t45.5 -93.5t12 -98v-30q0 -365 -486 -365h-411
v307z" />
    <glyph glyph-name="dcroat" unicode="&#x111;" horiz-adv-x="875" 
d="M298 705h589v-88h-589v88zM423 411q-74 0 -105.5 -39t-31.5 -91v-3q0 -50 32 -90.5t105 -40.5h10q71 0 104.5 39.5t33.5 91.5v3q0 52 -33.5 91t-104.5 39h-10zM797 757v-757h-227v69q-14 -16 -34.5 -31.5t-69.5 -32t-108 -16.5h-12q-148 0 -221.5 82t-73.5 197v20
q0 53 16 101t49 89t91.5 65.5t136.5 24.5h12q128 0 214 -65v254h227z" />
    <glyph glyph-name="Emacron" unicode="&#x112;" horiz-adv-x="877" 
d="M801 744v-171h-476v-108h461v-177h-461v-115h482v-173h-719v744h713zM244 940h402v-126h-402v126z" />
    <glyph glyph-name="emacron" unicode="&#x113;" horiz-adv-x="845" 
d="M421 435q-65 0 -96 -23.5t-40 -67.5h270q0 91 -134 91zM795 178q-2 -21 -8 -42t-28 -49.5t-57 -49.5t-100.5 -36t-151.5 -15h-41q-84 0 -149.5 17.5t-104.5 45.5t-63.5 66.5t-33.5 76t-9 79.5v14q0 42 8.5 79.5t32.5 76t61.5 66.5t100 45.5t144.5 17.5h44q88 0 153.5 -18
t103.5 -47t61.5 -72t31 -84.5t7.5 -93.5v-20h-515q9 -51 44.5 -78t110.5 -27q97 0 121 48h237zM221 751h395v-126h-395v126z" />
    <glyph glyph-name="Ebreve" unicode="&#x114;" horiz-adv-x="877" 
d="M801 744v-171h-476v-108h461v-177h-461v-115h482v-173h-719v744h713zM431 796q-50 0 -88.5 12.5t-60 30.5t-35 42.5t-18 45t-4.5 40.5v2h159q2 -10 4 -17t8 -17t18.5 -15.5t30.5 -5.5h1q22 0 35.5 11t17 20.5t5.5 23.5h158v-2q0 -25 -10 -52t-31.5 -55t-64 -46t-99.5 -18
h-26z" />
    <glyph glyph-name="ebreve" unicode="&#x115;" horiz-adv-x="845" 
d="M421 435q-65 0 -96 -23.5t-40 -67.5h270q0 91 -134 91zM795 178q-2 -21 -8 -42t-28 -49.5t-57 -49.5t-100.5 -36t-151.5 -15h-41q-84 0 -149.5 17.5t-104.5 45.5t-63.5 66.5t-33.5 76t-9 79.5v14q0 42 8.5 79.5t32.5 76t61.5 66.5t100 45.5t144.5 17.5h44q88 0 153.5 -18
t103.5 -47t61.5 -72t31 -84.5t7.5 -93.5v-20h-515q9 -51 44.5 -78t110.5 -27q97 0 121 48h237zM406 610q-61 0 -104 18t-63.5 46.5t-28.5 55t-8 52.5v2h160q0 -11 3.5 -22t17 -22.5t36.5 -11.5h1q31 0 43 18.5t12 37.5h159v-2q0 -25 -9.5 -52t-30 -55.5t-63 -46.5
t-100.5 -18h-25z" />
    <glyph glyph-name="Edotaccent" unicode="&#x116;" horiz-adv-x="877" 
d="M561 801h-230v146h230v-146zM801 744v-171h-476v-108h461v-177h-461v-115h482v-173h-719v744h713z" />
    <glyph glyph-name="edotaccent" unicode="&#x117;" horiz-adv-x="845" 
d="M421 435q-65 0 -96 -23.5t-40 -67.5h270q0 91 -134 91zM795 178q-2 -21 -8 -42t-28 -49.5t-57 -49.5t-100.5 -36t-151.5 -15h-41q-84 0 -149.5 17.5t-104.5 45.5t-63.5 66.5t-33.5 76t-9 79.5v14q0 42 8.5 79.5t32.5 76t61.5 66.5t100 45.5t144.5 17.5h44q88 0 153.5 -18
t103.5 -47t61.5 -72t31 -84.5t7.5 -93.5v-20h-515q9 -51 44.5 -78t110.5 -27q97 0 121 48h237zM535 613h-230v146h230v-146z" />
    <glyph glyph-name="Eogonek" unicode="&#x118;" horiz-adv-x="877" 
d="M557 -191q-129 0 -129 74v2q0 40 44 65t143 50h96q-27 -16 -40 -24.5t-22.5 -19.5t-9.5 -21q0 -24 38 -24h41v-102h-161zM801 744v-171h-476v-108h461v-177h-461v-115h482v-173h-719v744h713z" />
    <glyph glyph-name="eogonek" unicode="&#x119;" horiz-adv-x="845" 
d="M421 437q-65 0 -96 -23.5t-40 -68.5h270q0 92 -134 92zM675 -191h-163q-130 0 -130 74v3q0 34 36.5 59t113.5 46q-38 -3 -82 -3h-41q-71 0 -128 12t-95.5 33.5t-66 48.5t-42.5 60t-21.5 64.5t-6.5 65.5v14q0 42 8.5 79.5t32.5 76t61.5 66.5t100 45.5t144.5 17.5h44
q88 0 153.5 -18t103.5 -47t61.5 -72t31 -84.5t7.5 -93.5v-20h-515q9 -51 44.5 -78t110.5 -27q21 0 38.5 2t29.5 6t20.5 8t14.5 10l9 9t6 8l3 5h237q-5 -87 -115 -163q-52 -35 -68.5 -49.5t-16.5 -29.5q0 -25 39 -25h41v-103z" />
    <glyph glyph-name="Ecaron" unicode="&#x11a;" horiz-adv-x="877" 
d="M169 954h216l61 -65l62 65h212l-142 -153h-266zM801 744v-171h-476v-108h461v-177h-461v-115h482v-173h-719v744h713z" />
    <glyph glyph-name="ecaron" unicode="&#x11b;" horiz-adv-x="845" 
d="M145 769h216l58 -65l58 65h212l-137 -154h-268zM421 435q-65 0 -96 -23.5t-40 -67.5h270q0 91 -134 91zM795 178q-2 -21 -8 -42t-28 -49.5t-57 -49.5t-100.5 -36t-151.5 -15h-41q-84 0 -149.5 17.5t-104.5 45.5t-63.5 66.5t-33.5 76t-9 79.5v14q0 42 8.5 79.5t32.5 76
t61.5 66.5t100 45.5t144.5 17.5h44q88 0 153.5 -18t103.5 -47t61.5 -72t31 -84.5t7.5 -93.5v-20h-515q9 -51 44.5 -78t110.5 -27q97 0 121 48h237z" />
    <glyph glyph-name="Gcircumflex" unicode="&#x11c;" horiz-adv-x="1079" 
d="M805 799h-215l-61 65l-62 -65h-211l142 155h264zM491 -11q-97 0 -173.5 23t-125 60t-80 87t-44.5 100.5t-13 103.5v24q0 52 12.5 100.5t45 98.5t82.5 86.5t131.5 59.5t185.5 23h34q127 0 219 -25.5t139.5 -67t68.5 -85.5t21 -91v-3h-249q-39 88 -215 88
q-122 0 -174.5 -54t-52.5 -135v-12q0 -37 12 -70t37 -62.5t72 -47t110 -17.5q59 0 102.5 12t65 30.5t30.5 33t12 26.5h-208v136h467v-411h-178q-5 42 -30 99q-96 -110 -287 -110h-17z" />
    <glyph glyph-name="gcircumflex" unicode="&#x11d;" horiz-adv-x="875" 
d="M694 614h-216l-58 66l-58 -66h-212l137 155h268zM425 414q-75 0 -107 -35.5t-32 -83.5v-2q0 -47 33 -83.5t106 -36.5h10q71 0 104.5 35.5t33.5 82.5v4q0 47 -34 83t-105 36h-9zM422 -205q-339 0 -339 184v4h246q14 -37 108 -37h10q125 0 125 108v39q-74 -74 -211 -74h-14
q-81 0 -140.5 23.5t-92.5 63.5t-48 85t-15 95v17q0 52 15.5 97t48.5 84t91 61.5t136 22.5h11q135 0 218 -66v55h226v-494q0 -268 -343 -268h-32z" />
    <glyph glyph-name="Gbreve" unicode="&#x11e;" horiz-adv-x="1079" 
d="M515 796q-50 0 -88.5 12.5t-60 30.5t-35 42.5t-18 45t-4.5 40.5v2h159q2 -10 4 -17t8 -17t18.5 -15.5t30.5 -5.5h1q22 0 35.5 11t17 20.5t5.5 23.5h158v-2q0 -25 -10 -52t-31.5 -55t-64 -46t-99.5 -18h-26zM491 -11q-97 0 -173.5 23t-125 60t-80 87t-44.5 100.5
t-13 103.5v24q0 52 12.5 100.5t45 98.5t82.5 86.5t131.5 59.5t185.5 23h34q127 0 219 -25.5t139.5 -67t68.5 -85.5t21 -91v-3h-249q-39 88 -215 88q-122 0 -174.5 -54t-52.5 -135v-12q0 -37 12 -70t37 -62.5t72 -47t110 -17.5q59 0 102.5 12t65 30.5t30.5 33t12 26.5h-208
v136h467v-411h-178q-5 42 -30 99q-96 -110 -287 -110h-17z" />
    <glyph glyph-name="gbreve" unicode="&#x11f;" horiz-adv-x="875" 
d="M425 414q-75 0 -107 -35.5t-32 -83.5v-2q0 -47 33 -83.5t106 -36.5h10q71 0 104.5 35.5t33.5 82.5v4q0 47 -34 83t-105 36h-9zM422 -205q-339 0 -339 184v4h246q14 -37 108 -37h10q125 0 125 108v39q-74 -74 -211 -74h-14q-81 0 -140.5 23.5t-92.5 63.5t-48 85t-15 95v17
q0 52 15.5 97t48.5 84t91 61.5t136 22.5h11q135 0 218 -66v55h226v-494q0 -268 -343 -268h-32zM411 610q-61 0 -104 18t-63.5 46.5t-28.5 55t-8 52.5v2h160q0 -11 3.5 -22t17 -22.5t36.5 -11.5h1q31 0 43 18.5t12 37.5h159v-2q0 -25 -9.5 -52t-30 -55.5t-63 -46.5
t-100.5 -18h-25z" />
    <glyph glyph-name="Gdotaccent" unicode="&#x120;" horiz-adv-x="1079" 
d="M645 801h-230v146h230v-146zM491 -11q-97 0 -173.5 23t-125 60t-80 87t-44.5 100.5t-13 103.5v24q0 52 12.5 100.5t45 98.5t82.5 86.5t131.5 59.5t185.5 23h34q127 0 219 -25.5t139.5 -67t68.5 -85.5t21 -91v-3h-249q-39 88 -215 88q-122 0 -174.5 -54t-52.5 -135v-12
q0 -37 12 -70t37 -62.5t72 -47t110 -17.5q59 0 102.5 12t65 30.5t30.5 33t12 26.5h-208v136h467v-411h-178q-5 42 -30 99q-96 -110 -287 -110h-17z" />
    <glyph glyph-name="gdotaccent" unicode="&#x121;" horiz-adv-x="875" 
d="M425 414q-75 0 -107 -35.5t-32 -83.5v-2q0 -47 33 -83.5t106 -36.5h10q71 0 104.5 35.5t33.5 82.5v4q0 47 -34 83t-105 36h-9zM422 -205q-339 0 -339 184v4h246q14 -37 108 -37h10q125 0 125 108v39q-74 -74 -211 -74h-14q-81 0 -140.5 23.5t-92.5 63.5t-48 85t-15 95v17
q0 52 15.5 97t48.5 84t91 61.5t136 22.5h11q135 0 218 -66v55h226v-494q0 -268 -343 -268h-32zM535 613h-230v146h230v-146z" />
    <glyph glyph-name="uni0122" unicode="&#x122;" horiz-adv-x="1079" 
d="M482 -286q25 41 31 84h-106v145h244v-112q0 -60 -40 -117h-129zM491 -11q-97 0 -173.5 23t-125 60t-80 87t-44.5 100.5t-13 103.5v24q0 52 12.5 100.5t45 98.5t82.5 86.5t131.5 59.5t185.5 23h34q127 0 219 -25.5t139.5 -67t68.5 -85.5t21 -91v-3h-249q-39 88 -215 88
q-122 0 -174.5 -54t-52.5 -135v-12q0 -37 12 -70t37 -62.5t72 -47t110 -17.5q59 0 102.5 12t65 30.5t30.5 33t12 26.5h-208v136h467v-411h-178q-5 42 -30 99q-96 -110 -287 -110h-17z" />
    <glyph glyph-name="uni0123" unicode="&#x123;" horiz-adv-x="875" 
d="M464 844q-25 -47 -30 -84h105v-145h-242v113q0 59 40 116h127zM425 414q-75 0 -107 -35.5t-32 -83.5v-2q0 -47 33 -83.5t106 -36.5h10q71 0 104.5 35.5t33.5 82.5v4q0 47 -34 83t-105 36h-9zM422 -205q-339 0 -339 184v4h246q14 -37 108 -37h10q125 0 125 108v39
q-74 -74 -211 -74h-14q-81 0 -140.5 23.5t-92.5 63.5t-48 85t-15 95v17q0 52 15.5 97t48.5 84t91 61.5t136 22.5h11q135 0 218 -66v55h226v-494q0 -268 -343 -268h-32z" />
    <glyph glyph-name="Hcircumflex" unicode="&#x124;" horiz-adv-x="1049" 
d="M88 744h239v-269h395v269h239v-744h-239v290h-395v-290h-239v744zM800 799h-215l-61 65l-62 -65h-211l142 155h264z" />
    <glyph glyph-name="hcircumflex" unicode="&#x125;" horiz-adv-x="858" 
d="M637 815h-216l-58 66l-58 -66h-212l137 155h268zM78 757h227v-286q18 21 42 40.5t76 39.5t112 20h10q115 0 176 -63t61 -148v-360h-227v284q0 50 -30 82.5t-92 32.5q-61 0 -94.5 -35.5t-33.5 -87.5v-276h-227v757z" />
    <glyph glyph-name="Hbar" unicode="&#x126;" horiz-adv-x="1058" 
d="M331 556v-81h396v81h-396zM93 556h-86v107h86v81h238v-81h396v81h238v-81h86v-107h-86v-556h-238v290h-396v-290h-238v556z" />
    <glyph glyph-name="hbar" unicode="&#x127;" horiz-adv-x="856" 
d="M574 705v-88h-587v88h587zM78 757h227v-286q18 21 42 40.5t76 39.5t112 20h10q115 0 176 -63t61 -148v-360h-227v284q0 50 -30 82.5t-92 32.5q-61 0 -94.5 -35.5t-33.5 -87.5v-276h-227v757z" />
    <glyph glyph-name="Itilde" unicode="&#x128;" horiz-adv-x="415" 
d="M327 0h-239v744h239v-744zM121 797h-125v84q0 42 22 72t71 30h2q40 0 132 -37q47 -19 57 -19q14 0 14 22v39h125v-84q0 -42 -22 -72t-71 -30h-2q-40 0 -132 37q-47 19 -57 19q-14 0 -14 -22v-39z" />
    <glyph glyph-name="itilde" unicode="&#x129;" horiz-adv-x="383" 
d="M385 718q0 -41 -21 -71.5t-67 -30.5h-2q-27 0 -49.5 7.5t-65.5 28.5q-41 21 -50 21q-15 0 -15 -22v-40h-120v86q0 41 20.5 71.5t66.5 30.5h3q44 0 115 -37q39 -20 50 -20q15 0 15 21v41h120v-86zM305 0h-227v557h227v-557z" />
    <glyph glyph-name="Imacron" unicode="&#x12a;" horiz-adv-x="415" 
d="M327 0h-239v744h239v-744zM7 940h402v-126h-402v126z" />
    <glyph glyph-name="imacron" unicode="&#x12b;" horiz-adv-x="383" 
d="M11 751h361v-126h-361v126zM305 0h-227v557h227v-557z" />
    <glyph glyph-name="Ibreve" unicode="&#x12c;" horiz-adv-x="415" 
d="M327 0h-239v744h239v-744zM194 796q-50 0 -88.5 12.5t-60 30.5t-35 42.5t-18 45t-4.5 40.5v2h159q2 -10 4 -17t8 -17t18.5 -15.5t30.5 -5.5h1q22 0 35.5 11t17 20.5t5.5 23.5h158v-2q0 -25 -10 -52t-31.5 -55t-64 -46t-99.5 -18h-26z" />
    <glyph glyph-name="ibreve" unicode="&#x12d;" horiz-adv-x="383" 
d="M183 610q-48 0 -85 12.5t-58 31t-34 43t-17.5 45t-4.5 39.5v2h156q0 -10 3 -21t16 -22.5t34 -11.5q29 0 40.5 18.5t11.5 36.5h154v-2q0 -24 -9 -50.5t-29.5 -55t-62 -47t-97.5 -18.5h-18zM305 0h-227v557h227v-557z" />
    <glyph glyph-name="Iogonek" unicode="&#x12e;" horiz-adv-x="415" 
d="M327 0h-239v744h239v-744zM173 -191q-129 0 -129 74v2q0 40 44 65t143 50h96q-27 -16 -40 -24.5t-22.5 -19.5t-9.5 -21q0 -24 38 -24h41v-102h-161z" />
    <glyph glyph-name="iogonek" unicode="&#x12f;" horiz-adv-x="383" 
d="M306 613h-229v146h229v-146zM305 0h-227v557h227v-557zM152 -191q-129 0 -129 74v2q0 40 44 65t143 50h96q-27 -16 -40 -24.5t-22.5 -19.5t-9.5 -21q0 -24 38 -24h41v-102h-161z" />
    <glyph glyph-name="Idotaccent" unicode="&#x130;" horiz-adv-x="415" 
d="M327 0h-239v744h239v-744zM324 801h-230v146h230v-146z" />
    <glyph glyph-name="dotlessi" unicode="&#x131;" horiz-adv-x="383" 
d="M305 0h-227v557h227v-557z" />
    <glyph glyph-name="IJ" unicode="&#x132;" horiz-adv-x="1315" 
d="M327 0h-239v744h239v-744zM821 -12q-89 0 -157 22.5t-107.5 57t-64 81t-33 88t-8.5 85.5v5h243q1 -22 7 -43t19.5 -46t43.5 -40.5t72 -15.5h4q152 0 152 169v393h239v-399q0 -47 -8 -91t-32.5 -94.5t-64 -87t-109 -60.5t-160.5 -24h-36z" />
    <glyph glyph-name="ij" unicode="&#x133;" horiz-adv-x="766" 
d="M306 613h-229v146h229v-146zM305 0h-227v557h227v-557zM689 613h-229v146h229v-146zM424 -35q21 0 29 9.5t8 31.5v551h227v-599q0 -71 -32.5 -109.5t-95.5 -38.5h-192v155h56z" />
    <glyph glyph-name="Jcircumflex" unicode="&#x134;" horiz-adv-x="900" 
d="M972 799h-215l-61 65l-62 -65h-211l142 155h264zM407 -12q-89 0 -157 22.5t-107.5 57t-64 81t-33 88t-8.5 85.5v5h243q1 -22 7 -43t19.5 -46t43.5 -40.5t72 -15.5h4q152 0 152 169v393h239v-399q0 -47 -8 -91t-32.5 -94.5t-64 -87t-109 -60.5t-160.5 -24h-36z" />
    <glyph glyph-name="jcircumflex" unicode="&#x135;" horiz-adv-x="383" 
d="M441 613h-201l-49 66l-48 -66h-198l117 155h261zM41 -35q21 0 29 9.5t8 31.5v551h227v-599q0 -71 -32.5 -109.5t-95.5 -38.5h-192v155h56z" />
    <glyph glyph-name="uni0136" unicode="&#x136;" horiz-adv-x="956" 
d="M441 -286q25 41 31 84h-106v145h244v-112q0 -60 -40 -117h-129zM88 0v744h238v-297l327 297h290l-377 -338l398 -406h-306l-332 341v-341h-238z" />
    <glyph glyph-name="uni0137" unicode="&#x137;" horiz-adv-x="761" 
d="M355 -286q25 41 31 84h-106v145h244v-112q0 -60 -40 -117h-129zM78 0v757h227v-416l180 216h254l-219 -250l244 -307h-262l-197 250v-250h-227z" />
    <glyph glyph-name="Lacute" unicode="&#x139;" horiz-adv-x="826" 
d="M92 801l94 153h253l-117 -153h-230zM327 744v-550h450v-194h-689v744h239z" />
    <glyph glyph-name="lacute" unicode="&#x13a;" horiz-adv-x="383" 
d="M175 968h250l-121 -154h-222zM305 0h-227v757h227v-757z" />
    <glyph glyph-name="uni013B" unicode="&#x13b;" horiz-adv-x="826" 
d="M385 -286q25 41 31 84h-106v145h244v-112q0 -60 -40 -117h-129zM327 744v-550h450v-194h-689v744h239z" />
    <glyph glyph-name="uni013C" unicode="&#x13c;" horiz-adv-x="383" 
d="M147 -286q25 41 31 84h-106v145h244v-112q0 -60 -40 -117h-129zM305 0h-227v757h227v-757z" />
    <glyph glyph-name="Lcaron" unicode="&#x13d;" horiz-adv-x="826" 
d="M391 752h187l-32 -152h-175zM327 744v-550h450v-194h-689v744h239z" />
    <glyph glyph-name="lcaron" unicode="&#x13e;" horiz-adv-x="383" 
d="M369 765h187l-32 -152h-175zM305 0h-227v757h227v-757z" />
    <glyph glyph-name="Ldot" unicode="&#x13f;" horiz-adv-x="827" 
d="M327 744v-550h450v-194h-689v744h239zM757 316h-256v208h256v-208z" />
    <glyph glyph-name="ldot" unicode="&#x140;" horiz-adv-x="662" 
d="M305 0h-227v757h227v-757zM650 270h-256v208h256v-208z" />
    <glyph glyph-name="Lslash" unicode="&#x141;" horiz-adv-x="849" 
d="M349 744v-296l265 101v-140l-265 -98v-117h450v-194h-689v224l-98 -36v132l98 37v387h239z" />
    <glyph glyph-name="lslash" unicode="&#x142;" horiz-adv-x="436" 
d="M331 0h-227v294l-89 -38v129l89 39v333h227v-234l90 39v-131l-90 -39v-392z" />
    <glyph glyph-name="Nacute" unicode="&#x143;" horiz-adv-x="1070" 
d="M419 801l94 153h253l-117 -153h-230zM321 454v-454h-233v744h244l418 -446v446h232v-744h-231z" />
    <glyph glyph-name="nacute" unicode="&#x144;" horiz-adv-x="858" 
d="M406 769h250l-121 -154h-222zM78 557h225v-88q19 22 43 41.5t76.5 40t112.5 20.5h10q115 0 176 -63t61 -148v-360h-227v284q0 50 -30 82.5t-92 32.5q-61 0 -94.5 -35.5t-33.5 -87.5v-276h-227v557z" />
    <glyph glyph-name="uni0145" unicode="&#x145;" horiz-adv-x="1070" 
d="M488 -286q25 41 31 84h-106v145h244v-112q0 -60 -40 -117h-129zM321 454v-454h-233v744h244l418 -446v446h232v-744h-231z" />
    <glyph glyph-name="uni0146" unicode="&#x146;" horiz-adv-x="858" 
d="M384 -286q25 41 31 84h-106v145h244v-112q0 -60 -40 -117h-129zM78 557h225v-88q19 22 43 41.5t76.5 40t112.5 20.5h10q115 0 176 -63t61 -148v-360h-227v284q0 50 -30 82.5t-92 32.5q-61 0 -94.5 -35.5t-33.5 -87.5v-276h-227v557z" />
    <glyph glyph-name="Ncaron" unicode="&#x147;" horiz-adv-x="1070" 
d="M262 954h216l61 -65l62 65h212l-142 -153h-266zM321 454v-454h-233v744h244l418 -446v446h232v-744h-231z" />
    <glyph glyph-name="ncaron" unicode="&#x148;" horiz-adv-x="858" 
d="M156 769h216l58 -65l58 65h212l-137 -154h-268zM78 557h225v-88q19 22 43 41.5t76.5 40t112.5 20.5h10q115 0 176 -63t61 -148v-360h-227v284q0 50 -30 82.5t-92 32.5q-61 0 -94.5 -35.5t-33.5 -87.5v-276h-227v557z" />
    <glyph glyph-name="napostrophe" unicode="&#x149;" horiz-adv-x="1152" 
d="M87 422q45 76 58 144h-114v178h254v-141q0 -88 -53 -181h-145zM371 557h225v-88q19 22 43 41.5t76.5 40t112.5 20.5h10q115 0 176 -63t61 -148v-360h-227v284q0 50 -30 82.5t-92 32.5q-61 0 -94.5 -35.5t-33.5 -87.5v-276h-227v557z" />
    <glyph glyph-name="Eng" unicode="&#x14a;" horiz-adv-x="1071" 
d="M600 -30h117q34 0 34 23q0 13 -16 29l-414 432v-454h-233v744h244l419 -442v442h232v-756q0 -180 -161 -180h-222v162z" />
    <glyph glyph-name="eng" unicode="&#x14b;" horiz-adv-x="858" 
d="M517 -35q21 0 29.5 9.5t8.5 31.5v278q0 50 -30 82.5t-92 32.5q-61 0 -94.5 -35.5t-33.5 -87.5v-276h-227v557h225v-88q19 22 43 41.5t76.5 40t112.5 20.5h10q115 0 176 -63t61 -148v-402q0 -71 -32.5 -109.5t-96.5 -38.5h-192v155h56z" />
    <glyph glyph-name="Omacron" unicode="&#x14c;" horiz-adv-x="1081" 
d="M339 940h402v-126h-402v126zM563 756q107 0 190.5 -23.5t133.5 -60t82.5 -86.5t44.5 -98t12 -99v-30q0 -51 -12 -99t-44 -98.5t-82 -88t-134 -61.5t-191 -24h-45q-107 0 -190.5 24t-133.5 61.5t-82.5 88t-44.5 98.5t-12 99v30q0 51 12 99t44.5 98t82.5 86.5t133.5 60
t190.5 23.5h45zM777 381q0 35 -9.5 64.5t-33.5 59.5t-73.5 47.5t-119.5 17.5q-71 0 -120.5 -17.5t-73.5 -47.5t-33.5 -59.5t-9.5 -64.5v-13q0 -34 10 -64.5t34.5 -61t74 -48.5t118.5 -18q70 0 119.5 18t73.5 48.5t33.5 60.5t9.5 65v13z" />
    <glyph glyph-name="omacron" unicode="&#x14d;" horiz-adv-x="857" 
d="M231 751h395v-126h-395v126zM413 -15q-92 0 -161 20.5t-106.5 50t-61 70.5t-30 74t-6.5 69v14q0 35 6.5 68.5t29.5 75t60.5 72.5t106.5 52t161 21h34q95 0 165 -21.5t106.5 -51.5t58.5 -72.5t27.5 -74.5t5.5 -68v-16q0 -25 -2.5 -47.5t-12 -52t-24.5 -54t-43 -49t-65 -42
t-93 -28t-124 -10.5h-32zM433 142q75 0 107.5 43t32.5 96q0 24 -6.5 46.5t-21 43.5t-43.5 33.5t-69 12.5h-9q-78 0 -109 -40t-31 -96q0 -24 6 -46t20 -44.5t43.5 -35.5t70.5 -13h9z" />
    <glyph glyph-name="Obreve" unicode="&#x14e;" horiz-adv-x="1081" 
d="M526 796q-50 0 -88.5 12.5t-60 30.5t-35 42.5t-18 45t-4.5 40.5v2h159q2 -10 4 -17t8 -17t18.5 -15.5t30.5 -5.5h1q22 0 35.5 11t17 20.5t5.5 23.5h158v-2q0 -25 -10 -52t-31.5 -55t-64 -46t-99.5 -18h-26zM563 756q107 0 190.5 -23.5t133.5 -60t82.5 -86.5t44.5 -98
t12 -99v-30q0 -51 -12 -99t-44 -98.5t-82 -88t-134 -61.5t-191 -24h-45q-107 0 -190.5 24t-133.5 61.5t-82.5 88t-44.5 98.5t-12 99v30q0 51 12 99t44.5 98t82.5 86.5t133.5 60t190.5 23.5h45zM777 381q0 35 -9.5 64.5t-33.5 59.5t-73.5 47.5t-119.5 17.5
q-71 0 -120.5 -17.5t-73.5 -47.5t-33.5 -59.5t-9.5 -64.5v-13q0 -34 10 -64.5t34.5 -61t74 -48.5t118.5 -18q70 0 119.5 18t73.5 48.5t33.5 60.5t9.5 65v13z" />
    <glyph glyph-name="obreve" unicode="&#x14f;" horiz-adv-x="857" 
d="M413 -15q-92 0 -161 20.5t-106.5 50t-61 70.5t-30 74t-6.5 69v14q0 35 6.5 68.5t29.5 75t60.5 72.5t106.5 52t161 21h34q95 0 165 -21.5t106.5 -51.5t58.5 -72.5t27.5 -74.5t5.5 -68v-16q0 -25 -2.5 -47.5t-12 -52t-24.5 -54t-43 -49t-65 -42t-93 -28t-124 -10.5h-32z
M433 142q75 0 107.5 43t32.5 96q0 24 -6.5 46.5t-21 43.5t-43.5 33.5t-69 12.5h-9q-78 0 -109 -40t-31 -96q0 -24 6 -46t20 -44.5t43.5 -35.5t70.5 -13h9zM416 610q-61 0 -104 18t-63.5 46.5t-28.5 55t-8 52.5v2h160q0 -11 3.5 -22t17 -22.5t36.5 -11.5h1q31 0 43 18.5
t12 37.5h159v-2q0 -25 -9.5 -52t-30 -55.5t-63 -46.5t-100.5 -18h-25z" />
    <glyph glyph-name="Ohungarumlaut" unicode="&#x150;" horiz-adv-x="1081" 
d="M380 954h207l-72 -153h-204zM650 954h209l-80 -153h-204zM563 756q107 0 190.5 -23.5t133.5 -60t82.5 -86.5t44.5 -98t12 -99v-30q0 -51 -12 -99t-44 -98.5t-82 -88t-134 -61.5t-191 -24h-45q-107 0 -190.5 24t-133.5 61.5t-82.5 88t-44.5 98.5t-12 99v30q0 51 12 99
t44.5 98t82.5 86.5t133.5 60t190.5 23.5h45zM777 381q0 35 -9.5 64.5t-33.5 59.5t-73.5 47.5t-119.5 17.5q-71 0 -120.5 -17.5t-73.5 -47.5t-33.5 -59.5t-9.5 -64.5v-13q0 -34 10 -64.5t34.5 -61t74 -48.5t118.5 -18q70 0 119.5 18t73.5 48.5t33.5 60.5t9.5 65v13z" />
    <glyph glyph-name="ohungarumlaut" unicode="&#x151;" horiz-adv-x="857" 
d="M533 769h209l-81 -154h-203zM266 769h208l-74 -154h-205zM413 -15q-92 0 -161 20.5t-106.5 50t-61 70.5t-30 74t-6.5 69v14q0 35 6.5 68.5t29.5 75t60.5 72.5t106.5 52t161 21h34q95 0 165 -21.5t106.5 -51.5t58.5 -72.5t27.5 -74.5t5.5 -68v-16q0 -25 -2.5 -47.5
t-12 -52t-24.5 -54t-43 -49t-65 -42t-93 -28t-124 -10.5h-32zM433 142q75 0 107.5 43t32.5 96q0 24 -6.5 46.5t-21 43.5t-43.5 33.5t-69 12.5h-9q-78 0 -109 -40t-31 -96q0 -24 6 -46t20 -44.5t43.5 -35.5t70.5 -13h9z" />
    <glyph glyph-name="OE" unicode="&#x152;" horiz-adv-x="1407" 
d="M1329 744v-171h-427v-108h414v-177h-414v-115h436v-173h-798q-117 0 -205.5 22t-141 56.5t-85 84t-44 97t-11.5 101.5v30q0 53 12 100t45.5 94.5t86 81.5t140.5 55.5t203 21.5h789zM663 173v400h-102q-66 0 -115 -12.5t-76 -31.5t-43 -47t-20.5 -51.5t-4.5 -52.5v-6
q0 -37 9 -67.5t33.5 -62.5t79.5 -50.5t137 -18.5h102z" />
    <glyph glyph-name="oe" unicode="&#x153;" horiz-adv-x="1362" 
d="M941 436q-65 0 -95.5 -24t-39.5 -70h266q0 94 -131 94zM565 281q0 24 -5.5 45t-19 43t-42 35t-69.5 13h-9q-135 0 -135 -136v-1q0 -137 135 -137h9q41 0 70 13.5t42 36t18.5 43.5t5.5 44v1zM398 -15q-75 0 -134.5 13.5t-96 38.5t-61.5 52.5t-37 62t-16.5 61.5t-4.5 56v14
q0 35 6 67.5t27.5 75t57 73t102.5 52t156 21.5h37q172 0 255 -79q80 77 232 77h43q85 0 148.5 -18t101.5 -47t61 -71.5t31 -85t8 -93.5v-20h-510q9 -51 43.5 -78t108.5 -27q23 0 42.5 3t31 7t21 10t13 10t7.5 9l4 5h237q0 -19 -6.5 -40t-28.5 -48.5t-57 -48.5t-99.5 -36
t-147.5 -15h-39q-158 0 -242 77q-81 -78 -259 -78h-35z" />
    <glyph glyph-name="Racute" unicode="&#x154;" horiz-adv-x="1024" 
d="M384 801l94 153h253l-117 -153h-230zM327 425h281q96 0 96 71v2q0 68 -96 68h-281v-141zM791 358q168 -32 168 -185v-97q0 -52 12 -71v-5h-247q-6 10 -6 49v62q0 72 -31 101.5t-109 29.5h-251v-242h-239v744h552q80 0 139 -13t91.5 -32t52 -47.5t25 -53t5.5 -55.5v-9
q0 -70 -45.5 -115.5t-116.5 -60.5z" />
    <glyph glyph-name="racute" unicode="&#x155;" horiz-adv-x="735" 
d="M366 769h250l-121 -154h-222zM78 0v557h225v-91q8 14 20 28t34.5 33t57.5 30.5t77 11.5h7q102 0 148 -60t46 -160q0 -26 -2 -72h-229v17q0 53 -16.5 79t-57.5 26q-83 0 -83 -108v-291h-227z" />
    <glyph glyph-name="uni0156" unicode="&#x156;" horiz-adv-x="1024" 
d="M471 -286q25 41 31 84h-106v145h244v-112q0 -60 -40 -117h-129zM327 425h281q96 0 96 71v2q0 68 -96 68h-281v-141zM791 358q168 -32 168 -185v-97q0 -52 12 -71v-5h-247q-6 10 -6 49v62q0 72 -31 101.5t-109 29.5h-251v-242h-239v744h552q80 0 139 -13t91.5 -32
t52 -47.5t25 -53t5.5 -55.5v-9q0 -70 -45.5 -115.5t-116.5 -60.5z" />
    <glyph glyph-name="uni0157" unicode="&#x157;" horiz-adv-x="735" 
d="M146 -286q25 41 31 84h-106v145h244v-112q0 -60 -40 -117h-129zM78 0v557h225v-91q8 14 20 28t34.5 33t57.5 30.5t77 11.5h7q102 0 148 -60t46 -160q0 -26 -2 -72h-229v17q0 53 -16.5 79t-57.5 26q-83 0 -83 -108v-291h-227z" />
    <glyph glyph-name="Rcaron" unicode="&#x158;" horiz-adv-x="1024" 
d="M223 954h216l61 -65l62 65h212l-142 -153h-266zM327 425h281q96 0 96 71v2q0 68 -96 68h-281v-141zM791 358q168 -32 168 -185v-97q0 -52 12 -71v-5h-247q-6 10 -6 49v62q0 72 -31 101.5t-109 29.5h-251v-242h-239v744h552q80 0 139 -13t91.5 -32t52 -47.5t25 -53
t5.5 -55.5v-9q0 -70 -45.5 -115.5t-116.5 -60.5z" />
    <glyph glyph-name="rcaron" unicode="&#x159;" horiz-adv-x="735" 
d="M108 769h216l58 -65l58 65h212l-137 -154h-268zM78 0v557h225v-91q8 14 20 28t34.5 33t57.5 30.5t77 11.5h7q102 0 148 -60t46 -160q0 -26 -2 -72h-229v17q0 53 -16.5 79t-57.5 26q-83 0 -83 -108v-291h-227z" />
    <glyph glyph-name="Sacute" unicode="&#x15a;" horiz-adv-x="957" 
d="M469 -13q-413 0 -413 251v9h258q9 -97 164 -97h6q98 0 131 21.5t33 56.5q0 33 -30 50t-116 19l-102 3q-335 10 -335 222v9q0 50 17 87.5t58 69.5t120 49t194 17h38q99 0 172.5 -14t115.5 -35t67 -52.5t32.5 -60.5t7.5 -64v-8h-254q-12 76 -157 76h-9q-89 0 -121 -15.5
t-32 -45.5q0 -29 29.5 -45.5t108.5 -18.5l105 -3q101 -3 170 -19.5t106 -47t52 -67.5t15 -87v-12q0 -39 -8 -70.5t-33.5 -66t-68 -58t-117.5 -38.5t-177 -15h-27zM357 801l94 153h253l-117 -153h-230z" />
    <glyph glyph-name="sacute" unicode="&#x15b;" horiz-adv-x="772" 
d="M361 769h250l-121 -154h-222zM365 -13q-61 0 -111 7.5t-82.5 19t-57 28.5t-37.5 33t-20.5 35.5t-9.5 32.5t-2 28v4h243q9 -53 100 -53h2q97 0 97 46q0 23 -19.5 33t-79.5 14l-83 6q-253 14 -253 172v6q0 38 13.5 66.5t46.5 53t96.5 37.5t154.5 13h25q101 0 169 -15
t100 -42.5t43.5 -54.5t11.5 -62v-2h-236q-4 14 -8.5 22t-27 17.5t-61.5 9.5h-4q-94 0 -94 -42q0 -22 20.5 -33t73.5 -13l81 -3q77 -3 130 -16t82.5 -35.5t41.5 -50t12 -65.5v-9q0 -31 -6.5 -55.5t-27 -50.5t-55.5 -43t-96.5 -28t-144.5 -11h-27z" />
    <glyph glyph-name="Scircumflex" unicode="&#x15c;" horiz-adv-x="957" 
d="M749 799h-215l-61 65l-62 -65h-211l142 155h264zM469 -13q-413 0 -413 251v9h258q9 -97 164 -97h6q98 0 131 21.5t33 56.5q0 33 -30 50t-116 19l-102 3q-335 10 -335 222v9q0 50 17 87.5t58 69.5t120 49t194 17h38q99 0 172.5 -14t115.5 -35t67 -52.5t32.5 -60.5t7.5 -64
v-8h-254q-12 76 -157 76h-9q-89 0 -121 -15.5t-32 -45.5q0 -29 29.5 -45.5t108.5 -18.5l105 -3q101 -3 170 -19.5t106 -47t52 -67.5t15 -87v-12q0 -39 -8 -70.5t-33.5 -66t-68 -58t-117.5 -38.5t-177 -15h-27z" />
    <glyph glyph-name="scircumflex" unicode="&#x15d;" horiz-adv-x="772" 
d="M653 614h-216l-58 66l-58 -66h-212l137 155h268zM365 -13q-61 0 -111 7.5t-82.5 19t-57 28.5t-37.5 33t-20.5 35.5t-9.5 32.5t-2 28v4h243q9 -53 100 -53h2q97 0 97 46q0 23 -19.5 33t-79.5 14l-83 6q-253 14 -253 172v6q0 38 13.5 66.5t46.5 53t96.5 37.5t154.5 13h25
q101 0 169 -15t100 -42.5t43.5 -54.5t11.5 -62v-2h-236q-4 14 -8.5 22t-27 17.5t-61.5 9.5h-4q-94 0 -94 -42q0 -22 20.5 -33t73.5 -13l81 -3q77 -3 130 -16t82.5 -35.5t41.5 -50t12 -65.5v-9q0 -31 -6.5 -55.5t-27 -50.5t-55.5 -43t-96.5 -28t-144.5 -11h-27z" />
    <glyph glyph-name="uni015E" unicode="&#x15e;" horiz-adv-x="957" 
d="M663 -166q0 -25 -7 -43.5t-25.5 -35.5t-56.5 -26t-93 -9h-148v100h119q22 0 29.5 6t7.5 18q0 23 -37 23h-88v125q-308 31 -308 246v9h258q9 -97 164 -97h6q98 0 131 21.5t33 56.5q0 33 -30 50t-116 19l-102 3q-335 10 -335 222v9q0 50 17 87.5t58 69.5t120 49t194 17h38
q99 0 172.5 -14t115.5 -35t67 -52.5t32.5 -60.5t7.5 -64v-8h-254q-12 76 -157 76h-9q-89 0 -121 -15.5t-32 -45.5q0 -29 29.5 -45.5t108.5 -18.5l105 -3q101 -3 170 -19.5t106 -47t52 -67.5t15 -87v-12q0 -39 -8 -70.5t-33.5 -66t-68 -58t-117.5 -38.5t-177 -15h-7v-39h4
q99 0 134.5 -28t35.5 -82v-4z" />
    <glyph glyph-name="uni015F" unicode="&#x15f;" horiz-adv-x="772" 
d="M563 -166q0 -53 -37.5 -83.5t-143.5 -30.5h-149v100h120q22 0 29.5 6t7.5 18q0 23 -37 23h-88v126q-57 7 -100 23.5t-65 35.5t-35.5 43t-16.5 41t-3 35v4h243q9 -53 100 -53h2q97 0 97 46q0 23 -19.5 33t-79.5 14l-83 6q-253 14 -253 172v6q0 38 13.5 66.5t46.5 53
t96.5 37.5t154.5 13h25q101 0 169 -15t100 -42.5t43.5 -54.5t11.5 -62v-2h-236q-4 14 -8.5 22t-27 17.5t-61.5 9.5h-4q-94 0 -94 -42q0 -22 20.5 -33t73.5 -13l81 -3q77 -3 130 -16t82.5 -35.5t41.5 -50t12 -65.5v-9q0 -31 -6.5 -55.5t-27 -50.5t-55.5 -43t-96.5 -28
t-144.5 -11h-2v-39h4q98 0 133.5 -28t35.5 -82v-4z" />
    <glyph glyph-name="Scaron" unicode="&#x160;" horiz-adv-x="957" 
d="M197 954h216l61 -65l62 65h212l-142 -153h-266zM469 -13q-413 0 -413 251v9h258q9 -97 164 -97h6q98 0 131 21.5t33 56.5q0 33 -30 50t-116 19l-102 3q-335 10 -335 222v9q0 50 17 87.5t58 69.5t120 49t194 17h38q99 0 172.5 -14t115.5 -35t67 -52.5t32.5 -60.5t7.5 -64
v-8h-254q-12 76 -157 76h-9q-89 0 -121 -15.5t-32 -45.5q0 -29 29.5 -45.5t108.5 -18.5l105 -3q101 -3 170 -19.5t106 -47t52 -67.5t15 -87v-12q0 -39 -8 -70.5t-33.5 -66t-68 -58t-117.5 -38.5t-177 -15h-27z" />
    <glyph glyph-name="scaron" unicode="&#x161;" horiz-adv-x="772" 
d="M105 769h216l58 -65l58 65h212l-137 -154h-268zM365 -13q-61 0 -111 7.5t-82.5 19t-57 28.5t-37.5 33t-20.5 35.5t-9.5 32.5t-2 28v4h243q9 -53 100 -53h2q97 0 97 46q0 23 -19.5 33t-79.5 14l-83 6q-253 14 -253 172v6q0 38 13.5 66.5t46.5 53t96.5 37.5t154.5 13h25
q101 0 169 -15t100 -42.5t43.5 -54.5t11.5 -62v-2h-236q-4 14 -8.5 22t-27 17.5t-61.5 9.5h-4q-94 0 -94 -42q0 -22 20.5 -33t73.5 -13l81 -3q77 -3 130 -16t82.5 -35.5t41.5 -50t12 -65.5v-9q0 -31 -6.5 -55.5t-27 -50.5t-55.5 -43t-96.5 -28t-144.5 -11h-27z" />
    <glyph glyph-name="Tcommaaccent" unicode="&#x162;" horiz-adv-x="916" 
d="M411 -286q25 41 31 84h-106v145h244v-112q0 -60 -40 -117h-129zM339 556h-293v188h824v-188h-293v-556h-238v556z" />
    <glyph glyph-name="tcommaaccent" unicode="&#x163;" horiz-adv-x="552" 
d="M297 -286q25 41 31 84h-106v145h244v-112q0 -60 -40 -117h-129zM500 0h-197q-69 0 -109 38t-40 111v254h-117v154h117v168h225v-168h121v-154h-121v-179q0 -33 11.5 -46t44.5 -13h65v-165z" />
    <glyph glyph-name="Tcaron" unicode="&#x164;" horiz-adv-x="916" 
d="M182 954h216l61 -65l62 65h212l-142 -153h-266zM339 556h-293v188h824v-188h-293v-556h-238v556z" />
    <glyph glyph-name="tcaron" unicode="&#x165;" horiz-adv-x="552" 
d="M443 765h187l-32 -152h-175zM500 0h-197q-69 0 -109 38t-40 111v254h-117v154h117v168h225v-168h121v-154h-121v-179q0 -33 11.5 -46t44.5 -13h65v-165z" />
    <glyph glyph-name="Tbar" unicode="&#x166;" horiz-adv-x="916" 
d="M126 280v131h665v-131h-665zM339 556h-293v188h824v-188h-293v-556h-238v556z" />
    <glyph glyph-name="tbar" unicode="&#x167;" horiz-adv-x="561" 
d="M307 0q-69 0 -108.5 38t-39.5 111v98h-117v96h117v65h-117v149h117v168h224v-168h121v-149h-121v-65h121v-96h-121v-28q0 -33 11.5 -46t45.5 -13h64v-160h-197z" />
    <glyph glyph-name="Utilde" unicode="&#x168;" horiz-adv-x="1055" 
d="M515 -11q-82 0 -148.5 14t-110.5 37t-76.5 56.5t-50.5 66.5t-28.5 74t-13.5 72.5t-3 68.5v366h238v-363q0 -195 205 -195h5q64 0 106.5 17.5t62 49.5t26.5 61.5t7 66.5v363h238v-366q0 -36 -3.5 -68.5t-15 -73t-30 -74t-51.5 -66.5t-76.5 -56t-108 -37t-143.5 -14h-29z
M442 797h-125v84q0 42 22 72t71 30h2q40 0 132 -37q47 -19 57 -19q14 0 14 22v39h125v-84q0 -42 -22 -72t-71 -30h-2q-40 0 -132 37q-47 19 -57 19q-14 0 -14 -22v-39z" />
    <glyph glyph-name="utilde" unicode="&#x169;" horiz-adv-x="852" 
d="M774 0h-225v88q-27 -36 -86 -69t-143 -33h-10q-115 0 -174.5 62t-59.5 148v361h227v-284q0 -50 29 -82.5t90 -32.5q60 0 92.5 35t32.5 88v276h227v-557zM629 718q0 -41 -22 -71.5t-70 -30.5h-2q-43 0 -122 36q-41 21 -52 21q-15 0 -15 -22v-40h-124v86q0 41 21 71.5
t70 30.5h3q43 0 121 -37q41 -20 52 -20q15 0 15 21v41h125v-86z" />
    <glyph glyph-name="Umacron" unicode="&#x16a;" horiz-adv-x="1055" 
d="M515 -11q-82 0 -148.5 14t-110.5 37t-76.5 56.5t-50.5 66.5t-28.5 74t-13.5 72.5t-3 68.5v366h238v-363q0 -195 205 -195h5q64 0 106.5 17.5t62 49.5t26.5 61.5t7 66.5v363h238v-366q0 -36 -3.5 -68.5t-15 -73t-30 -74t-51.5 -66.5t-76.5 -56t-108 -37t-143.5 -14h-29z
M327 940h402v-126h-402v126z" />
    <glyph glyph-name="umacron" unicode="&#x16b;" horiz-adv-x="852" 
d="M774 0h-225v88q-27 -36 -86 -69t-143 -33h-10q-115 0 -174.5 62t-59.5 148v361h227v-284q0 -50 29 -82.5t90 -32.5q60 0 92.5 35t32.5 88v276h227v-557zM227 751h395v-126h-395v126z" />
    <glyph glyph-name="Ubreve" unicode="&#x16c;" horiz-adv-x="1055" 
d="M515 -11q-82 0 -148.5 14t-110.5 37t-76.5 56.5t-50.5 66.5t-28.5 74t-13.5 72.5t-3 68.5v366h238v-363q0 -195 205 -195h5q64 0 106.5 17.5t62 49.5t26.5 61.5t7 66.5v363h238v-366q0 -36 -3.5 -68.5t-15 -73t-30 -74t-51.5 -66.5t-76.5 -56t-108 -37t-143.5 -14h-29z
M514 796q-50 0 -88.5 12.5t-60 30.5t-35 42.5t-18 45t-4.5 40.5v2h159q2 -10 4 -17t8 -17t18.5 -15.5t30.5 -5.5h1q22 0 35.5 11t17 20.5t5.5 23.5h158v-2q0 -25 -10 -52t-31.5 -55t-64 -46t-99.5 -18h-26z" />
    <glyph glyph-name="ubreve" unicode="&#x16d;" horiz-adv-x="852" 
d="M774 0h-225v88q-27 -36 -86 -69t-143 -33h-10q-115 0 -174.5 62t-59.5 148v361h227v-284q0 -50 29 -82.5t90 -32.5q60 0 92.5 35t32.5 88v276h227v-557zM412 610q-61 0 -104 18t-63.5 46.5t-28.5 55t-8 52.5v2h160q0 -11 3.5 -22t17 -22.5t36.5 -11.5h1q31 0 43 18.5
t12 37.5h159v-2q0 -25 -9.5 -52t-30 -55.5t-63 -46.5t-100.5 -18h-25z" />
    <glyph glyph-name="Uring" unicode="&#x16e;" horiz-adv-x="1055" 
d="M515 -11q-82 0 -148.5 14t-110.5 37t-76.5 56.5t-50.5 66.5t-28.5 74t-13.5 72.5t-3 68.5v366h238v-363q0 -195 205 -195h5q64 0 106.5 17.5t62 49.5t26.5 61.5t7 66.5v363h238v-366q0 -36 -3.5 -68.5t-15 -73t-30 -74t-51.5 -66.5t-76.5 -56t-108 -37t-143.5 -14h-29z
M348 905q0 58 42 95t137 37q97 0 138.5 -37t41.5 -95t-41.5 -96t-138.5 -38t-138 38t-41 96zM594 905q0 23 -16.5 38t-50.5 15q-33 0 -49.5 -15t-16.5 -38q0 -24 16.5 -40t49.5 -16q34 0 50.5 16t16.5 40z" />
    <glyph glyph-name="uring" unicode="&#x16f;" horiz-adv-x="852" 
d="M247 741q0 58 41 95t136 37q96 0 137.5 -37t41.5 -95q0 -59 -41 -96.5t-138 -37.5q-96 0 -136.5 38t-40.5 96zM360 741q0 -24 16 -39.5t48 -15.5q33 0 49 15.5t16 39.5q0 53 -65 53q-32 0 -48 -15t-16 -38zM774 0h-225v88q-27 -36 -86 -69t-143 -33h-10q-115 0 -174.5 62
t-59.5 148v361h227v-284q0 -50 29 -82.5t90 -32.5q60 0 92.5 35t32.5 88v276h227v-557z" />
    <glyph glyph-name="Uhungarumlaut" unicode="&#x170;" horiz-adv-x="1055" 
d="M362 954h207l-72 -153h-204zM632 954h209l-80 -153h-204zM515 -11q-82 0 -148.5 14t-110.5 37t-76.5 56.5t-50.5 66.5t-28.5 74t-13.5 72.5t-3 68.5v366h238v-363q0 -195 205 -195h5q64 0 106.5 17.5t62 49.5t26.5 61.5t7 66.5v363h238v-366q0 -36 -3.5 -68.5t-15 -73
t-30 -74t-51.5 -66.5t-76.5 -56t-108 -37t-143.5 -14h-29z" />
    <glyph glyph-name="uhungarumlaut" unicode="&#x171;" horiz-adv-x="852" 
d="M774 0h-225v88q-27 -36 -86 -69t-143 -33h-10q-115 0 -174.5 62t-59.5 148v361h227v-284q0 -50 29 -82.5t90 -32.5q60 0 92.5 35t32.5 88v276h227v-557zM530 769h209l-81 -154h-203zM263 769h208l-74 -154h-205z" />
    <glyph glyph-name="Uogonek" unicode="&#x172;" horiz-adv-x="1055" 
d="M595 -192q-129 0 -129 74v3q0 35 35 59t115 48q-33 -3 -72 -3h-29q-82 0 -148.5 14t-110.5 37t-76.5 56.5t-50.5 66.5t-28.5 74t-13.5 72.5t-3 68.5v366h238v-363q0 -195 205 -195h5q64 0 106.5 17.5t62 49.5t26.5 61.5t7 66.5v363h238v-366q0 -118 -43 -205.5
t-146 -149.5q-86 -53 -98 -66q-9 -11 -9 -21q0 -26 39 -26h41v-102h-161z" />
    <glyph glyph-name="uogonek" unicode="&#x173;" horiz-adv-x="852" 
d="M620 -191q-129 0 -129 74v2q0 40 44 65t143 50h96q-27 -16 -40 -24.5t-22.5 -19.5t-9.5 -21q0 -24 38 -24h41v-102h-161zM774 0h-225v88q-27 -36 -86 -69t-143 -33h-10q-115 0 -174.5 62t-59.5 148v361h227v-284q0 -50 29 -82.5t90 -32.5q60 0 92.5 35t32.5 88v276h227
v-557z" />
    <glyph glyph-name="Wcircumflex" unicode="&#x174;" horiz-adv-x="1384" 
d="M979 799h-215l-61 65l-62 -65h-211l142 155h264zM265 0l-255 744h256l154 -512l151 512h264l150 -513l154 513h235l-248 -744h-282l-151 492l-150 -492h-278z" />
    <glyph glyph-name="wcircumflex" unicode="&#x175;" horiz-adv-x="1186" 
d="M875 614h-216l-58 66l-58 -66h-212l137 155h268zM223 0l-208 557h241l114 -367l110 367h248l115 -366l108 366h219l-190 -557h-272l-112 336l-105 -336h-268z" />
    <glyph glyph-name="Ycircumflex" unicode="&#x176;" horiz-adv-x="966" 
d="M370 269l-379 475h293l214 -279l215 279h262l-367 -476v-268h-238v269zM774 799h-215l-61 65l-62 -65h-211l142 155h264z" />
    <glyph glyph-name="ycircumflex" unicode="&#x177;" horiz-adv-x="779" 
d="M116 -39h126q26 0 26 20q0 14 -17 49l-241 527h250l143 -381l135 381h230l-250 -608q-30 -72 -75 -105.5t-118 -33.5h-209v151zM673 614h-216l-58 66l-58 -66h-212l137 155h268z" />
    <glyph glyph-name="Ydieresis" unicode="&#x178;" horiz-adv-x="966" 
d="M370 269l-379 475h293l214 -279l215 279h262l-367 -476v-268h-238v269zM469 801h-220v146h220v-146zM747 801h-220v146h220v-146z" />
    <glyph glyph-name="Zacute" unicode="&#x179;" horiz-adv-x="935" 
d="M352 801l94 153h253l-117 -153h-230zM71 0v157l444 400h-441v187h787v-156l-463 -399h467v-189h-794z" />
    <glyph glyph-name="zacute" unicode="&#x17a;" horiz-adv-x="759" 
d="M358 769h250l-121 -154h-222zM59 0v147l337 252h-334v158h628v-145l-348 -249h360v-163h-643z" />
    <glyph glyph-name="Zdotaccent" unicode="&#x17b;" horiz-adv-x="935" 
d="M71 0v157l444 400h-441v187h787v-156l-463 -399h467v-189h-794zM583 801h-230v146h230v-146z" />
    <glyph glyph-name="zdotaccent" unicode="&#x17c;" horiz-adv-x="759" 
d="M59 0v147l337 252h-334v158h628v-145l-348 -249h360v-163h-643zM491 613h-230v146h230v-146z" />
    <glyph glyph-name="Zcaron" unicode="&#x17d;" horiz-adv-x="935" 
d="M191 954h216l61 -65l62 65h212l-142 -153h-266zM71 0v157l444 400h-441v187h787v-156l-463 -399h467v-189h-794z" />
    <glyph glyph-name="zcaron" unicode="&#x17e;" horiz-adv-x="759" 
d="M102 769h216l58 -65l58 65h212l-137 -154h-268zM59 0v147l337 252h-334v158h628v-145l-348 -249h360v-163h-643z" />
    <glyph glyph-name="uni0192" unicode="&#x192;" horiz-adv-x="582" 
d="M393 310l-24 -501h-222l24 501h-117v153h124l5 110q4 88 45.5 129.5t142.5 41.5h156v-153h-76q-25 0 -35 -10t-12 -36l-4 -82h127v-153h-134z" />
    <glyph glyph-name="Aringacute" unicode="&#x1fa;" horiz-adv-x="1008" 
d="M494 571l-122 -278h247zM692 129h-393l-57 -129h-239l338 744h315l349 -744h-255zM382 1090l94 153h253l-117 -153h-230zM318 926q0 58 42 95t137 37q97 0 138.5 -37t41.5 -95t-41.5 -96t-138.5 -38t-138 38t-41 96zM564 926q0 23 -16.5 38t-50.5 15q-33 0 -49.5 -15
t-16.5 -38q0 -24 16.5 -40t49.5 -16q34 0 50.5 16t16.5 40z" />
    <glyph glyph-name="aringacute" unicode="&#x1fb;" horiz-adv-x="811" 
d="M359 120q69 0 104.5 33.5t35.5 72.5v35q-35 -9 -112 -22q-67 -11 -90 -24t-23 -39v-2q0 -54 85 -54zM505 73q-74 -84 -215 -84h-17q-111 0 -168 49.5t-57 128.5v4q0 78 56.5 118t198.5 52l155 12q23 2 32 10t9 23v1q0 23 -20.5 36t-83.5 13h-3q-102 0 -102 -56h-228v1
q0 189 314 189h32q83 0 143.5 -12.5t92.5 -30.5t50 -46t22.5 -50t4.5 -51v-178q0 -22 7 -30.5t29 -8.5h26v-163h-184q-69 0 -94 73zM374 1058h250l-121 -154h-222zM215 741q0 58 41 95t136 37q96 0 137.5 -37t41.5 -95q0 -59 -41 -96.5t-138 -37.5q-96 0 -136.5 38t-40.5 96
zM328 741q0 -24 16 -39.5t48 -15.5q33 0 49 15.5t16 39.5q0 53 -65 53q-32 0 -48 -15t-16 -38z" />
    <glyph glyph-name="AEacute" unicode="&#x1fc;" horiz-adv-x="1332" 
d="M735 801l94 153h253l-117 -153h-230zM590 591l-183 -303h183v303zM590 130h-279l-78 -130h-251l464 744h809v-171h-428v-108h413v-177h-413v-115h435v-173h-672v130z" />
    <glyph glyph-name="aeacute" unicode="&#x1fd;" horiz-adv-x="1283" 
d="M610 769h250l-121 -154h-222zM862 436q-64 0 -94.5 -24t-39.5 -70h266q0 94 -132 94zM355 120q67 0 101.5 33.5t34.5 72.5v35q-39 -10 -108 -22q-64 -11 -86.5 -24t-22.5 -39v-2q0 -54 81 -54zM1233 174q0 -19 -6.5 -40t-29 -48.5t-57.5 -48.5t-100 -36t-150 -15h-40
q-211 0 -293 108q-75 -105 -251 -105h-17q-122 0 -181.5 49t-59.5 129v4q0 78 56.5 118t195.5 52l150 12q23 2 32 10t9 23q0 23 -19.5 36t-81.5 13h-2q-99 0 -99 -56h-227v2q0 188 310 188h33q160 0 225 -58q69 59 207 59h44q87 0 151.5 -18t102.5 -47t61 -72t31 -84.5
t8 -93.5v-20h-509q15 -105 151 -105q97 0 119 44h237z" />
    <glyph glyph-name="Oslashacute" unicode="&#x1fe;" horiz-adv-x="1075" 
d="M517 -12q-154 0 -257 49l-29 -26l-13 -11h-201l41 37q14 13 47 42.5t41 36.5q-91 99 -91 243v30q0 50 10.5 96.5t41.5 97.5t80.5 88t134 61t195.5 24h41q154 0 258 -47q17 14 28 25l12 10h202l-40 -36l-88 -77q91 -98 91 -242v-30q0 -40 -8 -78.5t-26 -82t-53 -80
t-84 -66.5t-124 -47t-168 -17h-41zM293 370q0 -58 25 -107l337 300q-53 12 -117 12q-59 0 -103.5 -12.5t-71 -31t-43 -45.5t-22 -51.5t-5.5 -52.5v-12zM539 173q71 0 122 18.5t75.5 49.5t35 62t10.5 67v12q0 59 -22 102l-337 -300q46 -11 116 -11zM423 801l94 153h253
l-117 -153h-230z" />
    <glyph glyph-name="oslashacute" unicode="&#x1ff;" horiz-adv-x="854" 
d="M411 -15q-129 0 -208 42l-33 -27h-152l102 86q-72 71 -72 183v14q0 35 6 67t28 75t59 73.5t106.5 52t162.5 21.5h34q130 0 207 -41l31 26h152l-100 -84q71 -67 71 -189v-16q0 -25 -2 -46.5t-11 -51.5t-23.5 -54t-42 -49.5t-64.5 -42.5t-93.5 -28t-125.5 -11h-32zM266 280
q0 -30 9 -64l237 199q-38 10 -80 10h-10q-46 0 -78.5 -13t-48.5 -35.5t-22.5 -45.5t-6.5 -50v-1zM432 136q86 0 121.5 42.5t35.5 99.5v2q0 40 -8 64l-238 -199q34 -9 79 -9h10zM409 769h250l-121 -154h-222z" />
    <glyph glyph-name="uni0218" unicode="&#x218;" horiz-adv-x="957" 
d="M434 -286q25 41 31 84h-106v145h244v-112q0 -60 -40 -117h-129zM469 -13q-413 0 -413 251v9h258q9 -97 164 -97h6q98 0 131 21.5t33 56.5q0 33 -30 50t-116 19l-102 3q-335 10 -335 222v9q0 50 17 87.5t58 69.5t120 49t194 17h38q99 0 172.5 -14t115.5 -35t67 -52.5
t32.5 -60.5t7.5 -64v-8h-254q-12 76 -157 76h-9q-89 0 -121 -15.5t-32 -45.5q0 -29 29.5 -45.5t108.5 -18.5l105 -3q101 -3 170 -19.5t106 -47t52 -67.5t15 -87v-12q0 -39 -8 -70.5t-33.5 -66t-68 -58t-117.5 -38.5t-177 -15h-27z" />
    <glyph glyph-name="uni0219" unicode="&#x219;" horiz-adv-x="772" 
d="M337 -286q25 41 31 84h-106v145h244v-112q0 -60 -40 -117h-129zM365 -13q-61 0 -111 7.5t-82.5 19t-57 28.5t-37.5 33t-20.5 35.5t-9.5 32.5t-2 28v4h243q9 -53 100 -53h2q97 0 97 46q0 23 -19.5 33t-79.5 14l-83 6q-253 14 -253 172v6q0 38 13.5 66.5t46.5 53t96.5 37.5
t154.5 13h25q101 0 169 -15t100 -42.5t43.5 -54.5t11.5 -62v-2h-236q-4 14 -8.5 22t-27 17.5t-61.5 9.5h-4q-94 0 -94 -42q0 -22 20.5 -33t73.5 -13l81 -3q77 -3 130 -16t82.5 -35.5t41.5 -50t12 -65.5v-9q0 -31 -6.5 -55.5t-27 -50.5t-55.5 -43t-96.5 -28t-144.5 -11h-27z
" />
    <glyph glyph-name="uni021A" unicode="&#x21a;" horiz-adv-x="916" 
d="M411 -286q25 41 31 84h-106v145h244v-112q0 -60 -40 -117h-129zM339 556h-293v188h824v-188h-293v-556h-238v556z" />
    <glyph glyph-name="uni021B" unicode="&#x21b;" horiz-adv-x="552" 
d="M297 -286q25 41 31 84h-106v145h244v-112q0 -60 -40 -117h-129zM500 0h-197q-69 0 -109 38t-40 111v254h-117v154h117v168h225v-168h121v-154h-121v-179q0 -33 11.5 -46t44.5 -13h65v-165z" />
    <glyph glyph-name="uni0237" unicode="&#x237;" horiz-adv-x="383" 
d="M41 -35q21 0 29 9.5t8 31.5v551h227v-599q0 -71 -32.5 -109.5t-95.5 -38.5h-192v155h56z" />
    <glyph glyph-name="circumflex" unicode="&#x2c6;" horiz-adv-x="700" 
d="M622 614h-216l-58 66l-58 -66h-212l137 155h268z" />
    <glyph glyph-name="caron" unicode="&#x2c7;" horiz-adv-x="700" 
d="M77 769h216l58 -65l58 65h212l-137 -154h-268z" />
    <glyph glyph-name="breve" unicode="&#x2d8;" horiz-adv-x="700" 
d="M338 610q-61 0 -104 18t-63.5 46.5t-28.5 55t-8 52.5v2h160q0 -11 3.5 -22t17 -22.5t36.5 -11.5h1q31 0 43 18.5t12 37.5h159v-2q0 -25 -9.5 -52t-30 -55.5t-63 -46.5t-100.5 -18h-25z" />
    <glyph glyph-name="dotaccent" unicode="&#x2d9;" horiz-adv-x="700" 
d="M465 613h-230v146h230v-146z" />
    <glyph glyph-name="ring" unicode="&#x2da;" horiz-adv-x="700" 
d="M172 741q0 58 41 95t136 37q96 0 137.5 -37t41.5 -95q0 -59 -41 -96.5t-138 -37.5q-96 0 -136.5 38t-40.5 96zM285 741q0 -24 16 -39.5t48 -15.5q33 0 49 15.5t16 39.5q0 53 -65 53q-32 0 -48 -15t-16 -38z" />
    <glyph glyph-name="ogonek" unicode="&#x2db;" horiz-adv-x="701" 
d="M334 -191q-129 0 -129 74v2q0 40 44 65t143 50h96q-27 -16 -40 -24.5t-22.5 -19.5t-9.5 -21q0 -24 38 -24h41v-102h-161z" />
    <glyph glyph-name="tilde" unicode="&#x2dc;" horiz-adv-x="700" 
d="M554 718q0 -41 -22 -71.5t-70 -30.5h-2q-43 0 -122 36q-41 21 -52 21q-15 0 -15 -22v-40h-124v86q0 41 21 71.5t70 30.5h3q43 0 121 -37q41 -20 52 -20q15 0 15 21v41h125v-86z" />
    <glyph glyph-name="hungarumlaut" unicode="&#x2dd;" horiz-adv-x="700" 
d="M414 769h209l-81 -154h-203zM147 769h208l-74 -154h-205z" />
    <glyph glyph-name="Wgrave" unicode="&#x1e80;" horiz-adv-x="1384" 
d="M471 954h253l94 -153h-231zM265 0l-255 744h256l154 -512l151 512h264l150 -513l154 513h235l-248 -744h-282l-151 492l-150 -492h-278z" />
    <glyph glyph-name="wgrave" unicode="&#x1e81;" horiz-adv-x="1186" 
d="M223 0l-208 557h241l114 -367l110 367h248l115 -366l108 366h219l-190 -557h-272l-112 336l-105 -336h-268zM710 615h-222l-121 154h250z" />
    <glyph glyph-name="Wacute" unicode="&#x1e82;" horiz-adv-x="1384" 
d="M587 801l94 153h253l-117 -153h-230zM265 0l-255 744h256l154 -512l151 512h264l150 -513l154 513h235l-248 -744h-282l-151 492l-150 -492h-278z" />
    <glyph glyph-name="wacute" unicode="&#x1e83;" horiz-adv-x="1186" 
d="M583 769h250l-121 -154h-222zM223 0l-208 557h241l114 -367l110 367h248l115 -366l108 366h219l-190 -557h-272l-112 336l-105 -336h-268z" />
    <glyph glyph-name="Wdieresis" unicode="&#x1e84;" horiz-adv-x="1384" 
d="M673 801h-220v146h220v-146zM951 801h-220v146h220v-146zM265 0l-255 744h256l154 -512l151 512h264l150 -513l154 513h235l-248 -744h-282l-151 492l-150 -492h-278z" />
    <glyph glyph-name="wdieresis" unicode="&#x1e85;" horiz-adv-x="1186" 
d="M573 613h-217v146h217v-146zM846 613h-217v146h217v-146zM223 0l-208 557h241l114 -367l110 367h248l115 -366l108 366h219l-190 -557h-272l-112 336l-105 -336h-268z" />
    <glyph glyph-name="Ygrave" unicode="&#x1ef2;" horiz-adv-x="966" 
d="M370 269l-379 475h293l214 -279l215 279h262l-367 -476v-268h-238v269zM267 954h253l94 -153h-231z" />
    <glyph glyph-name="ygrave" unicode="&#x1ef3;" horiz-adv-x="779" 
d="M116 -39h126q26 0 26 20q0 14 -17 49l-241 527h250l143 -381l135 381h230l-250 -608q-30 -72 -75 -105.5t-118 -33.5h-209v151zM512 615h-222l-121 154h250z" />
    <glyph glyph-name="uni2009" unicode="&#x2009;" horiz-adv-x="70" 
 />
    <glyph glyph-name="endash" unicode="&#x2013;" horiz-adv-x="834" 
d="M765 375v-150h-696v150h696z" />
    <glyph glyph-name="emdash" unicode="&#x2014;" horiz-adv-x="1262" 
d="M1192 375v-150h-1123v150h1123z" />
    <glyph glyph-name="quoteleft" unicode="&#x2018;" horiz-adv-x="377" 
d="M259 744q-45 -77 -59 -144h115v-178h-254v141q0 89 52 181h146z" />
    <glyph glyph-name="quoteright" unicode="&#x2019;" horiz-adv-x="377" 
d="M117 422q45 76 58 144h-114v178h254v-141q0 -88 -53 -181h-145z" />
    <glyph glyph-name="quotesinglbase" unicode="&#x201a;" horiz-adv-x="377" 
d="M117 -143q45 76 58 144h-114v178h254v-141q0 -88 -53 -181h-145z" />
    <glyph glyph-name="quotedblleft" unicode="&#x201c;" horiz-adv-x="711" 
d="M593 744q-45 -77 -59 -144h115v-178h-254v141q0 89 52 181h146zM259 744q-45 -77 -59 -144h115v-178h-254v141q0 89 52 181h146z" />
    <glyph glyph-name="quotedblright" unicode="&#x201d;" horiz-adv-x="711" 
d="M451 422q45 76 58 144h-114v178h254v-141q0 -89 -53 -181h-145zM117 422q45 76 58 144h-114v178h254v-141q0 -88 -53 -181h-145z" />
    <glyph glyph-name="quotedblbase" unicode="&#x201e;" horiz-adv-x="711" 
d="M451 -143q45 76 58 144h-114v178h254v-141q0 -89 -53 -181h-145zM117 -143q45 76 58 144h-114v178h254v-141q0 -88 -53 -181h-145z" />
    <glyph glyph-name="dagger" unicode="&#x2020;" horiz-adv-x="571" 
d="M180 423h-143v166h143v155h211v-155h143v-166h-143v-423h-211v423z" />
    <glyph glyph-name="daggerdbl" unicode="&#x2021;" horiz-adv-x="583" 
d="M394 302h143v-158h-143v-144h-205v144h-144v158h144v142h-144v158h144v142h205v-142h143v-158h-143v-142z" />
    <glyph glyph-name="bullet" unicode="&#x2022;" horiz-adv-x="493" 
d="M439 327q0 -82 -54 -134.5t-140 -52.5t-139 52.5t-53 134.5q0 83 53 135.5t139 52.5t140 -53t54 -135z" />
    <glyph glyph-name="ellipsis" unicode="&#x2026;" horiz-adv-x="1157" 
d="M1093 0h-257v209h257v-209zM708 0h-258v209h258v-209zM322 0h-258v209h258v-209z" />
    <glyph glyph-name="perthousand" unicode="&#x2030;" horiz-adv-x="1992" 
d="M1670 -8q-62 0 -110 14.5t-75.5 36.5t-45 52t-23.5 56t-6 53v16q0 27 6 52.5t23.5 54t45 50t75.5 35.5t110 14h20q77 0 132 -20.5t81.5 -54t37.5 -65.5t11 -66v-16q0 -27 -6 -53t-23.5 -56t-45.5 -52t-76.5 -36.5t-110.5 -14.5h-20zM1680 303q-53 0 -78.5 -24t-25.5 -64
v-5q0 -39 26 -65.5t78 -26.5q53 0 79.5 26t26.5 65v6q0 39 -26 63.5t-80 24.5zM300 319q-77 0 -131.5 21t-80.5 55t-37 66.5t-11 67.5v17q0 27 6 52.5t23.5 54.5t45 50t75.5 35t110 14h20q77 0 132 -20t81 -53.5t37 -65.5t11 -67v-17q0 -27 -6 -53t-23.5 -55.5t-45 -51
t-75.5 -36t-111 -14.5h-20zM1135 744l-697 -744h-186l697 744h186zM416 541q0 39 -26.5 64t-79.5 25t-78.5 -24.5t-25.5 -64.5v-5q0 -39 26 -65t78 -26q53 0 79.5 26t26.5 64v6zM1068 -8q-77 0 -132 21t-81 55.5t-37 67.5t-11 68v16q0 27 6 52t23.5 54t45 50.5t75.5 35.5
t111 14h19q63 0 111.5 -14t76 -35.5t45 -50.5t23.5 -54t6 -52v-16q0 -27 -6 -53t-23.5 -56t-45 -52t-76 -36.5t-111.5 -14.5h-19zM1077 303q-53 0 -78.5 -24t-25.5 -64v-5q0 -39 26 -65.5t78 -26.5q53 0 79.5 26t26.5 65v6q0 39 -26 63.5t-80 24.5z" />
    <glyph glyph-name="uni2032" unicode="&#x2032;" horiz-adv-x="335" 
d="M231 433h-184l56 311h185z" />
    <glyph glyph-name="uni2033" unicode="&#x2033;" horiz-adv-x="611" 
d="M231 433h-184l56 311h185zM505 433h-183l58 311h185z" />
    <glyph glyph-name="guilsinglleft" unicode="&#x2039;" horiz-adv-x="395" 
d="M171 104l-133 186l133 184h186l-134 -184l132 -186h-184z" />
    <glyph glyph-name="guilsinglright" unicode="&#x203a;" horiz-adv-x="395" 
d="M40 104l131 186l-134 184h187l133 -184l-133 -186h-184z" />
    <glyph glyph-name="fraction" unicode="&#x2044;" horiz-adv-x="894" 
d="M894 744l-712 -744h-182l713 744h181z" />
    <glyph glyph-name="Euro" unicode="&#x20ac;" horiz-adv-x="1067" 
d="M1015 289q0 -39 -11 -77t-40.5 -79.5t-75 -72.5t-121.5 -51t-173 -20h-45q-99 0 -176 23.5t-124 64t-75 86.5t-41 99h-101v87h89v40q0 10 1 17h-90v86h103q14 52 42 96t75.5 83t123.5 61.5t173 22.5h45q97 0 172.5 -19t121 -48.5t75.5 -70t41 -79.5t11 -80v-4h-246
q-2 11 -4.5 19t-16 29.5t-33 35.5t-58 26t-88.5 12q-133 0 -180 -84h247v-86h-270q-1 -7 -1 -23v-13q0 -14 1 -21h270v-87h-246q48 -91 180 -91q49 0 87.5 12.5t58 27t33 36t16 30t4.5 19.5h246v-7z" />
    <glyph glyph-name="trademark" unicode="&#x2122;" horiz-adv-x="1180" 
d="M329 625v-261h-160v261h-136v119h430v-119h-134zM527 744h221l74 -196l73 196h211v-380h-137v253l-102 -253h-103l-101 253v-253h-136v380z" />
    <glyph glyph-name="onethird" unicode="&#x2153;" horiz-adv-x="1313" 
d="M44 551v113q78 0 108.5 18.5t45.5 62.5h138v-429h-175v235h-117zM998 744l-712 -744h-182l713 744h181zM971 -7q-65 0 -113 11.5t-74 28t-41.5 39t-19.5 39.5t-4 35v5h180q2 -8 4 -12t10.5 -13.5t27.5 -14.5t48 -5q89 0 89 38v2q0 29 -48 29h-115v98h113q44 0 44 25v1
q0 32 -86 32q-22 0 -39 -3t-25.5 -7t-14 -9.5t-6.5 -9.5t-1 -7h-176v6q0 16 3.5 31t18.5 35t39.5 34.5t72 24.5t110.5 10h30q65 0 113 -7.5t73.5 -18.5t40.5 -27t19 -29.5t4 -29.5v-3q0 -29 -21 -49t-57 -26q41 -7 67.5 -33t26.5 -69v-3q0 -148 -263 -148h-30z" />
    <glyph glyph-name="twothirds" unicode="&#x2154;" horiz-adv-x="1540" 
d="M50 316v61q0 32 7.5 55t31.5 51t78.5 50.5t138.5 39.5q50 10 66.5 18t16.5 23q0 16 -15.5 23.5t-58.5 7.5q-45 0 -62.5 -15t-17.5 -32h-178v4q0 150 246 150h22q75 0 126 -10.5t76 -30.5t35 -42t10 -53v-4q0 -61 -54 -90.5t-180 -45.5q-135 -19 -135 -38h370v-122h-523z
M1225 744l-712 -744h-182l713 744h181zM1197 -7q-65 0 -113 11.5t-74 28t-41.5 39t-19.5 39.5t-4 35v5h180q2 -8 4 -12t10.5 -13.5t27.5 -14.5t48 -5q89 0 89 38v2q0 29 -48 29h-115v98h113q44 0 44 25v1q0 32 -86 32q-22 0 -39 -3t-25.5 -7t-14 -9.5t-6.5 -9.5t-1 -7h-176
v6q0 16 3.5 31t18.5 35t39.5 34.5t72 24.5t110.5 10h30q65 0 113 -7.5t73.5 -18.5t40.5 -27t19 -29.5t4 -29.5v-3q0 -29 -21 -49t-57 -26q41 -7 67.5 -33t26.5 -69v-3q0 -148 -263 -148h-30z" />
    <glyph glyph-name="oneeighth" unicode="&#x215b;" horiz-adv-x="1318" 
d="M44 551v113q78 0 108.5 18.5t45.5 62.5h138v-429h-175v235h-117zM998 744l-712 -744h-182l713 744h181zM1009 436q81 0 134.5 -11.5t76 -31.5t29.5 -36.5t7 -37.5v-4q0 -36 -27.5 -59t-67.5 -30q45 -7 75 -32.5t30 -64.5v-5q0 -131 -257 -131h-26q-257 0 -257 131v5
q0 39 30 64.5t75 32.5q-41 6 -68 29.5t-27 59.5v4q0 21 7 37.5t29.5 36.5t76 31.5t134.5 11.5h26zM915 306q0 -17 16 -27t65 -10q48 0 64 10t16 27v1q0 35 -80 35q-81 0 -81 -35v-1zM907 136q0 -41 89 -41q88 0 88 40v3q0 39 -88 39q-89 0 -89 -39v-2z" />
    <glyph glyph-name="threeeighths" unicode="&#x215c;" horiz-adv-x="1508" 
d="M1194 744l-712 -744h-182l713 744h181zM295 309q-65 0 -113 11.5t-74 28t-41.5 39t-19.5 39.5t-4 35v5h180q2 -8 4 -12t10.5 -13.5t27.5 -14.5t48 -5q89 0 89 38v2q0 29 -48 29h-115v98h113q44 0 44 25v1q0 32 -86 32q-22 0 -39 -3t-25.5 -7t-14 -9.5t-6.5 -9.5t-1 -7
h-176v6q0 16 3.5 31t18.5 35t39.5 34.5t72 24.5t110.5 10h30q65 0 113 -7.5t73.5 -18.5t40.5 -27t19 -29.5t4 -29.5v-3q0 -29 -21 -49t-57 -26q41 -7 67.5 -33t26.5 -69v-3q0 -148 -263 -148h-30zM1199 436q81 0 134.5 -11.5t76 -31.5t29.5 -36.5t7 -37.5v-4
q0 -36 -27.5 -59t-67.5 -30q45 -7 75 -32.5t30 -64.5v-5q0 -131 -257 -131h-26q-257 0 -257 131v5q0 39 30 64.5t75 32.5q-41 6 -68 29.5t-27 59.5v4q0 21 7 37.5t29.5 36.5t76 31.5t134.5 11.5h26zM1105 306q0 -17 16 -27t65 -10q48 0 64 10t16 27v1q0 35 -80 35
q-81 0 -81 -35v-1zM1097 136q0 -41 89 -41q88 0 88 40v3q0 39 -88 39q-89 0 -89 -39v-2z" />
    <glyph glyph-name="fiveeighths" unicode="&#x215d;" horiz-adv-x="1494" 
d="M1181 744l-712 -744h-182l713 744h181zM300 309q-62 0 -108.5 10t-70.5 24t-38.5 33.5t-18 34t-3.5 30.5v1h179q0 -4 4.5 -9t23.5 -11t50 -6q76 0 76 45v3q0 44 -77 44q-30 0 -49 -6t-23.5 -11t-4.5 -9h-171v262h476v-107h-305v-71q11 11 46 22.5t90 11.5h5
q108 0 150.5 -35.5t42.5 -96.5v-4q0 -155 -237 -155h-37zM1186 436q81 0 134.5 -11.5t76 -31.5t29.5 -36.5t7 -37.5v-4q0 -36 -27.5 -59t-67.5 -30q45 -7 75 -32.5t30 -64.5v-5q0 -131 -257 -131h-26q-257 0 -257 131v5q0 39 30 64.5t75 32.5q-41 6 -68 29.5t-27 59.5v4
q0 21 7 37.5t29.5 36.5t76 31.5t134.5 11.5h26zM1092 306q0 -17 16 -27t65 -10q48 0 64 10t16 27v1q0 35 -80 35q-81 0 -81 -35v-1zM1084 136q0 -41 89 -41q88 0 88 40v3q0 39 -88 39q-89 0 -89 -39v-2z" />
    <glyph glyph-name="seveneighths" unicode="&#x215e;" horiz-adv-x="1411" 
d="M564 744v-106q-53 -70 -85 -120q-39 -59 -49.5 -99.5t-10.5 -99.5v-3h-198v51q0 46 21 82.5t80 90.5q8 7 18 16.5t16 15t13.5 13l12 12l9.5 9.5t8 8.5t5.5 6.5t3.5 5.5t1 4.5h-182v-79h-171v192h508zM1098 744l-712 -744h-182l713 744h181zM1102 436q81 0 134.5 -11.5
t76 -31.5t29.5 -36.5t7 -37.5v-4q0 -36 -27.5 -59t-67.5 -30q45 -7 75 -32.5t30 -64.5v-5q0 -131 -257 -131h-26q-257 0 -257 131v5q0 39 30 64.5t75 32.5q-41 6 -68 29.5t-27 59.5v4q0 21 7 37.5t29.5 36.5t76 31.5t134.5 11.5h26zM1008 306q0 -17 16 -27t65 -10
q48 0 64 10t16 27v1q0 35 -80 35q-81 0 -81 -35v-1zM1000 136q0 -41 89 -41q88 0 88 40v3q0 39 -88 39q-89 0 -89 -39v-2z" />
    <glyph glyph-name="minus" unicode="&#x2212;" horiz-adv-x="658" 
d="M588 395v-147h-519v147h519z" />
    <glyph glyph-name="uni24C5" unicode="&#x24c5;" horiz-adv-x="1092" 
d="M1037 362q0 -60 -14 -112.5t-48 -101.5t-87.5 -83.5t-138 -55.5t-192.5 -21h-22q-108 0 -192.5 21t-138 55.5t-87.5 83.5t-48 101.5t-14 112.5v21q0 59 13.5 111t48 101t88 84t138 56t193.5 21h20q109 0 193.5 -21t138 -56t88 -84t48 -101t13.5 -111v-21zM554 78
q102 0 175.5 23t113.5 64.5t58 90.5t18 109v13q0 65 -17.5 114.5t-58 90t-113.5 62t-176 21.5h-16q-103 0 -176 -21.5t-113.5 -62t-58.5 -90.5t-18 -114v-13q0 -60 18 -109t58 -90.5t114 -64.5t176 -23h16zM482 279v-117h-166v423h313q104 0 148 -39.5t44 -110.5v-6
q0 -72 -44 -111t-148 -39h-147zM482 386h110q59 0 59 45v3q0 44 -59 44h-110v-92z" />
    <glyph glyph-name="cent.tab" unicode="&#xe459;" 
d="M419 -95v81q-86 2 -151 23t-101 50t-58.5 69t-29.5 74.5t-7 71.5l-1 14q0 36 7.5 70t30.5 73.5t59.5 68.5t101 49.5t149.5 22.5v80h92v-80q85 -2 149.5 -20t99.5 -42t56.5 -57t27.5 -58.5t6 -52.5v-1h-233q-10 68 -106 82v-286q95 14 106 89h233q0 -29 -6 -55.5
t-27 -60.5t-56 -59.5t-99.5 -44t-150.5 -20.5v-81h-92zM304 283q0 -126 115 -146v286q-115 -16 -115 -139v-1z" />
    <glyph glyph-name="J.alt" unicode="&#xe489;" horiz-adv-x="600" 
d="M48 194h122q59 0 81.5 27t22.5 96v427h239v-481q0 -137 -58.5 -200t-188.5 -63h-218v194z" />
    <glyph glyph-name="a.alt" unicode="&#xe4c0;" horiz-adv-x="797" 
d="M359 120q69 0 104.5 33.5t35.5 72.5v35q-35 -9 -112 -22q-67 -11 -90 -24t-23 -39v-2q0 -54 85 -54zM505 74q-76 -85 -216 -85h-16q-111 0 -168 49.5t-57 128.5v4q0 78 56.5 118t198.5 52l155 12q23 2 32 10t9 23v1q0 23 -20.5 36t-83.5 13h-3q-102 0 -102 -56h-228v1
q0 189 314 189h32q83 0 143.5 -12.5t92.5 -30.5t50 -46t22.5 -50t4.5 -51v-192q0 -127 21 -188h-220q-15 33 -17 74z" />
    <glyph glyph-name="r.alt" unicode="&#xe4d1;" horiz-adv-x="567" 
d="M78 557h225v-113q72 125 222 125h4v-229q-18 5 -76 5q-148 0 -148 -105v-240h-227v557z" />
    <glyph glyph-name="idotaccent" horiz-adv-x="383" 
d="M306 613h-229v146h229v-146zM305 0h-227v557h227v-557z" />
    <glyph glyph-name="space_uni0326" horiz-adv-x="677" 
d="M292 -286q25 41 31 84h-106v145h244v-112q0 -60 -40 -117h-129z" />
    <glyph glyph-name="zero.num" horiz-adv-x="671" 
d="M347 752q58 0 104 -10.5t74.5 -29t48 -39.5t29 -47t13 -46.5t3.5 -41.5v-15q0 -27 -4.5 -51.5t-21.5 -55.5t-45 -53.5t-80 -38t-121 -15.5h-22q-67 0 -118.5 15.5t-80 38t-46 53t-23 56t-5.5 51.5v14q0 26 5.5 51.5t23 56.5t46 53.5t80 38t118.5 15.5h22zM436 535
q0 38 -22.5 66.5t-78.5 28.5q-54 0 -76.5 -28.5t-22.5 -66.5v-5q0 -36 23 -66.5t76 -30.5q54 0 77.5 30.5t23.5 66.5v5z" />
    <glyph glyph-name="one.num" horiz-adv-x="414" 
d="M44 551v113q78 0 108.5 18.5t45.5 62.5h138v-429h-175v235h-117z" />
    <glyph glyph-name="two.num" horiz-adv-x="624" 
d="M50 316v61q0 32 7.5 55t31.5 51t78.5 50.5t138.5 39.5q50 10 66.5 18t16.5 23q0 16 -15.5 23.5t-58.5 7.5q-45 0 -62.5 -15t-17.5 -32h-178v4q0 150 246 150h22q75 0 126 -10.5t76 -30.5t35 -42t10 -53v-4q0 -61 -54 -90.5t-180 -45.5q-135 -19 -135 -38h370v-122h-523z
" />
    <glyph glyph-name="three.num" horiz-adv-x="637" 
d="M295 309q-65 0 -113 11.5t-74 28t-41.5 39t-19.5 39.5t-4 35v5h180q2 -8 4 -12t10.5 -13.5t27.5 -14.5t48 -5q89 0 89 38v2q0 29 -48 29h-115v98h113q44 0 44 25v1q0 32 -86 32q-22 0 -39 -3t-25.5 -7t-14 -9.5t-6.5 -9.5t-1 -7h-176v6q0 16 3.5 31t18.5 35t39.5 34.5
t72 24.5t110.5 10h30q65 0 113 -7.5t73.5 -18.5t40.5 -27t19 -29.5t4 -29.5v-3q0 -29 -21 -49t-57 -26q41 -7 67.5 -33t26.5 -69v-3q0 -148 -263 -148h-30z" />
    <glyph glyph-name="four.num" horiz-adv-x="622" 
d="M43 496l40 39l87 85l126 125h198v-234h86v-115h-86v-80h-173v80h-278v100zM192 511h129v129z" />
    <glyph glyph-name="five.num" horiz-adv-x="622" 
d="M300 309q-62 0 -108.5 10t-70.5 24t-38.5 33.5t-18 34t-3.5 30.5v1h179q0 -4 4.5 -9t23.5 -11t50 -6q76 0 76 45v3q0 44 -77 44q-30 0 -49 -6t-23.5 -11t-4.5 -9h-171v262h476v-107h-305v-71q11 11 46 22.5t90 11.5h5q108 0 150.5 -35.5t42.5 -96.5v-4q0 -155 -237 -155
h-37z" />
    <glyph glyph-name="six.num" horiz-adv-x="651" 
d="M317 309q-65 0 -114.5 14.5t-77.5 36t-45 52t-22.5 56.5t-5.5 55v14q0 28 5.5 54.5t22.5 57t44.5 52.5t76 36.5t111.5 14.5h28q75 0 127 -13t76 -34.5t33 -42t9 -43.5v-2h-173q-20 28 -85 28q-56 0 -78 -27.5t-22 -62.5v-2q50 36 154 36h5q66 0 111.5 -10t67.5 -29
t31 -40t9 -49v-5q0 -147 -255 -147h-33zM241 457q0 -42 93 -42q91 0 91 42v1q0 41 -91 41q-93 0 -93 -41v-1z" />
    <glyph glyph-name="seven.num" horiz-adv-x="611" 
d="M564 744v-106q-53 -70 -85 -120q-39 -59 -49.5 -99.5t-10.5 -99.5v-3h-198v51q0 46 21 82.5t80 90.5q8 7 18 16.5t16 15t13.5 13l12 12l9.5 9.5t8 8.5t5.5 6.5t3.5 5.5t1 4.5h-182v-79h-171v192h508z" />
    <glyph glyph-name="eight.num" horiz-adv-x="643" 
d="M335 752q81 0 134.5 -11.5t76 -31.5t29.5 -36.5t7 -37.5v-4q0 -36 -27.5 -59t-67.5 -30q45 -7 75 -32.5t30 -64.5v-5q0 -131 -257 -131h-26q-257 0 -257 131v5q0 39 30 64.5t75 32.5q-41 6 -68 29.5t-27 59.5v4q0 21 7 37.5t29.5 36.5t76 31.5t134.5 11.5h26zM241 622
q0 -17 16 -27t65 -10q48 0 64 10t16 27v1q0 35 -80 35q-81 0 -81 -35v-1zM233 452q0 -41 89 -41q88 0 88 40v3q0 39 -88 39q-89 0 -89 -39v-2z" />
    <glyph glyph-name="nine.num" horiz-adv-x="651" 
d="M409 603q0 42 -91 42t-91 -42v-1q0 -40 91 -40t91 40v1zM313 309q-76 0 -128.5 13.5t-76.5 36t-33 42.5t-9 42v2h174q17 -27 84 -27q55 0 77 26t22 61v3q-55 -34 -149 -34h-6q-126 0 -174 35t-48 95v5q0 143 252 143h34q65 0 114 -13.5t77.5 -34.5t46 -50.5t23.5 -56
t6 -55.5v-14q0 -28 -5.5 -55t-22 -58t-43.5 -53.5t-75.5 -37.5t-111.5 -15h-28z" />
    <glyph glyph-name="zero.den" horiz-adv-x="671" 
d="M347 436q58 0 104 -10.5t74.5 -29t48 -39.5t29 -47t13 -46.5t3.5 -41.5v-15q0 -27 -4.5 -51.5t-21.5 -55.5t-45 -53.5t-80 -38t-121 -15.5h-22q-67 0 -118.5 15.5t-80 38t-46 53t-23 56t-5.5 51.5v14q0 26 5.5 51.5t23 56.5t46 53.5t80 38t118.5 15.5h22zM436 219
q0 38 -22.5 66.5t-78.5 28.5q-54 0 -76.5 -28.5t-22.5 -66.5v-5q0 -36 23 -66.5t76 -30.5q54 0 77.5 30.5t23.5 66.5v5z" />
    <glyph glyph-name="one.den" horiz-adv-x="414" 
d="M44 235v113q78 0 108.5 18.5t45.5 62.5h138v-429h-175v235h-117z" />
    <glyph glyph-name="two.den" horiz-adv-x="624" 
d="M50 0v61q0 32 7.5 55t31.5 51t78.5 50.5t138.5 39.5q50 10 66.5 18t16.5 23q0 16 -15.5 23.5t-58.5 7.5q-45 0 -62.5 -15t-17.5 -32h-178v4q0 150 246 150h22q75 0 126 -10.5t76 -30.5t35 -42t10 -53v-4q0 -61 -54 -90.5t-180 -45.5q-135 -19 -135 -38h370v-122h-523z
" />
    <glyph glyph-name="three.den" horiz-adv-x="637" 
d="M295 -7q-65 0 -113 11.5t-74 28t-41.5 39t-19.5 39.5t-4 35v5h180q2 -8 4 -12t10.5 -13.5t27.5 -14.5t48 -5q89 0 89 38v2q0 29 -48 29h-115v98h113q44 0 44 25v1q0 32 -86 32q-22 0 -39 -3t-25.5 -7t-14 -9.5t-6.5 -9.5t-1 -7h-176v6q0 16 3.5 31t18.5 35t39.5 34.5
t72 24.5t110.5 10h30q65 0 113 -7.5t73.5 -18.5t40.5 -27t19 -29.5t4 -29.5v-3q0 -29 -21 -49t-57 -26q41 -7 67.5 -33t26.5 -69v-3q0 -148 -263 -148h-30z" />
    <glyph glyph-name="four.den" horiz-adv-x="622" 
d="M43 180l40 39l87 85l126 125h198v-234h86v-115h-86v-80h-173v80h-278v100zM192 195h129v129z" />
    <glyph glyph-name="five.den" horiz-adv-x="622" 
d="M300 -7q-62 0 -108.5 10t-70.5 24t-38.5 33.5t-18 34t-3.5 30.5v1h179q0 -4 4.5 -9t23.5 -11t50 -6q76 0 76 45v3q0 44 -77 44q-30 0 -49 -6t-23.5 -11t-4.5 -9h-171v262h476v-107h-305v-71q11 11 46 22.5t90 11.5h5q108 0 150.5 -35.5t42.5 -96.5v-4q0 -155 -237 -155
h-37z" />
    <glyph glyph-name="six.den" horiz-adv-x="651" 
d="M317 -7q-65 0 -114.5 14.5t-77.5 36t-45 52t-22.5 56.5t-5.5 55v14q0 28 5.5 54.5t22.5 57t44.5 52.5t76 36.5t111.5 14.5h28q75 0 127 -13t76 -34.5t33 -42t9 -43.5v-2h-173q-20 28 -85 28q-56 0 -78 -27.5t-22 -62.5v-2q49 36 154 36h5q66 0 111.5 -10t67.5 -29t31 -40
t9 -49v-5q0 -147 -255 -147h-33zM241 141q0 -42 93 -42q91 0 91 42v1q0 41 -91 41q-93 0 -93 -41v-1z" />
    <glyph glyph-name="seven.den" horiz-adv-x="611" 
d="M564 428v-106q-53 -70 -85 -120q-39 -59 -49.5 -99.5t-10.5 -99.5v-3h-198v51q0 46 21 82.5t80 90.5q8 7 18 16.5t16 15t13.5 13l12 12l9.5 9.5t8 8.5t5.5 6.5t3.5 5.5t1 4.5h-182v-79h-171v192h508z" />
    <glyph glyph-name="eight.den" horiz-adv-x="643" 
d="M335 436q81 0 134.5 -11.5t76 -31.5t29.5 -36.5t7 -37.5v-4q0 -36 -27.5 -59t-67.5 -30q45 -7 75 -32.5t30 -64.5v-5q0 -131 -257 -131h-26q-257 0 -257 131v5q0 39 30 64.5t75 32.5q-41 6 -68 29.5t-27 59.5v4q0 21 7 37.5t29.5 36.5t76 31.5t134.5 11.5h26zM241 306
q0 -17 16 -27t65 -10q48 0 64 10t16 27v1q0 35 -80 35q-81 0 -81 -35v-1zM233 136q0 -41 89 -41q88 0 88 40v3q0 39 -88 39q-89 0 -89 -39v-2z" />
    <glyph glyph-name="nine.den" horiz-adv-x="651" 
d="M409 287q0 42 -91 42t-91 -42v-1q0 -40 91 -40t91 40v1zM313 -7q-76 0 -128.5 13.5t-76.5 36t-33 42.5t-9 42v2h174q17 -27 84 -27q55 0 77 26t22 61v3q-55 -34 -149 -34h-6q-126 0 -174 35t-48 95v5q0 143 252 143h34q65 0 114 -13.5t77.5 -34.5t46 -50.5t23.5 -56
t6 -55.5v-14q0 -28 -5.5 -55t-22 -58t-43.5 -53.5t-75.5 -37.5t-111.5 -15h-28z" />
    <glyph glyph-name="zero.sub" horiz-adv-x="738" 
d="M382 319q76 0 133.5 -17t88 -42t49 -59t23.5 -61t5 -57v-15q0 -30 -5 -57t-23.5 -61.5t-49.5 -59.5t-88 -42t-134 -17h-25q-74 0 -130.5 17t-87.5 42t-50 59t-25 62t-6 57v15q0 29 6 56.5t25 61.5t50 59t87.5 42t130.5 17h26zM369 -35q62 0 87 32.5t25 75.5v6
q0 43 -25 74.5t-87 31.5h-1q-61 0 -86 -31.5t-25 -74.5v-6q0 -43 25 -75.5t86 -32.5h1z" />
    <glyph glyph-name="one.sub" horiz-adv-x="454" 
d="M371 312v-473h-192v259h-130v125q86 0 120 20t51 69h151z" />
    <glyph glyph-name="two.sub" horiz-adv-x="684" 
d="M55 -161v67q0 35 8.5 61t35 57t86.5 56.5t151 43.5q57 12 75 20.5t18 24.5q0 36 -82 36q-38 0 -60 -10.5t-27.5 -21t-5.5 -21.5h-193v4q0 164 271 164h24q83 0 139 -11.5t84 -33.5t38.5 -46.5t10.5 -58.5v-5q0 -65 -57 -97t-200 -50q-147 -20 -152 -43h410v-136h-574z
" />
    <glyph glyph-name="three.sub" horiz-adv-x="701" 
d="M325 -169q-71 0 -124.5 13t-82 31t-45.5 43t-21.5 43.5t-4.5 38.5v6h198q0 -7 3 -14t12 -16t31 -15t53 -6q100 0 100 43v1q0 32 -52 32h-130v109h128q48 0 48 28v1q0 35 -97 35q-88 0 -96 -40h-192v7q0 18 4 34.5t20.5 38t43.5 37.5t79 27t122 11h32q89 0 148 -11
t85 -31.5t34.5 -38.5t8.5 -42v-3q0 -32 -23.5 -54t-63.5 -29q47 -7 76 -36t29 -75v-3q0 -34 -11.5 -60.5t-40.5 -51.5t-89.5 -39t-148.5 -14h-33z" />
    <glyph glyph-name="four.sub" horiz-adv-x="685" 
d="M48 36l280 276h216v-260h95v-126h-95v-87h-188v87h-308v110zM211 52h145v144z" />
    <glyph glyph-name="five.sub" horiz-adv-x="683" 
d="M328 -168q-68 0 -118.5 11t-77.5 26t-43 36.5t-20 37.5t-4 34v2h194q8 -29 90 -29q86 0 86 49v3q0 50 -88 50q-70 0 -88 -30h-185v289h524v-118h-339v-78q51 37 154 37h5q119 0 165.5 -38.5t46.5 -105.5v-6q0 -170 -261 -170h-41z" />
    <glyph glyph-name="six.sub" horiz-adv-x="715" 
d="M347 -170q-71 0 -125 16t-84.5 40t-49.5 57.5t-25 62.5t-6 62v15q0 31 6 60t25 62t49 57t83 40t123 16h30q83 0 140.5 -14t84 -37.5t36.5 -46t10 -48.5v-2h-191q-19 30 -93 30q-62 0 -87 -29t-25 -68v-3q59 38 171 38h6q73 0 122.5 -10.5t73.5 -31.5t33.5 -43.5
t9.5 -54.5v-5q0 -163 -279 -163h-38zM263 -6q0 -47 104 -47q101 0 101 47v1q0 45 -101 45q-104 0 -104 -45v-1z" />
    <glyph glyph-name="seven.sub" horiz-adv-x="673" 
d="M622 311v-118q-62 -81 -96 -132q-43 -67 -54.5 -109.5t-11.5 -108.5v-4h-216v56q0 50 22 88t87 103q11 11 24.5 23.5t21.5 20t17 16.5t14 14.5t9.5 10.5t6.5 8.5t2 6.5h-202v-90h-185v215h561z" />
    <glyph glyph-name="eight.sub" horiz-adv-x="707" 
d="M368 319q72 0 124.5 -9t80.5 -21.5t43.5 -31.5t19.5 -33.5t4 -32.5v-5q0 -39 -30.5 -65.5t-74.5 -32.5q50 -9 83 -36.5t33 -70.5v-7q0 -143 -283 -143h-28q-284 0 -284 143v7q0 42 33.5 70t83.5 37q-44 6 -74.5 32.5t-30.5 65.5v5q0 18 4 32.5t19.5 33.5t43.5 31.5
t80.5 21.5t124.5 9h28zM263 176q0 -41 91 -41q54 0 72 11t18 30v1q0 18 -18 28.5t-72 10.5q-91 0 -91 -39v-1zM254 -11q0 -46 100 -46t100 45v3q0 43 -100 43q-60 0 -80 -11.5t-20 -31.5v-2z" />
    <glyph glyph-name="nine.sub" horiz-adv-x="715" 
d="M451 154q0 47 -102 47t-102 -47v-1q0 -45 102 -45t102 45v1zM344 -170q-67 0 -118.5 10.5t-80 26t-46 36.5t-23 38.5t-5.5 35.5v1h191q11 -30 93 -30q62 0 87 29.5t25 68.5v3q-1 0 -6 -3t-8 -5t-10 -5.5t-14 -6t-17 -5.5t-21.5 -5t-25 -4t-30.5 -3t-35 -1h-6
q-138 0 -191 39t-53 105v6q0 157 277 157h37q72 0 126 -15t85.5 -37.5t50.5 -54.5t25.5 -61.5t6.5 -62.5v-15q0 -32 -6 -61.5t-24.5 -63.5t-48 -59t-82.5 -41.5t-123 -16.5h-30z" />
    <glyph glyph-name="zero.sup" horiz-adv-x="738" 
d="M382 765q76 0 133.5 -17t88 -42t49 -59t23.5 -61t5 -57v-15q0 -30 -5 -57t-23.5 -61.5t-49.5 -59.5t-88 -42t-134 -17h-25q-74 0 -130.5 17t-87.5 42t-50 59t-25 62t-6 57v15q0 29 6 56.5t25 61.5t50 59t87.5 42t130.5 17h26zM369 411q62 0 87 32.5t25 75.5v6
q0 43 -25 74.5t-87 31.5h-1q-61 0 -86 -31.5t-25 -74.5v-6q0 -43 25 -75.5t86 -32.5h1z" />
    <glyph glyph-name="one.sup" horiz-adv-x="454" 
d="M371 758v-473h-192v259h-130v125q86 0 120 20t51 69h151z" />
    <glyph glyph-name="two.sup" horiz-adv-x="684" 
d="M55 285v67q0 35 8.5 61t35 57t86.5 56.5t151 43.5q57 12 75 20.5t18 24.5q0 36 -82 36q-38 0 -60 -10.5t-27.5 -21t-5.5 -21.5h-193v4q0 164 271 164h24q83 0 139 -11.5t84 -33.5t38.5 -46.5t10.5 -58.5v-5q0 -65 -57 -97t-200 -50q-147 -20 -152 -43h410v-136h-574z" />
    <glyph glyph-name="three.sup" horiz-adv-x="701" 
d="M325 277q-71 0 -124.5 13t-82 31t-45.5 43t-21.5 43.5t-4.5 38.5v6h198q0 -7 3 -14t12 -16t31 -15t53 -6q100 0 100 43v1q0 32 -52 32h-130v109h128q48 0 48 28v1q0 35 -97 35q-88 0 -96 -40h-192v7q0 18 4 34.5t20.5 38t43.5 37.5t79 27t122 11h32q89 0 148 -11
t85 -31.5t34.5 -38.5t8.5 -42v-3q0 -32 -23.5 -54t-63.5 -29q47 -7 76 -36t29 -75v-3q0 -34 -11.5 -60.5t-40.5 -51.5t-89.5 -39t-148.5 -14h-33z" />
    <glyph glyph-name="four.sup" horiz-adv-x="685" 
d="M48 482l280 276h216v-260h95v-126h-95v-87h-188v87h-308v110zM211 498h145v144z" />
    <glyph glyph-name="five.sup" horiz-adv-x="683" 
d="M328 278q-68 0 -118.5 11t-77.5 26t-43 36.5t-20 37.5t-4 34v2h194q8 -29 90 -29q86 0 86 49v3q0 50 -88 50q-70 0 -88 -30h-185v289h524v-118h-339v-78q51 37 154 37h5q119 0 165.5 -38.5t46.5 -105.5v-6q0 -170 -261 -170h-41z" />
    <glyph glyph-name="six.sup" horiz-adv-x="715" 
d="M347 276q-71 0 -125 16t-84.5 40t-49.5 57.5t-25 62.5t-6 62v15q0 31 6 60t25 62t49 57t83 40t123 16h30q83 0 140.5 -14t84 -37.5t36.5 -46t10 -48.5v-2h-191q-19 30 -93 30q-62 0 -87 -29t-25 -68v-3q59 38 171 38h6q73 0 122.5 -10.5t73.5 -31.5t33.5 -43.5t9.5 -54.5
v-5q0 -163 -279 -163h-38zM263 440q0 -47 104 -47q101 0 101 47v1q0 45 -101 45q-104 0 -104 -45v-1z" />
    <glyph glyph-name="seven.sup" horiz-adv-x="673" 
d="M622 757v-118q-62 -81 -96 -132q-43 -67 -54.5 -109.5t-11.5 -108.5v-4h-216v56q0 50 22 88t87 103q11 11 24.5 23.5t21.5 20t17 16.5t14 14.5t9.5 10.5t6.5 8.5t2 6.5h-202v-90h-185v215h561z" />
    <glyph glyph-name="eight.sup" horiz-adv-x="707" 
d="M368 765q72 0 124.5 -9t80.5 -21.5t43.5 -31.5t19.5 -33.5t4 -32.5v-5q0 -39 -30.5 -65.5t-74.5 -32.5q50 -9 83 -36.5t33 -70.5v-7q0 -143 -283 -143h-28q-284 0 -284 143v7q0 42 33.5 70t83.5 37q-44 6 -74.5 32.5t-30.5 65.5v5q0 18 4 32.5t19.5 33.5t43.5 31.5
t80.5 21.5t124.5 9h28zM263 622q0 -41 91 -41q54 0 72 11t18 30v1q0 18 -18 28.5t-72 10.5q-91 0 -91 -39v-1zM254 435q0 -46 100 -46t100 45v3q0 43 -100 43q-60 0 -80 -11.5t-20 -31.5v-2z" />
    <glyph glyph-name="nine.sup" horiz-adv-x="715" 
d="M451 600q0 47 -102 47t-102 -47v-1q0 -45 102 -45t102 45v1zM344 276q-67 0 -118.5 10.5t-80 26t-46 36.5t-23 38.5t-5.5 35.5v1h191q11 -30 93 -30q62 0 87 29.5t25 68.5v3q-1 0 -6 -3t-8 -5t-10 -5.5t-14 -6t-17 -5.5t-21.5 -5t-25 -4t-30.5 -3t-35 -1h-6
q-138 0 -191 39t-53 105v6q0 157 277 157h37q72 0 126 -15t85.5 -37.5t50.5 -54.5t25.5 -61.5t6.5 -62.5v-15q0 -32 -6 -61.5t-24.5 -63.5t-48 -59t-82.5 -41.5t-123 -16.5h-30z" />
    <glyph glyph-name="space.tab" horiz-adv-x="460" 
 />
    <glyph glyph-name="comma.tab" horiz-adv-x="460" 
d="M154 -149q49 79 63 149h-117v209h258v-161q0 -91 -59 -197h-145z" />
    <glyph glyph-name="period.tab" horiz-adv-x="460" 
d="M358 0h-258v209h258v-209z" />
    <glyph glyph-name="colon.tab" horiz-adv-x="460" 
d="M358 0h-258v209h258v-209zM358 331h-258v209h258v-209z" />
    <glyph glyph-name="semicolon.tab" horiz-adv-x="460" 
d="M154 -149q49 79 63 149h-117v209h258v-161q0 -91 -59 -197h-145zM358 331h-258v209h258v-209z" />
    <glyph glyph-name="zero.lintab" 
d="M479 756q92 0 163 -25.5t112 -63.5t67.5 -89.5t35.5 -97t9 -91.5v-30q0 -46 -9 -91.5t-35.5 -97.5t-67.5 -91t-112 -65t-163 -26h-37q-89 0 -159.5 26t-112.5 65t-69 91t-37 98t-10 91v30q0 46 10 92t37 97t69 89.5t112.5 63.5t159.5 25h37zM624 383q0 31 -7.5 61
t-24.5 60t-51 48.5t-81 18.5q-48 0 -82.5 -18.5t-51 -49t-23 -59.5t-6.5 -61v-12q0 -32 7.5 -62.5t24.5 -61t51 -49.5t81 -19t81 19t50.5 49.5t24 61t7.5 62.5v12z" />
    <glyph glyph-name="one.lintab" 
d="M116 0v175h265v300h-212v156q132 0 186.5 23.5t80.5 89.5h182v-569h250v-175h-752z" />
    <glyph glyph-name="two.lintab" 
d="M62 0v127q0 37 5 64t23.5 60t51.5 59t91.5 54t141.5 51l118 31q66 16 89 31.5t23 40.5v1q0 33 -28.5 49.5t-105.5 16.5q-139 0 -148 -106h-249v7q0 29 5.5 56.5t19.5 59.5t41.5 58t66.5 47.5t100.5 34t138.5 12.5h43q104 0 177.5 -17t114 -49.5t58 -73t17.5 -94.5v-8
q0 -99 -69 -149t-231 -77q-114 -21 -138 -27q-63 -14 -97.5 -27t-44 -22.5t-9.5 -20.5h605v-189h-810z" />
    <glyph glyph-name="three.lintab" 
d="M427 -11q-95 0 -167.5 19t-112.5 46.5t-65 64.5t-33 67.5t-8 60.5v11h248q10 -89 163 -89q98 0 133 21t35 55v1q0 30 -18.5 44.5t-72.5 14.5h-223v160h222q48 0 65 13.5t17 39.5v1q0 31 -32 47.5t-129 16.5q-146 0 -156 -72h-242v12q0 26 6.5 52.5t29.5 60t60.5 58.5
t107.5 42.5t162 17.5h51q378 0 378 -190v-7q0 -105 -117 -136q61 -14 101 -56t40 -116v-7q0 -253 -403 -253h-40z" />
    <glyph glyph-name="four.lintab" 
d="M52 296l390 453h298v-424h142v-174h-142v-151h-236v151h-452v145zM504 599l-233 -274h233v274z" />
    <glyph glyph-name="five.lintab" 
d="M455 -11q-93 0 -165 17t-111.5 41.5t-64.5 57t-32.5 58t-7.5 50.5v13h250q3 -12 14.5 -23.5t47 -23t89.5 -11.5q156 0 156 85v6q0 40 -36 59t-120 19q-53 0 -88.5 -9.5t-48 -20t-15.5 -21.5h-237v458h733v-178h-499v-131q9 9 29.5 20.5t73.5 25t117 13.5h11
q90 0 154.5 -19t98.5 -52.5t49 -72t15 -84.5v-12q0 -38 -9 -72.5t-34.5 -70.5t-66 -62t-109.5 -43t-159 -17h-35z" />
    <glyph glyph-name="six.lintab" 
d="M452 -11q-99 0 -173.5 25.5t-116 63.5t-67 90t-33.5 96t-8 91v24q0 42 7.5 85.5t33.5 97.5t67 94.5t115.5 68.5t172.5 28h29q86 0 152.5 -15t105 -38t63 -55t33 -61t8.5 -61v-1h-236q-15 62 -140 62q-43 0 -75.5 -12.5t-50 -30.5t-27.5 -43.5t-13 -45.5t-3 -42v-7
q79 67 241 67h18q166 0 240.5 -58t74.5 -153v-16q0 -29 -6 -55.5t-20.5 -56.5t-43 -54.5t-68.5 -44.5t-101 -31.5t-138 -11.5h-41zM320 240q0 -34 34 -58t118 -24q154 0 154 81v4q0 78 -154 78q-152 0 -152 -78v-3z" />
    <glyph glyph-name="seven.lintab" 
d="M872 744v-166q-70 -105 -153 -236q-72 -112 -93.5 -177.5t-21.5 -151.5v-13h-259v54q0 94 31.5 158t127.5 172q20 22 47.5 53t44 49.5t33.5 38t24.5 30t7.5 14.5h-358v-127h-232v302h801z" />
    <glyph glyph-name="eight.lintab" 
d="M478 751q98 0 169.5 -14t109.5 -33.5t60 -49t27.5 -52.5t5.5 -52v-10q0 -59 -45.5 -99t-107.5 -51q72 -13 121.5 -56.5t49.5 -110.5v-11q0 -224 -390 -224h-36q-390 0 -390 224v11q0 67 49.5 110.5t121.5 56.5q-63 11 -108 49.5t-45 100.5v10q0 28 5.5 51t27.5 52.5
t60 49.5t109.5 34t169.5 14h36zM460 594q-144 0 -144 -66v-2q0 -63 144 -63t144 63v2q0 66 -144 66zM460 309q-160 0 -160 -71v-2q0 -79 160 -79t160 79v2q0 71 -160 71z" />
    <glyph glyph-name="nine.lintab" 
d="M600 502q0 33 -34.5 57.5t-118.5 24.5q-154 0 -154 -81v-4q0 -78 154 -78q153 0 153 78v3zM441 -11q-85 0 -151 15.5t-104.5 39t-63.5 55t-34 60.5t-9 59v1h236q17 -61 141 -61q43 0 75 12.5t49 30.5t27.5 43.5t13.5 45.5t3 42v7q-92 -67 -240 -67h-18
q-163 0 -239.5 60.5t-76.5 153.5v16q0 36 8 68t32.5 66.5t64.5 59.5t108.5 41t158.5 16h50q97 0 171 -26t115 -64t66.5 -90t33.5 -96t8 -91v-24q0 -29 -4 -59t-15 -67.5t-29 -71t-49 -66.5t-70.5 -56.5t-97.5 -38t-127 -14.5h-33z" />
    <glyph glyph-name="Euro.lintab" 
d="M868 292q0 -42 -10.5 -82t-37 -81t-67 -71.5t-105.5 -49.5t-146 -19h-39q-86 0 -153 23.5t-108.5 64t-66 86.5t-34.5 99h-93v87h82v40q0 12 1 17h-83v86h94q12 52 36.5 96.5t66 83.5t107.5 61t151 22h39q100 0 174.5 -27t114.5 -71.5t58.5 -94.5t18.5 -104v-4h-231
q-1 17 -8.5 35.5t-23 40.5t-48.5 36t-78 14q-110 0 -144 -88h215v-86h-232q0 -3 -0.5 -11t-0.5 -12v-13q0 -4 0.5 -11t0.5 -10h232v-87h-214q38 -91 144 -91q45 0 78 14t48.5 36t22.5 40t8 35h231v-4z" />
    <glyph glyph-name="yen.lintab" 
d="M349 149h-242v87h242v58h-242v86h190l-308 364h278l206 -260l209 260h249l-297 -364h190v-86h-242v-58h242v-87h-242v-149h-233v149z" />
    <glyph glyph-name="sterling.lintab" 
d="M877 0h-835v164h60q92 0 92 73v3q0 33 -18 84h-134v98h102q-14 54 -14 92v7q0 103 79 167.5t258 64.5h37q76 0 135 -12t95.5 -34t61 -47.5t36 -59t15.5 -60.5t4 -60v-3h-241q0 110 -130 110q-120 0 -120 -103q0 -22 7 -62h317v-98h-300q3 -21 3 -41q0 -49 -24 -79
t-54 -40h328v112h240v-276z" />
    <glyph glyph-name="dollar.lintab" 
d="M288 539q0 -30 25.5 -48.5t96.5 -21.5v134q-71 -4 -96.5 -19t-25.5 -44v-1zM633 229q0 33 -26 51t-101 21v-157q76 5 101.5 27.5t25.5 56.5v1zM410 -89v77q-358 13 -358 251v9h235q2 -16 5.5 -27t14.5 -28.5t37.5 -29.5t65.5 -17v158h-33q-88 3 -152 22t-98.5 51.5
t-50.5 70t-16 83.5v9q0 45 15.5 80t52.5 66t108.5 48t173.5 19v78h96v-78q106 -3 178 -23.5t106 -55t46.5 -68.5t12.5 -77v-8h-230q-2 14 -7 24t-16 22.5t-34 21t-56 12.5v-135l35 -1q95 -3 159.5 -20t99 -47.5t49 -68t14.5 -88.5v-12q0 -37 -7.5 -68t-30.5 -63t-61 -54.5
t-104 -38t-154 -17.5v-77h-96z" />
    <glyph glyph-name="greater.lintab" 
d="M195 234l370 118l-370 118v156l534 -195v-158l-534 -196v157z" />
    <glyph glyph-name="less.lintab" 
d="M191 272v157l534 197v-158l-370 -118l370 -117v-156z" />
    <glyph glyph-name="plus.lintab" 
d="M542 282v-229h-164v229h-225v143h225v224h164v-224h225v-143h-225z" />
    <glyph glyph-name="minus.lintab" 
d="M762 427v-147h-604v147h604z" />
    <glyph glyph-name="multiply.lintab" 
d="M459 238l-171 -168l-104 104l169 166l-170 166l110 108l169 -167l170 168l105 -103l-170 -168l170 -167l-106 -107z" />
    <glyph glyph-name="divide.lintab" 
d="M562 520h-204v163h204v-163zM767 425v-143h-614v143h614zM562 20h-204v164h204v-164z" />
    <glyph glyph-name="equal.lintab" 
d="M755 528v-134h-590v134h590zM755 282v-134h-590v134h590z" />
    <glyph glyph-name="percent.lintab" 
d="M220 399q-56 0 -98 17t-63 44t-30.5 55t-9.5 56v13q0 29 9.5 56.5t31 54t62.5 42.5t98 16h15q57 0 98.5 -16t63 -42.5t31 -54t9.5 -56.5v-13q0 -28 -9.5 -56t-31 -55t-63 -44t-98.5 -17h-15zM860 744l-648 -744h-156l648 744h156zM300 580q0 70 -72 70t-72 -70v-3
q0 -32 18 -52t54 -20t54 20t18 52v3zM684 -8q-56 0 -98 17t-63 44t-30.5 55t-9.5 56v14q0 29 9.5 56t31 53.5t63 42.5t97.5 16h15q57 0 98.5 -16t63 -42.5t31 -53.5t9.5 -56v-14q0 -28 -9.5 -56t-31 -55t-63 -44t-98.5 -17h-15zM764 174q0 32 -17.5 51t-54.5 19
q-72 0 -72 -71v-3q0 -32 18 -52t54 -20t54 20t18 53v3z" />
    <glyph glyph-name="perthousand.lintab" 
d="M191 455q-92 0 -132 44t-40 101v11q0 55 40 98.5t132 43.5h13q92 0 132.5 -43.5t40.5 -98.5v-11q0 -56 -40.5 -100.5t-132.5 -44.5h-13zM254 607q0 57 -56 57t-56 -57v-3q0 -59 56 -59t56 60v2zM729 480l-706 -238v101l706 240v-103zM715 -8q-92 0 -131.5 44.5
t-39.5 100.5v11q0 56 39.5 99t131.5 43h13q91 0 131.5 -43.5t40.5 -98.5v-11q0 -24 -8.5 -47.5t-26.5 -46.5t-53.5 -37t-83.5 -14h-13zM326 -8q-48 0 -83.5 14t-53.5 37t-26 46t-8 48v11q0 55 39.5 98.5t131.5 43.5h13q92 0 131.5 -43t39.5 -99v-11q0 -56 -39.5 -100.5
t-131.5 -44.5h-13zM777 144q0 56 -55 56q-56 0 -56 -56v-3q0 -58 56 -58q55 0 55 59v2zM388 144q0 56 -55 56t-55 -56v-3q0 -58 55 -58t55 59v2z" />
    <glyph glyph-name="IJ.alt" horiz-adv-x="1014" 
d="M327 0h-239v744h239v-744zM462 194h122q59 0 81.5 27t22.5 96v427h239v-481q0 -137 -58.5 -200t-188.5 -63h-218v194z" />
    <glyph glyph-name="a.alt2" horiz-adv-x="858" 
d="M414 411q-68 0 -98 -39.5t-30 -90.5v-3q0 -50 30.5 -90.5t97.5 -40.5h9q68 0 99.5 39.5t31.5 91.5v3q0 52 -31.5 91t-99.5 39h-9zM780 557v-557h-227v70q-14 -16 -34 -31.5t-68 -32.5t-104 -17h-12q-74 0 -131 24.5t-89.5 66t-48.5 89.5t-16 100v21q0 52 16.5 99.5
t49.5 88.5t90.5 65.5t132.5 24.5h11q44 0 80 -7.5t62.5 -22t35.5 -21t25 -20.5v60h227z" />
    <glyph glyph-name="Jcircumflex.alt" horiz-adv-x="600" 
d="M667 799h-215l-61 65l-62 -65h-211l142 155h264zM48 194h122q59 0 81.5 27t22.5 96v427h239v-481q0 -137 -58.5 -200t-188.5 -63h-218v194z" />
    <glyph glyph-name="aacute.alt" horiz-adv-x="797" 
d="M374 769h250l-121 -154h-222zM359 120q69 0 104.5 33.5t35.5 72.5v35q-35 -9 -112 -22q-67 -11 -90 -24t-23 -39v-2q0 -54 85 -54zM505 74q-76 -85 -216 -85h-16q-111 0 -168 49.5t-57 128.5v4q0 78 56.5 118t198.5 52l155 12q23 2 32 10t9 23v1q0 23 -20.5 36t-83.5 13
h-3q-102 0 -102 -56h-228v1q0 189 314 189h32q83 0 143.5 -12.5t92.5 -30.5t50 -46t22.5 -50t4.5 -51v-192q0 -127 21 -188h-220q-15 33 -17 74z" />
    <glyph glyph-name="aacute.alt2" horiz-adv-x="858" 
d="M396 769h250l-121 -154h-222zM414 411q-68 0 -98 -39.5t-30 -90.5v-3q0 -50 30.5 -90.5t97.5 -40.5h9q68 0 99.5 39.5t31.5 91.5v3q0 52 -31.5 91t-99.5 39h-9zM780 557v-557h-227v70q-14 -16 -34 -31.5t-68 -32.5t-104 -17h-12q-74 0 -131 24.5t-89.5 66t-48.5 89.5
t-16 100v21q0 52 16.5 99.5t49.5 88.5t90.5 65.5t132.5 24.5h11q44 0 80 -7.5t62.5 -22t35.5 -21t25 -20.5v60h227z" />
    <glyph glyph-name="abreve.alt" horiz-adv-x="797" 
d="M359 120q69 0 104.5 33.5t35.5 72.5v35q-35 -9 -112 -22q-67 -11 -90 -24t-23 -39v-2q0 -54 85 -54zM505 74q-76 -85 -216 -85h-16q-111 0 -168 49.5t-57 128.5v4q0 78 56.5 118t198.5 52l155 12q23 2 32 10t9 23v1q0 23 -20.5 36t-83.5 13h-3q-102 0 -102 -56h-228v1
q0 189 314 189h32q83 0 143.5 -12.5t92.5 -30.5t50 -46t22.5 -50t4.5 -51v-192q0 -127 21 -188h-220q-15 33 -17 74zM380 610q-61 0 -104 18t-63.5 46.5t-28.5 55t-8 52.5v2h160q0 -11 3.5 -22t17 -22.5t36.5 -11.5h1q31 0 43 18.5t12 37.5h159v-2q0 -25 -9.5 -52t-30 -55.5
t-63 -46.5t-100.5 -18h-25z" />
    <glyph glyph-name="abreve.alt2" horiz-adv-x="858" 
d="M414 411q-68 0 -98 -39.5t-30 -90.5v-3q0 -50 30.5 -90.5t97.5 -40.5h9q68 0 99.5 39.5t31.5 91.5v3q0 52 -31.5 91t-99.5 39h-9zM780 557v-557h-227v70q-14 -16 -34 -31.5t-68 -32.5t-104 -17h-12q-74 0 -131 24.5t-89.5 66t-48.5 89.5t-16 100v21q0 52 16.5 99.5
t49.5 88.5t90.5 65.5t132.5 24.5h11q44 0 80 -7.5t62.5 -22t35.5 -21t25 -20.5v60h227zM408 610q-61 0 -104 18t-63.5 46.5t-28.5 55t-8 52.5v2h160q0 -11 3.5 -22t17 -22.5t36.5 -11.5h1q31 0 43 18.5t12 37.5h159v-2q0 -25 -9.5 -52t-30 -55.5t-63 -46.5t-100.5 -18h-25z
" />
    <glyph glyph-name="acircumflex.alt" horiz-adv-x="797" 
d="M666 614h-216l-58 66l-58 -66h-212l137 155h268zM359 120q69 0 104.5 33.5t35.5 72.5v35q-35 -9 -112 -22q-67 -11 -90 -24t-23 -39v-2q0 -54 85 -54zM505 74q-76 -85 -216 -85h-16q-111 0 -168 49.5t-57 128.5v4q0 78 56.5 118t198.5 52l155 12q23 2 32 10t9 23v1
q0 23 -20.5 36t-83.5 13h-3q-102 0 -102 -56h-228v1q0 189 314 189h32q83 0 143.5 -12.5t92.5 -30.5t50 -46t22.5 -50t4.5 -51v-192q0 -127 21 -188h-220q-15 33 -17 74z" />
    <glyph glyph-name="acircumflex.alt2" horiz-adv-x="858" 
d="M694 614h-216l-58 66l-58 -66h-212l137 155h268zM414 411q-68 0 -98 -39.5t-30 -90.5v-3q0 -50 30.5 -90.5t97.5 -40.5h9q68 0 99.5 39.5t31.5 91.5v3q0 52 -31.5 91t-99.5 39h-9zM780 557v-557h-227v70q-14 -16 -34 -31.5t-68 -32.5t-104 -17h-12q-74 0 -131 24.5
t-89.5 66t-48.5 89.5t-16 100v21q0 52 16.5 99.5t49.5 88.5t90.5 65.5t132.5 24.5h11q44 0 80 -7.5t62.5 -22t35.5 -21t25 -20.5v60h227z" />
    <glyph glyph-name="adieresis.alt" horiz-adv-x="797" 
d="M364 613h-217v146h217v-146zM637 613h-217v146h217v-146zM359 120q69 0 104.5 33.5t35.5 72.5v35q-35 -9 -112 -22q-67 -11 -90 -24t-23 -39v-2q0 -54 85 -54zM505 74q-76 -85 -216 -85h-16q-111 0 -168 49.5t-57 128.5v4q0 78 56.5 118t198.5 52l155 12q23 2 32 10t9 23
v1q0 23 -20.5 36t-83.5 13h-3q-102 0 -102 -56h-228v1q0 189 314 189h32q83 0 143.5 -12.5t92.5 -30.5t50 -46t22.5 -50t4.5 -51v-192q0 -127 21 -188h-220q-15 33 -17 74z" />
    <glyph glyph-name="adieresis.alt2" horiz-adv-x="858" 
d="M394 613h-217v146h217v-146zM667 613h-217v146h217v-146zM414 411q-68 0 -98 -39.5t-30 -90.5v-3q0 -50 30.5 -90.5t97.5 -40.5h9q68 0 99.5 39.5t31.5 91.5v3q0 52 -31.5 91t-99.5 39h-9zM780 557v-557h-227v70q-14 -16 -34 -31.5t-68 -32.5t-104 -17h-12
q-74 0 -131 24.5t-89.5 66t-48.5 89.5t-16 100v21q0 52 16.5 99.5t49.5 88.5t90.5 65.5t132.5 24.5h11q44 0 80 -7.5t62.5 -22t35.5 -21t25 -20.5v60h227z" />
    <glyph glyph-name="agrave.alt" horiz-adv-x="797" 
d="M359 120q69 0 104.5 33.5t35.5 72.5v35q-35 -9 -112 -22q-67 -11 -90 -24t-23 -39v-2q0 -54 85 -54zM505 74q-76 -85 -216 -85h-16q-111 0 -168 49.5t-57 128.5v4q0 78 56.5 118t198.5 52l155 12q23 2 32 10t9 23v1q0 23 -20.5 36t-83.5 13h-3q-102 0 -102 -56h-228v1
q0 189 314 189h32q83 0 143.5 -12.5t92.5 -30.5t50 -46t22.5 -50t4.5 -51v-192q0 -127 21 -188h-220q-15 33 -17 74zM506 615h-222l-121 154h250z" />
    <glyph glyph-name="agrave.alt2" horiz-adv-x="858" 
d="M414 411q-68 0 -98 -39.5t-30 -90.5v-3q0 -50 30.5 -90.5t97.5 -40.5h9q68 0 99.5 39.5t31.5 91.5v3q0 52 -31.5 91t-99.5 39h-9zM780 557v-557h-227v70q-14 -16 -34 -31.5t-68 -32.5t-104 -17h-12q-74 0 -131 24.5t-89.5 66t-48.5 89.5t-16 100v21q0 52 16.5 99.5
t49.5 88.5t90.5 65.5t132.5 24.5h11q44 0 80 -7.5t62.5 -22t35.5 -21t25 -20.5v60h227zM539 615h-222l-121 154h250z" />
    <glyph glyph-name="amacron.alt" horiz-adv-x="797" 
d="M359 120q69 0 104.5 33.5t35.5 72.5v35q-35 -9 -112 -22q-67 -11 -90 -24t-23 -39v-2q0 -54 85 -54zM505 74q-76 -85 -216 -85h-16q-111 0 -168 49.5t-57 128.5v4q0 78 56.5 118t198.5 52l155 12q23 2 32 10t9 23v1q0 23 -20.5 36t-83.5 13h-3q-102 0 -102 -56h-228v1
q0 189 314 189h32q83 0 143.5 -12.5t92.5 -30.5t50 -46t22.5 -50t4.5 -51v-192q0 -127 21 -188h-220q-15 33 -17 74zM195 751h395v-126h-395v126z" />
    <glyph glyph-name="amacron.alt2" horiz-adv-x="858" 
d="M223 751h395v-126h-395v126zM414 411q-68 0 -98 -39.5t-30 -90.5v-3q0 -50 30.5 -90.5t97.5 -40.5h9q68 0 99.5 39.5t31.5 91.5v3q0 52 -31.5 91t-99.5 39h-9zM780 557v-557h-227v70q-14 -16 -34 -31.5t-68 -32.5t-104 -17h-12q-74 0 -131 24.5t-89.5 66t-48.5 89.5
t-16 100v21q0 52 16.5 99.5t49.5 88.5t90.5 65.5t132.5 24.5h11q44 0 80 -7.5t62.5 -22t35.5 -21t25 -20.5v60h227z" />
    <glyph glyph-name="aogonek.alt" horiz-adv-x="797" 
d="M359 120q69 0 104.5 33.5t35.5 72.5v35q-35 -9 -112 -22q-67 -11 -90 -24t-23 -39v-2q0 -54 85 -54zM505 74q-76 -85 -216 -85h-16q-111 0 -168 49.5t-57 128.5v4q0 78 56.5 118t198.5 52l155 12q23 2 32 10t9 23v1q0 23 -20.5 36t-83.5 13h-3q-102 0 -102 -56h-228v1
q0 189 314 189h32q83 0 143.5 -12.5t92.5 -30.5t50 -46t22.5 -50t4.5 -51v-192q0 -127 21 -188h-220q-15 33 -17 74zM588 -191q-129 0 -129 74v2q0 40 44 65t143 50h96q-27 -16 -40 -24.5t-22.5 -19.5t-9.5 -21q0 -24 38 -24h41v-102h-161z" />
    <glyph glyph-name="aogonek.alt2" horiz-adv-x="858" 
d="M625 -191q-129 0 -129 74v2q0 40 44 65t143 50h96q-27 -16 -40 -24.5t-22.5 -19.5t-9.5 -21q0 -24 38 -24h41v-102h-161zM414 411q-68 0 -98 -39.5t-30 -90.5v-3q0 -50 30.5 -90.5t97.5 -40.5h9q68 0 99.5 39.5t31.5 91.5v3q0 52 -31.5 91t-99.5 39h-9zM780 557v-557
h-227v70q-14 -16 -34 -31.5t-68 -32.5t-104 -17h-12q-74 0 -131 24.5t-89.5 66t-48.5 89.5t-16 100v21q0 52 16.5 99.5t49.5 88.5t90.5 65.5t132.5 24.5h11q44 0 80 -7.5t62.5 -22t35.5 -21t25 -20.5v60h227z" />
    <glyph glyph-name="aring.alt" horiz-adv-x="797" 
d="M215 741q0 58 41 95t136 37q96 0 137.5 -37t41.5 -95q0 -59 -41 -96.5t-138 -37.5q-96 0 -136.5 38t-40.5 96zM328 741q0 -24 16 -39.5t48 -15.5q33 0 49 15.5t16 39.5q0 53 -65 53q-32 0 -48 -15t-16 -38zM359 120q69 0 104.5 33.5t35.5 72.5v35q-35 -9 -112 -22
q-67 -11 -90 -24t-23 -39v-2q0 -54 85 -54zM505 74q-76 -85 -216 -85h-16q-111 0 -168 49.5t-57 128.5v4q0 78 56.5 118t198.5 52l155 12q23 2 32 10t9 23v1q0 23 -20.5 36t-83.5 13h-3q-102 0 -102 -56h-228v1q0 189 314 189h32q83 0 143.5 -12.5t92.5 -30.5t50 -46
t22.5 -50t4.5 -51v-192q0 -127 21 -188h-220q-15 33 -17 74z" />
    <glyph glyph-name="aring.alt2" horiz-adv-x="858" 
d="M237 741q0 58 41 95t136 37q96 0 137.5 -37t41.5 -95q0 -59 -41 -96.5t-138 -37.5q-96 0 -136.5 38t-40.5 96zM350 741q0 -24 16 -39.5t48 -15.5q33 0 49 15.5t16 39.5q0 53 -65 53q-32 0 -48 -15t-16 -38zM414 411q-68 0 -98 -39.5t-30 -90.5v-3q0 -50 30.5 -90.5
t97.5 -40.5h9q68 0 99.5 39.5t31.5 91.5v3q0 52 -31.5 91t-99.5 39h-9zM780 557v-557h-227v70q-14 -16 -34 -31.5t-68 -32.5t-104 -17h-12q-74 0 -131 24.5t-89.5 66t-48.5 89.5t-16 100v21q0 52 16.5 99.5t49.5 88.5t90.5 65.5t132.5 24.5h11q44 0 80 -7.5t62.5 -22
t35.5 -21t25 -20.5v60h227z" />
    <glyph glyph-name="aringacute.alt" horiz-adv-x="797" 
d="M374 1058h250l-121 -154h-222zM215 741q0 58 41 95t136 37q96 0 137.5 -37t41.5 -95q0 -59 -41 -96.5t-138 -37.5q-96 0 -136.5 38t-40.5 96zM328 741q0 -24 16 -39.5t48 -15.5q33 0 49 15.5t16 39.5q0 53 -65 53q-32 0 -48 -15t-16 -38zM359 120q69 0 104.5 33.5
t35.5 72.5v35q-35 -9 -112 -22q-67 -11 -90 -24t-23 -39v-2q0 -54 85 -54zM505 74q-76 -85 -216 -85h-16q-111 0 -168 49.5t-57 128.5v4q0 78 56.5 118t198.5 52l155 12q23 2 32 10t9 23v1q0 23 -20.5 36t-83.5 13h-3q-102 0 -102 -56h-228v1q0 189 314 189h32
q83 0 143.5 -12.5t92.5 -30.5t50 -46t22.5 -50t4.5 -51v-192q0 -127 21 -188h-220q-15 33 -17 74z" />
    <glyph glyph-name="aringacute.alt2" horiz-adv-x="858" 
d="M396 1058h250l-121 -154h-222zM237 741q0 58 41 95t136 37q96 0 137.5 -37t41.5 -95q0 -59 -41 -96.5t-138 -37.5q-96 0 -136.5 38t-40.5 96zM350 741q0 -24 16 -39.5t48 -15.5q33 0 49 15.5t16 39.5q0 53 -65 53q-32 0 -48 -15t-16 -38zM414 411q-68 0 -98 -39.5
t-30 -90.5v-3q0 -50 30.5 -90.5t97.5 -40.5h9q68 0 99.5 39.5t31.5 91.5v3q0 52 -31.5 91t-99.5 39h-9zM780 557v-557h-227v70q-14 -16 -34 -31.5t-68 -32.5t-104 -17h-12q-74 0 -131 24.5t-89.5 66t-48.5 89.5t-16 100v21q0 52 16.5 99.5t49.5 88.5t90.5 65.5t132.5 24.5
h11q44 0 80 -7.5t62.5 -22t35.5 -21t25 -20.5v60h227z" />
    <glyph glyph-name="atilde.alt" horiz-adv-x="797" 
d="M359 120q69 0 104.5 33.5t35.5 72.5v35q-35 -9 -112 -22q-67 -11 -90 -24t-23 -39v-2q0 -54 85 -54zM505 74q-76 -85 -216 -85h-16q-111 0 -168 49.5t-57 128.5v4q0 78 56.5 118t198.5 52l155 12q23 2 32 10t9 23v1q0 23 -20.5 36t-83.5 13h-3q-102 0 -102 -56h-228v1
q0 189 314 189h32q83 0 143.5 -12.5t92.5 -30.5t50 -46t22.5 -50t4.5 -51v-192q0 -127 21 -188h-220q-15 33 -17 74zM596 718q0 -41 -22 -71.5t-70 -30.5h-2q-43 0 -122 36q-41 21 -52 21q-15 0 -15 -22v-40h-124v86q0 41 21 71.5t70 30.5h3q43 0 121 -37q41 -20 52 -20
q15 0 15 21v41h125v-86z" />
    <glyph glyph-name="atilde.alt2" horiz-adv-x="858" 
d="M414 411q-68 0 -98 -39.5t-30 -90.5v-3q0 -50 30.5 -90.5t97.5 -40.5h9q68 0 99.5 39.5t31.5 91.5v3q0 52 -31.5 91t-99.5 39h-9zM780 557v-557h-227v70q-14 -16 -34 -31.5t-68 -32.5t-104 -17h-12q-74 0 -131 24.5t-89.5 66t-48.5 89.5t-16 100v21q0 52 16.5 99.5
t49.5 88.5t90.5 65.5t132.5 24.5h11q44 0 80 -7.5t62.5 -22t35.5 -21t25 -20.5v60h227zM624 718q0 -41 -22 -71.5t-70 -30.5h-2q-43 0 -122 36q-41 21 -52 21q-15 0 -15 -22v-40h-124v86q0 41 21 71.5t70 30.5h3q43 0 121 -37q41 -20 52 -20q15 0 15 21v41h125v-86z" />
    <glyph glyph-name="racute.alt" horiz-adv-x="567" 
d="M308 769h250l-121 -154h-222zM78 557h225v-113q72 125 222 125h4v-229q-18 5 -76 5q-148 0 -148 -105v-240h-227v557z" />
    <glyph glyph-name="rcaron.alt" horiz-adv-x="567" 
d="M46 769h216l58 -65l58 65h212l-137 -154h-268zM78 557h225v-113q72 125 222 125h4v-229q-18 5 -76 5q-148 0 -148 -105v-240h-227v557z" />
    <glyph glyph-name="rcommaaccent.alt" horiz-adv-x="567" 
d="M146 -286q25 41 31 84h-106v145h244v-112q0 -60 -40 -117h-129zM78 557h225v-113q72 125 222 125h4v-229q-18 5 -76 5q-148 0 -148 -105v-240h-227v557z" />
    <glyph glyph-name="space_uni0326.alt" horiz-adv-x="756" 
d="M424 844q-25 -47 -30 -84h105v-145h-242v113q0 59 40 116h127z" />
    <glyph glyph-name="ordfeminine.alt" horiz-adv-x="686" 
d="M422 364q-18 -24 -61.5 -46t-114.5 -22h-7q-92 0 -138 40.5t-46 103.5v3q0 63 45 93.5t143 38.5l145 12q29 1 29 24q0 36 -80 36h-7q-80 0 -80 -38h-185v1q0 146 250 146h34q68 0 116.5 -9t75 -22.5t41.5 -34.5t18.5 -38t3.5 -40v-158q0 -102 16 -150h-186q-10 27 -12 60
zM308 401q51 0 80 27t29 64v17l-110 -18q-34 -5 -48.5 -15.5t-14.5 -30.5t16.5 -32t47.5 -12z" />
    <glyph glyph-name="ordfeminine.alt2" horiz-adv-x="727" 
d="M349 629q-50 0 -71 -30.5t-21 -71.5v-1q0 -39 22 -71.5t70 -32.5h7q48 0 70 31t22 71v3q0 40 -22.5 71t-69.5 31h-7zM643 748v-444h-192v55q-49 -63 -157 -63h-9q-114 0 -172 66.5t-58 155.5v19q0 41 13.5 79t39.5 70t71.5 51t104.5 19h7q98 0 160 -53v45h192z" />
    <glyph glyph-name="caron.alt" horiz-adv-x="700" 
d="M267 765h187l-32 -152h-175z" />
    <glyph glyph-name="plus.uc" horiz-adv-x="679" 
d="M422 289v-191h-165v191h-188v143h188v190h165v-190h187v-143h-187z" />
    <glyph glyph-name="minus.uc" horiz-adv-x="658" 
d="M588 434v-147h-519v147h519z" />
    <glyph glyph-name="multiply.uc" horiz-adv-x="612" 
d="M305 248l-148 -145l-104 103l146 144l-147 143l110 109l146 -144l147 144l105 -103l-148 -145l148 -144l-106 -107z" />
    <glyph glyph-name="divide.uc" horiz-adv-x="675" 
d="M439 494h-203v163h203v-163zM606 432v-143h-537v143h537zM439 60h-203v164h203v-164z" />
    <glyph glyph-name="equal.uc" horiz-adv-x="666" 
d="M592 535v-134h-518v134h518zM592 322v-134h-518v134h518z" />
    <glyph glyph-name="less.uc" horiz-adv-x="608" 
d="M73 282v157l462 172v-158l-296 -93l296 -92v-156z" />
    <glyph glyph-name="greater.uc" horiz-adv-x="608" 
d="M73 268l295 92l-295 93v158l462 -172v-157l-462 -170v156z" />
    <glyph glyph-name="questiondown.uc" horiz-adv-x="847" 
d="M566 488v-44q0 -63 -29.5 -98t-118.5 -64l-53 -17q-46 -15 -62 -27.5t-16 -31.5q0 -25 28 -39t108 -14q46 0 76 9t42 24t16.5 26.5t5.5 25.5v4h245v-13q0 -32 -5 -59t-26.5 -62t-57.5 -59t-105 -41t-163 -17h-49q-359 0 -359 210v9q0 71 44.5 117.5t146.5 75.5l50 15
q34 10 46 22.5t12 38.5v9h224zM331 744h245v-196h-245v196z" />
    <glyph glyph-name="exclamdown.uc" horiz-adv-x="406" 
d="M64 0l83 488h110l84 -488h-277zM79 744h245v-196h-245v196z" />
    <glyph glyph-name="hyphen.uc" horiz-adv-x="481" 
d="M412 430v-182h-343v182h343z" />
    <glyph glyph-name="endash.uc" horiz-adv-x="834" 
d="M765 414v-150h-696v150h696z" />
    <glyph glyph-name="emdash.uc" horiz-adv-x="1262" 
d="M1192 414v-150h-1123v150h1123z" />
    <glyph glyph-name="guilsinglleft.uc" horiz-adv-x="395" 
d="M171 136l-133 186l133 184h186l-134 -184l132 -186h-184z" />
    <glyph glyph-name="guilsinglright.uc" horiz-adv-x="395" 
d="M40 136l131 186l-134 184h187l133 -184l-133 -186h-184z" />
    <glyph glyph-name="guillemotleft.uc" horiz-adv-x="659" 
d="M443 136l-124 186l125 184h178l-127 -184l123 -186h-175zM164 136l-126 186l124 184h179l-125 -184l125 -186h-177z" />
    <glyph glyph-name="guillemotright.uc" horiz-adv-x="659" 
d="M41 137l123 186l-127 184h178l126 -184l-124 -186h-176zM319 137l124 186l-124 184h178l124 -184l-126 -186h-176z" />
    <glyph glyph-name="parenleft.uc" horiz-adv-x="388" 
d="M234 372q0 -229 134 -453h-124q-192 212 -192 453q0 247 192 444h124q-134 -212 -134 -444z" />
    <glyph glyph-name="parenright.uc" horiz-adv-x="389" 
d="M154 372q0 233 -134 444h126q191 -198 191 -444q0 -242 -191 -453h-126q134 224 134 453z" />
    <glyph glyph-name="bracketleft.uc" horiz-adv-x="421" 
d="M79 817h300v-119h-126v-660h126v-119h-300v898z" />
    <glyph glyph-name="bracketright.uc" horiz-adv-x="421" 
d="M42 38h128v660h-128v119h301v-898h-301v119z" />
    <glyph glyph-name="braceleft.uc" horiz-adv-x="419" 
d="M232 -80q-160 0 -160 116q0 42 39.5 129.5t39.5 110.5q0 19 -9 27t-31 8h-72v119h72q22 0 31 6.5t9 22.5q0 25 -39.5 110t-39.5 129q0 119 160 119h145v-116h-86q-42 0 -42 -35q0 -20 30.5 -92t30.5 -104q0 -42 -23 -65.5t-76 -33.5q99 -16 99 -83q0 -36 -30.5 -114
t-30.5 -97q0 -41 55 -41h73v-116h-145z" />
    <glyph glyph-name="braceright.uc" horiz-adv-x="419" 
d="M42 -80v116h73q55 0 55 41q0 19 -30.5 97t-30.5 114q0 67 99 83q-53 10 -76 33.5t-23 65.5q0 32 30.5 104t30.5 92q0 35 -42 35h-86v116h146q160 0 160 -119q0 -44 -39.5 -129t-39.5 -110q0 -16 8.5 -22.5t30.5 -6.5h73v-119h-73q-22 0 -30.5 -8t-8.5 -27
q0 -23 39.5 -110.5t39.5 -129.5q0 -116 -160 -116h-146z" />
    <glyph glyph-name="slash.uc" horiz-adv-x="476" 
d="M163 -81h-164l306 897h166z" />
    <glyph glyph-name="backslash.uc" horiz-adv-x="476" 
d="M312 -81l-306 897h166l305 -897h-165z" />
    <glyph glyph-name="bar.uc" horiz-adv-x="375" 
d="M267 -81h-159v897h159v-897z" />
    <glyph glyph-name="at.uc" horiz-adv-x="1274" 
d="M640 -117q-119 0 -213 18t-156.5 52t-106 76t-67 96t-33 105.5t-9.5 111.5v12q0 75 16.5 137.5t58.5 120.5t107.5 98t169 64t237.5 24h10q113 0 203.5 -14.5t150 -37t102.5 -57t65.5 -67t35.5 -75t16 -72.5t3 -69v-9q0 -47 -9 -89t-31 -83.5t-56 -71t-88 -48t-123 -18.5
h-11q-138 0 -173 77q-11 -15 -29.5 -29.5t-63 -31t-99.5 -16.5h-10q-62 0 -108.5 21.5t-72 57t-36.5 78t-8 88.5q0 4 2 28t2 28q9 87 66.5 145.5t163.5 58.5h12q124 0 197 -73l7 64h223l-38 -351q-5 -42 32 -42q54 0 88.5 58t34.5 151v4q0 26 -1 43t-5 44t-12 44.5t-24 41
t-38 39t-56.5 31.5t-77.5 26t-102.5 16t-131.5 6h-10q-106 0 -186.5 -17.5t-130.5 -47.5t-80.5 -75t-42.5 -93.5t-12 -108.5v-12q0 -57 10 -104t39.5 -94.5t78 -80.5t130 -53.5t190.5 -20.5q136 0 243.5 17t149.5 32.5t68 32.5l33 -105q-26 -17 -71.5 -32.5t-160 -32
t-262.5 -16.5zM739 352q2 47 -21 74t-73 27h-1q-51 0 -77 -28.5t-28 -75.5l-1 -14q-4 -45 17 -77t70 -32h1q55 0 82.5 32t29.5 83z" />
    <glyph glyph-name="grave.uc" horiz-adv-x="700" 
d="M177 954h253l94 -153h-231z" />
    <glyph glyph-name="dieresis.uc" horiz-adv-x="700" 
d="M321 801h-220v146h220v-146zM599 801h-220v146h220v-146z" />
    <glyph glyph-name="macron.uc" horiz-adv-x="707" 
d="M152 940h402v-126h-402v126z" />
    <glyph glyph-name="acute.uc" horiz-adv-x="700" 
d="M177 801l94 153h253l-117 -153h-230z" />
    <glyph glyph-name="circumflex.uc" horiz-adv-x="700" 
d="M625 799h-215l-61 65l-62 -65h-211l142 155h264z" />
    <glyph glyph-name="caron.uc" horiz-adv-x="700" 
d="M75 954h216l61 -65l62 65h212l-142 -153h-266z" />
    <glyph glyph-name="breve.uc" horiz-adv-x="707" 
d="M341 796q-50 0 -88.5 12.5t-60 30.5t-35 42.5t-18 45t-4.5 40.5v2h159q2 -10 4 -17t8 -17t18.5 -15.5t30.5 -5.5h1q22 0 35.5 11t17 20.5t5.5 23.5h158v-2q0 -25 -10 -52t-31.5 -55t-64 -46t-99.5 -18h-26z" />
    <glyph glyph-name="dotaccent.uc" horiz-adv-x="700" 
d="M465 801h-230v146h230v-146z" />
    <glyph glyph-name="ring.uc" horiz-adv-x="707" 
d="M174 926q0 58 42 95t137 37q97 0 138.5 -37t41.5 -95t-41.5 -96t-138.5 -38t-138 38t-41 96zM420 926q0 23 -16.5 38t-50.5 15q-33 0 -49.5 -15t-16.5 -38q0 -24 16.5 -40t49.5 -16q34 0 50.5 16t16.5 40z" />
    <glyph glyph-name="tilde.uc" horiz-adv-x="707" 
d="M267 797h-125v84q0 42 22 72t71 30h2q40 0 132 -37q47 -19 57 -19q14 0 14 22v39h125v-84q0 -42 -22 -72t-71 -30h-2q-40 0 -132 37q-47 19 -57 19q-14 0 -14 -22v-39z" />
    <glyph glyph-name="hungarumlaut.uc" horiz-adv-x="700" 
d="M145 954h207l-72 -153h-204zM415 954h209l-80 -153h-204z" />
    <glyph glyph-name="emdash.altuc" horiz-adv-x="2384" 
d="M2315 264h-2246v150h2246v-150z" />
    <glyph glyph-name="f.short" horiz-adv-x="536" 
d="M498 628h-76q-22 0 -32 -10t-10 -33v-28h118v-154h-118v-403h-224v403h-119v154h119v36q0 84 38.5 124t140.5 40h163v-129z" />
    <glyph glyph-name="f_f.short" horiz-adv-x="994" 
d="M156 0v403h-119v154h119v36q0 84 38.5 124t140.5 40h165v-129h-78q-22 0 -32 -10t-10 -33v-28h234v36q0 83 39 123.5t141 40.5h162v-129h-76q-22 0 -31.5 -10t-9.5 -33v-28h117v-154h-117v-403h-225v403h-234v-403h-224z" />
    <glyph glyph-name="j.short" horiz-adv-x="383" 
d="M306 613h-229v146h229v-146zM41 -35q21 0 29 9.5t8 31.5v551h227v-599q0 -71 -32.5 -109.5t-95.5 -38.5h-181v155h45z" />
    <glyph glyph-name="divide.uctab" 
d="M562 527h-204v163h204v-163zM767 432v-143h-614v143h614zM562 27h-204v164h204v-164z" />
    <glyph glyph-name="equal.uctab" 
d="M755 535v-134h-590v134h590zM755 289v-134h-590v134h590z" />
    <glyph glyph-name="florin.tab" 
d="M547 310l-34 -500h-221l32 500h-209v153h219l7 104q6 92 48.5 134.5t144.5 42.5h266v-153h-181q-30 0 -42.5 -12t-14.5 -40l-5 -76h243v-153h-253z" />
    <glyph glyph-name="greater.uctab" 
d="M195 241l370 118l-370 118v156l534 -195v-158l-534 -196v157z" />
    <glyph glyph-name="less.uctab" 
d="M191 279v157l534 197v-158l-370 -118l370 -117v-156z" />
    <glyph glyph-name="minus.uctab" 
d="M762 434v-147h-604v147h604z" />
    <glyph glyph-name="multiply.uctab" 
d="M459 245l-171 -168l-104 104l169 166l-170 166l110 108l169 -167l170 168l105 -103l-170 -168l170 -167l-106 -107z" />
    <glyph glyph-name="plus.uctab" 
d="M542 289v-229h-164v229h-225v143h225v224h164v-224h225v-143h-225z" />
    </font>
</defs>
</svg>
