<?xml version="1.0" encoding="UTF-8"?>
<svg width="582px" height="609px" viewBox="0 0 582 609" version="1.1" xmlns="http://www.w3.org/2000/svg" xmlns:xlink="http://www.w3.org/1999/xlink">
    <!-- Generator: Sketch 63.1 (92452) - https://sketch.com -->
    <title>visual</title>
    <desc>Created with Sketch.</desc>
    <g id="Page-1" stroke="none" stroke-width="1" fill="none" fill-rule="evenodd">
        <g id="Desktop-HD-Copy" transform="translate(-823.000000, -205.000000)">
            <g id="hero" transform="translate(-356.000000, 144.000000)">
                <g id="visual" transform="translate(1179.000000, 62.000000)">
                    <path d="M581.6177,401.2306 L581.6177,401.2306 L581.4127,276.9766 L523.7457,276.9766 L523.9287,400.7016 C523.9097,400.8766 523.9057,401.0516 523.9297,401.2296 L523.9297,401.2306 C524.0607,402.2396 524.8547,403.2756 526.2857,404.1016 L547.8007,416.5236 C550.6737,418.1826 555.0187,418.3626 557.5067,416.9256 L579.9597,403.9626 C581.2097,403.2416 581.7517,402.2496 581.6177,401.2306" id="Fill-1" fill="#FFFFFF"></path>
                    <path d="M581.6177,401.2306 L581.6177,401.2306 L581.4127,276.9766 L523.7457,276.9766 L523.9287,400.7016 C523.9097,400.8766 523.9057,401.0516 523.9297,401.2296 L523.9297,401.2306 C524.0607,402.2396 524.8547,403.2756 526.2857,404.1016 L547.8007,416.5236 C550.6737,418.1826 555.0187,418.3626 557.5067,416.9256 L579.9597,403.9626 C581.2097,403.2416 581.7517,402.2496 581.6177,401.2306 Z" id="Stroke-3" stroke="#2E2E2E" stroke-width="0.5"></path>
                    <path d="M579.7896,279.8829 L557.3366,292.8459 C554.8496,294.2819 550.5046,294.1019 547.6316,292.4439 L526.1156,280.0219 C523.2426,278.3629 522.9316,275.8549 525.4186,274.4179 L547.8716,261.4549 C550.3586,260.0189 554.7046,260.1989 557.5766,261.8579 L579.0936,274.2789 C581.9656,275.9379 582.2766,278.4469 579.7896,279.8829" id="Fill-5" fill="#FFFFFF"></path>
                    <path d="M579.7896,279.8829 L557.3366,292.8459 C554.8496,294.2819 550.5046,294.1019 547.6316,292.4439 L526.1156,280.0219 C523.2426,278.3629 522.9316,275.8549 525.4186,274.4179 L547.8716,261.4549 C550.3586,260.0189 554.7046,260.1989 557.5766,261.8579 L579.0936,274.2789 C581.9656,275.9379 582.2766,278.4469 579.7896,279.8829 Z" id="Stroke-7" stroke="#2E2E2E" stroke-width="0.5"></path>
                    <polygon id="Fill-9" fill="#2E2E2E" points="553.0171 293.8082 552.6921 417.8762 555.8471 417.5862 580.7011 403.4322 581.6381 401.9712 581.4151 278.7972 562.1681 289.9232 556.1441 293.3192"></polygon>
                    <path d="M543.189,422.9308 L543.189,422.9308 L543.022,353.3718 L496.329,353.3718 L496.477,422.5028 C496.462,422.6438 496.46,422.7858 496.478,422.9308 L496.478,422.9308 C496.585,423.7478 497.228,424.5868 498.385,425.2558 L515.807,435.3138 C518.132,436.6568 521.651,436.8028 523.666,435.6388 L541.846,425.1428 C542.858,424.5588 543.296,423.7558 543.189,422.9308" id="Fill-11" fill="#FFFFFF"></path>
                    <path d="M543.189,422.9308 L543.189,422.9308 L543.022,353.3718 L496.329,353.3718 L496.477,422.5028 C496.462,422.6438 496.46,422.7858 496.478,422.9308 L496.478,422.9308 C496.585,423.7478 497.228,424.5868 498.385,425.2558 L515.807,435.3138 C518.132,436.6568 521.651,436.8028 523.666,435.6388 L541.846,425.1428 C542.858,424.5588 543.296,423.7558 543.189,422.9308 Z" id="Stroke-13" stroke="#2E2E2E" stroke-width="0.5"></path>
                    <path d="M541.7085,355.7257 L523.5275,366.2227 C521.5145,367.3847 517.9955,367.2397 515.6695,365.8957 L498.2475,355.8377 C495.9225,354.4957 495.6695,352.4637 497.6845,351.3007 L515.8635,340.8047 C517.8785,339.6417 521.3965,339.7877 523.7225,341.1307 L541.1445,351.1887 C543.4705,352.5317 543.7225,354.5627 541.7085,355.7257" id="Fill-15" fill="#FFFFFF"></path>
                    <path d="M541.7085,355.7257 L523.5275,366.2227 C521.5145,367.3847 517.9955,367.2397 515.6695,365.8957 L498.2475,355.8377 C495.9225,354.4957 495.6695,352.4637 497.6845,351.3007 L515.8635,340.8047 C517.8785,339.6417 521.3965,339.7877 523.7225,341.1307 L541.1445,351.1887 C543.4705,352.5317 543.7225,354.5627 541.7085,355.7257 Z" id="Stroke-17" stroke="#2E2E2E" stroke-width="0.5"></path>
                    <polygon id="Fill-19" fill="#2E2E2E" points="519.8335 367.0074 519.7675 436.4244 522.3025 436.1794 542.1375 424.9574 543.2045 423.6084 543.2045 354.7784 522.6825 367.0074"></polygon>
                    <path d="M511.7954,443.3648 L511.7954,443.3648 L511.6294,406.1908 L464.9364,406.1908 L465.0834,442.9358 C465.0684,443.0778 465.0664,443.2198 465.0844,443.3638 L465.0844,443.3648 C465.1914,444.1818 465.8344,445.0208 466.9924,445.6888 L484.4134,455.7468 C486.7394,457.0908 490.2574,457.2358 492.2724,456.0728 L510.4524,445.5768 C511.4644,444.9928 511.9024,444.1898 511.7954,443.3648" id="Fill-21" fill="#FFFFFF"></path>
                    <path d="M511.7954,443.3648 L511.7954,443.3648 L511.6294,406.1908 L464.9364,406.1908 L465.0834,442.9358 C465.0684,443.0778 465.0664,443.2198 465.0844,443.3638 L465.0844,443.3648 C465.1914,444.1818 465.8344,445.0208 466.9924,445.6888 L484.4134,455.7468 C486.7394,457.0908 490.2574,457.2358 492.2724,456.0728 L510.4524,445.5768 C511.4644,444.9928 511.9024,444.1898 511.7954,443.3648 Z" id="Stroke-23" stroke="#2E2E2E" stroke-width="0.5"></path>
                    <path d="M510.3149,408.545 L492.1339,419.042 C490.1209,420.204 486.6019,420.058 484.2759,418.715 L466.8549,408.657 C464.5289,407.315 464.2759,405.283 466.2909,404.12 L484.4709,393.624 C486.4849,392.461 490.0029,392.607 492.3299,393.949 L509.7509,404.008 C512.0769,405.351 512.3299,407.382 510.3149,408.545" id="Fill-25" fill="#FFFFFF"></path>
                    <path d="M510.3149,408.545 L492.1339,419.042 C490.1209,420.204 486.6019,420.058 484.2759,418.715 L466.8549,408.657 C464.5289,407.315 464.2759,405.283 466.2909,404.12 L484.4709,393.624 C486.4849,392.461 490.0029,392.607 492.3299,393.949 L509.7509,404.008 C512.0769,405.351 512.3299,407.382 510.3149,408.545 Z" id="Stroke-27" stroke="#2E2E2E" stroke-width="0.5"></path>
                    <polygon id="Fill-29" fill="#2E2E2E" points="488.4399 419.8263 488.3739 456.8583 491.0979 456.5613 499.9139 451.6613 510.9219 445.2573 511.8109 444.0013 511.8109 407.5973 491.3349 419.6013"></polygon>
                    <path d="M505.3345,77.2735 L395.8535,14.0645 C393.6845,12.8125 391.6955,12.6805 390.1345,13.4725 L390.1345,13.4725 C389.9225,13.5795 389.7205,13.7075 389.5245,13.8485 L373.6855,23.4045 C373.0635,23.7865 372.8545,24.5885 373.2065,25.2265 L381.7705,40.6915 L381.7705,100.5945 C381.7705,107.2755 385.8315,115.0365 390.8425,117.9295 L477.1055,167.7345 L494.0315,189.1425 L511.0715,178.8385 C513.1065,177.7955 514.4075,175.1745 514.4075,171.3955 L514.4075,94.6085 C514.4075,87.9275 510.3455,80.1665 505.3345,77.2735" id="Fill-31" fill="#FFFFFF"></path>
                    <path d="M505.3345,77.2735 L395.8535,14.0645 C393.6845,12.8125 391.6955,12.6805 390.1345,13.4725 L390.1345,13.4725 C389.9225,13.5795 389.7205,13.7075 389.5245,13.8485 L373.6855,23.4045 C373.0635,23.7865 372.8545,24.5885 373.2065,25.2265 L381.7705,40.6915 L381.7705,100.5945 C381.7705,107.2755 385.8315,115.0365 390.8425,117.9295 L477.1055,167.7345 L494.0315,189.1425 L511.0715,178.8385 C513.1065,177.7955 514.4075,175.1745 514.4075,171.3955 L514.4075,94.6085 C514.4075,87.9275 510.3455,80.1665 505.3345,77.2735 Z" id="Stroke-33" stroke="#2E2E2E" stroke-width="0.5"></path>
                    <path d="M505.3345,84.2042 L395.8535,20.9952 C393.6845,19.7432 391.6955,19.6112 390.1345,20.4032 C389.9225,20.5102 389.7205,20.6382 389.5245,20.7792 L373.6845,30.3352 C373.0635,30.7172 372.8545,31.5192 373.2065,32.1572 L381.7705,47.6222 L381.7705,107.5252 C381.7705,114.2062 385.8315,121.9672 390.8425,124.8602 L477.1055,174.6652 L485.1235,177.8742 L500.5665,174.6842 C502.6035,173.6412 514.4075,166.3082 514.4075,162.5292 L514.4075,101.5392 C514.4075,94.8582 510.3455,87.0972 505.3345,84.2042" id="Fill-35" fill="#FFFFFF"></path>
                    <path d="M488.0435,188.711 L378.5625,125.502 C373.5505,122.608 369.4885,114.848 369.4885,108.167 L369.4885,31.379 C369.4885,24.698 373.5505,21.628 378.5625,24.521 L488.0435,87.73 C493.0545,90.623 497.1155,98.384 497.1155,105.065 L497.1155,181.852 C497.1155,188.533 493.0545,191.604 488.0435,188.711" id="Fill-37" fill="#FFFFFF"></path>
                    <path d="M488.0435,188.711 L378.5625,125.502 C373.5505,122.608 369.4885,114.848 369.4885,108.167 L369.4885,31.379 C369.4885,24.698 373.5505,21.628 378.5625,24.521 L488.0435,87.73 C493.0545,90.623 497.1155,98.384 497.1155,105.065 L497.1155,181.852 C497.1155,188.533 493.0545,191.604 488.0435,188.711 Z" id="Stroke-39" stroke="#2E2E2E" stroke-width="0.5"></path>
                    <path d="M437.0952,135.5186 C437.3692,135.6786 437.8942,135.9096 438.2532,135.6986 C438.5662,135.5186 438.8972,134.9456 438.8972,133.8726 L438.8972,83.6116 C438.8972,81.4896 437.5842,78.9376 436.0312,78.0416 L428.4962,73.6916 C428.2222,73.5336 427.7082,73.2986 427.3382,73.5126 C427.0282,73.6916 426.6952,74.2666 426.6952,75.3386 L426.6952,125.5976 C426.6952,127.7196 428.0072,130.2706 429.5622,131.1676 L437.0952,135.5186 Z" id="Stroke-41" stroke="#2E2E2E" stroke-width="0.5"></path>
                    <path d="M447.98,94.2491 C447.914,94.2491 447.851,94.2621 447.797,94.2921 C447.584,94.4151 447.371,94.8711 447.371,95.6131 L447.371,138.3681 C447.371,140.0101 448.417,142.0551 449.611,142.7441 L458.397,147.8151 C458.548,147.9031 458.923,148.0921 459.146,147.9621 C459.358,147.8401 459.572,147.3851 459.572,146.6421 L459.572,103.8881 C459.572,102.2471 458.526,100.2011 457.332,99.5111 L448.545,94.4391 C448.431,94.3731 448.188,94.2491 447.98,94.2491 Z" id="Stroke-43" stroke="#2E2E2E" stroke-width="0.5"></path>
                    <path d="M467.4556,133.6768 L467.4526,133.6768 C467.4596,133.6878 467.3386,133.8828 467.3386,134.3298 L467.3386,150.9808 C467.3386,152.0458 468.0066,153.3648 468.7676,153.8038 L479.1786,159.8138 C479.3626,159.9218 479.4236,159.9088 479.4256,159.9068 C479.4196,159.8958 479.5396,159.7008 479.5396,159.2548 L479.5396,142.6028 C479.5396,141.4588 478.7866,140.1688 478.1126,139.7798 L467.7026,133.7698 C467.5486,133.6808 467.4686,133.6768 467.4556,133.6768 Z" id="Stroke-45" stroke="#2E2E2E" stroke-width="0.5"></path>
                    <path d="M407.1079,84.711 C407.0709,84.711 407.0419,84.717 407.0199,84.729 C406.9019,84.797 406.7249,85.125 406.7249,85.745 L406.7249,115.255 C406.7249,116.63 407.5959,118.339 408.5909,118.912 L418.1279,124.418 C418.3779,124.563 418.5579,124.583 418.6309,124.545 C418.7499,124.477 418.9259,124.149 418.9259,123.528 L418.9259,94.019 C418.9259,92.645 418.0549,90.934 417.0629,90.361 L407.5259,84.856 C407.3469,84.753 407.2019,84.711 407.1079,84.711 Z" id="Stroke-47" stroke="#2E2E2E" stroke-width="0.5"></path>
                    <path d="M387.144,92.0699 C387.117,92.0699 387.065,92.2049 387.065,92.4729 L387.065,104.8389 C387.065,105.7809 387.678,106.8379 388.225,107.1539 L399.168,113.4709 C399.193,113.4869 399.216,113.4969 399.235,113.5069 C399.233,113.4459 399.264,113.3189 399.264,113.1129 L399.264,100.7469 C399.264,99.8049 398.651,98.7469 398.104,98.4309 L387.161,92.1139 C387.159,92.0849 387.152,92.0699 387.144,92.0699 Z" id="Stroke-49" stroke="#2E2E2E" stroke-width="0.5"></path>
                    <polygon id="Fill-51" fill="#2E2E2E" points="495.2329 96.6192 512.7149 86.5992 513.9959 90.7562 514.5579 96.9952 514.5579 169.5812 513.9959 174.7622 513.1409 176.8262 511.9929 178.2812 495.7819 188.0842 497.1229 182.9752 497.0819 102.3412"></polygon>
                    <path d="M414.104,168.7916 L121.277,1.7956 C117.607,-0.2964 114.294,-0.1894 111.918,1.6606 L97.563,10.2586 L108.193,25.3816 L108.193,252.4096 C108.193,261.9256 114.05,272.9806 121.277,277.1016 L394.713,433.0396 L408.792,453.0696 L422.344,444.9416 C425.297,443.4666 427.187,439.7286 427.187,434.3276 L427.187,193.4836 C427.187,183.9676 421.33,172.9126 414.104,168.7916" id="Fill-53" fill="#FFFFFF"></path>
                    <path d="M414.104,168.7916 L121.277,1.7956 C117.607,-0.2964 114.294,-0.1894 111.918,1.6606 L97.563,10.2586 L108.193,25.3816 L108.193,252.4096 C108.193,261.9256 114.05,272.9806 121.277,277.1016 L394.713,433.0396 L408.792,453.0696 L422.344,444.9416 C425.297,443.4666 427.187,439.7286 427.187,434.3276 L427.187,193.4836 C427.187,183.9676 421.33,172.9126 414.104,168.7916 Z" id="Stroke-55" stroke="#2E2E2E" stroke-width="0.5"></path>
                    <path d="M191.896,374.357 L251.152,340.717 C256.896,337.443 266.531,337.819 273.102,341.561 L309.152,362.13 L326.284,369.782 L326.284,377.612 L326.169,377.612 C325.783,379.643 324.355,381.436 322.03,382.763 L249.02,424.25 C246.398,425.745 242.962,426.478 239.377,426.478 C235.113,426.478 230.638,425.44 227.07,423.406 L180.491,396.647 C177.036,394.675 175.006,392.064 174.777,389.103 C174.768275,388.857 174.763,388.613 174.777,388.467 L174.777,382.107 L191.896,374.357 Z" id="Fill-57" fill="#2E2E2E"></path>
                    <path d="M321.3462,375.5494 L248.3322,417.0344 C243.0582,420.0424 233.8462,419.6654 227.7562,416.1924 L180.3022,389.1304 C174.2122,385.6564 173.5512,380.4034 178.8252,377.3954 L251.8392,335.9104 C257.1142,332.9034 266.3252,333.2804 272.4152,336.7524 L319.8682,363.8154 C325.9592,367.2884 326.6202,372.5414 321.3462,375.5494" id="Fill-59" fill="#FFFFFF"></path>
                    <path d="M321.3462,375.5494 L248.3322,417.0344 C243.0582,420.0424 233.8462,419.6654 227.7562,416.1924 L180.3022,389.1304 C174.2122,385.6564 173.5512,380.4034 178.8252,377.3954 L251.8392,335.9104 C257.1142,332.9034 266.3252,333.2804 272.4152,336.7524 L319.8682,363.8154 C325.9592,367.2884 326.6202,372.5414 321.3462,375.5494 Z" id="Stroke-61" stroke="#2E2E2E" stroke-width="0.5"></path>
                    <path d="M92.8657,233.4849 L92.1527,21.3169 C92.1527,15.8449 94.0327,11.6159 97.3117,9.7119 C100.1387,8.0759 103.6757,8.3069 107.2817,10.3639 L399.5267,177.0269 C407.1107,181.3499 413.2817,192.9459 413.2817,202.8719 L413.9957,415.9209 L92.8657,233.4849 Z" id="Fill-63" fill="#2E2E2E"></path>
                    <path d="M93.5386,233.7384 L93.5386,262.8724 C93.5386,271.7114 99.8206,282.4594 107.5696,286.8784 L397.8666,452.4304 C405.6156,456.8504 411.8976,453.2674 411.8976,444.4294 L411.8976,415.2944 L93.5386,233.7384 Z" id="Fill-65" fill="#FFFFFF"></path>
                    <path d="M93.5386,233.7384 L93.5386,262.8724 C93.5386,271.7114 99.8206,282.4594 107.5696,286.8784 L397.8666,452.4304 C405.6156,456.8504 411.8976,453.2674 411.8976,444.4294 L411.8976,415.2944 L93.5386,233.7384 Z" id="Stroke-67" stroke="#2E2E2E" stroke-width="0.5"></path>
                    <path d="M392.9019,386.3106 L112.5339,226.4196 C109.9909,224.9696 107.9279,221.0786 107.9279,217.7286 L107.9279,34.1376 C107.9279,30.7876 109.9909,29.2476 112.5339,30.6976 L392.9019,190.5886 C395.4459,192.0396 397.5069,195.9306 397.5069,199.2806 L397.5069,382.8716 C397.5069,386.2216 395.4459,387.7616 392.9019,386.3106" id="Fill-69" fill="#F44336"></path>
                    <path d="M392.9019,386.3106 L112.5339,226.4196 C109.9909,224.9696 107.9279,221.0786 107.9279,217.7286 L107.9279,34.1376 C107.9279,30.7876 109.9909,29.2476 112.5339,30.6976 L392.9019,190.5886 C395.4459,192.0396 397.5069,195.9306 397.5069,199.2806 L397.5069,382.8716 C397.5069,386.2216 395.4459,387.7616 392.9019,386.3106 Z" id="Stroke-71" stroke="#2E2E2E" stroke-width="0.5" stroke-linecap="round" stroke-linejoin="round"></path>
                    <path d="M123.2798,275.6856 L63.2768,241.0436 C62.0898,240.3576 60.9988,240.2856 60.1428,240.7196 C60.0268,240.7786 59.9168,240.8486 59.8088,240.9256 L51.1278,246.1626 C50.7878,246.3726 50.6728,246.8116 50.8658,247.1616 L55.5588,255.6376 L55.5588,301.7826 C55.5588,305.4446 57.7848,316.6426 60.5308,318.2276 L107.8088,345.5236 L117.0848,357.2566 L126.4238,351.6086 C127.5398,351.0376 128.2518,349.6006 128.2518,347.5296 L128.2518,285.1866 C128.2518,281.5246 126.0258,277.2706 123.2798,275.6856" id="Fill-73" fill="#FFFFFF"></path>
                    <path d="M123.2798,275.6856 L63.2768,241.0436 C62.0898,240.3576 60.9988,240.2856 60.1428,240.7196 C60.0268,240.7786 59.9168,240.8486 59.8088,240.9256 L51.1278,246.1626 C50.7878,246.3726 50.6728,246.8116 50.8658,247.1616 L55.5588,255.6376 L55.5588,301.7826 C55.5588,305.4446 57.7848,316.6426 60.5308,318.2276 L107.8088,345.5236 L117.0848,357.2566 L126.4238,351.6086 C127.5398,351.0376 128.2518,349.6006 128.2518,347.5296 L128.2518,285.1866 C128.2518,281.5246 126.0258,277.2706 123.2798,275.6856 Z" id="Stroke-75" stroke="#2E2E2E" stroke-width="0.5"></path>
                    <path d="M122.9419,279.315 L62.9399,244.673 C61.7519,243.986 60.6619,243.915 59.8049,244.348 C59.6899,244.407 59.5789,244.477 59.4709,244.554 L50.7909,249.792 C50.4499,250.001 50.3349,250.441 50.5279,250.79 L55.2209,259.266 L55.2209,305.412 C55.2209,309.074 57.4479,320.271 60.1939,321.857 L107.4709,349.152 L112.4189,353.3 L122.4029,351.342 C123.5179,350.771 127.6139,351.077 127.6139,349.005 L127.9149,288.815 C127.9149,285.154 125.6879,280.9 122.9419,279.315" id="Fill-77" fill="#FFFFFF"></path>
                    <path d="M113.8032,357.0196 L53.8002,322.3776 C49.2872,319.8566 48.8272,309.5946 48.8272,305.9326 L48.8272,250.5336 C48.8272,246.8726 51.0542,245.1886 53.8002,246.7746 L113.8032,281.4166 C116.5492,283.0026 118.7752,287.2556 118.7752,290.9176 L118.7752,353.2606 C118.7752,356.9216 116.5492,358.6046 113.8032,357.0196" id="Fill-79" fill="#FFFFFF"></path>
                    <path d="M113.8032,357.0196 L53.8002,322.3776 C49.2872,319.8566 48.8272,309.5946 48.8272,305.9326 L48.8272,250.5336 C48.8272,246.8726 51.0542,245.1886 53.8002,246.7746 L113.8032,281.4166 C116.5492,283.0026 118.7752,287.2556 118.7752,290.9176 L118.7752,353.2606 C118.7752,356.9216 116.5492,358.6046 113.8032,357.0196 Z" id="Stroke-81" stroke="#2E2E2E" stroke-width="0.5"></path>
                    <path d="M77.3589,283.127 C77.3489,283.127 77.3399,283.127 77.3379,283.129 C77.3029,283.146 77.1289,283.358 77.1289,283.945 L77.1289,322.665 C77.1289,323.865 77.8829,325.352 78.7449,325.847 L84.8709,329.527 C85.0769,329.65 85.1909,329.654 85.2099,329.64 C85.2429,329.623 85.4209,329.411 85.4209,328.824 L85.4209,290.104 C85.4209,288.906 84.6649,287.419 83.8009,286.919 L77.6789,283.242 C77.5109,283.146 77.4029,283.127 77.3589,283.127 Z" id="Stroke-83" stroke="#2E2E2E" stroke-width="0.5"></path>
                    <path d="M100.6079,338.8668 C100.6699,338.9018 100.7159,338.9188 100.7429,338.9268 C100.7119,338.8918 100.7639,338.7338 100.7639,338.4638 L100.7639,310.8768 C100.7639,309.8908 100.1189,308.7828 99.5449,308.4518 L92.3499,304.1578 C92.2649,304.0728 92.1939,304.2408 92.1939,304.5608 L92.1939,332.1468 C92.1939,333.1328 92.8379,334.2418 93.4129,334.5728 L100.6079,338.8668 Z" id="Stroke-85" stroke="#2E2E2E" stroke-width="0.5"></path>
                    <path d="M62.6831,300.1021 C62.6771,300.1501 62.6721,300.2061 62.6721,300.2721 L62.6721,315.2251 C62.6721,316.0171 63.2021,316.9361 63.6551,317.1991 L71.0871,321.5731 C71.0931,321.5251 71.0981,321.4691 71.0981,321.4021 L71.0981,306.4501 C71.0981,305.6581 70.5701,304.7381 70.1161,304.4781 L62.6831,300.1021 Z" id="Stroke-87" stroke="#2E2E2E" stroke-width="0.5"></path>
                    <polygon id="Fill-89" fill="#2E2E2E" points="117.7104 286.2115 127.1874 280.4795 128.2514 285.1865 128.1114 349.0045 127.3314 350.8375 118.3334 356.3855 118.7294 353.9405 118.7774 290.3555"></polygon>
                    <path d="M331.2573,230.2847 L321.2913,176.6167 C314.2603,174.5137 307.7363,174.7647 302.3753,177.3547 L302.3653,177.3387 L301.8643,177.6037 C301.6163,177.7327 301.3663,177.8567 301.1243,177.9957 L292.1433,182.7547 L293.1723,186.1077 C292.4843,187.2897 291.8483,188.5487 291.2983,189.9257 C283.0283,210.6337 294.2153,245.4907 316.2843,267.7807 C327.4783,279.0867 339.3173,284.9757 349.3503,285.3447 L351.3933,287.8987 L359.5493,283.5067 C360.5143,283.0787 361.4453,282.5827 362.3353,282.0067 L362.3583,281.9947 L362.3603,281.9897 C366.1203,279.5427 369.1703,275.7697 371.2163,270.6437 C372.3463,267.8157 373.1003,264.7157 373.5263,261.4267 L331.2573,230.2847 Z" id="Fill-91" fill="#FFFFFF"></path>
                    <path d="M331.2573,230.2847 L321.2913,176.6167 C314.2603,174.5137 307.7363,174.7647 302.3753,177.3547 L302.3653,177.3387 L301.8643,177.6037 C301.6163,177.7327 301.3663,177.8567 301.1243,177.9957 L292.1433,182.7547 L293.1723,186.1077 C292.4843,187.2897 291.8483,188.5487 291.2983,189.9257 C283.0283,210.6337 294.2153,245.4907 316.2843,267.7807 C327.4783,279.0867 339.3173,284.9757 349.3503,285.3447 L351.3933,287.8987 L359.5493,283.5067 C360.5143,283.0787 361.4453,282.5827 362.3353,282.0067 L362.3583,281.9947 L362.3603,281.9897 C366.1203,279.5427 369.1703,275.7697 371.2163,270.6437 C372.3463,267.8157 373.1003,264.7157 373.5263,261.4267 L331.2573,230.2847 Z" id="Stroke-93" stroke="#2E2E2E" stroke-width="0.5"></path>
                    <path d="M331.2163,232.7369 L321.2503,179.0689 C314.2193,176.9659 307.6953,177.2169 302.3343,179.8059 L302.3243,179.7899 L301.8233,180.0559 C301.5753,180.1849 301.3253,180.3089 301.0833,180.4479 L292.1023,185.2069 L293.1313,188.5599 C292.4433,189.7419 291.8073,191.0009 291.2573,192.3769 C282.9873,213.0859 294.1743,247.9429 316.2433,270.2329 C327.4373,281.5379 339.2763,287.4279 349.3093,287.7969 L348.7803,283.4509 L344.6913,277.9409 C345.6553,277.5119 351.5683,280.0279 352.4573,279.4509 L345.9853,276.1559 L347.5013,276.4229 C351.2623,273.9769 345.4543,277.6879 347.5013,272.5619 C348.6313,269.7339 347.6903,269.6069 348.1143,266.3179 L331.2163,232.7369 Z" id="Fill-95" fill="#FFFFFF"></path>
                    <path d="M321.4761,235.481 L311.5101,181.813 C298.2071,177.836 286.6791,182.191 281.5161,195.122 C273.2471,215.83 284.4341,250.687 306.5021,272.977 C328.5721,295.267 353.1651,296.549 361.4351,275.841 C362.5651,273.012 363.3191,269.912 363.7441,266.623 L321.4761,235.481 Z" id="Fill-97" fill="#FFFFFF"></path>
                    <path d="M321.4761,235.481 L311.5101,181.813 C298.2071,177.836 286.6791,182.191 281.5161,195.122 C273.2471,215.83 284.4341,250.687 306.5021,272.977 C328.5721,295.267 353.1651,296.549 361.4351,275.841 C362.5651,273.012 363.3191,269.912 363.7441,266.623 L321.4761,235.481 Z" id="Stroke-99" stroke="#2E2E2E" stroke-width="0.5"></path>
                    <polygon id="Fill-101" fill="#2E2E2E" points="311.5103 181.8126 321.2913 176.6166 331.2573 230.2846 321.4763 235.4806"></polygon>
                    <polygon id="Stroke-103" stroke="#2E2E2E" stroke-width="0.5" stroke-linecap="round" stroke-linejoin="round" points="311.5103 181.8126 321.2913 176.6166 331.2573 230.2846 321.4763 235.4806"></polygon>
                    <polygon id="Fill-105" fill="#FFFFFF" points="363.7437 266.6231 373.5257 261.4271 331.2577 230.2851 321.4757 235.4811"></polygon>
                    <polygon id="Stroke-107" stroke="#2E2E2E" stroke-width="0.5" stroke-linecap="round" stroke-linejoin="round" points="363.7437 266.6231 373.5257 261.4271 331.2577 230.2851 321.4757 235.4811"></polygon>
                    <path d="M381.3218,245.1441 C380.3768,234.3111 376.6358,222.4331 370.6718,211.2871 C366.2218,202.9711 360.5448,195.0631 353.8588,188.3111 C345.5698,179.9381 336.9248,174.5311 328.9208,172.1391 L319.1388,177.3351 L328.9208,198.9981 L335.8118,209.2481 L338.8258,225.4831 C338.8568,225.6481 339.0338,225.7401 339.1858,225.6701 L339.2658,225.6341 C339.1218,225.7001 339.1248,225.8961 339.2588,225.9701 L339.2378,225.9681 C339.1938,225.9471 339.1588,226.0081 339.1978,226.0361 L354.8508,237.5701 L371.3728,262.1461 L381.1548,256.9491 C381.6348,253.2311 381.6818,249.2651 381.3218,245.1441" id="Fill-109" fill="#FFFFFF"></path>
                    <path d="M381.3218,245.1441 C380.3768,234.3111 376.6358,222.4331 370.6718,211.2871 C366.2218,202.9711 360.5448,195.0631 353.8588,188.3111 C345.5698,179.9381 336.9248,174.5311 328.9208,172.1391 L319.1388,177.3351 L328.9208,198.9981 L335.8118,209.2481 L338.8258,225.4831 C338.8568,225.6481 339.0338,225.7401 339.1858,225.6701 L339.2658,225.6341 C339.1218,225.7001 339.1248,225.8961 339.2588,225.9701 L339.2378,225.9681 C339.1938,225.9471 339.1588,226.0081 339.1978,226.0361 L354.8508,237.5701 L371.3728,262.1461 L381.1548,256.9491 C381.6348,253.2311 381.6818,249.2651 381.3218,245.1441 Z" id="Stroke-111" stroke="#2E2E2E" stroke-width="0.5" stroke-linecap="round" stroke-linejoin="round"></path>
                    <path d="M381.0503,249.0094 C380.1053,238.1754 376.7933,226.7274 370.8293,215.5804 C366.3793,207.2654 360.7013,199.3574 354.0163,192.6054 C345.7273,184.2324 337.0813,178.8254 329.0783,176.4324 L319.9253,181.5714 L329.0783,203.2924 L335.9693,213.5424 L338.9843,229.7774 C339.0143,229.9414 339.1923,230.0334 339.3443,229.9644 L339.4233,229.9274 C339.2793,229.9934 339.2813,230.1904 339.4163,230.2634 L339.3953,230.2614 C339.3513,230.2414 339.3163,230.3014 339.3553,230.3304 L355.0083,241.8634 L371.5313,261.2804 L381.1543,256.9494 C381.6353,253.2314 381.4103,253.1304 381.0503,249.0094" id="Fill-113" fill="#FFFFFF"></path>
                    <path d="M329.4048,230.8668 L360.8898,216.4838 C356.4408,208.1678 350.7618,200.2598 344.0778,193.5078 C335.7878,185.1358 327.1418,179.7278 319.1388,177.3358 L329.0448,230.6798 C329.0748,230.8448 329.2528,230.9368 329.4048,230.8668" id="Fill-115" fill="#FFFFFF"></path>
                    <path d="M329.4048,230.8668 L360.8898,216.4838 C356.4408,208.1678 350.7618,200.2598 344.0778,193.5078 C335.7878,185.1358 327.1418,179.7278 319.1388,177.3358 L329.0448,230.6798 C329.0748,230.8448 329.2528,230.9368 329.4048,230.8668 Z" id="Stroke-117" stroke="#2E2E2E" stroke-width="0.5" stroke-linecap="round" stroke-linejoin="round"></path>
                    <path d="M371.2925,262.0997 C371.7295,258.4637 371.7315,254.5807 371.3295,250.5417 L329.3765,231.3027 C329.3325,231.2817 329.2985,231.3407 329.3375,231.3697 L371.2925,262.0997 Z" id="Fill-119" fill="#FFFFFF"></path>
                    <path d="M371.2925,262.0997 C371.7295,258.4637 371.7315,254.5807 371.3295,250.5417 L329.3765,231.3027 C329.3325,231.2817 329.2985,231.3407 329.3375,231.3697 L371.2925,262.0997 Z" id="Stroke-121" stroke="#2E2E2E" stroke-width="0.5" stroke-linecap="round" stroke-linejoin="round"></path>
                    <path d="M329.4849,231.1768 L371.5409,250.3408 C370.5939,239.5078 366.8549,227.6298 360.8899,216.4838 L329.4839,230.8308 C329.3359,230.8988 329.3369,231.1098 329.4849,231.1768" id="Fill-123" fill="#FFFFFF"></path>
                    <path d="M329.4849,231.1768 L371.5409,250.3408 C370.5939,239.5078 366.8549,227.6298 360.8899,216.4838 L329.4839,230.8308 C329.3359,230.8988 329.3369,231.1098 329.4849,231.1768 Z" id="Stroke-125" stroke="#2E2E2E" stroke-width="0.5"></path>
                    <polygon id="Fill-127" fill="#2E2E2E" points="367.2231 230.8902 376.8121 225.1492 379.1401 232.7272 380.7501 240.1642 381.4571 247.0072 381.5531 252.8292 381.3021 257.0022 371.3721 262.1462 371.4371 248.3492 369.8281 239.8042"></polygon>
                    <polygon id="Fill-129" fill="#2E2E2E" points="354.5151 286.1304 361.7441 282.3734 364.8821 280.0444 367.9951 276.5734 370.4891 272.4694 372.7591 265.2434 373.5261 261.4264 363.7441 266.6234 361.8601 275.2934 359.5941 279.6454"></polygon>
                    <polygon id="Fill-131" fill="#2E2E2E" points="424.7671 182.1217 409.9841 191.1117 411.9091 196.0467 411.8011 446.2307 409.9841 452.3547 421.0151 445.7397 425.4261 442.4977 427.0591 436.6697 427.1871 229.4127 427.1871 189.7997"></polygon>
                    <path d="M431.0581,393.4976 L431.0581,352.8236 L373.4871,319.4656 L373.4871,360.1396 C373.4871,360.1396 374.3101,380.5846 365.6491,385.4276 L356.9881,390.2696 L414.5591,423.6276 L423.2201,418.7856 C431.8821,413.9426 431.0581,393.4976 431.0581,393.4976" id="Fill-133" fill="#FFFFFF"></path>
                    <path d="M431.0581,393.4976 L431.0581,352.8236 L373.4871,319.4656 L373.4871,360.1396 C373.4871,360.1396 374.3101,380.5846 365.6491,385.4276 L356.9881,390.2696 L414.5591,423.6276 L423.2201,418.7856 C431.8821,413.9426 431.0581,393.4976 431.0581,393.4976 Z" id="Stroke-135" stroke="#2E2E2E" stroke-width="0.5"></path>
                    <path d="M399.2583,374.6573 L403.1463,359.0373 C401.8993,357.9563 400.6023,356.9943 399.2583,356.2193 C390.4393,351.1273 383.2893,355.2553 383.2893,365.4383 C383.2893,375.6213 390.4393,388.0043 399.2583,393.0953 C408.0773,398.1873 415.2263,394.0593 415.2263,383.8763 C415.2263,382.4883 415.0823,381.0573 414.8303,379.6113 L399.2583,374.6573 Z" id="Fill-137" fill="#FFFFFF"></path>
                    <path d="M399.2583,374.6573 L403.1463,359.0373 C401.8993,357.9563 400.6023,356.9943 399.2583,356.2193 C390.4393,351.1273 383.2893,355.2553 383.2893,365.4383 C383.2893,375.6213 390.4393,388.0043 399.2583,393.0953 C408.0773,398.1873 415.2263,394.0593 415.2263,383.8763 C415.2263,382.4883 415.0823,381.0573 414.8303,379.6113 L399.2583,374.6573 Z" id="Stroke-139" stroke="#2E2E2E" stroke-width="0.5"></path>
                    <path d="M403.8989,372.6964 L419.4709,377.6504 C418.1569,370.1054 413.6079,362.1214 407.7879,357.0764 L403.8989,372.6964 Z" id="Fill-141" fill="#FFFFFF"></path>
                    <path d="M403.8989,372.6964 L419.4709,377.6504 C418.1569,370.1054 413.6079,362.1214 407.7879,357.0764 L403.8989,372.6964 Z" id="Stroke-143" stroke="#2E2E2E" stroke-width="0.5"></path>
                    <path d="M521.3882,546.5973 L521.3882,546.5973 L521.1282,531.6463 L397.7272,531.6463 L397.8922,546.2153 C397.8532,546.5893 397.8922,546.2153 397.9412,546.5953 L397.9412,546.5973 L397.9422,546.5973 C398.2232,548.7573 399.9222,550.9743 402.9822,552.7413 L449.0242,579.3233 C455.1702,582.8713 464.4692,583.2573 469.7922,580.1843 L517.8392,552.4443 C520.5132,550.9013 521.6732,548.7783 521.3882,546.5973" id="Fill-145" fill="#FFFFFF"></path>
                    <path d="M521.3882,546.5973 L521.3882,546.5973 L521.1282,531.6463 L397.7272,531.6463 L397.8922,546.2153 C397.8532,546.5893 397.8922,546.2153 397.9412,546.5953 L397.9412,546.5973 L397.9422,546.5973 C398.2232,548.7573 399.9222,550.9743 402.9822,552.7413 L449.0242,579.3233 C455.1702,582.8713 464.4692,583.2573 469.7922,580.1843 L517.8392,552.4443 C520.5132,550.9013 521.6732,548.7783 521.3882,546.5973 Z" id="Stroke-147" stroke="#2E2E2E" stroke-width="0.5"></path>
                    <path d="M517.6548,537.8668 L469.6088,565.6068 C464.2858,568.6798 454.9868,568.2948 448.8398,564.7458 L402.7988,538.1638 C396.6508,534.6148 395.9838,529.2468 401.3068,526.1738 L449.3538,498.4328 C454.6768,495.3598 463.9758,495.7448 470.1228,499.2938 L516.1648,525.8758 C522.3108,529.4248 522.9788,534.7938 517.6548,537.8668" id="Fill-149" fill="#FFFFFF"></path>
                    <path d="M517.6548,537.8668 L469.6088,565.6068 C464.2858,568.6798 454.9868,568.2948 448.8398,564.7458 L402.7988,538.1638 C396.6508,534.6148 395.9838,529.2468 401.3068,526.1738 L449.3538,498.4328 C454.6768,495.3598 463.9758,495.7448 470.1228,499.2938 L516.1648,525.8758 C522.3108,529.4248 522.9788,534.7938 517.6548,537.8668 Z" id="Stroke-151" stroke="#2E2E2E" stroke-width="0.5"></path>
                    <polygon id="Fill-153" fill="#2E2E2E" points="460.2778 567.6793 460.2778 582.2593 465.5068 581.8053 471.1478 579.4053 519.6588 551.2723 521.3878 548.4883 521.1798 534.6153 517.6668 537.9743 467.3468 566.6293 461.2808 567.6823"></polygon>
                    <polygon id="Fill-155" fill="#FFFFFF" points="54.9272 128.7579 67.9792 121.1739 94.5102 155.8479 81.4592 163.4329"></polygon>
                    <polygon id="Stroke-157" stroke="#0C0907" stroke-width="0.5" points="54.9272 128.7579 67.9792 121.1739 94.5102 155.8479 81.4592 163.4329"></polygon>
                    <polygon id="Fill-159" fill="#FFFFFF" points="118.9966 132.7672 132.0476 125.1832 162.1376 168.1882 149.0866 175.7722"></polygon>
                    <polygon id="Stroke-161" stroke="#0C0907" stroke-width="0.5" points="118.9966 132.7672 132.0476 125.1832 162.1376 168.1882 149.0866 175.7722"></polygon>
                    <polygon id="Fill-163" fill="#FFFFFF" points="215.0767 123.2301 214.6537 272.4461 13.6687 156.4071 54.9277 128.7581 81.4597 163.4331 118.9967 132.7671 149.0867 175.7721"></polygon>
                    <polygon id="Stroke-165" stroke="#2E2E2E" stroke-width="0.5" stroke-linecap="round" stroke-linejoin="round" points="215.0767 123.2301 214.6537 272.4461 13.6687 156.4071 54.9277 128.7581 81.4597 163.4331 118.9967 132.7671 149.0867 175.7721"></polygon>
                    <polygon id="Fill-167" fill="#2E2E2E" points="215.0767 123.2301 228.1277 115.6461 227.7047 264.8611 214.6537 272.4461"></polygon>
                    <polygon id="Stroke-169" stroke="#2E2E2E" stroke-width="0.5" stroke-linecap="round" stroke-linejoin="round" points="215.0767 123.2301 228.1277 115.6461 227.7047 264.8611 214.6537 272.4461"></polygon>
                    <path d="M192.6938,607.067 C191.7688,607.067 190.8808,606.875 190.2018,606.482 L94.1158,551.008 C93.3468,550.565 92.9238,549.918 92.9238,549.188 C92.9238,548.361 93.4888,547.56 94.4718,546.993 L228.3538,469.697 C230.0298,468.728 232.4998,468.636 233.9778,469.491 L330.0628,524.965 C330.8308,525.409 331.2538,526.054 331.2538,526.786 C331.2538,527.614 330.6908,528.414 329.7078,528.98 L195.8258,606.276 C194.9198,606.8 193.7808,607.067 192.6938,607.067" id="Fill-171" fill="#FFFFFF"></path>
                    <path d="M192.6938,607.067 C191.7688,607.067 190.8808,606.875 190.2018,606.482 L94.1158,551.008 C93.3468,550.565 92.9238,549.918 92.9238,549.188 C92.9238,548.361 93.4888,547.56 94.4718,546.993 L228.3538,469.697 C230.0298,468.728 232.4998,468.636 233.9778,469.491 L330.0628,524.965 C330.8308,525.409 331.2538,526.054 331.2538,526.786 C331.2538,527.614 330.6908,528.414 329.7078,528.98 L195.8258,606.276 C194.9198,606.8 193.7808,607.067 192.6938,607.067 Z" id="Stroke-173" stroke="#2E2E2E" stroke-width="0.5"></path>
                    <path d="M213.9897,532.5426 C213.5807,532.5426 213.1847,532.4536 212.8757,532.2736 L178.0387,512.1606 C177.6307,511.9256 177.3957,511.5506 177.3957,511.1356 C177.3957,510.6816 177.6767,510.2566 178.1677,509.9736 L226.4247,482.1136 C227.1637,481.6866 228.2197,481.6566 228.8837,482.0396 L263.7187,502.1516 C264.1277,502.3876 264.3617,502.7616 264.3617,503.1766 C264.3617,503.6316 264.0807,504.0556 263.5907,504.3386 L215.3337,532.1996 C214.9397,532.4276 214.4577,532.5426 213.9897,532.5426" id="Fill-175" fill="#2E2E2E"></path>
                    <path d="M213.9897,532.5426 C213.5807,532.5426 213.1847,532.4536 212.8757,532.2736 L178.0387,512.1606 C177.6307,511.9256 177.3957,511.5506 177.3957,511.1356 C177.3957,510.6816 177.6767,510.2566 178.1677,509.9736 L226.4247,482.1136 C227.1637,481.6866 228.2197,481.6566 228.8837,482.0396 L263.7187,502.1516 C264.1277,502.3876 264.3617,502.7616 264.3617,503.1766 C264.3617,503.6316 264.0807,504.0556 263.5907,504.3386 L215.3337,532.1996 C214.9397,532.4276 214.4577,532.5426 213.9897,532.5426 Z" id="Stroke-177" stroke="#2E2E2E" stroke-width="0.5" stroke-linecap="round" stroke-linejoin="round"></path>
                    <path d="M301.8706,536.5465 L265.9866,515.8285 C265.8156,515.7315 265.8376,515.5595 266.0346,515.4445 L272.2216,511.8725 C272.4186,511.7595 272.7156,511.7475 272.8866,511.8455 L308.7686,532.5635 C308.9396,532.6615 308.9186,532.8335 308.7226,532.9465 L302.5346,536.5195 C302.3386,536.6325 302.0406,536.6445 301.8706,536.5465" id="Fill-179" fill="#FFFFFF"></path>
                    <path d="M267.0073,512.0162 L302.1533,532.3092 L307.7433,529.1072 L272.5523,508.7882 L267.0073,512.0162 Z M302.1613,533.6462 C301.9393,533.6462 301.7203,533.5952 301.5393,533.4912 L301.5373,533.4902 L265.6533,512.7712 C265.3743,512.6122 265.2063,512.3342 265.2053,512.0302 C265.2053,511.7112 265.3903,511.4132 265.7003,511.2352 L271.8883,507.6632 C272.2973,507.4302 272.8423,507.4192 273.2193,507.6362 L309.1023,528.3542 C309.3843,528.5162 309.5513,528.7952 309.5513,529.0982 C309.5493,529.4162 309.3633,529.7122 309.0513,529.8902 L302.8673,533.4612 C302.6563,533.5842 302.4063,533.6462 302.1613,533.6462 L302.1613,533.6462 Z" id="Fill-181" fill="#2E2E2E"></path>
                    <path d="M290.9077,542.8756 L255.0237,522.1576 C254.8537,522.0596 254.8757,521.8886 255.0717,521.7736 L261.2597,518.2026 C261.4557,518.0886 261.7537,518.0756 261.9237,518.1746 L297.8067,538.8926 C297.9777,538.9896 297.9567,539.1626 297.7597,539.2756 L291.5727,542.8476 C291.3767,542.9616 291.0787,542.9746 290.9077,542.8756" id="Fill-183" fill="#FFFFFF"></path>
                    <path d="M256.0444,518.3453 L291.1914,538.6383 L296.7824,535.4353 L261.5904,515.1173 L256.0444,518.3453 Z M291.1994,539.9753 C290.9774,539.9753 290.7574,539.9243 290.5774,539.8203 L290.5744,539.8193 L254.6904,519.1003 C254.4124,518.9423 254.2444,518.6643 254.243384,518.3623 C254.2414,518.0443 254.4274,517.7463 254.7354,517.5663 L260.9264,513.9923 C261.3334,513.7573 261.8794,513.7453 262.2574,513.9653 L298.1404,534.6823 C298.4214,534.8453 298.5874,535.1213 298.5874,535.4243 C298.5874,535.7453 298.4084,536.0353 298.0954,536.2183 L291.9054,539.7913 C291.6944,539.9133 291.4434,539.9753 291.1994,539.9753 L291.1994,539.9753 Z" id="Fill-185" fill="#2E2E2E"></path>
                    <path d="M279.9458,549.2037 L244.0618,528.4867 C243.8918,528.3887 243.9138,528.2167 244.1098,528.1027 L250.2978,524.5307 C250.4938,524.4177 250.7918,524.4047 250.9618,524.5037 L286.8448,545.2217 C287.0158,545.3197 286.9938,545.4907 286.7978,545.6047 L280.6108,549.1777 C280.4138,549.2907 280.1168,549.3027 279.9458,549.2037" id="Fill-187" fill="#FFFFFF"></path>
                    <path d="M245.0825,524.6744 L280.2305,544.9664 L285.8195,541.7654 L250.6285,521.4454 L245.0825,524.6744 Z M280.2375,546.3054 C280.0125,546.3054 279.7925,546.2524 279.6115,546.1474 L243.7285,525.4304 C243.4475,525.2684 243.2805,524.9894 243.281496,524.6864 C243.281496,524.3694 243.4685,524.0724 243.7765,523.8934 L249.9645,520.3224 C250.3655,520.0884 250.9125,520.0734 251.2915,520.2924 L287.1785,541.0124 C287.4565,541.1704 287.6245,541.4474 287.626504,541.7504 C287.6275,542.0684 287.4425,542.3654 287.1335,542.5464 L280.9435,546.1194 C280.7315,546.2424 280.4815,546.3054 280.2375,546.3054 L280.2375,546.3054 Z" id="Fill-189" fill="#2E2E2E"></path>
                    <path d="M268.9839,555.5338 L233.0999,534.8158 C232.9289,534.7178 232.9509,534.5458 233.1479,534.4318 L239.3349,530.8598 C239.5319,530.7468 239.8289,530.7338 239.9999,530.8328 L275.8829,551.5508 C276.0529,551.6478 276.0319,551.8198 275.8359,551.9338 L269.6489,555.5058 C269.4519,555.6198 269.1539,555.6318 268.9839,555.5338" id="Fill-191" fill="#FFFFFF"></path>
                    <path d="M234.1206,531.0035 L269.2676,551.2955 L274.8576,548.0945 L239.6666,527.7755 L234.1206,531.0035 Z M269.2736,552.6325 C269.0506,552.6325 268.8306,552.5795 268.6506,552.4775 L268.6496,552.4765 L232.7666,531.7595 C232.4846,531.5975 232.3186,531.3165 232.3186,531.0145 C232.3196,530.6955 232.5056,530.3995 232.8176,530.2225 L239.0026,526.6515 C239.4076,526.4145 239.9546,526.4035 240.3346,526.6235 L276.2156,547.3415 C276.4946,547.5005 276.6626,547.7775 276.6636,548.0825 C276.6636,548.4005 276.4796,548.6985 276.1686,548.8785 L269.9816,552.4485 C269.7676,552.5705 269.5186,552.6325 269.2736,552.6325 L269.2736,552.6325 Z" id="Fill-193" fill="#2E2E2E"></path>
                    <path d="M258.022,561.8629 L222.138,541.1449 C221.967,541.0469 221.989,540.8749 222.186,540.7609 L228.373,537.1889 C228.569,537.0759 228.867,537.0629 229.037,537.1619 L264.92,557.8799 C265.091,557.9769 265.07,558.1489 264.873,558.2629 L258.686,561.8349 C258.49,561.9489 258.192,561.9609 258.022,561.8629" id="Fill-195" fill="#FFFFFF"></path>
                    <path d="M223.1587,537.3326 L258.3057,557.6246 L263.8947,554.4226 L228.7047,534.1046 L223.1587,537.3326 Z M258.3117,558.9626 C258.0887,558.9626 257.8687,558.9106 257.6877,558.8056 L221.8047,538.0886 C221.5227,537.9256 221.3567,537.6466 221.3567,537.3436 C221.3577,537.0256 221.5427,536.7296 221.8517,536.5506 L228.0397,532.9796 C228.4477,532.7466 228.9937,532.7366 229.3697,532.9516 L265.2537,553.6696 C265.5357,553.8326 265.7027,554.1116 265.7027,554.4146 C265.7007,554.7336 265.5147,555.0286 265.2027,555.2066 L259.0177,558.7776 C258.8057,558.8996 258.5567,558.9626 258.3117,558.9626 L258.3117,558.9626 Z" id="Fill-197" fill="#2E2E2E"></path>
                    <path d="M241.3647,567.2818 C241.4237,567.3038 241.5987,567.2968 241.6937,567.2428 L247.0627,564.1428 L167.1627,518.0118 C167.1067,517.9908 166.9307,517.9968 166.8347,518.0528 L161.4677,521.1518 L241.3647,567.2818 Z" id="Stroke-199" stroke="#2E2E2E" stroke-width="0.5" stroke-linecap="round" stroke-linejoin="round"></path>
                    <path d="M230.4009,573.609 C230.4619,573.634 230.6369,573.628 230.7349,573.572 L236.1009,570.473 L156.2009,524.34 C156.1449,524.32 155.9689,524.325 155.8729,524.382 L150.5049,527.481 L230.4009,573.609 Z" id="Stroke-201" stroke="#2E2E2E" stroke-width="0.5" stroke-linecap="round" stroke-linejoin="round"></path>
                    <path d="M219.439,579.9381 C219.5,579.9621 219.674,579.9571 219.772,579.9001 L225.139,576.8011 L145.239,530.6691 C145.183,530.6501 145.007,530.6551 144.913,530.7111 L139.543,533.8111 L219.439,579.9381 Z" id="Stroke-203" stroke="#2E2E2E" stroke-width="0.5" stroke-linecap="round" stroke-linejoin="round"></path>
                    <polygon id="Stroke-205" stroke="#2E2E2E" stroke-width="0.5" stroke-linecap="round" stroke-linejoin="round" points="128.5806 540.1383 167.2486 562.4653 172.8466 559.2683 134.1396 536.9193"></polygon>
                    <polygon id="Stroke-207" stroke="#2E2E2E" stroke-width="0.5" stroke-linecap="round" stroke-linejoin="round" points="117.6177 546.4684 156.2887 568.7944 161.8847 565.5964 123.1767 543.2474"></polygon>
                    <polygon id="Stroke-209" stroke="#2E2E2E" stroke-width="0.5" stroke-linecap="round" stroke-linejoin="round" points="178.311 581.5103 197.648 592.6733 203.216 589.4593 183.879 578.2953"></polygon>
                    <path d="M236.2534,502.2486 C241.1704,505.0876 241.1964,509.6976 236.3114,512.5366 C231.4164,515.3816 223.4664,515.3766 218.5494,512.5366 C213.6224,509.6926 213.5974,505.0936 218.4914,502.2486 C223.3764,499.4096 231.3264,499.4036 236.2534,502.2486" id="Fill-211" fill="#FFFFFF"></path>
                    <path d="M236.2534,502.2486 C241.1704,505.0876 241.1964,509.6976 236.3114,512.5366 C231.4164,515.3816 223.4664,515.3766 218.5494,512.5366 C213.6224,509.6926 213.5974,505.0936 218.4914,502.2486 C223.3764,499.4096 231.3264,499.4036 236.2534,502.2486 Z" id="Stroke-213" stroke="#2E2E2E" stroke-width="0.5" stroke-linecap="round" stroke-linejoin="round"></path>
                    <g id="Group-218" transform="translate(181.000000, 507.317000)">
                        <path d="M0.7124,6.1504 L6.9654,2.6254 C11.8594,-0.2186 19.8094,-0.2136 24.7444,2.6254 L42.0704,12.6294 C46.9884,15.4774 47.0144,20.0774 42.1194,22.9214 L35.3474,26.2184" id="Fill-215" fill="#FFFFFF"></path>
                        <path d="M0.7124,6.1504 L6.9654,2.6254 C11.8594,-0.2186 19.8094,-0.2136 24.7444,2.6254 L42.0704,12.6294 C46.9884,15.4774 47.0144,20.0774 42.1194,22.9214 L35.3474,26.2184" id="Stroke-217" stroke="#2E2E2E" stroke-width="0.5" stroke-linecap="round" stroke-linejoin="round"></path>
                    </g>
                    <path d="M312.8589,545.8707 L313.0179,534.8907 L308.2079,534.8207 C308.1659,534.7677 308.1179,534.7167 308.0759,534.6637 L304.0559,546.1637 L302.4209,546.1407 L298.3029,551.6917 L280.2869,558.8167 L255.1729,561.2167 L236.9059,558.1877 L220.0439,543.9397 C220.1259,543.4717 220.2419,543.0057 220.3729,542.5397 L215.4029,533.2647 C215.3429,533.3337 215.2779,533.4017 215.2189,533.4717 L210.3269,533.3997 L210.1459,545.8287 C210.1419,545.9807 210.1399,546.1327 210.1399,546.2837 L210.1309,546.8537 L210.2039,547.7747 C210.8019,554.7977 215.6819,561.7657 224.8819,567.2567 C244.7859,579.1367 277.3279,579.6087 297.5669,568.3117 C306.9229,563.0907 312.0029,556.2667 312.8039,549.2657 L312.8099,549.2657 L312.8729,549.0397 C312.9479,547.5317 312.9519,546.9887 312.8589,545.8707" id="Fill-219" fill="#FFFFFF"></path>
                    <path d="M312.8589,545.8707 L313.0179,534.8907 L308.2079,534.8207 C308.1659,534.7677 308.1179,534.7167 308.0759,534.6637 L304.0559,546.1637 L302.4209,546.1407 L298.3029,551.6917 L280.2869,558.8167 L255.1729,561.2167 L236.9059,558.1877 L220.0439,543.9397 C220.1259,543.4717 220.2419,543.0057 220.3729,542.5397 L215.4029,533.2647 C215.3429,533.3337 215.2779,533.4017 215.2189,533.4717 L210.3269,533.3997 L210.1459,545.8287 C210.1419,545.9807 210.1399,546.1327 210.1399,546.2837 L210.1309,546.8537 L210.2039,547.7747 C210.8019,554.7977 215.6819,561.7657 224.8819,567.2567 C244.7859,579.1367 277.3279,579.6087 297.5669,568.3117 C306.9229,563.0907 312.0029,556.2667 312.8039,549.2657 L312.8099,549.2657 L312.8729,549.0397 C312.9479,547.5317 312.9519,546.9887 312.8589,545.8707 Z" id="Stroke-221" stroke="#2E2E2E" stroke-width="0.5"></path>
                    <path d="M214.2056,534.772 C216.1406,537.45 218.3536,540.501 220.2296,543.085 C221.4476,538.015 225.4656,533.157 232.2886,529.349 C248.7116,520.182 275.1166,520.565 291.2676,530.205 C297.9076,534.168 301.7726,539.08 302.8906,544.127 L308.5076,535.222 C307.9656,534.511 307.3766,533.809 306.7336,533.118 C307.9576,533.664 308.8056,534.053 309.1356,534.226 L309.1446,534.21 C307.5106,532.602 294.4756,513.819 294.4756,513.819 L264.7266,506.421 L237.0096,510.023 L218.8836,524.664 L217.6046,530.418 L215.5946,531.098 C213.9486,532.546 215.3596,533.209 214.2056,534.772" id="Fill-223" fill="#2E2E2E"></path>
                    <path d="M260.8159,521.3736 C272.1069,521.3736 283.4489,523.9376 291.9699,529.0256 C297.5539,532.3566 301.4149,536.4196 303.2979,540.9036 L306.8269,535.3116 C306.4809,534.8886 306.1129,534.4686 305.7269,534.0546 L301.1279,529.1166 L304.7449,530.7276 C300.9159,525.4756 295.2219,517.2996 293.6419,515.0276 L264.6479,507.8166 L237.5699,511.3356 L220.1209,525.4326 L218.7769,531.4706 L216.3109,532.3066 C216.0859,532.5326 216.0859,532.6406 216.0909,533.0116 C216.0989,533.4286 216.1069,533.9966 215.8309,534.6756 C217.1049,536.4376 218.4739,538.3266 219.7689,540.1136 C221.7169,535.5136 225.7639,531.4176 231.6209,528.1496 C239.7289,523.6216 250.2509,521.3736 260.8159,521.3736 L260.8159,521.3736 Z M302.2709,547.6866 L301.5489,544.4236 C300.4669,539.5376 296.6709,535.0296 290.5639,531.3846 C274.8109,521.9836 248.9699,521.6096 232.9599,530.5486 C226.6869,534.0486 222.7479,538.4946 221.5669,543.4046 L220.8729,546.3006 L219.1209,543.8926 C217.2419,541.3086 215.0259,538.2566 213.0909,535.5766 L212.5029,534.7626 L213.0989,533.9546 C213.3509,533.6126 213.3509,533.4616 213.3429,533.0526 C213.3299,532.1516 213.4239,531.1796 214.6879,530.0666 L215.1539,529.7976 L216.4319,529.3636 L217.6469,523.8966 L236.4479,508.7116 L264.8079,505.0256 L295.3109,512.6106 L295.6059,513.0356 C300.6149,520.2576 308.9839,532.1266 310.1079,533.2316 L310.9509,534.0616 L310.1699,535.1366 L310.1779,535.1456 L302.2709,547.6866 Z" id="Fill-225" fill="#2E2E2E"></path>
                    <path d="M289.9106,524.8707 C305.3406,534.0347 305.0976,548.5797 289.3686,557.3587 C273.6396,566.1377 248.3826,565.8257 232.9536,556.6627 C217.5246,547.4987 217.7666,532.9537 233.4966,524.1757 C249.2236,515.3957 274.4816,515.7077 289.9106,524.8707" id="Fill-227" fill="#FFFFFF"></path>
                    <path d="M313.2524,534.317 L308.4874,534.248 L307.8894,533.448 L303.6464,545.579 L302.1344,545.556 L297.9364,551.214 L280.1514,558.251 L261.3284,560.047 L261.3284,576.469 C261.6884,576.474 262.0464,576.501 262.4044,576.501 C275.2314,576.501 288.1934,573.92 297.8484,568.818 C307.0974,563.931 312.4914,556.827 313.3724,549.399 L313.4514,549.069 C313.5234,547.571 313.5084,547.096 313.4384,545.85 L313.2524,534.317 Z" id="Fill-229" fill="#2E2E2E"></path>
                    <path d="M290.9585,551.3326 C274.5355,560.4996 248.1305,560.1156 231.9805,550.4776 C215.8305,540.8376 216.0525,525.5926 232.4755,516.4256 C248.8975,507.2586 275.3035,507.6426 291.4535,517.2816 C307.6035,526.9206 307.3825,542.1666 290.9585,551.3326 M225.6795,512.3696 C205.4395,523.6656 205.1675,542.4536 225.0695,554.3336 C244.9735,566.2136 277.5155,566.6856 297.7545,555.3886 C317.9935,544.0926 318.2665,525.3046 298.3635,513.4246 C278.4605,501.5456 245.9195,501.0726 225.6795,512.3696" id="Fill-231" fill="#FFFFFF"></path>
                    <path d="M290.9585,551.3326 C274.5355,560.4996 248.1305,560.1156 231.9805,550.4776 C215.8305,540.8376 216.0525,525.5926 232.4755,516.4256 C248.8975,507.2586 275.3035,507.6426 291.4535,517.2816 C307.6035,526.9206 307.3825,542.1666 290.9585,551.3326 Z M225.6795,512.3696 C205.4395,523.6656 205.1675,542.4536 225.0695,554.3336 C244.9735,566.2136 277.5155,566.6856 297.7545,555.3886 C317.9935,544.0926 318.2665,525.3046 298.3635,513.4246 C278.4605,501.5456 245.9195,501.0726 225.6795,512.3696 Z" id="Stroke-233" stroke="#2E2E2E" stroke-width="0.5"></path>
                    <path d="M305.2007,575.0562 L313.0157,561.6032 L303.9777,555.7352 C303.9277,555.7012 303.8777,555.6652 303.8247,555.6352 C302.8407,555.0732 301.4817,555.1432 299.9717,555.9862 C296.9057,557.6982 294.3797,561.9302 294.3277,565.4412 C294.3047,566.9922 294.7707,568.1412 295.5607,568.7942 L295.5617,568.7942 C295.7037,568.9122 295.8597,569.0092 296.0217,569.0942 L305.2007,575.0562 Z" id="Fill-235" fill="#FFFFFF"></path>
                    <path d="M305.2007,575.0562 L313.0157,561.6032 L303.9777,555.7352 C303.9277,555.7012 303.8777,555.6652 303.8247,555.6352 C302.8407,555.0732 301.4817,555.1432 299.9717,555.9862 C296.9057,557.6982 294.3797,561.9302 294.3277,565.4412 C294.3047,566.9922 294.7707,568.1412 295.5607,568.7942 L295.5617,568.7942 C295.7037,568.9122 295.8597,569.0092 296.0217,569.0942 L305.2007,575.0562 Z" id="Stroke-237" stroke="#2E2E2E" stroke-width="0.5"></path>
                    <path d="M313.0161,561.6041 C312.0371,561.0861 310.7121,561.1701 309.2401,561.9931 C306.1731,563.7041 303.6461,567.9371 303.5951,571.4481 C303.5701,573.2281 304.1871,574.4781 305.2011,575.0561 L347.7801,603.6471 L359.8591,586.5031 L313.0161,561.6041 Z" id="Fill-239" fill="#FFFFFF"></path>
                    <path d="M313.0161,561.6041 C312.0371,561.0861 310.7121,561.1701 309.2401,561.9931 C306.1731,563.7041 303.6461,567.9371 303.5951,571.4481 C303.5701,573.2281 304.1871,574.4781 305.2011,575.0561 L347.7801,603.6471 L359.8591,586.5031 L313.0161,561.6041 Z" id="Stroke-241" stroke="#2E2E2E" stroke-width="0.5"></path>
                    <path d="M360.606,586.2809 C358.818,585.2089 356.529,585.3419 354.179,586.6589 C349.903,589.0429 346.502,594.7409 346.429,599.6339 C346.39,602.3299 347.356,604.4029 349.15,605.4759 C349.953,605.9539 350.853,606.1909 351.812,606.1909 C353.001,606.1909 354.28,605.8259 355.584,605.0969 C359.856,602.7159 363.257,597.0159 363.33,592.1219 C363.369,589.4259 362.403,587.3509 360.606,586.2809" id="Fill-243" fill="#2E2E2E"></path>
                    <path d="M65.6372,421.1754 C52.0762,421.1754 38.5922,423.9884 28.4192,429.6634 C19.3812,434.7084 14.3542,441.0944 14.2642,447.6454 C14.1682,454.1984 19.0052,460.7254 27.8922,466.0284 C48.5952,478.3904 83.8562,478.8904 104.8932,467.1504 C113.9302,462.1044 118.9582,455.7174 119.0542,449.1674 C119.1502,442.6134 114.3062,436.0834 105.4192,430.7804 L105.4192,430.7774 C94.7262,424.3944 80.1402,421.1754 65.6372,421.1754 L65.6372,421.1754 Z M0.2562,434.1354 C2.0072,424.1084 9.6972,424.0694 21.5922,417.4304 C47.3222,403.0594 87.2962,403.6374 112.6032,418.7504 L112.6032,418.7474 C125.9712,426.7274 133.2372,437.6024 133.0662,449.3684 C132.8952,461.1394 125.3142,471.7984 111.7202,479.3824 C99.2762,486.3334 83.4852,489.7804 67.6482,489.7804 C50.7422,489.7804 33.7762,485.8584 20.7082,478.0624 C7.3482,470.0854 0.0812,459.2104 0.2532,447.4434 L0.2562,434.1354 Z" id="Fill-245" fill="#FFFFFF"></path>
                    <path d="M65.6372,421.1754 C52.0762,421.1754 38.5922,423.9884 28.4192,429.6634 C19.3812,434.7084 14.3542,441.0944 14.2642,447.6454 C14.1682,454.1984 19.0052,460.7254 27.8922,466.0284 C48.5952,478.3904 83.8562,478.8904 104.8932,467.1504 C113.9302,462.1044 118.9582,455.7174 119.0542,449.1674 C119.1502,442.6134 114.3062,436.0834 105.4192,430.7804 L105.4192,430.7774 C94.7262,424.3944 80.1402,421.1754 65.6372,421.1754 Z M0.2562,434.1354 C2.0072,424.1084 9.6972,424.0694 21.5922,417.4304 C47.3222,403.0594 87.2962,403.6374 112.6032,418.7504 L112.6032,418.7474 C125.9712,426.7274 133.2372,437.6024 133.0662,449.3684 C132.8952,461.1394 125.3142,471.7984 111.7202,479.3824 C99.2762,486.3334 83.4852,489.7804 67.6482,489.7804 C50.7422,489.7804 33.7762,485.8584 20.7082,478.0624 C7.3482,470.0854 0.0812,459.2104 0.2532,447.4434 L0.2562,434.1354 Z" id="Stroke-247" stroke="#2E2E2E" stroke-width="0.5"></path>
                    <polygon id="Fill-249" fill="#2E2E2E" points="98.5063 466.6705 67.4903 465.6475 67.4903 489.3295 76.5163 489.4175 93.7353 486.4995 106.8833 481.8325 115.8993 476.8275 122.9763 471.1215 128.8023 463.8525 131.3553 458.5475 133.0663 449.3685 133.5213 436.5535"></polygon>
                    <path d="M112.603,418.7476 L112.603,418.7506 C87.296,403.6376 47.322,403.0596 21.592,417.4306 C11.016,423.3326 4.105,431.0986 1.467,439.7936 L16.82,439.7936 C19.166,436.1116 23.07,432.6486 28.419,429.6636 C38.592,423.9876 52.077,421.1756 65.636,421.1756 C80.14,421.1756 94.726,424.3946 105.419,430.7776 L105.419,430.7806 C114.306,436.0826 119.15,442.6136 119.054,449.1676 C118.958,455.7176 113.93,462.1046 104.893,467.1496 C94.14,473.1506 79.672,475.9336 65.331,475.5886 L65.331,489.7136 C66.104,489.7296 66.874,489.7806 67.648,489.7806 C83.485,489.7806 99.276,486.3336 111.72,479.3826 C125.314,471.7986 132.895,461.1396 133.066,449.3686 C133.237,437.6016 125.971,426.7276 112.603,418.7476" id="Fill-251" fill="#2E2E2E"></path>
                    <path d="M112.603,418.7476 L112.603,418.7506 C87.296,403.6376 47.322,403.0596 21.592,417.4306 C11.016,423.3326 4.105,431.0986 1.467,439.7936 L16.82,439.7936 C19.166,436.1116 23.07,432.6486 28.419,429.6636 C38.592,423.9876 52.077,421.1756 65.636,421.1756 C80.14,421.1756 94.726,424.3946 105.419,430.7776 L105.419,430.7806 C114.306,436.0826 119.15,442.6136 119.054,449.1676 C118.958,455.7176 113.93,462.1046 104.893,467.1496 C94.14,473.1506 79.672,475.9336 65.331,475.5886 L65.331,489.7136 C66.104,489.7296 66.874,489.7806 67.648,489.7806 C83.485,489.7806 99.276,486.3336 111.72,479.3826 C125.314,471.7986 132.895,461.1396 133.066,449.3686 C133.237,437.6016 125.971,426.7276 112.603,418.7476 Z" id="Stroke-253" stroke="#2E2E2E" stroke-width="0.5"></path>
                    <path d="M65.7427,409.7218 C53.5857,409.7218 41.4957,412.2428 32.3757,417.3298 C24.2727,421.8538 19.7647,427.5788 19.6847,433.4528 C19.5987,439.3278 23.9357,445.1798 31.9037,449.9328 C50.4647,461.0168 82.0767,461.4648 100.9367,450.9398 C109.0397,446.4158 113.5487,440.6898 113.6337,434.8178 C113.7197,428.9408 109.3767,423.0868 101.4097,418.3338 L101.4097,418.3298 C91.8227,412.6068 78.7457,409.7218 65.7427,409.7218 M67.6477,475.5098 C50.7427,475.5098 33.7757,471.5868 20.7087,463.7908 C7.3477,455.8128 0.0817,444.9398 0.2537,433.1718 C0.4247,421.4048 7.9977,410.7458 21.5927,403.1588 C47.3217,388.7878 87.2967,389.3668 112.6027,404.4788 L112.6027,404.4758 C125.9717,412.4558 133.2367,423.3298 133.0657,435.0968 C132.8947,446.8688 125.3137,457.5268 111.7207,465.1108 C99.2757,472.0618 83.4847,475.5098 67.6477,475.5098" id="Fill-255" fill="#FFFFFF"></path>
                    <path d="M65.7427,409.7218 C53.5857,409.7218 41.4957,412.2428 32.3757,417.3298 C24.2727,421.8538 19.7647,427.5788 19.6847,433.4528 C19.5987,439.3278 23.9357,445.1798 31.9037,449.9328 C50.4647,461.0168 82.0767,461.4648 100.9367,450.9398 C109.0397,446.4158 113.5487,440.6898 113.6337,434.8178 C113.7197,428.9408 109.3767,423.0868 101.4097,418.3338 L101.4097,418.3298 C91.8227,412.6068 78.7457,409.7218 65.7427,409.7218 Z M67.6477,475.5098 C50.7427,475.5098 33.7757,471.5868 20.7087,463.7908 C7.3477,455.8128 0.0817,444.9398 0.2537,433.1718 C0.4247,421.4048 7.9977,410.7458 21.5927,403.1588 C47.3217,388.7878 87.2967,389.3668 112.6027,404.4788 L112.6027,404.4758 C125.9717,412.4558 133.2367,423.3298 133.0657,435.0968 C132.8947,446.8688 125.3137,457.5268 111.7207,465.1108 C99.2757,472.0618 83.4847,475.5098 67.6477,475.5098 Z" id="Stroke-257" stroke="#2E2E2E" stroke-width="0.5"></path>
                    <g id="Group-262" transform="translate(93.000000, 404.317000)">
                        <path d="M19.603,0.1621 L0.949,10.3821" id="Fill-259" fill="#FFFFFF"></path>
                        <path d="M19.603,0.1621 L0.949,10.3821" id="Stroke-261" stroke="#2E2E2E" stroke-width="0.5"></path>
                    </g>
                    <g id="Group-266" transform="translate(96.000000, 452.317000)">
                        <path d="M0.8267,0.2431 L19.1007,10.6681" id="Fill-263" fill="#FFFFFF"></path>
                        <path d="M0.8267,0.2431 L19.1007,10.6681" id="Stroke-265" stroke="#2E2E2E" stroke-width="0.5"></path>
                    </g>
                    <path d="M458.9663,519.9537 C453.3063,519.9537 447.6783,521.1267 443.4323,523.4957 C439.6593,525.6017 437.5613,528.2667 437.5243,531.0017 C437.4843,533.7377 439.5023,536.4617 443.2123,538.6747 C451.8533,543.8357 466.5703,544.0437 475.3523,539.1427 C479.1243,537.0377 481.2233,534.3717 481.2633,531.6377 C481.3033,528.9007 479.2803,526.1767 475.5713,523.9627 L475.5713,523.9617 C471.1093,521.2967 465.0203,519.9537 458.9663,519.9537 M459.8543,550.5827 C451.9833,550.5827 444.0833,548.7557 438.0003,545.1267 C431.7793,541.4127 428.3973,536.3497 428.4763,530.8707 C428.5563,525.3927 432.0823,520.4307 438.4113,516.8977 C450.3903,510.2077 469.0013,510.4757 480.7833,517.5127 L480.7833,517.5117 C487.0073,521.2257 490.3903,526.2897 490.3103,531.7677 C490.2313,537.2477 486.7013,542.2107 480.3723,545.7407 C474.5783,548.9767 467.2273,550.5827 459.8543,550.5827" id="Fill-267" fill="#FFFFFF"></path>
                    <path d="M458.9663,519.9537 C453.3063,519.9537 447.6783,521.1267 443.4323,523.4957 C439.6593,525.6017 437.5613,528.2667 437.5243,531.0017 C437.4843,533.7377 439.5023,536.4617 443.2123,538.6747 C451.8533,543.8357 466.5703,544.0437 475.3523,539.1427 C479.1243,537.0377 481.2233,534.3717 481.2633,531.6377 C481.3033,528.9007 479.2803,526.1767 475.5713,523.9627 L475.5713,523.9617 C471.1093,521.2967 465.0203,519.9537 458.9663,519.9537 Z M459.8543,550.5827 C451.9833,550.5827 444.0833,548.7557 438.0003,545.1267 C431.7793,541.4127 428.3973,536.3497 428.4763,530.8707 C428.5563,525.3927 432.0823,520.4307 438.4113,516.8977 C450.3903,510.2077 469.0013,510.4757 480.7833,517.5127 L480.7833,517.5117 C487.0073,521.2257 490.3903,526.2897 490.3103,531.7677 C490.2313,537.2477 486.7013,542.2107 480.3723,545.7407 C474.5783,548.9767 467.2273,550.5827 459.8543,550.5827 Z" id="Stroke-269" stroke="#2E2E2E" stroke-width="0.5"></path>
                    <g id="Group-274" transform="translate(472.000000, 517.317000)">
                        <path d="M8.7837,0.1953 L0.0977,4.9543" id="Fill-271" fill="#FFFFFF"></path>
                        <path d="M8.7837,0.1953 L0.0977,4.9543" id="Stroke-273" stroke="#2E2E2E" stroke-width="0.5"></path>
                    </g>
                    <g id="Group-278" transform="translate(481.000000, 530.317000)">
                        <path d="M0.1938,0.2724 L9.2708,0.2724" id="Fill-275" fill="#FFFFFF"></path>
                        <path d="M0.1938,0.2724 L9.2708,0.2724" id="Stroke-277" stroke="#2E2E2E" stroke-width="0.5"></path>
                    </g>
                    <path d="M439.7603,535.984 L430.7183,538.415" id="Stroke-279" stroke="#2E2E2E" stroke-width="0.5"></path>
                </g>
            </g>
        </g>
    </g>
</svg>