<?xml version="1.0" encoding="UTF-8"?>
<svg width="130px" height="130px" viewBox="0 0 130 130" version="1.1" xmlns="http://www.w3.org/2000/svg" xmlns:xlink="http://www.w3.org/1999/xlink">
    <!-- Generator: Sketch 52 (66869) - http://www.bohemiancoding.com/sketch -->
    <title>Desktop HD Copy</title>
    <desc>Created with Sketch.</desc>
    <g id="Page-1" stroke="none" stroke-width="1" fill="none" fill-rule="evenodd">
        <g id="Desktop-HD-Copy" transform="translate(-806.000000, -1672.000000)">
            <g id="cosa-offriamo" transform="translate(-356.000000, 1441.000000)">
                <g id="elenco-servizi" transform="translate(1088.000000, 199.000000)">
                    <g id="card">
                        <g id="Group-25" transform="translate(91.000000, 41.000000)">
                            <path d="M92.7026829,42.0792559 L21.6429268,1.20363226 C19.9173171,0.210933333 18.3490244,0.0712021505 17.1636585,0.630126882 C16.9953659,0.707890323 16.8343902,0.800234409 16.6831707,0.908374194 L2.88804878,8.93137419 C2.59414634,9.10148172 2.6197561,9.53161075 2.93073171,9.66648172 L9.79170732,12.6542989 L14.9526829,19.7332022 L14.9526829,50.1557183 C14.9526829,54.4290624 17.9478049,59.618557 21.6429268,61.743686 L34.7758537,69.2976753 C36.2160976,70.1251269 37.3929268,72.1579118 37.3929268,73.8140301 L37.3929268,82.8479548 C37.3929268,84.8916753 39.5246341,87.1492452 40.7819512,86.4384387 L50.5978049,80.8965785 C52.0014634,80.1043634 53.8941463,80.2951269 55.8660976,81.4299871 L62.8490244,85.4457398 L82.1234146,111.89017 L97.762439,102.84774 L97.8831707,102.74932 C98.8978049,101.976546 99.3929268,100.664288 99.3929268,98.7299226 L99.3929268,53.6672237 C99.3929268,49.3938796 96.3978049,44.2056 92.7026829,42.0792559" id="Fill-1" fill="#FFFFFF"></path>
                            <path d="M92.7026829,42.0792559 L21.6429268,1.20363226 C19.9173171,0.210933333 18.3490244,0.0712021505 17.1636585,0.630126882 C16.9953659,0.707890323 16.8343902,0.800234409 16.6831707,0.908374194 L2.88804878,8.93137419 C2.59414634,9.10148172 2.6197561,9.53161075 2.93073171,9.66648172 L9.79170732,12.6542989 L14.9526829,19.7332022 L14.9526829,50.1557183 C14.9526829,54.4290624 17.9478049,59.618557 21.6429268,61.743686 L34.7758537,69.2976753 C36.2160976,70.1251269 37.3929268,72.1579118 37.3929268,73.8140301 L37.3929268,82.8479548 C37.3929268,84.8916753 39.5246341,87.1492452 40.7819512,86.4384387 L50.5978049,80.8965785 C52.0014634,80.1043634 53.8941463,80.2951269 55.8660976,81.4299871 L62.8490244,85.4457398 L82.1234146,111.89017 L97.762439,102.84774 L97.8831707,102.74932 C98.8978049,101.976546 99.3929268,100.664288 99.3929268,98.7299226 L99.3929268,53.6672237 C99.3929268,49.3938796 96.3978049,44.2056 92.7026829,42.0792559 Z" id="Stroke-3" stroke="#2E2E2E" stroke-width="0.5"></path>
                            <path d="M83.8492683,61.7752774 C81.0004878,62.9028473 61.1907317,66.4994065 35.5260976,70.0291376 C36.6004878,71.0218366 37.3931707,72.6184172 37.3931707,73.9719871 L37.3931707,83.0071269 C37.3931707,85.0496323 39.5236585,87.3072022 40.7821951,86.5963957 L50.5968293,81.0545355 C52.0017073,80.2623204 53.8943902,80.4530839 55.8663415,81.5879441 L62.8480488,85.6036968 L82.1236585,112.049342 L97.7626829,103.006912 L97.8834146,102.907277 C98.8980488,102.134503 99.3931707,100.82346 99.3931707,98.8878796 L99.3931707,53.8251806 C99.3931707,53.4959011 99.3712195,53.1593312 99.3358537,52.8215462 L83.8492683,61.7752774 Z" id="Fill-5" fill="#2E2E2E"></path>
                            <path d="M6.99621951,9.73914194 L78.0559756,50.6159806 C81.7510976,52.7411097 84.7462195,57.9281742 84.7462195,62.2027333 L84.7462195,107.265432 C84.7462195,111.538776 81.7510976,113.281163 78.0559756,111.154819 L41.2181707,89.9642817 C39.2462195,88.8306366 37.3547561,88.6398731 35.949878,89.4320882 L26.1340244,94.9727333 C24.8754878,95.6835398 22.745,93.4271849 22.745,91.3834645 L22.745,82.3653355 C22.745,80.6934215 21.5730488,78.6654968 20.1291463,77.8331849 L6.99621951,70.2791957 C3.30109756,68.1528516 0.304756098,62.9657871 0.304756098,58.691228 L0.304756098,13.628529 C0.304756098,9.35518495 3.30109756,7.6140129 6.99621951,9.73914194" id="Fill-7" fill="#F44336"></path>
                            <path d="M6.99621951,9.73914194 L78.0559756,50.6159806 C81.7510976,52.7411097 84.7462195,57.9281742 84.7462195,62.2027333 L84.7462195,107.265432 C84.7462195,111.538776 81.7510976,113.281163 78.0559756,111.154819 L41.2181707,89.9642817 C39.2462195,88.8306366 37.3547561,88.6398731 35.949878,89.4320882 L26.1340244,94.9727333 C24.8754878,95.6835398 22.745,93.4271849 22.745,91.3834645 L22.745,82.3653355 C22.745,80.6934215 21.5730488,78.6654968 20.1291463,77.8331849 L6.99621951,70.2791957 C3.30109756,68.1528516 0.304756098,62.9657871 0.304756098,58.691228 L0.304756098,13.628529 C0.304756098,9.35518495 3.30109756,7.6140129 6.99621951,9.73914194 Z" id="Stroke-9" stroke="#2E2E2E" stroke-width="0.5"></path>
                            <path d="M65.4231707,58.9346032 C65.4231707,57.0439796 64.2707317,54.8495925 62.8487805,54.0318613 L24.147561,31.7696462 C23.4670732,31.3771839 22.852439,31.3820441 22.3914634,31.6906677 L22.3902439,31.6894527 L22.3743902,31.6991731 C22.3573171,31.7125387 22.3365854,31.719829 22.3182927,31.7319796 L17.1390244,34.8218613 C17.1109756,34.8400871 17.1036585,34.8777538 17.1243902,34.9044849 L21.5719512,40.8011409 L21.5719512,59.8240226 C21.5719512,61.7146462 22.7256098,63.9102484 24.147561,64.7279796 L51.4817073,80.4507753 L58.6621951,89.9695065 C58.8487805,90.2185925 59.1963415,90.2854204 59.4621951,90.1250333 L64.7609756,86.9403774 C65.1682927,86.569786 65.4231707,85.9258075 65.4231707,85.0497538 L65.4231707,58.9346032 Z" id="Fill-11" fill="#FFFFFF"></path>
                            <path d="M65.4231707,58.9346032 C65.4231707,57.0439796 64.2707317,54.8495925 62.8487805,54.0318613 L24.147561,31.7696462 C23.4670732,31.3771839 22.852439,31.3820441 22.3914634,31.6906677 L22.3902439,31.6894527 L22.3743902,31.6991731 C22.3573171,31.7125387 22.3365854,31.719829 22.3182927,31.7319796 L17.1390244,34.8218613 C17.1109756,34.8400871 17.1036585,34.8777538 17.1243902,34.9044849 L21.5719512,40.8011409 L21.5719512,59.8240226 C21.5719512,61.7146462 22.7256098,63.9102484 24.147561,64.7279796 L51.4817073,80.4507753 L58.6621951,89.9695065 C58.8487805,90.2185925 59.1963415,90.2854204 59.4621951,90.1250333 L64.7609756,86.9403774 C65.1682927,86.569786 65.4231707,85.9258075 65.4231707,85.0497538 L65.4231707,58.9346032 Z" id="Stroke-13" stroke="#2E2E2E" stroke-width="0.5"></path>
                            <path d="M60.1581707,61.6921677 C59.889878,61.8525548 59.5447561,61.7857269 59.3569512,61.5366409 L21.6179268,57.1612323 L21.6179268,59.6715333 C21.6179268,61.5609419 22.7715854,63.755329 24.1935366,64.5742753 L51.5276829,80.298286 L58.7081707,89.8158022 C58.8959756,90.0661032 59.2410976,90.1317161 59.5093902,89.970114 L64.8069512,86.7866731 C65.2142683,86.4160817 65.4691463,85.7721032 65.4691463,84.8960495 L65.4691463,58.7808989 C65.4691463,58.6922 65.4545122,58.601071 65.4496341,58.511157 L60.1581707,61.6921677 Z" id="Fill-15" fill="#2E2E2E"></path>
                            <path d="M57.3082927,90.2839624 L18.6082927,68.0217473 C17.1863415,67.2040161 16.0314634,65.008414 16.0314634,63.1190054 L16.0314634,37.0026398 C16.0314634,35.1144462 17.1863415,34.2456828 18.6082927,35.063414 L57.3082927,57.325629 C58.7302439,58.1445753 59.8839024,60.3377473 59.8839024,62.228371 L59.8839024,88.3435215 C59.8839024,90.2329301 58.7302439,91.1016935 57.3082927,90.2839624" id="Fill-17" fill="#FFFFFF"></path>
                            <path d="M57.3082927,90.2839624 L18.6082927,68.0217473 C17.1863415,67.2040161 16.0314634,65.008414 16.0314634,63.1190054 L16.0314634,37.0026398 C16.0314634,35.1144462 17.1863415,34.2456828 18.6082927,35.063414 L57.3082927,57.325629 C58.7302439,58.1445753 59.8839024,60.3377473 59.8839024,62.228371 L59.8839024,88.3435215 C59.8839024,90.2329301 58.7302439,91.1016935 57.3082927,90.2839624 Z" id="Stroke-19" stroke="#2E2E2E" stroke-width="0.5"></path>
                            <path d="M36.2990244,60.5423624 C37.31,61.8412548 38.5917073,62.5520613 39.5795122,62.3625129 L58.6953659,58.6966957 C58.4209756,58.162072 57.705122,57.5533301 57.1160976,57.2155452 L18.7990244,35.1744699 C17.8795122,34.6447065 16.6721951,35.0371688 16.5185366,35.2874699 L36.2990244,60.5423624 Z" id="Fill-21" fill="#FFFFFF"></path>
                            <path d="M36.2990244,60.5423624 C37.31,61.8412548 38.5917073,62.5520613 39.5795122,62.3625129 L58.6953659,58.6966957 C58.4209756,58.162072 57.705122,57.5533301 57.1160976,57.2155452 L18.7990244,35.1744699 C17.8795122,34.6447065 16.6721951,35.0371688 16.5185366,35.2874699 L36.2990244,60.5423624 Z" id="Stroke-23" stroke="#2E2E2E" stroke-width="0.5"></path>
                        </g>
                    </g>
                </g>
            </g>
        </g>
    </g>
</svg>