<?xml version="1.0" encoding="UTF-8"?>
<svg width="220px" height="258px" viewBox="0 0 220 258" version="1.1" xmlns="http://www.w3.org/2000/svg" xmlns:xlink="http://www.w3.org/1999/xlink">
    <!-- Generator: Sketch 52 (66869) - http://www.bohemiancoding.com/sketch -->
    <title>grafici</title>
    <desc>Created with Sketch.</desc>
    <g id="Page-1" stroke="none" stroke-width="1" fill="none" fill-rule="evenodd">
        <g id="Desktop-HD-Copy" transform="translate(-13.000000, -1158.000000)">
            <g id="chi-siamo" transform="translate(0.000000, 850.000000)">
                <g id="grafici" transform="translate(13.000000, 308.000000)">
                    <polygon id="Fill-1" fill="#2E2E2E" points="219 204 153.5 242 88 204 153.5 166"></polygon>
                    <polygon id="Stroke-2" stroke="#FFFFFF" stroke-width="0.5" stroke-linecap="round" stroke-linejoin="round" points="219 204 153.5 242 88 204 153.5 166"></polygon>
                    <polygon id="Fill-3" fill="#2E2E2E" points="88 219.310101 154 257 154 241.689899 88 204"></polygon>
                    <polygon id="Stroke-4" stroke="#FFFFFF" stroke-width="0.5" stroke-linecap="round" stroke-linejoin="round" points="88 204 88 219.310101 154 257 154 241.689899"></polygon>
                    <polygon id="Fill-6" fill="#FFFFFF" points="154 241.689899 154 257 220 219.310101 220 204"></polygon>
                    <polygon id="Stroke-7" stroke="#FFFFFF" stroke-width="0.5" stroke-linecap="round" stroke-linejoin="round" points="219.546713 204.149112 219.546713 219.547641 153.836416 257.455229 153.836416 242.0567"></polygon>
                    <path d="M153.836416,166.241524 L112.43503,190.126112 C101.225921,196.592406 91.8486931,189.536288 91.8486931,189.536288 C90.6397822,201.6157 103.192851,211.906053 108.442356,215.651759 C109.03701,216.126229 109.664337,216.574582 110.352653,216.972876 L153.836416,242.0567 L219.546713,204.149112 L153.836416,166.241524 Z" id="Fill-9" fill="#2E2E2E"></path>
                    <path d="M153.836416,166.241524 L112.43503,190.126112 C101.225921,196.592406 91.8486931,189.536288 91.8486931,189.536288 C90.6397822,201.6157 103.192851,211.906053 108.442356,215.651759 C109.03701,216.126229 109.664337,216.574582 110.352653,216.972876 L153.836416,242.0567 L219.546713,204.149112 L153.836416,166.241524 Z" id="Stroke-11" stroke="#FFFFFF" stroke-width="0.5" stroke-linecap="round" stroke-linejoin="round"></path>
                    <path d="M172.26196,176.5075 L181.72196,171.051088 C182.845921,170.400324 183.468891,169.595029 183.468891,168.781029 C183.468891,167.964853 182.845921,167.159559 181.72196,166.508794 C179.079782,164.987441 174.607901,164.985265 171.961366,166.508794 L157.147307,175.055794 C156.384931,175.493265 155.949287,176.043912 155.949287,176.561912 C155.947109,177.084265 156.384931,177.634912 157.147307,178.074559 C159.079386,179.184559 162.340178,179.184559 164.267901,178.074559 L177.54196,170.415559" id="Stroke-13" stroke="#FFFFFF" stroke-width="0.5" stroke-linecap="round" stroke-linejoin="round"></path>
                    <path d="M88.6728515,209.964206 L154.383149,247.007735" id="Stroke-15" stroke="#FFFFFF" stroke-width="0.5"></path>
                    <path d="M88.5983564,214.589206 L154.306475,252.327029" id="Stroke-17" stroke="#FFFFFF" stroke-width="0.5"></path>
                    <path d="M24.3982178,116.520488 C40.8481188,86.9574882 52.5538614,94.4380176 59.8291089,98.6364294 C67.1043564,102.834841 82.0534653,92.2006059 86.4011881,57.7579588 C91.1475248,20.1659588 118.142178,0.758370588 118.142178,0.758370588 L131.810495,8.99848824 L123.437426,34.5328412 L118.142178,41.9785471 L118.142178,102.954547 L33.7645545,151.631312 L28.5869307,162.032665 L14.2106931,179.033076 L0.544554455,170.795135 C0.544554455,170.795135 7.94831683,146.085665 24.3982178,116.520488" id="Fill-19" fill="#2E2E2E"></path>
                    <path d="M24.3982178,116.520488 C40.8481188,86.9574882 52.5538614,94.4380176 59.8291089,98.6364294 C67.1043564,102.834841 82.0534653,92.2006059 86.4011881,57.7579588 C91.1475248,20.1659588 118.142178,0.758370588 118.142178,0.758370588 L131.810495,8.99848824 L123.437426,34.5328412 L118.142178,41.9785471 L118.142178,102.954547 L33.7645545,151.631312 L28.5869307,162.032665 L14.2106931,179.033076 L0.544554455,170.795135 C0.544554455,170.795135 7.94831683,146.085665 24.3982178,116.520488 Z" id="Stroke-21" stroke="#FFFFFF" stroke-width="0.5" stroke-linecap="round" stroke-linejoin="round"></path>
                    <path d="M131.809624,111.192053 L131.809624,8.99805294 C131.809624,8.99805294 104.812792,28.4034647 100.068634,65.9954647 C95.7230891,100.438112 80.771802,111.070171 73.4965545,106.873935 C66.2213069,102.6777 54.5177426,95.1949941 38.0656634,124.757994 C21.6157624,154.320994 14.212,179.032641 14.212,179.032641 L131.809624,111.192053 Z" id="Fill-23" fill="#2E2E2E"></path>
                    <path d="M131.809624,111.192053 L131.809624,8.99805294 C131.809624,8.99805294 104.812792,28.4034647 100.068634,65.9954647 C95.7230891,100.438112 80.771802,111.070171 73.4965545,106.873935 C66.2213069,102.6777 54.5177426,95.1949941 38.0656634,124.757994 C21.6157624,154.320994 14.212,179.032641 14.212,179.032641 L131.809624,111.192053 Z" id="Stroke-25" stroke="#FFFFFF" stroke-width="0.5" stroke-linecap="round" stroke-linejoin="round"></path>
                    <path d="M53.0001782,146.481129 C65.8516634,123.384424 74.998,129.228247 80.6809703,132.508188 C86.3661188,135.788129 98.0457228,127.480541 101.441564,100.570659 C105.148891,71.2013647 126.240574,56.0378941 126.240574,56.0378941 L136.918198,62.4737176 L130.37701,82.4254235 L126.240574,88.2409529 L126.240574,135.881718 L60.3168119,173.913365 L56.2740396,182.038129 L45.0431485,195.318953 L34.3633465,188.883129 C34.3633465,188.883129 40.1508713,169.577835 53.0001782,146.481129" id="Fill-27" fill="#2E2E2E"></path>
                    <path d="M53.0001782,146.481129 C65.8516634,123.384424 74.998,129.228247 80.6809703,132.508188 C86.3661188,135.788129 98.0457228,127.480541 101.441564,100.570659 C105.148891,71.2013647 126.240574,56.0378941 126.240574,56.0378941 L136.918198,62.4737176 L130.37701,82.4254235 L126.240574,88.2409529 L126.240574,135.881718 L60.3168119,173.913365 L56.2740396,182.038129 L45.0431485,195.318953 L34.3633465,188.883129 C34.3633465,188.883129 40.1508713,169.577835 53.0001782,146.481129 Z" id="Stroke-29" stroke="#FFFFFF" stroke-width="0.5" stroke-linecap="round" stroke-linejoin="round"></path>
                    <path d="M136.919069,142.317324 L136.919069,62.4735 C136.919069,62.4735 115.827386,77.6369706 112.120059,107.006265 C108.724218,133.916147 97.0424356,142.223735 91.3594653,138.943794 C85.676495,135.663853 76.5301584,129.820029 63.6786733,152.916735 C50.8293663,176.013441 45.0418416,195.320912 45.0418416,195.320912 L136.919069,142.317324 Z" id="Fill-31" fill="#F44336"></path>
                    <path d="M136.919069,142.317324 L136.919069,62.4735 C136.919069,62.4735 115.827386,77.6369706 112.120059,107.006265 C108.724218,133.916147 97.0424356,142.223735 91.3594653,138.943794 C85.676495,135.663853 76.5301584,129.820029 63.6786733,152.916735 C50.8293663,176.013441 45.0418416,195.320912 45.0418416,195.320912 L136.919069,142.317324 Z" id="Stroke-33" stroke="#F44336" stroke-width="0.5" stroke-linecap="round" stroke-linejoin="round"></path>
                    <path d="M171.121663,193.001012 L164.103446,196.844659" id="Fill-39" fill="#FFFFFF"></path>
                    <g id="Group-15" transform="translate(123.000000, 187.000000)" fill="#FFFFFF" stroke="#FFFFFF" stroke-linecap="round" stroke-linejoin="round" stroke-width="0.2">
                        <polygon id="Fill-1" points="8.08112683 7.17853072 0 11.8575364 0.247870168 12 8.3286474 7.32134262 8.57476954 7.17853072 18.8755405 1.21456618 19.7730933 0.701596949 19.5252232 0.559133365"></polygon>
                        <path d="M22.1092776,1.84818132 C23.2211582,2.49802747 23.7240836,3.16491758 23.6090985,3.83071978 C23.491606,4.48963187 22.7913075,5.20221429 21.5193075,5.9506978 L17.9673075,8.04021429 C16.6680836,8.80465385 15.4301134,9.20029121 14.2902925,9.21660989 C13.1461731,9.23256593 11.9794866,8.89676374 10.819606,8.21935714 L8.62938089,6.86709766 L8.88155999,6.71877898 L11.0721433,8.07103846 C12.158591,8.70601648 13.2382328,9.02006044 14.2802627,9.00519231 C15.3240836,8.99177473 16.4821731,8.61644505 17.7136955,7.8918956 L21.2653373,5.80237912 C22.478591,5.08870879 23.147009,4.41891758 23.2530388,3.80932418 C23.3569194,3.20915934 22.8887403,2.59956593 21.8574567,1.9965 L19.3873321,0.619837835 L19.6167624,0.461751722 L22.1092776,1.84818132 Z" id="Fill-2"></path>
                        <polygon id="Fill-5" points="48.5642627 17.4067022 37.0424716 32.4438231 55.5629493 21.5476582 55.8165612 21.6963396 36.6029493 33.0001088 36.3106507 32.8822516 47.8349493 17.8436802 29.3144716 28.7398451 29.0605015 28.5915264 48.2737552 17.2877571"></polygon>
                        <polygon id="Fill-8" points="30.1123104 22.2111033 29.8601313 22.359422 29.6871164 22.2578835 24.7929075 19.3977626 24.661803 19.3208835 24.9139821 19.1725648 25.0923701 19.2770044 29.8898627 22.0809165"></polygon>
                        <polygon id="Fill-10" points="40.8410985 12.9165989 25.3621731 26.4030824 25.0652179 26.2855879 29.6868299 22.2581374 29.860203 22.3596758 30.1123821 22.2109945 29.8899343 22.0808077 40.0154269 13.257478 25.0924418 19.2772582 24.9140537 19.172456 24.6618746 19.3211374 24.7929791 19.3980165 17.9845015 22.1442692 17.7806806 21.9720165 40.5917851 12.7708187"></polygon>
                        <polygon id="Fill-12" points="28.9418269 5.98823077 9.85322985 17.2183846 15.5523343 20.5495714 15.3001552 20.6978901 9.34457313 17.2169341 28.6853493 5.83846154"></polygon>
                    </g>
                    <path d="M165.186891,211.078124 L172.061347,214.997947" id="Fill-43" fill="#FFFFFF"></path>
                </g>
            </g>
        </g>
    </g>
</svg>